G04 #@! TF.FileFunction,Copper,L1,Top,Mixed*
%FSLAX46Y46*%
G04 Gerber Fmt 4.6, Leading zero omitted, Abs format (unit mm)*
G04 Created by KiCad (PCBNEW (2015-07-04 BZR 5884)-product) date Thu 01 Oct 2015 13:02:00 CEST*
%MOMM*%
G01*
G04 APERTURE LIST*
%ADD10C,0.050000*%
%ADD11C,0.010000*%
%ADD12O,1.524000X2.540000*%
%ADD13C,1.524000*%
%ADD14R,1.300000X1.300000*%
%ADD15C,1.300000*%
%ADD16R,1.400000X1.400000*%
%ADD17C,1.400000*%
%ADD18R,3.599180X1.600200*%
%ADD19R,1.200000X0.750000*%
%ADD20R,0.750000X1.200000*%
%ADD21R,1.501140X2.499360*%
%ADD22O,1.501140X2.499360*%
%ADD23R,3.600000X3.200000*%
%ADD24R,2.032000X1.727200*%
%ADD25O,2.032000X1.727200*%
%ADD26R,1.727200X2.032000*%
%ADD27O,1.727200X2.032000*%
%ADD28R,5.400040X2.900680*%
%ADD29C,4.064000*%
%ADD30R,0.800100X0.800100*%
%ADD31R,1.200000X0.900000*%
%ADD32R,0.900000X1.200000*%
%ADD33O,2.286000X1.905000*%
%ADD34R,0.600000X1.500000*%
%ADD35R,0.797560X0.797560*%
%ADD36C,0.600000*%
%ADD37C,0.391000*%
%ADD38C,0.250000*%
%ADD39C,0.600000*%
%ADD40C,2.000000*%
%ADD41C,1.380000*%
%ADD42C,0.254000*%
G04 APERTURE END LIST*
D10*
D11*
X5080Y5080D02*
X99451160Y5080D01*
X5080Y53721000D02*
X5080Y5080D01*
X98054160Y53721000D02*
X5080Y53721000D01*
X99451160Y52324000D02*
X98054160Y53721000D01*
X99451160Y5080D02*
X99451160Y52324000D01*
D12*
X68778120Y50987960D03*
X71318120Y50987960D03*
X73858120Y50987960D03*
X76398120Y50987960D03*
X78938120Y50987960D03*
X81478120Y50987960D03*
X84018120Y50987960D03*
X86558120Y50987960D03*
X91638120Y2727960D03*
X89098120Y2727960D03*
X86558120Y2727960D03*
X84018120Y2727960D03*
X73858120Y2727960D03*
X68778120Y2727960D03*
X66238120Y2727960D03*
X76398120Y2727960D03*
X78938120Y2727960D03*
X81478120Y2727960D03*
X63698120Y2727960D03*
X61158120Y2727960D03*
X58618120Y2727960D03*
X50998120Y2727960D03*
X53538120Y2727960D03*
X56078120Y2727960D03*
X45918120Y2727960D03*
X43378120Y2727960D03*
X40838120Y2727960D03*
X35758120Y2727960D03*
X33218120Y2727960D03*
X63698120Y50987960D03*
X61158120Y50987960D03*
X58618120Y50987960D03*
X56078120Y50987960D03*
X53538120Y50987960D03*
X50998120Y50987960D03*
X48458120Y50987960D03*
X45918120Y50987960D03*
X41854120Y50987960D03*
X39314120Y50987960D03*
X36774120Y50987960D03*
X34234120Y50987960D03*
X31694120Y50987960D03*
X29154120Y50987960D03*
X26614120Y50987960D03*
X24074120Y50987960D03*
X38298120Y2727960D03*
D13*
X94178120Y48447960D03*
X96718120Y48447960D03*
X94178120Y45907960D03*
X96718120Y45907960D03*
X94178120Y43367960D03*
X96718120Y43367960D03*
X94178120Y40827960D03*
X96718120Y40827960D03*
X94178120Y50987960D03*
X96718120Y50987960D03*
X96718120Y38287960D03*
X94178120Y38287960D03*
X94178120Y35747960D03*
X96718120Y35747960D03*
X94178120Y33207960D03*
X96718120Y33207960D03*
X94178120Y30667960D03*
X96718120Y30667960D03*
X94178120Y28127960D03*
X96718120Y28127960D03*
X94178120Y25587960D03*
X96718120Y25587960D03*
X94178120Y23047960D03*
X96718120Y23047960D03*
X94178120Y20507960D03*
X96718120Y20507960D03*
X94178120Y17967960D03*
X96718120Y17967960D03*
X94178120Y15427960D03*
X96718120Y15427960D03*
X94178120Y12887960D03*
X96718120Y12887960D03*
X94178120Y10347960D03*
X96718120Y10347960D03*
X94178120Y7807960D03*
X96718120Y7807960D03*
D14*
X9469120Y29778960D03*
D15*
X14469120Y29778960D03*
D14*
X4897120Y9839960D03*
D15*
X9897120Y9839960D03*
D14*
X4135120Y39811960D03*
D15*
X9135120Y39811960D03*
D14*
X10739120Y18983960D03*
D15*
X15739120Y18983960D03*
D16*
X14549120Y36509960D03*
D17*
X14549120Y41509960D03*
D16*
X15565120Y11871960D03*
D17*
X15565120Y6871960D03*
D18*
X4559300Y48955960D03*
X10060940Y48955960D03*
D19*
X25537120Y35747960D03*
X27437120Y35747960D03*
X26426120Y18475960D03*
X28326120Y18475960D03*
D20*
X24582120Y45592960D03*
X24582120Y47492960D03*
D14*
X57906920Y47025560D03*
D15*
X57906920Y45025560D03*
D21*
X25852120Y28483560D03*
D22*
X20772120Y28483560D03*
D21*
X27122120Y10411460D03*
D22*
X22042120Y10411460D03*
D23*
X40315320Y45501560D03*
X32115320Y45501560D03*
D24*
X57602120Y28127960D03*
D25*
X57602120Y30667960D03*
X57602120Y33207960D03*
D24*
X61158120Y28127960D03*
D25*
X61158120Y30667960D03*
X61158120Y33207960D03*
D24*
X64714120Y28127960D03*
D25*
X64714120Y30667960D03*
X64714120Y33207960D03*
D24*
X68270120Y28127960D03*
D25*
X68270120Y30667960D03*
X68270120Y33207960D03*
D24*
X71826120Y28127960D03*
D25*
X71826120Y30667960D03*
X71826120Y33207960D03*
D24*
X75382120Y28127960D03*
D25*
X75382120Y30667960D03*
X75382120Y33207960D03*
D24*
X78938120Y28127960D03*
D25*
X78938120Y30667960D03*
X78938120Y33207960D03*
D24*
X82494120Y28127960D03*
D25*
X82494120Y30667960D03*
X82494120Y33207960D03*
D24*
X86050120Y28127960D03*
D25*
X86050120Y30667960D03*
X86050120Y33207960D03*
D24*
X57602120Y24571960D03*
D25*
X57602120Y22031960D03*
X57602120Y19491960D03*
D24*
X61158120Y24571960D03*
D25*
X61158120Y22031960D03*
X61158120Y19491960D03*
D24*
X64714120Y24571960D03*
D25*
X64714120Y22031960D03*
X64714120Y19491960D03*
D24*
X68270120Y24571960D03*
D25*
X68270120Y22031960D03*
X68270120Y19491960D03*
D24*
X71826120Y24571960D03*
D25*
X71826120Y22031960D03*
X71826120Y19491960D03*
D24*
X75382120Y24571960D03*
D25*
X75382120Y22031960D03*
X75382120Y19491960D03*
D24*
X78938120Y24571960D03*
D25*
X78938120Y22031960D03*
X78938120Y19491960D03*
D24*
X82494120Y24571960D03*
D25*
X82494120Y22031960D03*
X82494120Y19491960D03*
D24*
X86050120Y24571960D03*
D25*
X86050120Y22031960D03*
X86050120Y19491960D03*
D26*
X82494120Y46365160D03*
D27*
X79954120Y46365160D03*
X77414120Y46365160D03*
X74874120Y46365160D03*
X72334120Y46365160D03*
D26*
X82494120Y42478960D03*
D27*
X79954120Y42478960D03*
X77414120Y42478960D03*
X74874120Y42478960D03*
D28*
X35758120Y36177220D03*
X35758120Y26174700D03*
X36266120Y17381220D03*
X36266120Y7378700D03*
D29*
X4008120Y20888960D03*
X3881120Y26222960D03*
D30*
X63052920Y40182800D03*
X64952920Y40182800D03*
X64002920Y42181780D03*
X65948520Y45415200D03*
X67848520Y45415200D03*
X66898520Y47414180D03*
D31*
X47561320Y5623560D03*
X49761320Y5623560D03*
X52336520Y5623560D03*
X54536520Y5623560D03*
D32*
X61793120Y45991960D03*
X61793120Y43791960D03*
X63901320Y45569960D03*
X63901320Y47769960D03*
D31*
X62953720Y38033960D03*
X65153720Y38033960D03*
X67068520Y42148760D03*
X69268520Y42148760D03*
X88760120Y24825960D03*
X90960120Y24825960D03*
D32*
X89148920Y22217560D03*
X89148920Y20017560D03*
D33*
X20772120Y37271960D03*
X20772120Y34731960D03*
X23312120Y36001960D03*
X23312120Y38541960D03*
X27122120Y41081960D03*
X27122120Y33461960D03*
X21661120Y18729960D03*
X21661120Y16189960D03*
X24201120Y17459960D03*
X24201120Y19999960D03*
X28011120Y22539960D03*
X28011120Y14919960D03*
D34*
X22296120Y49369960D03*
X21026120Y49369960D03*
X19756120Y49369960D03*
X18486120Y49369960D03*
X18486120Y43969960D03*
X19756120Y43969960D03*
X21026120Y43969960D03*
X22296120Y43969960D03*
D28*
X48966120Y47353220D03*
X48966120Y37350700D03*
D35*
X92019120Y29918660D03*
X92019120Y31417260D03*
X92019120Y21282660D03*
X92019120Y22781260D03*
D24*
X89606120Y28127960D03*
D25*
X89606120Y30667960D03*
X89606120Y33207960D03*
D14*
X48585120Y30667960D03*
D15*
X48585120Y25667960D03*
D14*
X48966120Y15935960D03*
D15*
X48966120Y10935960D03*
D36*
X64968120Y43621960D03*
X67508120Y39303960D03*
D37*
X21026120Y43969960D02*
X21026120Y42161460D01*
D38*
X19304000Y4831080D02*
X18435320Y4831080D01*
X45069760Y4831080D02*
X19304000Y4831080D01*
X45918120Y3982720D02*
X45069760Y4831080D01*
X18435320Y4831080D02*
X18394680Y4871720D01*
X45918120Y2727960D02*
X45918120Y3982720D01*
X45918120Y2727960D02*
X45918120Y3980360D01*
X45918120Y3980360D02*
X47561320Y5623560D01*
X92019120Y31417260D02*
X92019120Y31175960D01*
X92019120Y31175960D02*
X91257120Y30413960D01*
X91257120Y30413960D02*
X91257120Y29778960D01*
X91257120Y29778960D02*
X89606120Y28127960D01*
X92019120Y22781260D02*
X91358720Y23220680D01*
X91358720Y23220680D02*
X90769440Y23809960D01*
X90769440Y23809960D02*
X86050120Y23809960D01*
D39*
X29215080Y48387000D02*
X26614120Y50987960D01*
X40315320Y45501560D02*
X37957760Y45501560D01*
X37957760Y45501560D02*
X35072320Y48387000D01*
X35072320Y48387000D02*
X29215080Y48387000D01*
D38*
X19756120Y43969960D02*
X19756120Y43367960D01*
D39*
X19756120Y43367960D02*
X17898120Y41509960D01*
X17898120Y41509960D02*
X14549120Y41509960D01*
D38*
X10060940Y48955960D02*
X9298940Y39975780D01*
X9298940Y39975780D02*
X9135120Y39811960D01*
X54536520Y8638360D02*
X54536520Y5623560D01*
X52238920Y10935960D02*
X54536520Y8638360D01*
X48966120Y10935960D02*
X52238920Y10935960D01*
X25537120Y35747960D02*
X23566120Y35747960D01*
X23566120Y35747960D02*
X23312120Y36001960D01*
D40*
X27122120Y33461960D02*
X25852120Y32191960D01*
X25852120Y32191960D02*
X25852120Y28483560D01*
D38*
X27437120Y35747960D02*
X27437120Y33776960D01*
X27437120Y33776960D02*
X27122120Y33461960D01*
D40*
X35758120Y26174700D02*
X28160980Y26174700D01*
X28160980Y26174700D02*
X25852120Y28483560D01*
D38*
X24201120Y17459960D02*
X26426120Y18475960D01*
D40*
X28011120Y14919960D02*
X26995120Y13903960D01*
X26995120Y13903960D02*
X26995120Y10538460D01*
X26995120Y10538460D02*
X27122120Y10411460D01*
D41*
X27122120Y10411460D02*
X27122120Y10157460D01*
D40*
X27122120Y10157460D02*
X29900880Y7378700D01*
X29900880Y7378700D02*
X36266120Y7378700D01*
D38*
X28326120Y18475960D02*
X28326120Y15234960D01*
X28326120Y15234960D02*
X28011120Y14919960D01*
D39*
X32115320Y45501560D02*
X32115320Y42184760D01*
X44188380Y37350700D02*
X48966120Y37350700D01*
X40965120Y40573960D02*
X44188380Y37350700D01*
X33726120Y40573960D02*
X40965120Y40573960D01*
X32115320Y42184760D02*
X33726120Y40573960D01*
X22296120Y43969960D02*
X22959120Y43969960D01*
X22959120Y43969960D02*
X24582120Y45592960D01*
X32115320Y45501560D02*
X24673520Y45501560D01*
D37*
X24673520Y45501560D02*
X24582120Y45592960D01*
D38*
X24582120Y47492960D02*
X24582120Y47717960D01*
X24582120Y47717960D02*
X22930120Y49369960D01*
X22930120Y49369960D02*
X22846120Y49369960D01*
X22846120Y49369960D02*
X22296120Y49369960D01*
D40*
X35758120Y36177220D02*
X43075860Y36177220D01*
X43075860Y36177220D02*
X48585120Y30667960D01*
X48585120Y30667960D02*
X57602120Y30667960D01*
D38*
X88760120Y24825960D02*
X88760120Y25417960D01*
X87828120Y26349960D02*
X87828120Y30667960D01*
X88760120Y25417960D02*
X87828120Y26349960D01*
D40*
X86050120Y30667960D02*
X87828120Y30667960D01*
X87828120Y30667960D02*
X89606120Y30667960D01*
D38*
X86050120Y30667960D02*
X86134120Y30667960D01*
X86118520Y30736360D02*
X86050120Y30667960D01*
X35758120Y36177220D02*
X35758120Y37068760D01*
X35758120Y37068760D02*
X34284920Y38541960D01*
X34284920Y38541960D02*
X23312120Y38541960D01*
D41*
X48585120Y30667960D02*
X48585120Y30794960D01*
D40*
X57602120Y30667960D02*
X61158120Y30667960D01*
X61158120Y30667960D02*
X64714120Y30667960D01*
X64714120Y30667960D02*
X68270120Y30667960D01*
X68270120Y30667960D02*
X71826120Y30667960D01*
X71826120Y30667960D02*
X75382120Y30667960D01*
X75382120Y30667960D02*
X78938120Y30667960D01*
X78938120Y30667960D02*
X82494120Y30667960D01*
X82494120Y30667960D02*
X86050120Y30667960D01*
X36266120Y17381220D02*
X41678860Y17381220D01*
X43124120Y15935960D02*
X48966120Y15935960D01*
X41678860Y17381220D02*
X43124120Y15935960D01*
D38*
X36266120Y17381220D02*
X36266120Y18602960D01*
X36266120Y18602960D02*
X34869120Y19999960D01*
X34869120Y19999960D02*
X24201120Y19999960D01*
X86050120Y22031960D02*
X88963320Y22031960D01*
X88963320Y22031960D02*
X89148920Y22217560D01*
D40*
X57602120Y22031960D02*
X55062120Y22031960D01*
X55062120Y22031960D02*
X48966120Y15935960D01*
X57602120Y22031960D02*
X61158120Y22031960D01*
X61158120Y22031960D02*
X64714120Y22031960D01*
X64714120Y22031960D02*
X68270120Y22031960D01*
X68270120Y22031960D02*
X71826120Y22031960D01*
X71826120Y22031960D02*
X75382120Y22031960D01*
X75382120Y22031960D02*
X78938120Y22031960D01*
X78938120Y22031960D02*
X82494120Y22031960D01*
X82494120Y22031960D02*
X86050120Y22031960D01*
D39*
X79954120Y45780960D02*
X78557120Y44383960D01*
X78557120Y44383960D02*
X76779120Y44383960D01*
X76779120Y44383960D02*
X74874120Y42478960D01*
X74874120Y42478960D02*
X74366120Y42478960D01*
D38*
X48966120Y47353220D02*
X47716440Y47353220D01*
X47716440Y47353220D02*
X43939779Y43576559D01*
X18486120Y49819960D02*
X18486120Y49369960D01*
X43939779Y43576559D02*
X38025323Y43576559D01*
X24242132Y49392950D02*
X23543540Y49392950D01*
X38025323Y43576559D02*
X33839892Y47761990D01*
X33839892Y47761990D02*
X25873092Y47761990D01*
X22856121Y50444961D02*
X19111121Y50444961D01*
X25873092Y47761990D02*
X24242132Y49392950D01*
X23543540Y49392950D02*
X22921121Y50015369D01*
X22921121Y50015369D02*
X22921121Y50379961D01*
X22921121Y50379961D02*
X22856121Y50444961D01*
X19111121Y50444961D02*
X18486120Y49819960D01*
D37*
X79954120Y46365160D02*
X79954120Y45780960D01*
X57906920Y47025560D02*
X57906920Y46949360D01*
D39*
X48966120Y47353220D02*
X57579260Y47353220D01*
D37*
X57579260Y47353220D02*
X57906920Y47025560D01*
X48966120Y47353220D02*
X46504860Y47353220D01*
D38*
X90960120Y24825960D02*
X90960120Y25036960D01*
X90960120Y25036960D02*
X92019120Y26095960D01*
X92019120Y26095960D02*
X92019120Y29918660D01*
X89148920Y20017560D02*
X92014220Y21287560D01*
X92014220Y21287560D02*
X92019120Y21282660D01*
X57602120Y33207960D02*
X57602120Y34033460D01*
X57602120Y34033460D02*
X60650120Y37081460D01*
X60650120Y37081460D02*
X82811620Y37081460D01*
X82811620Y37081460D02*
X94178120Y48447960D01*
X61158120Y33207960D02*
X61254122Y33207960D01*
X61254122Y33207960D02*
X64746622Y36700460D01*
X64746622Y36700460D02*
X83002120Y36700460D01*
X83002120Y36700460D02*
X93416120Y47114460D01*
X93416120Y47114460D02*
X95384620Y47114460D01*
X95384620Y47114460D02*
X96718120Y48447960D01*
X64714120Y33207960D02*
X64873622Y33207960D01*
X64873622Y33207960D02*
X67985122Y36319460D01*
X67985122Y36319460D02*
X84589620Y36319460D01*
X84589620Y36319460D02*
X94178120Y45907960D01*
X68270120Y33207960D02*
X68493122Y33207960D01*
X68493122Y33207960D02*
X71223622Y35938460D01*
X71223622Y35938460D02*
X84907120Y35938460D01*
X84907120Y35938460D02*
X93543120Y44574460D01*
X93543120Y44574460D02*
X95384620Y44574460D01*
X95384620Y44574460D02*
X96718120Y45907960D01*
X71826120Y33207960D02*
X71826120Y33334960D01*
X71826120Y33334960D02*
X74048620Y35557460D01*
X74048620Y35557460D02*
X86367620Y35557460D01*
X86367620Y35557460D02*
X94178120Y43367960D01*
X75382120Y33207960D02*
X75414622Y33207960D01*
X75414622Y33207960D02*
X77383122Y35176460D01*
X77383122Y35176460D02*
X86481598Y35176460D01*
X86481598Y35176460D02*
X93403098Y42097960D01*
X93403098Y42097960D02*
X95448120Y42097960D01*
X95448120Y42097960D02*
X96718120Y43367960D01*
X78938120Y33207960D02*
X78938120Y33492958D01*
X78938120Y33492958D02*
X80240622Y34795460D01*
X80240622Y34795460D02*
X86685120Y34795460D01*
X86685120Y34795460D02*
X92717620Y40827960D01*
X92717620Y40827960D02*
X94178120Y40827960D01*
X82494120Y33207960D02*
X82494120Y33398460D01*
X82494120Y33398460D02*
X83510120Y34414460D01*
X95448120Y39557960D02*
X96718120Y40827960D01*
X92019120Y39557960D02*
X95448120Y39557960D01*
X86875620Y34414460D02*
X92019120Y39557960D01*
X83510120Y34414460D02*
X86875620Y34414460D01*
X82494120Y33207960D02*
X82557620Y33207960D01*
X86050120Y33207960D02*
X86177120Y33207960D01*
X86177120Y33207960D02*
X91257120Y38287960D01*
X91257120Y38287960D02*
X94178120Y38287960D01*
X57602120Y19491960D02*
X57602120Y19428460D01*
X57602120Y19428460D02*
X67952620Y9077960D01*
X67952620Y9077960D02*
X95448120Y9077960D01*
X95448120Y9077960D02*
X96718120Y10347960D01*
X61158120Y19491960D02*
X61158120Y19428460D01*
X61158120Y19428460D02*
X70238620Y10347960D01*
X70238620Y10347960D02*
X94178120Y10347960D01*
X64714120Y19491960D02*
X64714120Y18920460D01*
X64714120Y18920460D02*
X72016620Y11617960D01*
X72016620Y11617960D02*
X95448120Y11617960D01*
X95448120Y11617960D02*
X96718120Y12887960D01*
X68270120Y19491960D02*
X68270120Y19364960D01*
X68270120Y19364960D02*
X74747120Y12887960D01*
X74747120Y12887960D02*
X94178120Y12887960D01*
X71826120Y19491960D02*
X71826120Y19364960D01*
X71826120Y19364960D02*
X77033120Y14157960D01*
X77033120Y14157960D02*
X95448120Y14157960D01*
X95448120Y14157960D02*
X96718120Y15427960D01*
X75382120Y19491960D02*
X75382120Y19110960D01*
X75382120Y19110960D02*
X79065120Y15427960D01*
X79065120Y15427960D02*
X94178120Y15427960D01*
X78938120Y19491960D02*
X78938120Y19364960D01*
X78938120Y19364960D02*
X81605120Y16697960D01*
X81605120Y16697960D02*
X95448120Y16697960D01*
X95448120Y16697960D02*
X96718120Y17967960D01*
X82494120Y19491960D02*
X82494120Y19237960D01*
X82494120Y19237960D02*
X83764120Y17967960D01*
X83764120Y17967960D02*
X94178120Y17967960D01*
X86050120Y19491960D02*
X86400122Y19491960D01*
X86400122Y19491960D02*
X87574120Y18317962D01*
X87574120Y18317962D02*
X92432622Y18317962D01*
X92432622Y18317962D02*
X93289120Y19174460D01*
X93289120Y19174460D02*
X95384620Y19174460D01*
X95384620Y19174460D02*
X96718120Y20507960D01*
X64952920Y40182800D02*
X70474840Y40182800D01*
X72334120Y42042080D02*
X72334120Y46365160D01*
X70474840Y40182800D02*
X72334120Y42042080D01*
X64952920Y40182800D02*
X64952920Y38234760D01*
X64952920Y38234760D02*
X65153720Y38033960D01*
X67848520Y45415200D02*
X67848520Y45557480D01*
X67848520Y45557480D02*
X70241160Y47950120D01*
X73289160Y47950120D02*
X74874120Y46365160D01*
X70241160Y47950120D02*
X73289160Y47950120D01*
X67848520Y45415200D02*
X67848520Y44399160D01*
X69268520Y42979160D02*
X69268520Y42148760D01*
X67848520Y44399160D02*
X69268520Y42979160D01*
X65948520Y45415200D02*
X66075560Y45415200D01*
X66075560Y45415200D02*
X69265800Y48605440D01*
X75173840Y48605440D02*
X77414120Y46365160D01*
X69265800Y48605440D02*
X75173840Y48605440D01*
X65948520Y45415200D02*
X65948520Y42763480D01*
X65948520Y42763480D02*
X66563240Y42148760D01*
X66563240Y42148760D02*
X67068520Y42148760D01*
X63052920Y40182800D02*
X63286640Y40182800D01*
X63286640Y40182800D02*
X65252600Y42148760D01*
X65252600Y42148760D02*
X67068520Y42148760D01*
X63052920Y40182800D02*
X63052920Y38133160D01*
X63052920Y38133160D02*
X62953720Y38033960D01*
X61158120Y50987960D02*
X61118119Y50947959D01*
X61118119Y50947959D02*
X61118119Y44466961D01*
X61118119Y44466961D02*
X61793120Y43791960D01*
X64002920Y42181780D02*
X64002920Y43063160D01*
X63274120Y43791960D02*
X61793120Y43791960D01*
X64002920Y43063160D02*
X63274120Y43791960D01*
X66898520Y47414180D02*
X64257100Y47414180D01*
X64257100Y47414180D02*
X63901320Y47769960D01*
X63698120Y50987960D02*
X63698120Y47973160D01*
X63698120Y47973160D02*
X63901320Y47769960D01*
X50998120Y2727960D02*
X50998120Y4285160D01*
X50998120Y4285160D02*
X52336520Y5623560D01*
X50998120Y2727960D02*
X50998120Y4386760D01*
X50998120Y4386760D02*
X49761320Y5623560D01*
X63901320Y45569960D02*
X63147120Y45569960D01*
X62725120Y45991960D02*
X61793120Y45991960D01*
X63147120Y45569960D02*
X62725120Y45991960D01*
X94178120Y50987960D02*
X94178120Y49971960D01*
X63901320Y44688760D02*
X63901320Y45569960D01*
X64968120Y43621960D02*
X63901320Y44688760D01*
X83510120Y39303960D02*
X67508120Y39303960D01*
X94178120Y49971960D02*
X83510120Y39303960D01*
X84018120Y50987960D02*
X84018120Y45399960D01*
X84018120Y45399960D02*
X83002120Y44383960D01*
X83002120Y44383960D02*
X81478120Y44383960D01*
X81478120Y44383960D02*
X79573120Y42478960D01*
X79573120Y42478960D02*
X79446120Y42478960D01*
X86558120Y50987960D02*
X86558120Y43494960D01*
X86558120Y43494960D02*
X84018120Y40954960D01*
X84018120Y40954960D02*
X78938120Y40954960D01*
X78938120Y40954960D02*
X77414120Y42478960D01*
X77414120Y42478960D02*
X76906120Y42478960D01*
X89606120Y33207960D02*
X94178120Y33207960D01*
D42*
G36*
X15873610Y52331449D02*
X16156024Y52142746D01*
X16344728Y51860331D01*
X16413480Y51514691D01*
X16413480Y45512904D01*
X16415477Y45502864D01*
X16415108Y45492637D01*
X16466043Y45177558D01*
X16473119Y45158563D01*
X16478814Y45139088D01*
X16626429Y44856106D01*
X16639137Y44840299D01*
X16650671Y44823620D01*
X16879929Y44601561D01*
X16896968Y44590565D01*
X16913173Y44578367D01*
X17200719Y44439854D01*
X17220359Y44434786D01*
X17239577Y44428316D01*
X17556121Y44387458D01*
X17566333Y44388154D01*
X17576430Y44386478D01*
X17852714Y44395296D01*
X17852714Y43219960D01*
X17876905Y43095276D01*
X17948891Y42985690D01*
X18057565Y42912335D01*
X18186120Y42886554D01*
X18388002Y42886554D01*
X17638408Y42136960D01*
X15374345Y42136960D01*
X15131628Y42380100D01*
X14754299Y42536781D01*
X14345733Y42537138D01*
X13968131Y42381116D01*
X13678980Y42092468D01*
X13522299Y41715139D01*
X13521942Y41306573D01*
X13677964Y40928971D01*
X13966612Y40639820D01*
X14343941Y40483139D01*
X14752507Y40482782D01*
X15130109Y40638804D01*
X15374690Y40882960D01*
X17898120Y40882960D01*
X18138063Y40930688D01*
X18341476Y41066604D01*
X19954988Y42680116D01*
X20201016Y42434087D01*
X20541728Y42292960D01*
X20644370Y42292960D01*
X20876120Y42524710D01*
X20876120Y43594960D01*
X20726120Y43594960D01*
X20726120Y44344960D01*
X20876120Y44344960D01*
X20876120Y44471482D01*
X21037223Y44450612D01*
X21176120Y44383467D01*
X21176120Y44344960D01*
X21255777Y44344960D01*
X21288321Y44329228D01*
X21326120Y44292447D01*
X21326120Y43594960D01*
X21176120Y43594960D01*
X21176120Y42524710D01*
X21407870Y42292960D01*
X21510512Y42292960D01*
X21655621Y42353066D01*
X21637173Y38349754D01*
X21481062Y38454064D01*
X20991419Y38551460D01*
X20552821Y38551460D01*
X20063178Y38454064D01*
X19648078Y38176703D01*
X19370717Y37761603D01*
X19273321Y37271960D01*
X19370717Y36782317D01*
X19648078Y36367217D01*
X19700077Y36332472D01*
X19311560Y36091589D01*
X18887930Y35502062D01*
X18860346Y35486769D01*
X19004196Y35208210D01*
X20209120Y35208210D01*
X20209120Y35314960D01*
X21335120Y35314960D01*
X21335120Y35208210D01*
X21355120Y35208210D01*
X21355120Y34255710D01*
X21335120Y34255710D01*
X21335120Y33140831D01*
X21473669Y33066249D01*
X21360290Y32895708D01*
X21082441Y32707248D01*
X20741618Y32635344D01*
X18698308Y32606964D01*
X18686182Y32604377D01*
X18673784Y32604226D01*
X18295820Y32524258D01*
X18295817Y32524257D01*
X18295813Y32524256D01*
X18295386Y32524165D01*
X18272876Y32514520D01*
X18250203Y32504896D01*
X18249839Y32504649D01*
X18249838Y32504648D01*
X18249836Y32504647D01*
X17930489Y32287232D01*
X17913309Y32269752D01*
X17895998Y32252259D01*
X17682794Y31929553D01*
X17673499Y31906778D01*
X17664154Y31884106D01*
X17589357Y31504632D01*
X17589378Y31492232D01*
X17586960Y31480072D01*
X17586960Y25877649D01*
X17588930Y25867742D01*
X17588545Y25857644D01*
X17638170Y25546538D01*
X17645123Y25527753D01*
X17650618Y25508514D01*
X17794567Y25228285D01*
X17807007Y25212610D01*
X17818226Y25196019D01*
X18042213Y24974481D01*
X18058916Y24963453D01*
X18074736Y24951177D01*
X18356531Y24810315D01*
X18375835Y24805031D01*
X18394689Y24798286D01*
X18706322Y24752083D01*
X18716415Y24752580D01*
X18726344Y24750718D01*
X21781900Y24784296D01*
X22063111Y24742674D01*
X22308376Y24620301D01*
X22503495Y24427791D01*
X22629159Y24184200D01*
X22674563Y23903573D01*
X22684977Y19701644D01*
X22370062Y19912064D01*
X21880419Y20009460D01*
X21441821Y20009460D01*
X20952178Y19912064D01*
X20537078Y19634703D01*
X20259717Y19219603D01*
X20162321Y18729960D01*
X20259717Y18240317D01*
X20537078Y17825217D01*
X20589077Y17790472D01*
X20200560Y17549589D01*
X19776930Y16960062D01*
X19749346Y16944769D01*
X19893196Y16666210D01*
X21098120Y16666210D01*
X21098120Y16772960D01*
X22224120Y16772960D01*
X22224120Y16666210D01*
X22244120Y16666210D01*
X22244120Y15713710D01*
X22224120Y15713710D01*
X22224120Y14598831D01*
X22504695Y14447796D01*
X22697702Y14567462D01*
X22700014Y13634503D01*
X22632246Y13289005D01*
X22444572Y13006280D01*
X22163062Y12816793D01*
X21818004Y12746803D01*
X19991048Y12739582D01*
X19981106Y12737564D01*
X19970967Y12737904D01*
X19658803Y12686632D01*
X19639985Y12679568D01*
X19620688Y12673932D01*
X19340161Y12527718D01*
X19324487Y12515126D01*
X19307920Y12503747D01*
X19087101Y12277223D01*
X19076149Y12260373D01*
X19063960Y12244381D01*
X18924948Y11960215D01*
X18919807Y11940786D01*
X18913224Y11921788D01*
X18869930Y11608419D01*
X18870528Y11598294D01*
X18868764Y11588301D01*
X19073435Y2094053D01*
X19033927Y1809603D01*
X18911709Y1561135D01*
X18717707Y1363557D01*
X18471514Y1236822D01*
X18187832Y1192125D01*
X3222049Y1241355D01*
X2882084Y1308983D01*
X2603089Y1492776D01*
X2413855Y1768117D01*
X2339571Y2106686D01*
X2210428Y7743116D01*
X14984131Y7743116D01*
X14694980Y7454468D01*
X14538299Y7077139D01*
X14537942Y6668573D01*
X14693964Y6290971D01*
X14982612Y6001820D01*
X15359941Y5845139D01*
X15768507Y5844782D01*
X16146109Y6000804D01*
X16435260Y6289452D01*
X16591941Y6666781D01*
X16592298Y7075347D01*
X16436276Y7452949D01*
X16147628Y7742100D01*
X15770299Y7898781D01*
X15361733Y7899138D01*
X14984131Y7743116D01*
X2210428Y7743116D01*
X2169831Y9514960D01*
X3551870Y9514960D01*
X3320120Y9283210D01*
X3320120Y9005568D01*
X3461247Y8664857D01*
X3722016Y8404087D01*
X4062728Y8262960D01*
X4340370Y8262960D01*
X4572120Y8494710D01*
X4572120Y9514960D01*
X5222120Y9514960D01*
X5222120Y8494710D01*
X5453870Y8262960D01*
X5731512Y8262960D01*
X6072224Y8404087D01*
X6332993Y8664857D01*
X6474120Y9005568D01*
X6474120Y9283210D01*
X6242370Y9514960D01*
X5222120Y9514960D01*
X4572120Y9514960D01*
X4572120Y9514960D01*
X3551870Y9514960D01*
X2169831Y9514960D01*
X2157913Y10035150D01*
X8920290Y10035150D01*
X8919950Y9646475D01*
X9068376Y9287257D01*
X9342971Y9012182D01*
X9701930Y8863130D01*
X10090605Y8862790D01*
X10449823Y9011216D01*
X10724898Y9285811D01*
X10873950Y9644770D01*
X10874290Y10033445D01*
X10725864Y10392663D01*
X10451269Y10667738D01*
X10092310Y10816790D01*
X9703635Y10817130D01*
X9344417Y10668704D01*
X6474120Y10668704D01*
X6474120Y10674352D01*
X6332993Y11015063D01*
X6072224Y11275833D01*
X5731512Y11416960D01*
X5453870Y11416960D01*
X5222120Y11185210D01*
X5222120Y10164960D01*
X6242370Y10164960D01*
X6474120Y10396710D01*
X6474120Y10668704D01*
X9344417Y10668704D01*
X6474120Y10668704D01*
X6474120Y10668704D01*
X9344417Y10668704D01*
X9069342Y10394109D01*
X8920290Y10035150D01*
X2157913Y10035150D01*
X2126253Y11416960D01*
X4062728Y11416960D01*
X3722016Y11275833D01*
X3461247Y11015063D01*
X3320120Y10674352D01*
X3320120Y10396710D01*
X3551870Y10164960D01*
X4572120Y10164960D01*
X4572120Y11185210D01*
X4340370Y11416960D01*
X4062728Y11416960D01*
X2126253Y11416960D01*
X2123848Y11521960D01*
X14169870Y11521960D01*
X13938120Y11290210D01*
X13938120Y10987568D01*
X14079247Y10646856D01*
X14340017Y10386087D01*
X14680728Y10244960D01*
X14983370Y10244960D01*
X15215120Y10476710D01*
X15215120Y11521960D01*
X15915120Y11521960D01*
X15215120Y11521960D01*
X15215120Y11521960D01*
X15915120Y11521960D01*
X15915120Y10476710D01*
X16146870Y10244960D01*
X16449512Y10244960D01*
X16790223Y10386087D01*
X17050993Y10646856D01*
X17192120Y10987568D01*
X17192120Y11290210D01*
X16960370Y11521960D01*
X15915120Y11521960D01*
X15215120Y11521960D01*
X15215120Y11521960D01*
X14169870Y11521960D01*
X2123848Y11521960D01*
X2078550Y13498960D01*
X14680728Y13498960D01*
X14340017Y13357833D01*
X14079247Y13097064D01*
X13938120Y12756352D01*
X13938120Y12453710D01*
X14169870Y12221960D01*
X15215120Y12221960D01*
X15215120Y13267210D01*
X14983370Y13498960D01*
X16146870Y13498960D01*
X15915120Y13267210D01*
X15915120Y12221960D01*
X16960370Y12221960D01*
X17192120Y12453710D01*
X17192120Y12756352D01*
X17050993Y13097064D01*
X16790223Y13357833D01*
X16449512Y13498960D01*
X16146870Y13498960D01*
X14983370Y13498960D01*
X14983370Y13498960D01*
X14680728Y13498960D01*
X2078550Y13498960D01*
X2027804Y15713710D01*
X19893196Y15713710D01*
X19749346Y15435151D01*
X19776930Y15419858D01*
X20200560Y14830331D01*
X20817545Y14447796D01*
X21098120Y14598831D01*
X21098120Y15713710D01*
X19893196Y15713710D01*
X2027804Y15713710D01*
X1999756Y16937829D01*
X2038776Y17221995D01*
X2160369Y17470402D01*
X2353677Y17668190D01*
X2599232Y17795440D01*
X2882438Y17840960D01*
X5929120Y17840960D01*
X5941387Y17843400D01*
X5953896Y17843400D01*
X6336579Y17919520D01*
X6382360Y17938483D01*
X6706782Y18155255D01*
X6706784Y18155256D01*
X6706785Y18155256D01*
X6724304Y18172776D01*
X6741824Y18190295D01*
X6741824Y18190296D01*
X6741825Y18190298D01*
X6958593Y18514716D01*
X6958596Y18514719D01*
X6958597Y18514719D01*
X6972005Y18547092D01*
X6977560Y18560500D01*
X6977560Y18560501D01*
X6997144Y18658960D01*
X9393870Y18658960D01*
X9162120Y18427210D01*
X9162120Y18149568D01*
X9303247Y17808857D01*
X9564016Y17548087D01*
X9904728Y17406960D01*
X10182370Y17406960D01*
X10414120Y17638710D01*
X10414120Y18658960D01*
X11064120Y18658960D01*
X10414120Y18658960D01*
X10414120Y18658960D01*
X11064120Y18658960D01*
X11064120Y17638710D01*
X11295870Y17406960D01*
X11573512Y17406960D01*
X11914224Y17548087D01*
X12174993Y17808857D01*
X12316120Y18149568D01*
X12316120Y18427210D01*
X12084370Y18658960D01*
X11064120Y18658960D01*
X10414120Y18658960D01*
X10414120Y18658960D01*
X9393870Y18658960D01*
X6997144Y18658960D01*
X7053680Y18943184D01*
X7053680Y18955693D01*
X7056120Y18967960D01*
X7056120Y19179150D01*
X14762290Y19179150D01*
X14761950Y18790475D01*
X14910376Y18431257D01*
X15184971Y18156182D01*
X15543930Y18007130D01*
X15932605Y18006790D01*
X16291823Y18155216D01*
X16566898Y18429811D01*
X16715950Y18788770D01*
X16716290Y19177445D01*
X16567864Y19536663D01*
X16293269Y19811738D01*
X15934310Y19960790D01*
X15545635Y19961130D01*
X15186417Y19812704D01*
X12316120Y19812704D01*
X12316120Y19818352D01*
X12174993Y20159063D01*
X11914224Y20419833D01*
X11573512Y20560960D01*
X11295870Y20560960D01*
X11064120Y20329210D01*
X11064120Y19308960D01*
X12084370Y19308960D01*
X12316120Y19540710D01*
X12316120Y19812704D01*
X15186417Y19812704D01*
X12316120Y19812704D01*
X12316120Y19812704D01*
X15186417Y19812704D01*
X14911342Y19538109D01*
X14762290Y19179150D01*
X7056120Y19179150D01*
X7056120Y20560960D01*
X9904728Y20560960D01*
X9564016Y20419833D01*
X9303247Y20159063D01*
X9162120Y19818352D01*
X9162120Y19540710D01*
X9393870Y19308960D01*
X10414120Y19308960D01*
X10414120Y20329210D01*
X10182370Y20560960D01*
X9904728Y20560960D01*
X7056120Y20560960D01*
X7056120Y22682960D01*
X7053680Y22695228D01*
X7053680Y22707736D01*
X6977560Y23090419D01*
X6977560Y23090420D01*
X6972005Y23103829D01*
X6958597Y23136201D01*
X6958593Y23136205D01*
X6741825Y23460623D01*
X6741824Y23460624D01*
X6741824Y23460625D01*
X6706785Y23495664D01*
X6706782Y23495666D01*
X6382360Y23712437D01*
X6336579Y23731400D01*
X5953896Y23807520D01*
X5941387Y23807520D01*
X5929120Y23809960D01*
X5359543Y23809960D01*
X5411812Y23896066D01*
X3881120Y25426758D01*
X3866978Y25412615D01*
X3070776Y26208817D01*
X3084918Y26222960D01*
X4677322Y26222960D01*
X6208014Y24692268D01*
X6609948Y24936256D01*
X6894629Y26078478D01*
X6720530Y27242696D01*
X6609948Y27509664D01*
X6208014Y27753652D01*
X4677322Y26222960D01*
X3084918Y26222960D01*
X3084918Y26222960D01*
X1647761Y27660117D01*
X1635946Y28291881D01*
X1635785Y28311549D01*
X1637516Y29062370D01*
X2861384Y29062370D01*
X2594416Y28951788D01*
X2350428Y28549854D01*
X3881120Y27019162D01*
X5411812Y28549854D01*
X5167824Y28951788D01*
X4025602Y29236469D01*
X2861384Y29062370D01*
X1637516Y29062370D01*
X1638419Y29453960D01*
X8123870Y29453960D01*
X7892120Y29222210D01*
X7892120Y28944568D01*
X8033247Y28603857D01*
X8294016Y28343087D01*
X8634728Y28201960D01*
X8912370Y28201960D01*
X9144120Y28433710D01*
X9144120Y29453960D01*
X9794120Y29453960D01*
X9144120Y29453960D01*
X9144120Y29453960D01*
X9794120Y29453960D01*
X9794120Y28433710D01*
X10025870Y28201960D01*
X10303512Y28201960D01*
X10644224Y28343087D01*
X10904993Y28603857D01*
X11046120Y28944568D01*
X11046120Y29222210D01*
X10814370Y29453960D01*
X9794120Y29453960D01*
X9144120Y29453960D01*
X9144120Y29453960D01*
X8123870Y29453960D01*
X1638419Y29453960D01*
X1639618Y29974150D01*
X13492290Y29974150D01*
X13491950Y29585475D01*
X13640376Y29226257D01*
X13914971Y28951182D01*
X14273930Y28802130D01*
X14662605Y28801790D01*
X15021823Y28950216D01*
X15296898Y29224811D01*
X15445950Y29583770D01*
X15446290Y29972445D01*
X15297864Y30331663D01*
X15023269Y30606738D01*
X14664310Y30755790D01*
X14275635Y30756130D01*
X13916417Y30607704D01*
X11046120Y30607704D01*
X11046120Y30613352D01*
X10904993Y30954063D01*
X10644224Y31214833D01*
X10303512Y31355960D01*
X10025870Y31355960D01*
X9794120Y31124210D01*
X9794120Y30103960D01*
X10814370Y30103960D01*
X11046120Y30335710D01*
X11046120Y30607704D01*
X13916417Y30607704D01*
X11046120Y30607704D01*
X11046120Y30607704D01*
X13916417Y30607704D01*
X13641342Y30333109D01*
X13492290Y29974150D01*
X1639618Y29974150D01*
X1642805Y31355960D01*
X8634728Y31355960D01*
X8294016Y31214833D01*
X8033247Y30954063D01*
X7892120Y30613352D01*
X7892120Y30335710D01*
X8123870Y30103960D01*
X9144120Y30103960D01*
X9144120Y31124210D01*
X8912370Y31355960D01*
X8634728Y31355960D01*
X1642805Y31355960D01*
X1649493Y34255710D01*
X19004196Y34255710D01*
X18860346Y33977151D01*
X18887930Y33961858D01*
X19311560Y33372331D01*
X19928545Y32989796D01*
X20209120Y33140831D01*
X20209120Y34255710D01*
X19004196Y34255710D01*
X1649493Y34255710D01*
X1653885Y36159960D01*
X13153870Y36159960D01*
X12922120Y35928210D01*
X12922120Y35625568D01*
X13063247Y35284856D01*
X13324017Y35024087D01*
X13664728Y34882960D01*
X13967370Y34882960D01*
X14199120Y35114710D01*
X14199120Y36159960D01*
X14899120Y36159960D01*
X14899120Y35114710D01*
X15130870Y34882960D01*
X15433512Y34882960D01*
X15774223Y35024087D01*
X16034993Y35284856D01*
X16176120Y35625568D01*
X16176120Y35928210D01*
X15944370Y36159960D01*
X14899120Y36159960D01*
X14199120Y36159960D01*
X14199120Y36159960D01*
X13153870Y36159960D01*
X1653885Y36159960D01*
X1658445Y38136960D01*
X13664728Y38136960D01*
X13324017Y37995833D01*
X13063247Y37735064D01*
X12922120Y37394352D01*
X12922120Y37091710D01*
X13153870Y36859960D01*
X14199120Y36859960D01*
X14199120Y37905210D01*
X13967370Y38136960D01*
X15130870Y38136960D01*
X14899120Y37905210D01*
X14899120Y36859960D01*
X15944370Y36859960D01*
X16176120Y37091710D01*
X16176120Y37394352D01*
X16034993Y37735064D01*
X15774223Y37995833D01*
X15433512Y38136960D01*
X15130870Y38136960D01*
X13967370Y38136960D01*
X13967370Y38136960D01*
X13664728Y38136960D01*
X1658445Y38136960D01*
X1661559Y39486960D01*
X2789870Y39486960D01*
X2558120Y39255210D01*
X2558120Y38977568D01*
X2699247Y38636857D01*
X2960016Y38376087D01*
X3300728Y38234960D01*
X3578370Y38234960D01*
X3810120Y38466710D01*
X3810120Y39486960D01*
X4460120Y39486960D01*
X3810120Y39486960D01*
X3810120Y39486960D01*
X4460120Y39486960D01*
X4460120Y38466710D01*
X4691870Y38234960D01*
X4969512Y38234960D01*
X5310224Y38376087D01*
X5570993Y38636857D01*
X5712120Y38977568D01*
X5712120Y39255210D01*
X5480370Y39486960D01*
X4460120Y39486960D01*
X3810120Y39486960D01*
X3810120Y39486960D01*
X2789870Y39486960D01*
X1661559Y39486960D01*
X1662759Y40007150D01*
X8158290Y40007150D01*
X8157950Y39618475D01*
X8306376Y39259257D01*
X8580971Y38984182D01*
X8939930Y38835130D01*
X9328605Y38834790D01*
X9687823Y38983216D01*
X9962898Y39257811D01*
X10111950Y39616770D01*
X10112290Y40005445D01*
X9963864Y40364663D01*
X9799531Y40529283D01*
X10418382Y47822454D01*
X11860530Y47822454D01*
X11985214Y47846645D01*
X12094800Y47918631D01*
X12168155Y48027305D01*
X12193936Y48155860D01*
X12193936Y49756060D01*
X12169745Y49880744D01*
X12097759Y49990330D01*
X11989085Y50063685D01*
X11860530Y50089466D01*
X8261350Y50089466D01*
X7224167Y50089466D01*
X7144763Y50281163D01*
X6883994Y50541933D01*
X6543282Y50683060D01*
X5354050Y50683060D01*
X5122300Y50451310D01*
X5122300Y49356010D01*
X7054140Y49356010D01*
X7285890Y49587760D01*
X7285890Y49940452D01*
X7224167Y50089466D01*
X8261350Y50089466D01*
X7224167Y50089466D01*
X7224167Y50089466D01*
X8261350Y50089466D01*
X8136666Y50065275D01*
X8027080Y49993289D01*
X7953725Y49884615D01*
X7927944Y49756060D01*
X7927944Y48155860D01*
X7285890Y48155860D01*
X7285890Y48324160D01*
X7054140Y48555910D01*
X5122300Y48555910D01*
X5122300Y47460610D01*
X5354050Y47228860D01*
X6543282Y47228860D01*
X6883994Y47369987D01*
X7144763Y47630757D01*
X7285890Y47971468D01*
X7285890Y48155860D01*
X7927944Y48155860D01*
X7285890Y48155860D01*
X7285890Y48155860D01*
X7927944Y48155860D01*
X7952135Y48031176D01*
X8024121Y47921590D01*
X8132795Y47848235D01*
X8261350Y47822454D01*
X9511133Y47822454D01*
X8913339Y40777438D01*
X5657823Y40777438D01*
X5570993Y40987063D01*
X5310224Y41247833D01*
X4969512Y41388960D01*
X4691870Y41388960D01*
X4460120Y41157210D01*
X4460120Y40136960D01*
X5480370Y40136960D01*
X5712120Y40368710D01*
X5712120Y40646352D01*
X5657823Y40777438D01*
X8913339Y40777438D01*
X5657823Y40777438D01*
X5657823Y40777438D01*
X8913339Y40777438D01*
X8582417Y40640704D01*
X8307342Y40366109D01*
X8158290Y40007150D01*
X1662759Y40007150D01*
X1665946Y41388960D01*
X3300728Y41388960D01*
X2960016Y41247833D01*
X2699247Y40987063D01*
X2558120Y40646352D01*
X2558120Y40368710D01*
X2789870Y40136960D01*
X3810120Y40136960D01*
X3810120Y41157210D01*
X3578370Y41388960D01*
X3300728Y41388960D01*
X1665946Y41388960D01*
X1682479Y48555910D01*
X2064460Y48555910D01*
X1832710Y48324160D01*
X1832710Y47971468D01*
X1973837Y47630757D01*
X2234606Y47369987D01*
X2575318Y47228860D01*
X3764550Y47228860D01*
X3996300Y47460610D01*
X3996300Y48555910D01*
X2064460Y48555910D01*
X1682479Y48555910D01*
X1687386Y50683060D01*
X2575318Y50683060D01*
X2234606Y50541933D01*
X1973837Y50281163D01*
X1832710Y49940452D01*
X1832710Y49587760D01*
X2064460Y49356010D01*
X3996300Y49356010D01*
X3996300Y50451310D01*
X3764550Y50683060D01*
X2575318Y50683060D01*
X1687386Y50683060D01*
X1689310Y51516728D01*
X1758659Y51861726D01*
X1947496Y52143460D01*
X2229666Y52331647D01*
X2574826Y52400200D01*
X15527970Y52400200D01*
X15873610Y52331449D01*
X15873610Y52331449D01*
G37*
X15873610Y52331449D02*
X16156024Y52142746D01*
X16344728Y51860331D01*
X16413480Y51514691D01*
X16413480Y45512904D01*
X16415477Y45502864D01*
X16415108Y45492637D01*
X16466043Y45177558D01*
X16473119Y45158563D01*
X16478814Y45139088D01*
X16626429Y44856106D01*
X16639137Y44840299D01*
X16650671Y44823620D01*
X16879929Y44601561D01*
X16896968Y44590565D01*
X16913173Y44578367D01*
X17200719Y44439854D01*
X17220359Y44434786D01*
X17239577Y44428316D01*
X17556121Y44387458D01*
X17566333Y44388154D01*
X17576430Y44386478D01*
X17852714Y44395296D01*
X17852714Y43219960D01*
X17876905Y43095276D01*
X17948891Y42985690D01*
X18057565Y42912335D01*
X18186120Y42886554D01*
X18388002Y42886554D01*
X17638408Y42136960D01*
X15374345Y42136960D01*
X15131628Y42380100D01*
X14754299Y42536781D01*
X14345733Y42537138D01*
X13968131Y42381116D01*
X13678980Y42092468D01*
X13522299Y41715139D01*
X13521942Y41306573D01*
X13677964Y40928971D01*
X13966612Y40639820D01*
X14343941Y40483139D01*
X14752507Y40482782D01*
X15130109Y40638804D01*
X15374690Y40882960D01*
X17898120Y40882960D01*
X18138063Y40930688D01*
X18341476Y41066604D01*
X19954988Y42680116D01*
X20201016Y42434087D01*
X20541728Y42292960D01*
X20644370Y42292960D01*
X20876120Y42524710D01*
X20876120Y43594960D01*
X20726120Y43594960D01*
X20726120Y44344960D01*
X20876120Y44344960D01*
X20876120Y44471482D01*
X21037223Y44450612D01*
X21176120Y44383467D01*
X21176120Y44344960D01*
X21255777Y44344960D01*
X21288321Y44329228D01*
X21326120Y44292447D01*
X21326120Y43594960D01*
X21176120Y43594960D01*
X21176120Y42524710D01*
X21407870Y42292960D01*
X21510512Y42292960D01*
X21655621Y42353066D01*
X21637173Y38349754D01*
X21481062Y38454064D01*
X20991419Y38551460D01*
X20552821Y38551460D01*
X20063178Y38454064D01*
X19648078Y38176703D01*
X19370717Y37761603D01*
X19273321Y37271960D01*
X19370717Y36782317D01*
X19648078Y36367217D01*
X19700077Y36332472D01*
X19311560Y36091589D01*
X18887930Y35502062D01*
X18860346Y35486769D01*
X19004196Y35208210D01*
X20209120Y35208210D01*
X20209120Y35314960D01*
X21335120Y35314960D01*
X21335120Y35208210D01*
X21355120Y35208210D01*
X21355120Y34255710D01*
X21335120Y34255710D01*
X21335120Y33140831D01*
X21473669Y33066249D01*
X21360290Y32895708D01*
X21082441Y32707248D01*
X20741618Y32635344D01*
X18698308Y32606964D01*
X18686182Y32604377D01*
X18673784Y32604226D01*
X18295820Y32524258D01*
X18295817Y32524257D01*
X18295813Y32524256D01*
X18295386Y32524165D01*
X18272876Y32514520D01*
X18250203Y32504896D01*
X18249839Y32504649D01*
X18249838Y32504648D01*
X18249836Y32504647D01*
X17930489Y32287232D01*
X17913309Y32269752D01*
X17895998Y32252259D01*
X17682794Y31929553D01*
X17673499Y31906778D01*
X17664154Y31884106D01*
X17589357Y31504632D01*
X17589378Y31492232D01*
X17586960Y31480072D01*
X17586960Y25877649D01*
X17588930Y25867742D01*
X17588545Y25857644D01*
X17638170Y25546538D01*
X17645123Y25527753D01*
X17650618Y25508514D01*
X17794567Y25228285D01*
X17807007Y25212610D01*
X17818226Y25196019D01*
X18042213Y24974481D01*
X18058916Y24963453D01*
X18074736Y24951177D01*
X18356531Y24810315D01*
X18375835Y24805031D01*
X18394689Y24798286D01*
X18706322Y24752083D01*
X18716415Y24752580D01*
X18726344Y24750718D01*
X21781900Y24784296D01*
X22063111Y24742674D01*
X22308376Y24620301D01*
X22503495Y24427791D01*
X22629159Y24184200D01*
X22674563Y23903573D01*
X22684977Y19701644D01*
X22370062Y19912064D01*
X21880419Y20009460D01*
X21441821Y20009460D01*
X20952178Y19912064D01*
X20537078Y19634703D01*
X20259717Y19219603D01*
X20162321Y18729960D01*
X20259717Y18240317D01*
X20537078Y17825217D01*
X20589077Y17790472D01*
X20200560Y17549589D01*
X19776930Y16960062D01*
X19749346Y16944769D01*
X19893196Y16666210D01*
X21098120Y16666210D01*
X21098120Y16772960D01*
X22224120Y16772960D01*
X22224120Y16666210D01*
X22244120Y16666210D01*
X22244120Y15713710D01*
X22224120Y15713710D01*
X22224120Y14598831D01*
X22504695Y14447796D01*
X22697702Y14567462D01*
X22700014Y13634503D01*
X22632246Y13289005D01*
X22444572Y13006280D01*
X22163062Y12816793D01*
X21818004Y12746803D01*
X19991048Y12739582D01*
X19981106Y12737564D01*
X19970967Y12737904D01*
X19658803Y12686632D01*
X19639985Y12679568D01*
X19620688Y12673932D01*
X19340161Y12527718D01*
X19324487Y12515126D01*
X19307920Y12503747D01*
X19087101Y12277223D01*
X19076149Y12260373D01*
X19063960Y12244381D01*
X18924948Y11960215D01*
X18919807Y11940786D01*
X18913224Y11921788D01*
X18869930Y11608419D01*
X18870528Y11598294D01*
X18868764Y11588301D01*
X19073435Y2094053D01*
X19033927Y1809603D01*
X18911709Y1561135D01*
X18717707Y1363557D01*
X18471514Y1236822D01*
X18187832Y1192125D01*
X3222049Y1241355D01*
X2882084Y1308983D01*
X2603089Y1492776D01*
X2413855Y1768117D01*
X2339571Y2106686D01*
X2210428Y7743116D01*
X14984131Y7743116D01*
X14694980Y7454468D01*
X14538299Y7077139D01*
X14537942Y6668573D01*
X14693964Y6290971D01*
X14982612Y6001820D01*
X15359941Y5845139D01*
X15768507Y5844782D01*
X16146109Y6000804D01*
X16435260Y6289452D01*
X16591941Y6666781D01*
X16592298Y7075347D01*
X16436276Y7452949D01*
X16147628Y7742100D01*
X15770299Y7898781D01*
X15361733Y7899138D01*
X14984131Y7743116D01*
X2210428Y7743116D01*
X2169831Y9514960D01*
X3551870Y9514960D01*
X3320120Y9283210D01*
X3320120Y9005568D01*
X3461247Y8664857D01*
X3722016Y8404087D01*
X4062728Y8262960D01*
X4340370Y8262960D01*
X4572120Y8494710D01*
X4572120Y9514960D01*
X5222120Y9514960D01*
X5222120Y8494710D01*
X5453870Y8262960D01*
X5731512Y8262960D01*
X6072224Y8404087D01*
X6332993Y8664857D01*
X6474120Y9005568D01*
X6474120Y9283210D01*
X6242370Y9514960D01*
X5222120Y9514960D01*
X4572120Y9514960D01*
X4572120Y9514960D01*
X3551870Y9514960D01*
X2169831Y9514960D01*
X2157913Y10035150D01*
X8920290Y10035150D01*
X8919950Y9646475D01*
X9068376Y9287257D01*
X9342971Y9012182D01*
X9701930Y8863130D01*
X10090605Y8862790D01*
X10449823Y9011216D01*
X10724898Y9285811D01*
X10873950Y9644770D01*
X10874290Y10033445D01*
X10725864Y10392663D01*
X10451269Y10667738D01*
X10092310Y10816790D01*
X9703635Y10817130D01*
X9344417Y10668704D01*
X6474120Y10668704D01*
X6474120Y10674352D01*
X6332993Y11015063D01*
X6072224Y11275833D01*
X5731512Y11416960D01*
X5453870Y11416960D01*
X5222120Y11185210D01*
X5222120Y10164960D01*
X6242370Y10164960D01*
X6474120Y10396710D01*
X6474120Y10668704D01*
X9344417Y10668704D01*
X6474120Y10668704D01*
X6474120Y10668704D01*
X9344417Y10668704D01*
X9069342Y10394109D01*
X8920290Y10035150D01*
X2157913Y10035150D01*
X2126253Y11416960D01*
X4062728Y11416960D01*
X3722016Y11275833D01*
X3461247Y11015063D01*
X3320120Y10674352D01*
X3320120Y10396710D01*
X3551870Y10164960D01*
X4572120Y10164960D01*
X4572120Y11185210D01*
X4340370Y11416960D01*
X4062728Y11416960D01*
X2126253Y11416960D01*
X2123848Y11521960D01*
X14169870Y11521960D01*
X13938120Y11290210D01*
X13938120Y10987568D01*
X14079247Y10646856D01*
X14340017Y10386087D01*
X14680728Y10244960D01*
X14983370Y10244960D01*
X15215120Y10476710D01*
X15215120Y11521960D01*
X15915120Y11521960D01*
X15215120Y11521960D01*
X15215120Y11521960D01*
X15915120Y11521960D01*
X15915120Y10476710D01*
X16146870Y10244960D01*
X16449512Y10244960D01*
X16790223Y10386087D01*
X17050993Y10646856D01*
X17192120Y10987568D01*
X17192120Y11290210D01*
X16960370Y11521960D01*
X15915120Y11521960D01*
X15215120Y11521960D01*
X15215120Y11521960D01*
X14169870Y11521960D01*
X2123848Y11521960D01*
X2078550Y13498960D01*
X14680728Y13498960D01*
X14340017Y13357833D01*
X14079247Y13097064D01*
X13938120Y12756352D01*
X13938120Y12453710D01*
X14169870Y12221960D01*
X15215120Y12221960D01*
X15215120Y13267210D01*
X14983370Y13498960D01*
X16146870Y13498960D01*
X15915120Y13267210D01*
X15915120Y12221960D01*
X16960370Y12221960D01*
X17192120Y12453710D01*
X17192120Y12756352D01*
X17050993Y13097064D01*
X16790223Y13357833D01*
X16449512Y13498960D01*
X16146870Y13498960D01*
X14983370Y13498960D01*
X14983370Y13498960D01*
X14680728Y13498960D01*
X2078550Y13498960D01*
X2027804Y15713710D01*
X19893196Y15713710D01*
X19749346Y15435151D01*
X19776930Y15419858D01*
X20200560Y14830331D01*
X20817545Y14447796D01*
X21098120Y14598831D01*
X21098120Y15713710D01*
X19893196Y15713710D01*
X2027804Y15713710D01*
X1999756Y16937829D01*
X2038776Y17221995D01*
X2160369Y17470402D01*
X2353677Y17668190D01*
X2599232Y17795440D01*
X2882438Y17840960D01*
X5929120Y17840960D01*
X5941387Y17843400D01*
X5953896Y17843400D01*
X6336579Y17919520D01*
X6382360Y17938483D01*
X6706782Y18155255D01*
X6706784Y18155256D01*
X6706785Y18155256D01*
X6724304Y18172776D01*
X6741824Y18190295D01*
X6741824Y18190296D01*
X6741825Y18190298D01*
X6958593Y18514716D01*
X6958596Y18514719D01*
X6958597Y18514719D01*
X6972005Y18547092D01*
X6977560Y18560500D01*
X6977560Y18560501D01*
X6997144Y18658960D01*
X9393870Y18658960D01*
X9162120Y18427210D01*
X9162120Y18149568D01*
X9303247Y17808857D01*
X9564016Y17548087D01*
X9904728Y17406960D01*
X10182370Y17406960D01*
X10414120Y17638710D01*
X10414120Y18658960D01*
X11064120Y18658960D01*
X10414120Y18658960D01*
X10414120Y18658960D01*
X11064120Y18658960D01*
X11064120Y17638710D01*
X11295870Y17406960D01*
X11573512Y17406960D01*
X11914224Y17548087D01*
X12174993Y17808857D01*
X12316120Y18149568D01*
X12316120Y18427210D01*
X12084370Y18658960D01*
X11064120Y18658960D01*
X10414120Y18658960D01*
X10414120Y18658960D01*
X9393870Y18658960D01*
X6997144Y18658960D01*
X7053680Y18943184D01*
X7053680Y18955693D01*
X7056120Y18967960D01*
X7056120Y19179150D01*
X14762290Y19179150D01*
X14761950Y18790475D01*
X14910376Y18431257D01*
X15184971Y18156182D01*
X15543930Y18007130D01*
X15932605Y18006790D01*
X16291823Y18155216D01*
X16566898Y18429811D01*
X16715950Y18788770D01*
X16716290Y19177445D01*
X16567864Y19536663D01*
X16293269Y19811738D01*
X15934310Y19960790D01*
X15545635Y19961130D01*
X15186417Y19812704D01*
X12316120Y19812704D01*
X12316120Y19818352D01*
X12174993Y20159063D01*
X11914224Y20419833D01*
X11573512Y20560960D01*
X11295870Y20560960D01*
X11064120Y20329210D01*
X11064120Y19308960D01*
X12084370Y19308960D01*
X12316120Y19540710D01*
X12316120Y19812704D01*
X15186417Y19812704D01*
X12316120Y19812704D01*
X12316120Y19812704D01*
X15186417Y19812704D01*
X14911342Y19538109D01*
X14762290Y19179150D01*
X7056120Y19179150D01*
X7056120Y20560960D01*
X9904728Y20560960D01*
X9564016Y20419833D01*
X9303247Y20159063D01*
X9162120Y19818352D01*
X9162120Y19540710D01*
X9393870Y19308960D01*
X10414120Y19308960D01*
X10414120Y20329210D01*
X10182370Y20560960D01*
X9904728Y20560960D01*
X7056120Y20560960D01*
X7056120Y22682960D01*
X7053680Y22695228D01*
X7053680Y22707736D01*
X6977560Y23090419D01*
X6977560Y23090420D01*
X6972005Y23103829D01*
X6958597Y23136201D01*
X6958593Y23136205D01*
X6741825Y23460623D01*
X6741824Y23460624D01*
X6741824Y23460625D01*
X6706785Y23495664D01*
X6706782Y23495666D01*
X6382360Y23712437D01*
X6336579Y23731400D01*
X5953896Y23807520D01*
X5941387Y23807520D01*
X5929120Y23809960D01*
X5359543Y23809960D01*
X5411812Y23896066D01*
X3881120Y25426758D01*
X3866978Y25412615D01*
X3070776Y26208817D01*
X3084918Y26222960D01*
X4677322Y26222960D01*
X6208014Y24692268D01*
X6609948Y24936256D01*
X6894629Y26078478D01*
X6720530Y27242696D01*
X6609948Y27509664D01*
X6208014Y27753652D01*
X4677322Y26222960D01*
X3084918Y26222960D01*
X3084918Y26222960D01*
X1647761Y27660117D01*
X1635946Y28291881D01*
X1635785Y28311549D01*
X1637516Y29062370D01*
X2861384Y29062370D01*
X2594416Y28951788D01*
X2350428Y28549854D01*
X3881120Y27019162D01*
X5411812Y28549854D01*
X5167824Y28951788D01*
X4025602Y29236469D01*
X2861384Y29062370D01*
X1637516Y29062370D01*
X1638419Y29453960D01*
X8123870Y29453960D01*
X7892120Y29222210D01*
X7892120Y28944568D01*
X8033247Y28603857D01*
X8294016Y28343087D01*
X8634728Y28201960D01*
X8912370Y28201960D01*
X9144120Y28433710D01*
X9144120Y29453960D01*
X9794120Y29453960D01*
X9144120Y29453960D01*
X9144120Y29453960D01*
X9794120Y29453960D01*
X9794120Y28433710D01*
X10025870Y28201960D01*
X10303512Y28201960D01*
X10644224Y28343087D01*
X10904993Y28603857D01*
X11046120Y28944568D01*
X11046120Y29222210D01*
X10814370Y29453960D01*
X9794120Y29453960D01*
X9144120Y29453960D01*
X9144120Y29453960D01*
X8123870Y29453960D01*
X1638419Y29453960D01*
X1639618Y29974150D01*
X13492290Y29974150D01*
X13491950Y29585475D01*
X13640376Y29226257D01*
X13914971Y28951182D01*
X14273930Y28802130D01*
X14662605Y28801790D01*
X15021823Y28950216D01*
X15296898Y29224811D01*
X15445950Y29583770D01*
X15446290Y29972445D01*
X15297864Y30331663D01*
X15023269Y30606738D01*
X14664310Y30755790D01*
X14275635Y30756130D01*
X13916417Y30607704D01*
X11046120Y30607704D01*
X11046120Y30613352D01*
X10904993Y30954063D01*
X10644224Y31214833D01*
X10303512Y31355960D01*
X10025870Y31355960D01*
X9794120Y31124210D01*
X9794120Y30103960D01*
X10814370Y30103960D01*
X11046120Y30335710D01*
X11046120Y30607704D01*
X13916417Y30607704D01*
X11046120Y30607704D01*
X11046120Y30607704D01*
X13916417Y30607704D01*
X13641342Y30333109D01*
X13492290Y29974150D01*
X1639618Y29974150D01*
X1642805Y31355960D01*
X8634728Y31355960D01*
X8294016Y31214833D01*
X8033247Y30954063D01*
X7892120Y30613352D01*
X7892120Y30335710D01*
X8123870Y30103960D01*
X9144120Y30103960D01*
X9144120Y31124210D01*
X8912370Y31355960D01*
X8634728Y31355960D01*
X1642805Y31355960D01*
X1649493Y34255710D01*
X19004196Y34255710D01*
X18860346Y33977151D01*
X18887930Y33961858D01*
X19311560Y33372331D01*
X19928545Y32989796D01*
X20209120Y33140831D01*
X20209120Y34255710D01*
X19004196Y34255710D01*
X1649493Y34255710D01*
X1653885Y36159960D01*
X13153870Y36159960D01*
X12922120Y35928210D01*
X12922120Y35625568D01*
X13063247Y35284856D01*
X13324017Y35024087D01*
X13664728Y34882960D01*
X13967370Y34882960D01*
X14199120Y35114710D01*
X14199120Y36159960D01*
X14899120Y36159960D01*
X14899120Y35114710D01*
X15130870Y34882960D01*
X15433512Y34882960D01*
X15774223Y35024087D01*
X16034993Y35284856D01*
X16176120Y35625568D01*
X16176120Y35928210D01*
X15944370Y36159960D01*
X14899120Y36159960D01*
X14199120Y36159960D01*
X14199120Y36159960D01*
X13153870Y36159960D01*
X1653885Y36159960D01*
X1658445Y38136960D01*
X13664728Y38136960D01*
X13324017Y37995833D01*
X13063247Y37735064D01*
X12922120Y37394352D01*
X12922120Y37091710D01*
X13153870Y36859960D01*
X14199120Y36859960D01*
X14199120Y37905210D01*
X13967370Y38136960D01*
X15130870Y38136960D01*
X14899120Y37905210D01*
X14899120Y36859960D01*
X15944370Y36859960D01*
X16176120Y37091710D01*
X16176120Y37394352D01*
X16034993Y37735064D01*
X15774223Y37995833D01*
X15433512Y38136960D01*
X15130870Y38136960D01*
X13967370Y38136960D01*
X13967370Y38136960D01*
X13664728Y38136960D01*
X1658445Y38136960D01*
X1661559Y39486960D01*
X2789870Y39486960D01*
X2558120Y39255210D01*
X2558120Y38977568D01*
X2699247Y38636857D01*
X2960016Y38376087D01*
X3300728Y38234960D01*
X3578370Y38234960D01*
X3810120Y38466710D01*
X3810120Y39486960D01*
X4460120Y39486960D01*
X3810120Y39486960D01*
X3810120Y39486960D01*
X4460120Y39486960D01*
X4460120Y38466710D01*
X4691870Y38234960D01*
X4969512Y38234960D01*
X5310224Y38376087D01*
X5570993Y38636857D01*
X5712120Y38977568D01*
X5712120Y39255210D01*
X5480370Y39486960D01*
X4460120Y39486960D01*
X3810120Y39486960D01*
X3810120Y39486960D01*
X2789870Y39486960D01*
X1661559Y39486960D01*
X1662759Y40007150D01*
X8158290Y40007150D01*
X8157950Y39618475D01*
X8306376Y39259257D01*
X8580971Y38984182D01*
X8939930Y38835130D01*
X9328605Y38834790D01*
X9687823Y38983216D01*
X9962898Y39257811D01*
X10111950Y39616770D01*
X10112290Y40005445D01*
X9963864Y40364663D01*
X9799531Y40529283D01*
X10418382Y47822454D01*
X11860530Y47822454D01*
X11985214Y47846645D01*
X12094800Y47918631D01*
X12168155Y48027305D01*
X12193936Y48155860D01*
X12193936Y49756060D01*
X12169745Y49880744D01*
X12097759Y49990330D01*
X11989085Y50063685D01*
X11860530Y50089466D01*
X8261350Y50089466D01*
X7224167Y50089466D01*
X7144763Y50281163D01*
X6883994Y50541933D01*
X6543282Y50683060D01*
X5354050Y50683060D01*
X5122300Y50451310D01*
X5122300Y49356010D01*
X7054140Y49356010D01*
X7285890Y49587760D01*
X7285890Y49940452D01*
X7224167Y50089466D01*
X8261350Y50089466D01*
X7224167Y50089466D01*
X7224167Y50089466D01*
X8261350Y50089466D01*
X8136666Y50065275D01*
X8027080Y49993289D01*
X7953725Y49884615D01*
X7927944Y49756060D01*
X7927944Y48155860D01*
X7285890Y48155860D01*
X7285890Y48324160D01*
X7054140Y48555910D01*
X5122300Y48555910D01*
X5122300Y47460610D01*
X5354050Y47228860D01*
X6543282Y47228860D01*
X6883994Y47369987D01*
X7144763Y47630757D01*
X7285890Y47971468D01*
X7285890Y48155860D01*
X7927944Y48155860D01*
X7285890Y48155860D01*
X7285890Y48155860D01*
X7927944Y48155860D01*
X7952135Y48031176D01*
X8024121Y47921590D01*
X8132795Y47848235D01*
X8261350Y47822454D01*
X9511133Y47822454D01*
X8913339Y40777438D01*
X5657823Y40777438D01*
X5570993Y40987063D01*
X5310224Y41247833D01*
X4969512Y41388960D01*
X4691870Y41388960D01*
X4460120Y41157210D01*
X4460120Y40136960D01*
X5480370Y40136960D01*
X5712120Y40368710D01*
X5712120Y40646352D01*
X5657823Y40777438D01*
X8913339Y40777438D01*
X5657823Y40777438D01*
X5657823Y40777438D01*
X8913339Y40777438D01*
X8582417Y40640704D01*
X8307342Y40366109D01*
X8158290Y40007150D01*
X1662759Y40007150D01*
X1665946Y41388960D01*
X3300728Y41388960D01*
X2960016Y41247833D01*
X2699247Y40987063D01*
X2558120Y40646352D01*
X2558120Y40368710D01*
X2789870Y40136960D01*
X3810120Y40136960D01*
X3810120Y41157210D01*
X3578370Y41388960D01*
X3300728Y41388960D01*
X1665946Y41388960D01*
X1682479Y48555910D01*
X2064460Y48555910D01*
X1832710Y48324160D01*
X1832710Y47971468D01*
X1973837Y47630757D01*
X2234606Y47369987D01*
X2575318Y47228860D01*
X3764550Y47228860D01*
X3996300Y47460610D01*
X3996300Y48555910D01*
X2064460Y48555910D01*
X1682479Y48555910D01*
X1687386Y50683060D01*
X2575318Y50683060D01*
X2234606Y50541933D01*
X1973837Y50281163D01*
X1832710Y49940452D01*
X1832710Y49587760D01*
X2064460Y49356010D01*
X3996300Y49356010D01*
X3996300Y50451310D01*
X3764550Y50683060D01*
X2575318Y50683060D01*
X1687386Y50683060D01*
X1689310Y51516728D01*
X1758659Y51861726D01*
X1947496Y52143460D01*
X2229666Y52331647D01*
X2574826Y52400200D01*
X15527970Y52400200D01*
X15873610Y52331449D01*
M02*
