G04 #@! TF.FileFunction,Paste,Top*
%FSLAX46Y46*%
G04 Gerber Fmt 4.6, Leading zero omitted, Abs format (unit mm)*
G04 Created by KiCad (PCBNEW (2015-07-04 BZR 5884)-product) date Wed 15 Jul 2015 18:55:40 CEST*
%MOMM*%
G01*
G04 APERTURE LIST*
%ADD10C,0.050000*%
%ADD11C,0.010000*%
%ADD12R,3.599180X1.600200*%
%ADD13R,1.200000X0.750000*%
%ADD14R,0.750000X1.200000*%
%ADD15R,3.600000X3.200000*%
%ADD16R,5.400040X2.900680*%
%ADD17R,0.800100X0.800100*%
%ADD18R,1.200000X0.900000*%
%ADD19R,0.900000X1.200000*%
%ADD20R,0.600000X1.500000*%
%ADD21R,0.797560X0.797560*%
G04 APERTURE END LIST*
D10*
D11*
X5080Y5080D02*
X99451160Y5080D01*
X5080Y53721000D02*
X5080Y5080D01*
X98054160Y53721000D02*
X5080Y53721000D01*
X99451160Y52324000D02*
X98054160Y53721000D01*
X99451160Y5080D02*
X99451160Y52324000D01*
D12*
X4559300Y48955960D03*
X10060940Y48955960D03*
D13*
X25537120Y35747960D03*
X27437120Y35747960D03*
X26426120Y18475960D03*
X28326120Y18475960D03*
D14*
X24582120Y45592960D03*
X24582120Y47492960D03*
D15*
X40315320Y45501560D03*
X32115320Y45501560D03*
D16*
X35758120Y36177220D03*
X35758120Y26174700D03*
X36266120Y17381220D03*
X36266120Y7378700D03*
D17*
X63052920Y40182800D03*
X64952920Y40182800D03*
X64002920Y42181780D03*
X65948520Y45415200D03*
X67848520Y45415200D03*
X66898520Y47414180D03*
D18*
X47561320Y5623560D03*
X49761320Y5623560D03*
X52336520Y5623560D03*
X54536520Y5623560D03*
D19*
X61793120Y45991960D03*
X61793120Y43791960D03*
X63901320Y45569960D03*
X63901320Y47769960D03*
D18*
X62953720Y38033960D03*
X65153720Y38033960D03*
X67068520Y42148760D03*
X69268520Y42148760D03*
X88760120Y24825960D03*
X90960120Y24825960D03*
D19*
X89148920Y22217560D03*
X89148920Y20017560D03*
D20*
X22296120Y49369960D03*
X21026120Y49369960D03*
X19756120Y49369960D03*
X18486120Y49369960D03*
X18486120Y43969960D03*
X19756120Y43969960D03*
X21026120Y43969960D03*
X22296120Y43969960D03*
D16*
X48966120Y47353220D03*
X48966120Y37350700D03*
D21*
X92019120Y29918660D03*
X92019120Y31417260D03*
X92019120Y21282660D03*
X92019120Y22781260D03*
M02*
