G04 #@! TF.FileFunction,Legend,Top*
%FSLAX46Y46*%
G04 Gerber Fmt 4.6, Leading zero omitted, Abs format (unit mm)*
G04 Created by KiCad (PCBNEW (2015-07-04 BZR 5884)-product) date Wed 15 Jul 2015 18:55:40 CEST*
%MOMM*%
G01*
G04 APERTURE LIST*
%ADD10C,0.050000*%
%ADD11C,0.010000*%
%ADD12C,0.150000*%
%ADD13C,0.381000*%
%ADD14C,0.002540*%
%ADD15C,0.127000*%
%ADD16C,0.410000*%
%ADD17C,0.100000*%
%ADD18C,0.076200*%
G04 APERTURE END LIST*
D10*
D11*
X5080Y5080D02*
X99451160Y5080D01*
X5080Y53721000D02*
X5080Y5080D01*
X98054160Y53721000D02*
X5080Y53721000D01*
X99451160Y52324000D02*
X98054160Y53721000D01*
X99451160Y5080D02*
X99451160Y52324000D01*
D12*
X54835120Y28092960D02*
X42335120Y28092960D01*
X54831120Y27952960D02*
X42339120Y27952960D01*
X54825120Y27812960D02*
X42345120Y27812960D01*
X54815120Y27672960D02*
X42355120Y27672960D01*
X54803120Y27532960D02*
X42367120Y27532960D01*
X54787120Y27392960D02*
X42383120Y27392960D01*
X54768120Y27252960D02*
X42402120Y27252960D01*
X54745120Y27112960D02*
X42425120Y27112960D01*
X54720120Y26972960D02*
X42450120Y26972960D01*
X54691120Y26832960D02*
X42479120Y26832960D01*
X54658120Y26692960D02*
X49106120Y26692960D01*
X48064120Y26692960D02*
X42512120Y26692960D01*
X54623120Y26552960D02*
X49319120Y26552960D01*
X47851120Y26552960D02*
X42547120Y26552960D01*
X54584120Y26412960D02*
X49461120Y26412960D01*
X47709120Y26412960D02*
X42586120Y26412960D01*
X54541120Y26272960D02*
X49563120Y26272960D01*
X47607120Y26272960D02*
X42629120Y26272960D01*
X54494120Y26132960D02*
X49637120Y26132960D01*
X47533120Y26132960D02*
X42676120Y26132960D01*
X54444120Y25992960D02*
X49688120Y25992960D01*
X47482120Y25992960D02*
X42726120Y25992960D01*
X54390120Y25852960D02*
X49720120Y25852960D01*
X47450120Y25852960D02*
X42780120Y25852960D01*
X54333120Y25712960D02*
X49734120Y25712960D01*
X47436120Y25712960D02*
X42837120Y25712960D01*
X54271120Y25572960D02*
X49731120Y25572960D01*
X47439120Y25572960D02*
X42899120Y25572960D01*
X54205120Y25432960D02*
X49711120Y25432960D01*
X47459120Y25432960D02*
X42965120Y25432960D01*
X54134120Y25292960D02*
X49672120Y25292960D01*
X47498120Y25292960D02*
X43036120Y25292960D01*
X54060120Y25152960D02*
X49613120Y25152960D01*
X47557120Y25152960D02*
X43110120Y25152960D01*
X53980120Y25012960D02*
X49530120Y25012960D01*
X47640120Y25012960D02*
X43190120Y25012960D01*
X53896120Y24872960D02*
X49416120Y24872960D01*
X47754120Y24872960D02*
X43274120Y24872960D01*
X53806120Y24732960D02*
X49255120Y24732960D01*
X47915120Y24732960D02*
X43364120Y24732960D01*
X53712120Y24592960D02*
X48994120Y24592960D01*
X48176120Y24592960D02*
X43458120Y24592960D01*
X53611120Y24452960D02*
X43559120Y24452960D01*
X53504120Y24312960D02*
X43666120Y24312960D01*
X53392120Y24172960D02*
X43778120Y24172960D01*
X53272120Y24032960D02*
X43898120Y24032960D01*
X53144120Y23892960D02*
X44026120Y23892960D01*
X53009120Y23752960D02*
X44161120Y23752960D01*
X52865120Y23612960D02*
X44305120Y23612960D01*
X52710120Y23472960D02*
X44460120Y23472960D01*
X52545120Y23332960D02*
X44625120Y23332960D01*
X52368120Y23192960D02*
X44802120Y23192960D01*
X52177120Y23052960D02*
X44993120Y23052960D01*
X51968120Y22912960D02*
X45202120Y22912960D01*
X51740120Y22772960D02*
X45430120Y22772960D01*
X51488120Y22632960D02*
X45682120Y22632960D01*
X51204120Y22492960D02*
X45966120Y22492960D01*
X50876120Y22352960D02*
X46294120Y22352960D01*
X50482120Y22212960D02*
X46688120Y22212960D01*
X49968120Y22072960D02*
X47202120Y22072960D01*
X49018120Y21932960D02*
X48152120Y21932960D01*
X49735120Y25667960D02*
G75*
G03X49735120Y25667960I-1150000J0D01*
G01*
X54872620Y28167960D02*
G75*
G03X54872620Y28167960I-6287500J0D01*
G01*
D13*
X99258120Y187960D02*
X198120Y187960D01*
X97988120Y53527960D02*
X198120Y53527960D01*
X99258120Y2727960D02*
X99258120Y52257960D01*
X99258120Y52257960D02*
X97988120Y53527960D01*
X198120Y187960D02*
X198120Y53527960D01*
X99258120Y2727960D02*
X99258120Y187960D01*
D14*
G36*
X78828900Y5603240D02*
X78879700Y5631180D01*
X78999080Y5704840D01*
X79164180Y5814060D01*
X79362300Y5946140D01*
X79560420Y6078220D01*
X79722980Y6187440D01*
X79837280Y6261100D01*
X79885540Y6289040D01*
X79910940Y6278880D01*
X80004920Y6233160D01*
X80142080Y6162040D01*
X80220820Y6121400D01*
X80345280Y6068060D01*
X80408780Y6055360D01*
X80418940Y6073140D01*
X80464660Y6169660D01*
X80535780Y6332220D01*
X80629760Y6550660D01*
X80738980Y6804660D01*
X80853280Y7076440D01*
X80970120Y7355840D01*
X81081880Y7622540D01*
X81178400Y7861300D01*
X81257140Y8056880D01*
X81307940Y8191500D01*
X81328260Y8249920D01*
X81323180Y8262620D01*
X81259680Y8323580D01*
X81150460Y8404860D01*
X80914240Y8597900D01*
X80680560Y8890000D01*
X80538320Y9220200D01*
X80490060Y9588500D01*
X80530700Y9928860D01*
X80665320Y10256520D01*
X80893920Y10551160D01*
X81170780Y10772140D01*
X81495900Y10909300D01*
X81859120Y10955020D01*
X82207100Y10914380D01*
X82542380Y10782300D01*
X82837020Y10558780D01*
X82961480Y10414000D01*
X83134200Y10116820D01*
X83230720Y9796780D01*
X83240880Y9715500D01*
X83228180Y9364980D01*
X83124040Y9027160D01*
X82938620Y8724900D01*
X82679540Y8478520D01*
X82649060Y8455660D01*
X82529680Y8366760D01*
X82448400Y8305800D01*
X82387440Y8255000D01*
X82834480Y7178040D01*
X82905600Y7007860D01*
X83027520Y6713220D01*
X83136740Y6459220D01*
X83220560Y6258560D01*
X83281520Y6123940D01*
X83306920Y6068060D01*
X83309460Y6065520D01*
X83350100Y6057900D01*
X83431380Y6088380D01*
X83581240Y6162040D01*
X83680300Y6212840D01*
X83794600Y6268720D01*
X83847940Y6289040D01*
X83891120Y6263640D01*
X84000340Y6192520D01*
X84160360Y6085840D01*
X84353400Y5956300D01*
X84536280Y5831840D01*
X84703920Y5720080D01*
X84828380Y5641340D01*
X84886800Y5608320D01*
X84896960Y5608320D01*
X84950300Y5638800D01*
X85046820Y5720080D01*
X85194140Y5857240D01*
X85399880Y6062980D01*
X85432900Y6093460D01*
X85603080Y6268720D01*
X85740240Y6413500D01*
X85834220Y6517640D01*
X85867240Y6563360D01*
X85867240Y6563360D01*
X85836760Y6621780D01*
X85760560Y6743700D01*
X85648800Y6916420D01*
X85511640Y7114540D01*
X85156040Y7632700D01*
X85351620Y8122920D01*
X85410040Y8272780D01*
X85486240Y8453120D01*
X85544660Y8582660D01*
X85572600Y8638540D01*
X85625940Y8658860D01*
X85760560Y8689340D01*
X85953600Y8729980D01*
X86184740Y8773160D01*
X86405720Y8813800D01*
X86603840Y8851900D01*
X86748620Y8879840D01*
X86812120Y8892540D01*
X86827360Y8902700D01*
X86842600Y8933180D01*
X86850220Y9001760D01*
X86855300Y9121140D01*
X86857840Y9311640D01*
X86857840Y9588500D01*
X86857840Y9618980D01*
X86855300Y9880600D01*
X86850220Y10091420D01*
X86842600Y10228580D01*
X86834980Y10281920D01*
X86832440Y10281920D01*
X86771480Y10297160D01*
X86631780Y10327640D01*
X86431120Y10365740D01*
X86194900Y10411460D01*
X86179660Y10414000D01*
X85943440Y10459720D01*
X85745320Y10500360D01*
X85605620Y10533380D01*
X85547200Y10551160D01*
X85534500Y10568940D01*
X85488780Y10660380D01*
X85420200Y10807700D01*
X85341460Y10985500D01*
X85265260Y11170920D01*
X85196680Y11338560D01*
X85153500Y11463020D01*
X85138260Y11518900D01*
X85140800Y11521440D01*
X85176360Y11577320D01*
X85257640Y11699240D01*
X85371940Y11869420D01*
X85509100Y12072620D01*
X85519260Y12087860D01*
X85656420Y12285980D01*
X85765640Y12456160D01*
X85839300Y12575540D01*
X85867240Y12631420D01*
X85867240Y12633960D01*
X85821520Y12694920D01*
X85719920Y12806680D01*
X85575140Y12959080D01*
X85399880Y13136880D01*
X85344000Y13190220D01*
X85148420Y13380720D01*
X85013800Y13505180D01*
X84929980Y13571220D01*
X84889340Y13586460D01*
X84889340Y13583920D01*
X84828380Y13548360D01*
X84701380Y13467080D01*
X84531200Y13350240D01*
X84328000Y13213080D01*
X84312760Y13202920D01*
X84114640Y13065760D01*
X83947000Y12954000D01*
X83830160Y12875260D01*
X83776820Y12844780D01*
X83769200Y12844780D01*
X83687920Y12867640D01*
X83545680Y12918440D01*
X83370420Y12987020D01*
X83185000Y13060680D01*
X83017360Y13131800D01*
X82890360Y13187680D01*
X82831940Y13223240D01*
X82829400Y13225780D01*
X82809080Y13296900D01*
X82773520Y13446760D01*
X82732880Y13652500D01*
X82684620Y13896340D01*
X82677000Y13936980D01*
X82633820Y14175740D01*
X82595720Y14371320D01*
X82567780Y14508480D01*
X82552540Y14564360D01*
X82519520Y14571980D01*
X82402680Y14579600D01*
X82224880Y14584680D01*
X82008980Y14587220D01*
X81782920Y14584680D01*
X81561940Y14579600D01*
X81373980Y14574520D01*
X81239360Y14564360D01*
X81183480Y14554200D01*
X81180940Y14549120D01*
X81160620Y14475460D01*
X81127600Y14325600D01*
X81084420Y14119860D01*
X81038700Y13873480D01*
X81028540Y13830300D01*
X80985360Y13594080D01*
X80944720Y13398500D01*
X80916780Y13263880D01*
X80901540Y13210540D01*
X80878680Y13200380D01*
X80782160Y13157200D01*
X80622140Y13091160D01*
X80424020Y13012420D01*
X79966820Y12827000D01*
X79405480Y13210540D01*
X79354680Y13246100D01*
X79151480Y13383260D01*
X78986380Y13492480D01*
X78872080Y13568680D01*
X78823820Y13594080D01*
X78818740Y13594080D01*
X78762860Y13543280D01*
X78653640Y13439140D01*
X78501240Y13291820D01*
X78323440Y13116560D01*
X78193900Y12984480D01*
X78038960Y12827000D01*
X77939900Y12722860D01*
X77886560Y12654280D01*
X77868780Y12613640D01*
X77873860Y12585700D01*
X77909420Y12527280D01*
X77990700Y12405360D01*
X78107540Y12235180D01*
X78244700Y12037060D01*
X78356460Y11869420D01*
X78478380Y11681460D01*
X78557120Y11546840D01*
X78585060Y11480800D01*
X78577440Y11455400D01*
X78539340Y11343640D01*
X78470760Y11178540D01*
X78386940Y10980420D01*
X78191360Y10535920D01*
X77901800Y10480040D01*
X77724000Y10447020D01*
X77477620Y10398760D01*
X77241400Y10353040D01*
X76873100Y10281920D01*
X76860400Y8928100D01*
X76916280Y8902700D01*
X76972160Y8887460D01*
X77109320Y8856980D01*
X77302360Y8818880D01*
X77533500Y8775700D01*
X77729080Y8740140D01*
X77927200Y8702040D01*
X78069440Y8674100D01*
X78130400Y8661400D01*
X78148180Y8638540D01*
X78196440Y8544560D01*
X78267560Y8392160D01*
X78346300Y8209280D01*
X78425040Y8018780D01*
X78493620Y7843520D01*
X78541880Y7711440D01*
X78562200Y7642860D01*
X78534260Y7589520D01*
X78460600Y7472680D01*
X78351380Y7307580D01*
X78216760Y7112000D01*
X78082140Y6916420D01*
X77967840Y6748780D01*
X77889100Y6626860D01*
X77856080Y6570980D01*
X77873860Y6535420D01*
X77952600Y6438900D01*
X78099920Y6286500D01*
X78320900Y6068060D01*
X78356460Y6032500D01*
X78531720Y5864860D01*
X78679040Y5727700D01*
X78783180Y5636260D01*
X78828900Y5603240D01*
X78828900Y5603240D01*
G37*
X78828900Y5603240D02*
X78879700Y5631180D01*
X78999080Y5704840D01*
X79164180Y5814060D01*
X79362300Y5946140D01*
X79560420Y6078220D01*
X79722980Y6187440D01*
X79837280Y6261100D01*
X79885540Y6289040D01*
X79910940Y6278880D01*
X80004920Y6233160D01*
X80142080Y6162040D01*
X80220820Y6121400D01*
X80345280Y6068060D01*
X80408780Y6055360D01*
X80418940Y6073140D01*
X80464660Y6169660D01*
X80535780Y6332220D01*
X80629760Y6550660D01*
X80738980Y6804660D01*
X80853280Y7076440D01*
X80970120Y7355840D01*
X81081880Y7622540D01*
X81178400Y7861300D01*
X81257140Y8056880D01*
X81307940Y8191500D01*
X81328260Y8249920D01*
X81323180Y8262620D01*
X81259680Y8323580D01*
X81150460Y8404860D01*
X80914240Y8597900D01*
X80680560Y8890000D01*
X80538320Y9220200D01*
X80490060Y9588500D01*
X80530700Y9928860D01*
X80665320Y10256520D01*
X80893920Y10551160D01*
X81170780Y10772140D01*
X81495900Y10909300D01*
X81859120Y10955020D01*
X82207100Y10914380D01*
X82542380Y10782300D01*
X82837020Y10558780D01*
X82961480Y10414000D01*
X83134200Y10116820D01*
X83230720Y9796780D01*
X83240880Y9715500D01*
X83228180Y9364980D01*
X83124040Y9027160D01*
X82938620Y8724900D01*
X82679540Y8478520D01*
X82649060Y8455660D01*
X82529680Y8366760D01*
X82448400Y8305800D01*
X82387440Y8255000D01*
X82834480Y7178040D01*
X82905600Y7007860D01*
X83027520Y6713220D01*
X83136740Y6459220D01*
X83220560Y6258560D01*
X83281520Y6123940D01*
X83306920Y6068060D01*
X83309460Y6065520D01*
X83350100Y6057900D01*
X83431380Y6088380D01*
X83581240Y6162040D01*
X83680300Y6212840D01*
X83794600Y6268720D01*
X83847940Y6289040D01*
X83891120Y6263640D01*
X84000340Y6192520D01*
X84160360Y6085840D01*
X84353400Y5956300D01*
X84536280Y5831840D01*
X84703920Y5720080D01*
X84828380Y5641340D01*
X84886800Y5608320D01*
X84896960Y5608320D01*
X84950300Y5638800D01*
X85046820Y5720080D01*
X85194140Y5857240D01*
X85399880Y6062980D01*
X85432900Y6093460D01*
X85603080Y6268720D01*
X85740240Y6413500D01*
X85834220Y6517640D01*
X85867240Y6563360D01*
X85867240Y6563360D01*
X85836760Y6621780D01*
X85760560Y6743700D01*
X85648800Y6916420D01*
X85511640Y7114540D01*
X85156040Y7632700D01*
X85351620Y8122920D01*
X85410040Y8272780D01*
X85486240Y8453120D01*
X85544660Y8582660D01*
X85572600Y8638540D01*
X85625940Y8658860D01*
X85760560Y8689340D01*
X85953600Y8729980D01*
X86184740Y8773160D01*
X86405720Y8813800D01*
X86603840Y8851900D01*
X86748620Y8879840D01*
X86812120Y8892540D01*
X86827360Y8902700D01*
X86842600Y8933180D01*
X86850220Y9001760D01*
X86855300Y9121140D01*
X86857840Y9311640D01*
X86857840Y9588500D01*
X86857840Y9618980D01*
X86855300Y9880600D01*
X86850220Y10091420D01*
X86842600Y10228580D01*
X86834980Y10281920D01*
X86832440Y10281920D01*
X86771480Y10297160D01*
X86631780Y10327640D01*
X86431120Y10365740D01*
X86194900Y10411460D01*
X86179660Y10414000D01*
X85943440Y10459720D01*
X85745320Y10500360D01*
X85605620Y10533380D01*
X85547200Y10551160D01*
X85534500Y10568940D01*
X85488780Y10660380D01*
X85420200Y10807700D01*
X85341460Y10985500D01*
X85265260Y11170920D01*
X85196680Y11338560D01*
X85153500Y11463020D01*
X85138260Y11518900D01*
X85140800Y11521440D01*
X85176360Y11577320D01*
X85257640Y11699240D01*
X85371940Y11869420D01*
X85509100Y12072620D01*
X85519260Y12087860D01*
X85656420Y12285980D01*
X85765640Y12456160D01*
X85839300Y12575540D01*
X85867240Y12631420D01*
X85867240Y12633960D01*
X85821520Y12694920D01*
X85719920Y12806680D01*
X85575140Y12959080D01*
X85399880Y13136880D01*
X85344000Y13190220D01*
X85148420Y13380720D01*
X85013800Y13505180D01*
X84929980Y13571220D01*
X84889340Y13586460D01*
X84889340Y13583920D01*
X84828380Y13548360D01*
X84701380Y13467080D01*
X84531200Y13350240D01*
X84328000Y13213080D01*
X84312760Y13202920D01*
X84114640Y13065760D01*
X83947000Y12954000D01*
X83830160Y12875260D01*
X83776820Y12844780D01*
X83769200Y12844780D01*
X83687920Y12867640D01*
X83545680Y12918440D01*
X83370420Y12987020D01*
X83185000Y13060680D01*
X83017360Y13131800D01*
X82890360Y13187680D01*
X82831940Y13223240D01*
X82829400Y13225780D01*
X82809080Y13296900D01*
X82773520Y13446760D01*
X82732880Y13652500D01*
X82684620Y13896340D01*
X82677000Y13936980D01*
X82633820Y14175740D01*
X82595720Y14371320D01*
X82567780Y14508480D01*
X82552540Y14564360D01*
X82519520Y14571980D01*
X82402680Y14579600D01*
X82224880Y14584680D01*
X82008980Y14587220D01*
X81782920Y14584680D01*
X81561940Y14579600D01*
X81373980Y14574520D01*
X81239360Y14564360D01*
X81183480Y14554200D01*
X81180940Y14549120D01*
X81160620Y14475460D01*
X81127600Y14325600D01*
X81084420Y14119860D01*
X81038700Y13873480D01*
X81028540Y13830300D01*
X80985360Y13594080D01*
X80944720Y13398500D01*
X80916780Y13263880D01*
X80901540Y13210540D01*
X80878680Y13200380D01*
X80782160Y13157200D01*
X80622140Y13091160D01*
X80424020Y13012420D01*
X79966820Y12827000D01*
X79405480Y13210540D01*
X79354680Y13246100D01*
X79151480Y13383260D01*
X78986380Y13492480D01*
X78872080Y13568680D01*
X78823820Y13594080D01*
X78818740Y13594080D01*
X78762860Y13543280D01*
X78653640Y13439140D01*
X78501240Y13291820D01*
X78323440Y13116560D01*
X78193900Y12984480D01*
X78038960Y12827000D01*
X77939900Y12722860D01*
X77886560Y12654280D01*
X77868780Y12613640D01*
X77873860Y12585700D01*
X77909420Y12527280D01*
X77990700Y12405360D01*
X78107540Y12235180D01*
X78244700Y12037060D01*
X78356460Y11869420D01*
X78478380Y11681460D01*
X78557120Y11546840D01*
X78585060Y11480800D01*
X78577440Y11455400D01*
X78539340Y11343640D01*
X78470760Y11178540D01*
X78386940Y10980420D01*
X78191360Y10535920D01*
X77901800Y10480040D01*
X77724000Y10447020D01*
X77477620Y10398760D01*
X77241400Y10353040D01*
X76873100Y10281920D01*
X76860400Y8928100D01*
X76916280Y8902700D01*
X76972160Y8887460D01*
X77109320Y8856980D01*
X77302360Y8818880D01*
X77533500Y8775700D01*
X77729080Y8740140D01*
X77927200Y8702040D01*
X78069440Y8674100D01*
X78130400Y8661400D01*
X78148180Y8638540D01*
X78196440Y8544560D01*
X78267560Y8392160D01*
X78346300Y8209280D01*
X78425040Y8018780D01*
X78493620Y7843520D01*
X78541880Y7711440D01*
X78562200Y7642860D01*
X78534260Y7589520D01*
X78460600Y7472680D01*
X78351380Y7307580D01*
X78216760Y7112000D01*
X78082140Y6916420D01*
X77967840Y6748780D01*
X77889100Y6626860D01*
X77856080Y6570980D01*
X77873860Y6535420D01*
X77952600Y6438900D01*
X78099920Y6286500D01*
X78320900Y6068060D01*
X78356460Y6032500D01*
X78531720Y5864860D01*
X78679040Y5727700D01*
X78783180Y5636260D01*
X78828900Y5603240D01*
D12*
X12044120Y34777960D02*
X12044120Y24779960D01*
X12184120Y34773960D02*
X12184120Y24783960D01*
X12324120Y34765960D02*
X12324120Y24791960D01*
X12464120Y34753960D02*
X12464120Y24803960D01*
X12604120Y34738960D02*
X12604120Y24818960D01*
X12744120Y34718960D02*
X12744120Y24838960D01*
X12884120Y34694960D02*
X12884120Y24862960D01*
X13024120Y34665960D02*
X13024120Y24891960D01*
X13164120Y34633960D02*
X13164120Y24923960D01*
X13304120Y34596960D02*
X13304120Y24960960D01*
X13444120Y34555960D02*
X13444120Y25001960D01*
X13584120Y34510960D02*
X13584120Y30244960D01*
X13584120Y29312960D02*
X13584120Y25046960D01*
X13724120Y34460960D02*
X13724120Y30445960D01*
X13724120Y29111960D02*
X13724120Y25096960D01*
X13864120Y34405960D02*
X13864120Y30574960D01*
X13864120Y28982960D02*
X13864120Y25151960D01*
X14004120Y34345960D02*
X14004120Y30663960D01*
X14004120Y28893960D02*
X14004120Y25211960D01*
X14144120Y34280960D02*
X14144120Y30724960D01*
X14144120Y28832960D02*
X14144120Y25276960D01*
X14284120Y34210960D02*
X14284120Y30761960D01*
X14284120Y28795960D02*
X14284120Y25346960D01*
X14424120Y34134960D02*
X14424120Y30777960D01*
X14424120Y28779960D02*
X14424120Y25422960D01*
X14564120Y34052960D02*
X14564120Y30773960D01*
X14564120Y28783960D02*
X14564120Y25504960D01*
X14704120Y33964960D02*
X14704120Y30750960D01*
X14704120Y28806960D02*
X14704120Y25592960D01*
X14844120Y33869960D02*
X14844120Y30705960D01*
X14844120Y28851960D02*
X14844120Y25687960D01*
X14984120Y33767960D02*
X14984120Y30635960D01*
X14984120Y28921960D02*
X14984120Y25789960D01*
X15124120Y33657960D02*
X15124120Y30534960D01*
X15124120Y29022960D02*
X15124120Y25899960D01*
X15264120Y33539960D02*
X15264120Y30385960D01*
X15264120Y29171960D02*
X15264120Y26017960D01*
X15404120Y33411960D02*
X15404120Y30133960D01*
X15404120Y29423960D02*
X15404120Y26145960D01*
X15544120Y33274960D02*
X15544120Y26282960D01*
X15684120Y33124960D02*
X15684120Y26432960D01*
X15824120Y32962960D02*
X15824120Y26594960D01*
X15964120Y32785960D02*
X15964120Y26771960D01*
X16104120Y32589960D02*
X16104120Y26967960D01*
X16244120Y32371960D02*
X16244120Y27185960D01*
X16384120Y32125960D02*
X16384120Y27431960D01*
X16524120Y31840960D02*
X16524120Y27716960D01*
X16664120Y31498960D02*
X16664120Y28058960D01*
X16804120Y31052960D02*
X16804120Y28504960D01*
X16944120Y30277960D02*
X16944120Y29279960D01*
X15469120Y29778960D02*
G75*
G03X15469120Y29778960I-1000000J0D01*
G01*
X17006620Y29778960D02*
G75*
G03X17006620Y29778960I-5037500J0D01*
G01*
X7472120Y14838960D02*
X7472120Y4840960D01*
X7612120Y14834960D02*
X7612120Y4844960D01*
X7752120Y14826960D02*
X7752120Y4852960D01*
X7892120Y14814960D02*
X7892120Y4864960D01*
X8032120Y14799960D02*
X8032120Y4879960D01*
X8172120Y14779960D02*
X8172120Y4899960D01*
X8312120Y14755960D02*
X8312120Y4923960D01*
X8452120Y14726960D02*
X8452120Y4952960D01*
X8592120Y14694960D02*
X8592120Y4984960D01*
X8732120Y14657960D02*
X8732120Y5021960D01*
X8872120Y14616960D02*
X8872120Y5062960D01*
X9012120Y14571960D02*
X9012120Y10305960D01*
X9012120Y9373960D02*
X9012120Y5107960D01*
X9152120Y14521960D02*
X9152120Y10506960D01*
X9152120Y9172960D02*
X9152120Y5157960D01*
X9292120Y14466960D02*
X9292120Y10635960D01*
X9292120Y9043960D02*
X9292120Y5212960D01*
X9432120Y14406960D02*
X9432120Y10724960D01*
X9432120Y8954960D02*
X9432120Y5272960D01*
X9572120Y14341960D02*
X9572120Y10785960D01*
X9572120Y8893960D02*
X9572120Y5337960D01*
X9712120Y14271960D02*
X9712120Y10822960D01*
X9712120Y8856960D02*
X9712120Y5407960D01*
X9852120Y14195960D02*
X9852120Y10838960D01*
X9852120Y8840960D02*
X9852120Y5483960D01*
X9992120Y14113960D02*
X9992120Y10834960D01*
X9992120Y8844960D02*
X9992120Y5565960D01*
X10132120Y14025960D02*
X10132120Y10811960D01*
X10132120Y8867960D02*
X10132120Y5653960D01*
X10272120Y13930960D02*
X10272120Y10766960D01*
X10272120Y8912960D02*
X10272120Y5748960D01*
X10412120Y13828960D02*
X10412120Y10696960D01*
X10412120Y8982960D02*
X10412120Y5850960D01*
X10552120Y13718960D02*
X10552120Y10595960D01*
X10552120Y9083960D02*
X10552120Y5960960D01*
X10692120Y13600960D02*
X10692120Y10446960D01*
X10692120Y9232960D02*
X10692120Y6078960D01*
X10832120Y13472960D02*
X10832120Y10194960D01*
X10832120Y9484960D02*
X10832120Y6206960D01*
X10972120Y13335960D02*
X10972120Y6343960D01*
X11112120Y13185960D02*
X11112120Y6493960D01*
X11252120Y13023960D02*
X11252120Y6655960D01*
X11392120Y12846960D02*
X11392120Y6832960D01*
X11532120Y12650960D02*
X11532120Y7028960D01*
X11672120Y12432960D02*
X11672120Y7246960D01*
X11812120Y12186960D02*
X11812120Y7492960D01*
X11952120Y11901960D02*
X11952120Y7777960D01*
X12092120Y11559960D02*
X12092120Y8119960D01*
X12232120Y11113960D02*
X12232120Y8565960D01*
X12372120Y10338960D02*
X12372120Y9340960D01*
X10897120Y9839960D02*
G75*
G03X10897120Y9839960I-1000000J0D01*
G01*
X12434620Y9839960D02*
G75*
G03X12434620Y9839960I-5037500J0D01*
G01*
X6710120Y44810960D02*
X6710120Y34812960D01*
X6850120Y44806960D02*
X6850120Y34816960D01*
X6990120Y44798960D02*
X6990120Y34824960D01*
X7130120Y44786960D02*
X7130120Y34836960D01*
X7270120Y44771960D02*
X7270120Y34851960D01*
X7410120Y44751960D02*
X7410120Y34871960D01*
X7550120Y44727960D02*
X7550120Y34895960D01*
X7690120Y44698960D02*
X7690120Y34924960D01*
X7830120Y44666960D02*
X7830120Y34956960D01*
X7970120Y44629960D02*
X7970120Y34993960D01*
X8110120Y44588960D02*
X8110120Y35034960D01*
X8250120Y44543960D02*
X8250120Y40277960D01*
X8250120Y39345960D02*
X8250120Y35079960D01*
X8390120Y44493960D02*
X8390120Y40478960D01*
X8390120Y39144960D02*
X8390120Y35129960D01*
X8530120Y44438960D02*
X8530120Y40607960D01*
X8530120Y39015960D02*
X8530120Y35184960D01*
X8670120Y44378960D02*
X8670120Y40696960D01*
X8670120Y38926960D02*
X8670120Y35244960D01*
X8810120Y44313960D02*
X8810120Y40757960D01*
X8810120Y38865960D02*
X8810120Y35309960D01*
X8950120Y44243960D02*
X8950120Y40794960D01*
X8950120Y38828960D02*
X8950120Y35379960D01*
X9090120Y44167960D02*
X9090120Y40810960D01*
X9090120Y38812960D02*
X9090120Y35455960D01*
X9230120Y44085960D02*
X9230120Y40806960D01*
X9230120Y38816960D02*
X9230120Y35537960D01*
X9370120Y43997960D02*
X9370120Y40783960D01*
X9370120Y38839960D02*
X9370120Y35625960D01*
X9510120Y43902960D02*
X9510120Y40738960D01*
X9510120Y38884960D02*
X9510120Y35720960D01*
X9650120Y43800960D02*
X9650120Y40668960D01*
X9650120Y38954960D02*
X9650120Y35822960D01*
X9790120Y43690960D02*
X9790120Y40567960D01*
X9790120Y39055960D02*
X9790120Y35932960D01*
X9930120Y43572960D02*
X9930120Y40418960D01*
X9930120Y39204960D02*
X9930120Y36050960D01*
X10070120Y43444960D02*
X10070120Y40166960D01*
X10070120Y39456960D02*
X10070120Y36178960D01*
X10210120Y43307960D02*
X10210120Y36315960D01*
X10350120Y43157960D02*
X10350120Y36465960D01*
X10490120Y42995960D02*
X10490120Y36627960D01*
X10630120Y42818960D02*
X10630120Y36804960D01*
X10770120Y42622960D02*
X10770120Y37000960D01*
X10910120Y42404960D02*
X10910120Y37218960D01*
X11050120Y42158960D02*
X11050120Y37464960D01*
X11190120Y41873960D02*
X11190120Y37749960D01*
X11330120Y41531960D02*
X11330120Y38091960D01*
X11470120Y41085960D02*
X11470120Y38537960D01*
X11610120Y40310960D02*
X11610120Y39312960D01*
X10135120Y39811960D02*
G75*
G03X10135120Y39811960I-1000000J0D01*
G01*
X11672620Y39811960D02*
G75*
G03X11672620Y39811960I-5037500J0D01*
G01*
X13314120Y23982960D02*
X13314120Y13984960D01*
X13454120Y23978960D02*
X13454120Y13988960D01*
X13594120Y23970960D02*
X13594120Y13996960D01*
X13734120Y23958960D02*
X13734120Y14008960D01*
X13874120Y23943960D02*
X13874120Y14023960D01*
X14014120Y23923960D02*
X14014120Y14043960D01*
X14154120Y23899960D02*
X14154120Y14067960D01*
X14294120Y23870960D02*
X14294120Y14096960D01*
X14434120Y23838960D02*
X14434120Y14128960D01*
X14574120Y23801960D02*
X14574120Y14165960D01*
X14714120Y23760960D02*
X14714120Y14206960D01*
X14854120Y23715960D02*
X14854120Y19449960D01*
X14854120Y18517960D02*
X14854120Y14251960D01*
X14994120Y23665960D02*
X14994120Y19650960D01*
X14994120Y18316960D02*
X14994120Y14301960D01*
X15134120Y23610960D02*
X15134120Y19779960D01*
X15134120Y18187960D02*
X15134120Y14356960D01*
X15274120Y23550960D02*
X15274120Y19868960D01*
X15274120Y18098960D02*
X15274120Y14416960D01*
X15414120Y23485960D02*
X15414120Y19929960D01*
X15414120Y18037960D02*
X15414120Y14481960D01*
X15554120Y23415960D02*
X15554120Y19966960D01*
X15554120Y18000960D02*
X15554120Y14551960D01*
X15694120Y23339960D02*
X15694120Y19982960D01*
X15694120Y17984960D02*
X15694120Y14627960D01*
X15834120Y23257960D02*
X15834120Y19978960D01*
X15834120Y17988960D02*
X15834120Y14709960D01*
X15974120Y23169960D02*
X15974120Y19955960D01*
X15974120Y18011960D02*
X15974120Y14797960D01*
X16114120Y23074960D02*
X16114120Y19910960D01*
X16114120Y18056960D02*
X16114120Y14892960D01*
X16254120Y22972960D02*
X16254120Y19840960D01*
X16254120Y18126960D02*
X16254120Y14994960D01*
X16394120Y22862960D02*
X16394120Y19739960D01*
X16394120Y18227960D02*
X16394120Y15104960D01*
X16534120Y22744960D02*
X16534120Y19590960D01*
X16534120Y18376960D02*
X16534120Y15222960D01*
X16674120Y22616960D02*
X16674120Y19338960D01*
X16674120Y18628960D02*
X16674120Y15350960D01*
X16814120Y22479960D02*
X16814120Y15487960D01*
X16954120Y22329960D02*
X16954120Y15637960D01*
X17094120Y22167960D02*
X17094120Y15799960D01*
X17234120Y21990960D02*
X17234120Y15976960D01*
X17374120Y21794960D02*
X17374120Y16172960D01*
X17514120Y21576960D02*
X17514120Y16390960D01*
X17654120Y21330960D02*
X17654120Y16636960D01*
X17794120Y21045960D02*
X17794120Y16921960D01*
X17934120Y20703960D02*
X17934120Y17263960D01*
X18074120Y20257960D02*
X18074120Y17709960D01*
X18214120Y19482960D02*
X18214120Y18484960D01*
X16739120Y18983960D02*
G75*
G03X16739120Y18983960I-1000000J0D01*
G01*
X18276620Y18983960D02*
G75*
G03X18276620Y18983960I-5037500J0D01*
G01*
X12299120Y36009960D02*
X12299120Y42009960D01*
X16799120Y42009960D02*
X16799120Y36009960D01*
X17815120Y12371960D02*
X17815120Y6371960D01*
X13315120Y6371960D02*
X13315120Y12371960D01*
X10231120Y48193960D02*
X10231120Y49717960D01*
X10104120Y50098960D02*
X10104120Y47812960D01*
X9977120Y47558960D02*
X9977120Y50352960D01*
X9850120Y50606960D02*
X9850120Y47304960D01*
X9723120Y47177960D02*
X9723120Y50733960D01*
X10358120Y48955960D02*
G75*
G03X10358120Y48955960I-3048000J0D01*
G01*
X10612120Y45653960D02*
X10612120Y52257960D01*
X10612120Y52257960D02*
X4770120Y52257960D01*
X4770120Y52257960D02*
X4008120Y51495960D01*
X4008120Y51495960D02*
X4008120Y46415960D01*
X4008120Y46415960D02*
X4770120Y45653960D01*
X4770120Y45653960D02*
X10612120Y45653960D01*
X5151120Y48955960D02*
X5913120Y48955960D01*
X5532120Y48574960D02*
X5532120Y49336960D01*
X26137120Y36347960D02*
X26837120Y36347960D01*
X26837120Y35147960D02*
X26137120Y35147960D01*
X27026120Y19075960D02*
X27726120Y19075960D01*
X27726120Y17875960D02*
X27026120Y17875960D01*
X23982120Y46192960D02*
X23982120Y46892960D01*
X25182120Y46892960D02*
X25182120Y46192960D01*
X55216120Y13360960D02*
X42716120Y13360960D01*
X55212120Y13220960D02*
X42720120Y13220960D01*
X55206120Y13080960D02*
X42726120Y13080960D01*
X55196120Y12940960D02*
X42736120Y12940960D01*
X55184120Y12800960D02*
X42748120Y12800960D01*
X55168120Y12660960D02*
X42764120Y12660960D01*
X55149120Y12520960D02*
X42783120Y12520960D01*
X55126120Y12380960D02*
X42806120Y12380960D01*
X55101120Y12240960D02*
X42831120Y12240960D01*
X55072120Y12100960D02*
X42860120Y12100960D01*
X55039120Y11960960D02*
X49487120Y11960960D01*
X48445120Y11960960D02*
X42893120Y11960960D01*
X55004120Y11820960D02*
X49700120Y11820960D01*
X48232120Y11820960D02*
X42928120Y11820960D01*
X54965120Y11680960D02*
X49842120Y11680960D01*
X48090120Y11680960D02*
X42967120Y11680960D01*
X54922120Y11540960D02*
X49944120Y11540960D01*
X47988120Y11540960D02*
X43010120Y11540960D01*
X54875120Y11400960D02*
X50018120Y11400960D01*
X47914120Y11400960D02*
X43057120Y11400960D01*
X54825120Y11260960D02*
X50069120Y11260960D01*
X47863120Y11260960D02*
X43107120Y11260960D01*
X54771120Y11120960D02*
X50101120Y11120960D01*
X47831120Y11120960D02*
X43161120Y11120960D01*
X54714120Y10980960D02*
X50115120Y10980960D01*
X47817120Y10980960D02*
X43218120Y10980960D01*
X54652120Y10840960D02*
X50112120Y10840960D01*
X47820120Y10840960D02*
X43280120Y10840960D01*
X54586120Y10700960D02*
X50092120Y10700960D01*
X47840120Y10700960D02*
X43346120Y10700960D01*
X54515120Y10560960D02*
X50053120Y10560960D01*
X47879120Y10560960D02*
X43417120Y10560960D01*
X54441120Y10420960D02*
X49994120Y10420960D01*
X47938120Y10420960D02*
X43491120Y10420960D01*
X54361120Y10280960D02*
X49911120Y10280960D01*
X48021120Y10280960D02*
X43571120Y10280960D01*
X54277120Y10140960D02*
X49797120Y10140960D01*
X48135120Y10140960D02*
X43655120Y10140960D01*
X54187120Y10000960D02*
X49636120Y10000960D01*
X48296120Y10000960D02*
X43745120Y10000960D01*
X54093120Y9860960D02*
X49375120Y9860960D01*
X48557120Y9860960D02*
X43839120Y9860960D01*
X53992120Y9720960D02*
X43940120Y9720960D01*
X53885120Y9580960D02*
X44047120Y9580960D01*
X53773120Y9440960D02*
X44159120Y9440960D01*
X53653120Y9300960D02*
X44279120Y9300960D01*
X53525120Y9160960D02*
X44407120Y9160960D01*
X53390120Y9020960D02*
X44542120Y9020960D01*
X53246120Y8880960D02*
X44686120Y8880960D01*
X53091120Y8740960D02*
X44841120Y8740960D01*
X52926120Y8600960D02*
X45006120Y8600960D01*
X52749120Y8460960D02*
X45183120Y8460960D01*
X52558120Y8320960D02*
X45374120Y8320960D01*
X52349120Y8180960D02*
X45583120Y8180960D01*
X52121120Y8040960D02*
X45811120Y8040960D01*
X51869120Y7900960D02*
X46063120Y7900960D01*
X51585120Y7760960D02*
X46347120Y7760960D01*
X51257120Y7620960D02*
X46675120Y7620960D01*
X50863120Y7480960D02*
X47069120Y7480960D01*
X50349120Y7340960D02*
X47583120Y7340960D01*
X49399120Y7200960D02*
X48533120Y7200960D01*
X50116120Y10935960D02*
G75*
G03X50116120Y10935960I-1150000J0D01*
G01*
X55253620Y13435960D02*
G75*
G03X55253620Y13435960I-6287500J0D01*
G01*
X60405920Y45950560D02*
X55407920Y45950560D01*
X60397920Y45810560D02*
X58060920Y45810560D01*
X57752920Y45810560D02*
X55415920Y45810560D01*
X60381920Y45670560D02*
X58379920Y45670560D01*
X57433920Y45670560D02*
X55431920Y45670560D01*
X60357920Y45530560D02*
X58526920Y45530560D01*
X57286920Y45530560D02*
X55455920Y45530560D01*
X60324920Y45390560D02*
X58618920Y45390560D01*
X57194920Y45390560D02*
X55488920Y45390560D01*
X60283920Y45250560D02*
X58674920Y45250560D01*
X57138920Y45250560D02*
X55529920Y45250560D01*
X60233920Y45110560D02*
X58701920Y45110560D01*
X57111920Y45110560D02*
X55579920Y45110560D01*
X60172920Y44970560D02*
X58704920Y44970560D01*
X57108920Y44970560D02*
X55640920Y44970560D01*
X60102920Y44830560D02*
X58682920Y44830560D01*
X57130920Y44830560D02*
X55710920Y44830560D01*
X60020920Y44690560D02*
X58632920Y44690560D01*
X57180920Y44690560D02*
X55792920Y44690560D01*
X59925920Y44550560D02*
X58550920Y44550560D01*
X57262920Y44550560D02*
X55887920Y44550560D01*
X59814920Y44410560D02*
X58418920Y44410560D01*
X57394920Y44410560D02*
X55998920Y44410560D01*
X59686920Y44270560D02*
X58171920Y44270560D01*
X57641920Y44270560D02*
X56126920Y44270560D01*
X59537920Y44130560D02*
X56275920Y44130560D01*
X59358920Y43990560D02*
X56454920Y43990560D01*
X59139920Y43850560D02*
X56673920Y43850560D01*
X58850920Y43710560D02*
X56962920Y43710560D01*
X58378920Y43570560D02*
X57434920Y43570560D01*
X58706920Y45025560D02*
G75*
G03X58706920Y45025560I-800000J0D01*
G01*
X60444420Y46025560D02*
G75*
G03X60444420Y46025560I-2537500J0D01*
G01*
X23693120Y28483560D02*
X24582120Y28483560D01*
X22804120Y28483560D02*
X22042120Y28483560D01*
X23693120Y28483560D02*
X22931120Y27467560D01*
X22931120Y27467560D02*
X22931120Y29372560D01*
X22931120Y29372560D02*
X23693120Y28483560D01*
X23693120Y27467560D02*
X23693120Y29372560D01*
X24836120Y25435560D02*
X24836120Y26578560D01*
X21788120Y25435560D02*
X21788120Y26578560D01*
X17978120Y26578560D02*
X17978120Y30261560D01*
X17978120Y30261560D02*
X28646120Y30261560D01*
X28646120Y30261560D02*
X28646120Y26578560D01*
X17978120Y25435560D02*
X17978120Y26578560D01*
X17978120Y26578560D02*
X28646120Y26578560D01*
X28646120Y26578560D02*
X28646120Y25435560D01*
X23312120Y25435560D02*
X28646120Y25435560D01*
X23312120Y25435560D02*
X17978120Y25435560D01*
X24963120Y10411460D02*
X25852120Y10411460D01*
X24074120Y10411460D02*
X23312120Y10411460D01*
X24963120Y10411460D02*
X24201120Y9395460D01*
X24201120Y9395460D02*
X24201120Y11300460D01*
X24201120Y11300460D02*
X24963120Y10411460D01*
X24963120Y9395460D02*
X24963120Y11300460D01*
X26106120Y7363460D02*
X26106120Y8506460D01*
X23058120Y7363460D02*
X23058120Y8506460D01*
X19248120Y8506460D02*
X19248120Y12189460D01*
X19248120Y12189460D02*
X29916120Y12189460D01*
X29916120Y12189460D02*
X29916120Y8506460D01*
X19248120Y7363460D02*
X19248120Y8506460D01*
X19248120Y8506460D02*
X29916120Y8506460D01*
X29916120Y8506460D02*
X29916120Y7363460D01*
X24582120Y7363460D02*
X29916120Y7363460D01*
X24582120Y7363460D02*
X19248120Y7363460D01*
X39715320Y42301560D02*
X30415320Y42301560D01*
X30415320Y48701560D02*
X39715320Y48701560D01*
X58872120Y29397960D02*
X58872120Y34477960D01*
X58872120Y34477960D02*
X56332120Y34477960D01*
X56332120Y34477960D02*
X56332120Y29397960D01*
X56052120Y26577960D02*
X56052120Y28127960D01*
X56332120Y29397960D02*
X58872120Y29397960D01*
X59152120Y28127960D02*
X59152120Y26577960D01*
X59152120Y26577960D02*
X56052120Y26577960D01*
X62428120Y29397960D02*
X62428120Y34477960D01*
X62428120Y34477960D02*
X59888120Y34477960D01*
X59888120Y34477960D02*
X59888120Y29397960D01*
X59608120Y26577960D02*
X59608120Y28127960D01*
X59888120Y29397960D02*
X62428120Y29397960D01*
X62708120Y28127960D02*
X62708120Y26577960D01*
X62708120Y26577960D02*
X59608120Y26577960D01*
X65984120Y29397960D02*
X65984120Y34477960D01*
X65984120Y34477960D02*
X63444120Y34477960D01*
X63444120Y34477960D02*
X63444120Y29397960D01*
X63164120Y26577960D02*
X63164120Y28127960D01*
X63444120Y29397960D02*
X65984120Y29397960D01*
X66264120Y28127960D02*
X66264120Y26577960D01*
X66264120Y26577960D02*
X63164120Y26577960D01*
X69540120Y29397960D02*
X69540120Y34477960D01*
X69540120Y34477960D02*
X67000120Y34477960D01*
X67000120Y34477960D02*
X67000120Y29397960D01*
X66720120Y26577960D02*
X66720120Y28127960D01*
X67000120Y29397960D02*
X69540120Y29397960D01*
X69820120Y28127960D02*
X69820120Y26577960D01*
X69820120Y26577960D02*
X66720120Y26577960D01*
X73096120Y29397960D02*
X73096120Y34477960D01*
X73096120Y34477960D02*
X70556120Y34477960D01*
X70556120Y34477960D02*
X70556120Y29397960D01*
X70276120Y26577960D02*
X70276120Y28127960D01*
X70556120Y29397960D02*
X73096120Y29397960D01*
X73376120Y28127960D02*
X73376120Y26577960D01*
X73376120Y26577960D02*
X70276120Y26577960D01*
X76652120Y29397960D02*
X76652120Y34477960D01*
X76652120Y34477960D02*
X74112120Y34477960D01*
X74112120Y34477960D02*
X74112120Y29397960D01*
X73832120Y26577960D02*
X73832120Y28127960D01*
X74112120Y29397960D02*
X76652120Y29397960D01*
X76932120Y28127960D02*
X76932120Y26577960D01*
X76932120Y26577960D02*
X73832120Y26577960D01*
X80208120Y29397960D02*
X80208120Y34477960D01*
X80208120Y34477960D02*
X77668120Y34477960D01*
X77668120Y34477960D02*
X77668120Y29397960D01*
X77388120Y26577960D02*
X77388120Y28127960D01*
X77668120Y29397960D02*
X80208120Y29397960D01*
X80488120Y28127960D02*
X80488120Y26577960D01*
X80488120Y26577960D02*
X77388120Y26577960D01*
X83764120Y29397960D02*
X83764120Y34477960D01*
X83764120Y34477960D02*
X81224120Y34477960D01*
X81224120Y34477960D02*
X81224120Y29397960D01*
X80944120Y26577960D02*
X80944120Y28127960D01*
X81224120Y29397960D02*
X83764120Y29397960D01*
X84044120Y28127960D02*
X84044120Y26577960D01*
X84044120Y26577960D02*
X80944120Y26577960D01*
X87320120Y29397960D02*
X87320120Y34477960D01*
X87320120Y34477960D02*
X84780120Y34477960D01*
X84780120Y34477960D02*
X84780120Y29397960D01*
X84500120Y26577960D02*
X84500120Y28127960D01*
X84780120Y29397960D02*
X87320120Y29397960D01*
X87600120Y28127960D02*
X87600120Y26577960D01*
X87600120Y26577960D02*
X84500120Y26577960D01*
X56332120Y23301960D02*
X56332120Y18221960D01*
X56332120Y18221960D02*
X58872120Y18221960D01*
X58872120Y18221960D02*
X58872120Y23301960D01*
X59152120Y26121960D02*
X59152120Y24571960D01*
X58872120Y23301960D02*
X56332120Y23301960D01*
X56052120Y24571960D02*
X56052120Y26121960D01*
X56052120Y26121960D02*
X59152120Y26121960D01*
X59888120Y23301960D02*
X59888120Y18221960D01*
X59888120Y18221960D02*
X62428120Y18221960D01*
X62428120Y18221960D02*
X62428120Y23301960D01*
X62708120Y26121960D02*
X62708120Y24571960D01*
X62428120Y23301960D02*
X59888120Y23301960D01*
X59608120Y24571960D02*
X59608120Y26121960D01*
X59608120Y26121960D02*
X62708120Y26121960D01*
X63444120Y23301960D02*
X63444120Y18221960D01*
X63444120Y18221960D02*
X65984120Y18221960D01*
X65984120Y18221960D02*
X65984120Y23301960D01*
X66264120Y26121960D02*
X66264120Y24571960D01*
X65984120Y23301960D02*
X63444120Y23301960D01*
X63164120Y24571960D02*
X63164120Y26121960D01*
X63164120Y26121960D02*
X66264120Y26121960D01*
X67000120Y23301960D02*
X67000120Y18221960D01*
X67000120Y18221960D02*
X69540120Y18221960D01*
X69540120Y18221960D02*
X69540120Y23301960D01*
X69820120Y26121960D02*
X69820120Y24571960D01*
X69540120Y23301960D02*
X67000120Y23301960D01*
X66720120Y24571960D02*
X66720120Y26121960D01*
X66720120Y26121960D02*
X69820120Y26121960D01*
X70556120Y23301960D02*
X70556120Y18221960D01*
X70556120Y18221960D02*
X73096120Y18221960D01*
X73096120Y18221960D02*
X73096120Y23301960D01*
X73376120Y26121960D02*
X73376120Y24571960D01*
X73096120Y23301960D02*
X70556120Y23301960D01*
X70276120Y24571960D02*
X70276120Y26121960D01*
X70276120Y26121960D02*
X73376120Y26121960D01*
X74112120Y23301960D02*
X74112120Y18221960D01*
X74112120Y18221960D02*
X76652120Y18221960D01*
X76652120Y18221960D02*
X76652120Y23301960D01*
X76932120Y26121960D02*
X76932120Y24571960D01*
X76652120Y23301960D02*
X74112120Y23301960D01*
X73832120Y24571960D02*
X73832120Y26121960D01*
X73832120Y26121960D02*
X76932120Y26121960D01*
X77668120Y23301960D02*
X77668120Y18221960D01*
X77668120Y18221960D02*
X80208120Y18221960D01*
X80208120Y18221960D02*
X80208120Y23301960D01*
X80488120Y26121960D02*
X80488120Y24571960D01*
X80208120Y23301960D02*
X77668120Y23301960D01*
X77388120Y24571960D02*
X77388120Y26121960D01*
X77388120Y26121960D02*
X80488120Y26121960D01*
X81224120Y23301960D02*
X81224120Y18221960D01*
X81224120Y18221960D02*
X83764120Y18221960D01*
X83764120Y18221960D02*
X83764120Y23301960D01*
X84044120Y26121960D02*
X84044120Y24571960D01*
X83764120Y23301960D02*
X81224120Y23301960D01*
X80944120Y24571960D02*
X80944120Y26121960D01*
X80944120Y26121960D02*
X84044120Y26121960D01*
X84780120Y23301960D02*
X84780120Y18221960D01*
X84780120Y18221960D02*
X87320120Y18221960D01*
X87320120Y18221960D02*
X87320120Y23301960D01*
X87600120Y26121960D02*
X87600120Y24571960D01*
X87320120Y23301960D02*
X84780120Y23301960D01*
X84500120Y24571960D02*
X84500120Y26121960D01*
X84500120Y26121960D02*
X87600120Y26121960D01*
X82494120Y47915160D02*
X84044120Y47915160D01*
X84044120Y47915160D02*
X84044120Y44815160D01*
X84044120Y44815160D02*
X82494120Y44815160D01*
X81224120Y45095160D02*
X71064120Y45095160D01*
X71064120Y45095160D02*
X71064120Y47635160D01*
X71064120Y47635160D02*
X81224120Y47635160D01*
X81224120Y45095160D02*
X81224120Y47635160D01*
X81224120Y43748960D02*
X73604120Y43748960D01*
X81224120Y41208960D02*
X73604120Y41208960D01*
X84044120Y40928960D02*
X82494120Y40928960D01*
X73604120Y43748960D02*
X73604120Y41208960D01*
X81224120Y41208960D02*
X81224120Y43748960D01*
X82494120Y44028960D02*
X84044120Y44028960D01*
X84044120Y44028960D02*
X84044120Y40928960D01*
X40759380Y31175960D02*
G75*
G03X40759380Y31175960I-5001260J0D01*
G01*
X35758120Y37175440D02*
X40759380Y37175440D01*
X40759380Y37175440D02*
X41757600Y36177220D01*
X41757600Y36177220D02*
X41757600Y26174700D01*
X41757600Y26174700D02*
X40759380Y25176480D01*
X40759380Y25176480D02*
X30756860Y25176480D01*
X30756860Y25176480D02*
X29758640Y26174700D01*
X29758640Y26174700D02*
X29758640Y36177220D01*
X29758640Y36177220D02*
X30756860Y37175440D01*
X30756860Y37175440D02*
X35758120Y37175440D01*
X41267380Y12379960D02*
G75*
G03X41267380Y12379960I-5001260J0D01*
G01*
X36266120Y18379440D02*
X41267380Y18379440D01*
X41267380Y18379440D02*
X42265600Y17381220D01*
X42265600Y17381220D02*
X42265600Y7378700D01*
X42265600Y7378700D02*
X41267380Y6380480D01*
X41267380Y6380480D02*
X31264860Y6380480D01*
X31264860Y6380480D02*
X30266640Y7378700D01*
X30266640Y7378700D02*
X30266640Y17381220D01*
X30266640Y17381220D02*
X31264860Y18379440D01*
X31264860Y18379440D02*
X36266120Y18379440D01*
X6294120Y20888960D02*
G75*
G03X6294120Y20888960I-2286000J0D01*
G01*
X6167120Y26222960D02*
G75*
G03X6167120Y26222960I-2286000J0D01*
G01*
X65302080Y41833800D02*
X65253820Y41833800D01*
X62503100Y41132760D02*
X62503100Y41833800D01*
X62503100Y41833800D02*
X62752020Y41833800D01*
X65302080Y41833800D02*
X65502740Y41833800D01*
X65502740Y41833800D02*
X65502740Y41132760D01*
X68197680Y47066200D02*
X68149420Y47066200D01*
X65398700Y46365160D02*
X65398700Y47066200D01*
X65398700Y47066200D02*
X65647620Y47066200D01*
X68197680Y47066200D02*
X68398340Y47066200D01*
X68398340Y47066200D02*
X68398340Y46365160D01*
X49161320Y4948560D02*
X48161320Y4948560D01*
X48161320Y6298560D02*
X49161320Y6298560D01*
X53936520Y4948560D02*
X52936520Y4948560D01*
X52936520Y6298560D02*
X53936520Y6298560D01*
X61118120Y44391960D02*
X61118120Y45391960D01*
X62468120Y45391960D02*
X62468120Y44391960D01*
X64576320Y47169960D02*
X64576320Y46169960D01*
X63226320Y46169960D02*
X63226320Y47169960D01*
X64553720Y37358960D02*
X63553720Y37358960D01*
X63553720Y38708960D02*
X64553720Y38708960D01*
X68668520Y41473760D02*
X67668520Y41473760D01*
X67668520Y42823760D02*
X68668520Y42823760D01*
X90360120Y24150960D02*
X89360120Y24150960D01*
X89360120Y25500960D02*
X90360120Y25500960D01*
X88473920Y20617560D02*
X88473920Y21617560D01*
X89823920Y21617560D02*
X89823920Y20617560D01*
X25852120Y41589960D02*
X23820120Y41589960D01*
X25852120Y40573960D02*
X23820120Y40573960D01*
X25852120Y33969960D02*
X23820120Y33969960D01*
X25852120Y32953960D02*
X23820120Y32953960D01*
X20264120Y31937960D02*
X20264120Y33461960D01*
X20264120Y42605960D02*
X20264120Y38541960D01*
X18994120Y31937960D02*
X23820120Y31937960D01*
X23820120Y31937960D02*
X23820120Y34731960D01*
X18994120Y42605960D02*
X23820120Y42605960D01*
X23820120Y42605960D02*
X23820120Y39811960D01*
X18994120Y42605960D02*
X18994120Y31937960D01*
X26741120Y23047960D02*
X24709120Y23047960D01*
X26741120Y22031960D02*
X24709120Y22031960D01*
X26741120Y15427960D02*
X24709120Y15427960D01*
X26741120Y14411960D02*
X24709120Y14411960D01*
X21153120Y13395960D02*
X21153120Y14919960D01*
X21153120Y24063960D02*
X21153120Y19999960D01*
X19883120Y13395960D02*
X24709120Y13395960D01*
X24709120Y13395960D02*
X24709120Y16189960D01*
X19883120Y24063960D02*
X24709120Y24063960D01*
X24709120Y24063960D02*
X24709120Y21269960D01*
X19883120Y24063960D02*
X19883120Y13395960D01*
D15*
X22341120Y47819960D02*
G75*
G03X22341120Y47819960I-300000J0D01*
G01*
D16*
X19756120Y43894960D02*
X19756120Y44569960D01*
X21026120Y43894960D02*
X21026120Y44569960D01*
X22296120Y43894960D02*
X22296120Y44569960D01*
X18486120Y43894960D02*
X18486120Y44569960D01*
X18486120Y48769960D02*
X18486120Y49444960D01*
X22296120Y48769960D02*
X22296120Y49444960D01*
X21026120Y48769960D02*
X21026120Y49444960D01*
X19756120Y48769960D02*
X19756120Y49444960D01*
D15*
X22841120Y44719960D02*
X17941120Y44719960D01*
X17941120Y44719960D02*
X17941120Y48619960D01*
X17941120Y48619960D02*
X22841120Y48619960D01*
X22841120Y48619960D02*
X22841120Y44719960D01*
D12*
X53967380Y42351960D02*
G75*
G03X53967380Y42351960I-5001260J0D01*
G01*
X48966120Y48351440D02*
X53967380Y48351440D01*
X53967380Y48351440D02*
X54965600Y47353220D01*
X54965600Y47353220D02*
X54965600Y37350700D01*
X54965600Y37350700D02*
X53967380Y36352480D01*
X53967380Y36352480D02*
X43964860Y36352480D01*
X43964860Y36352480D02*
X42966640Y37350700D01*
X42966640Y37350700D02*
X42966640Y47353220D01*
X42966640Y47353220D02*
X43964860Y48351440D01*
X43964860Y48351440D02*
X48966120Y48351440D01*
X92468700Y31117540D02*
X91569540Y31117540D01*
X91569540Y31117540D02*
X91569540Y31516320D01*
X92468700Y31516320D02*
X91569540Y31516320D01*
X92468700Y31117540D02*
X92468700Y31516320D01*
X92468700Y29819600D02*
X91569540Y29819600D01*
X91569540Y29819600D02*
X91569540Y30218380D01*
X92468700Y30218380D02*
X91569540Y30218380D01*
X92468700Y29819600D02*
X92468700Y30218380D01*
X92468700Y30667960D02*
X92318840Y30667960D01*
X92318840Y30667960D02*
X92318840Y30967680D01*
X92468700Y30967680D02*
X92318840Y30967680D01*
X92468700Y30667960D02*
X92468700Y30967680D01*
X91719400Y30667960D02*
X91569540Y30667960D01*
X91569540Y30667960D02*
X91569540Y30967680D01*
X91719400Y30967680D02*
X91569540Y30967680D01*
X91719400Y30667960D02*
X91719400Y30967680D01*
X92168980Y30667960D02*
X91869260Y30667960D01*
X91869260Y30667960D02*
X91869260Y30967680D01*
X92168980Y30967680D02*
X91869260Y30967680D01*
X92168980Y30667960D02*
X92168980Y30967680D01*
X92417900Y31117540D02*
X92417900Y30218380D01*
X91620340Y31117540D02*
X91620340Y30218380D01*
X92468700Y22481540D02*
X91569540Y22481540D01*
X91569540Y22481540D02*
X91569540Y22880320D01*
X92468700Y22880320D02*
X91569540Y22880320D01*
X92468700Y22481540D02*
X92468700Y22880320D01*
X92468700Y21183600D02*
X91569540Y21183600D01*
X91569540Y21183600D02*
X91569540Y21582380D01*
X92468700Y21582380D02*
X91569540Y21582380D01*
X92468700Y21183600D02*
X92468700Y21582380D01*
X92468700Y22031960D02*
X92318840Y22031960D01*
X92318840Y22031960D02*
X92318840Y22331680D01*
X92468700Y22331680D02*
X92318840Y22331680D01*
X92468700Y22031960D02*
X92468700Y22331680D01*
X91719400Y22031960D02*
X91569540Y22031960D01*
X91569540Y22031960D02*
X91569540Y22331680D01*
X91719400Y22331680D02*
X91569540Y22331680D01*
X91719400Y22031960D02*
X91719400Y22331680D01*
X92168980Y22031960D02*
X91869260Y22031960D01*
X91869260Y22031960D02*
X91869260Y22331680D01*
X92168980Y22331680D02*
X91869260Y22331680D01*
X92168980Y22031960D02*
X92168980Y22331680D01*
X92417900Y22481540D02*
X92417900Y21582380D01*
X91620340Y22481540D02*
X91620340Y21582380D01*
X90876120Y29397960D02*
X90876120Y34477960D01*
X90876120Y34477960D02*
X88336120Y34477960D01*
X88336120Y34477960D02*
X88336120Y29397960D01*
X88056120Y26577960D02*
X88056120Y28127960D01*
X88336120Y29397960D02*
X90876120Y29397960D01*
X91156120Y28127960D02*
X91156120Y26577960D01*
X91156120Y26577960D02*
X88056120Y26577960D01*
D17*
G36*
X72733939Y14282160D02*
X72730127Y14140333D01*
X72615105Y13892175D01*
X72442804Y13612861D01*
X72255176Y13334853D01*
X72119568Y13170241D01*
X71997623Y13089223D01*
X71850983Y13061997D01*
X71730036Y13059055D01*
X71379952Y13057293D01*
X71415808Y12528127D01*
X71423979Y12177161D01*
X71373177Y11937935D01*
X71236815Y11755978D01*
X70988309Y11576824D01*
X70935623Y11544327D01*
X70767145Y11426567D01*
X70751567Y11370482D01*
X70795466Y11364277D01*
X70950724Y11307198D01*
X71145409Y11165619D01*
X71197633Y11116473D01*
X71358023Y10922163D01*
X71430168Y10714244D01*
X71445120Y10458985D01*
X71375735Y9987767D01*
X71179827Y9584387D01*
X70882416Y9291377D01*
X70632028Y9123795D01*
X71037008Y8936164D01*
X71367323Y8732372D01*
X71600723Y8487442D01*
X71612571Y8468747D01*
X71758771Y8077085D01*
X71770404Y7642495D01*
X71665290Y7195899D01*
X71461242Y6768215D01*
X71176080Y6390365D01*
X70827618Y6093268D01*
X70433674Y5907846D01*
X70109749Y5860627D01*
X69900561Y5905728D01*
X69632225Y6020838D01*
X69481078Y6107024D01*
X69225557Y6301226D01*
X69023283Y6543945D01*
X68827564Y6891753D01*
X68818853Y6909378D01*
X68670320Y7233967D01*
X68593688Y7482942D01*
X68573111Y7725515D01*
X68584093Y7934854D01*
X68691635Y8385903D01*
X68928613Y8728957D01*
X69291866Y8959990D01*
X69425672Y9007057D01*
X69741588Y9101708D01*
X69480124Y9280334D01*
X69164816Y9594444D01*
X68967815Y10010221D01*
X68905120Y10458985D01*
X68925595Y10745171D01*
X69007551Y10946648D01*
X69152607Y11116473D01*
X69345564Y11273954D01*
X69519128Y11359280D01*
X69554774Y11364277D01*
X69609157Y11393086D01*
X69512107Y11481688D01*
X69414617Y11544327D01*
X69145414Y11728161D01*
X68992668Y11905962D01*
X68929794Y12132198D01*
X68930206Y12461337D01*
X68934432Y12528127D01*
X68970287Y13057293D01*
X68620204Y13059055D01*
X68438741Y13067823D01*
X68305895Y13111794D01*
X68183309Y13220772D01*
X68032627Y13424558D01*
X67907436Y13612861D01*
X67702280Y13952355D01*
X67610329Y14177862D01*
X67629072Y14299020D01*
X67721186Y14327293D01*
X67804663Y14262731D01*
X67949388Y14093734D01*
X68118356Y13864839D01*
X68302653Y13613135D01*
X68442871Y13473291D01*
X68583388Y13412776D01*
X68753615Y13399173D01*
X68922174Y13403190D01*
X69048166Y13437401D01*
X69166783Y13528859D01*
X69313221Y13704615D01*
X69520447Y13988627D01*
X69794120Y14369626D01*
X69820651Y14094460D01*
X69852010Y13915694D01*
X69934960Y13837927D01*
X70123143Y13819517D01*
X70175120Y13819294D01*
X70389312Y13831143D01*
X70488098Y13894454D01*
X70525119Y14050866D01*
X70529589Y14094460D01*
X70556120Y14369626D01*
X70829793Y13988627D01*
X71038534Y13702618D01*
X71184572Y13527724D01*
X71303101Y13436889D01*
X71429314Y13403063D01*
X71596625Y13399173D01*
X71777360Y13415050D01*
X71916446Y13479945D01*
X72058262Y13626390D01*
X72231884Y13864839D01*
X72405640Y14099792D01*
X72549030Y14266269D01*
X72629054Y14327293D01*
X72733939Y14282160D01*
X72733939Y14282160D01*
X72733939Y14282160D01*
G37*
X72733939Y14282160D02*
X72730127Y14140333D01*
X72615105Y13892175D01*
X72442804Y13612861D01*
X72255176Y13334853D01*
X72119568Y13170241D01*
X71997623Y13089223D01*
X71850983Y13061997D01*
X71730036Y13059055D01*
X71379952Y13057293D01*
X71415808Y12528127D01*
X71423979Y12177161D01*
X71373177Y11937935D01*
X71236815Y11755978D01*
X70988309Y11576824D01*
X70935623Y11544327D01*
X70767145Y11426567D01*
X70751567Y11370482D01*
X70795466Y11364277D01*
X70950724Y11307198D01*
X71145409Y11165619D01*
X71197633Y11116473D01*
X71358023Y10922163D01*
X71430168Y10714244D01*
X71445120Y10458985D01*
X71375735Y9987767D01*
X71179827Y9584387D01*
X70882416Y9291377D01*
X70632028Y9123795D01*
X71037008Y8936164D01*
X71367323Y8732372D01*
X71600723Y8487442D01*
X71612571Y8468747D01*
X71758771Y8077085D01*
X71770404Y7642495D01*
X71665290Y7195899D01*
X71461242Y6768215D01*
X71176080Y6390365D01*
X70827618Y6093268D01*
X70433674Y5907846D01*
X70109749Y5860627D01*
X69900561Y5905728D01*
X69632225Y6020838D01*
X69481078Y6107024D01*
X69225557Y6301226D01*
X69023283Y6543945D01*
X68827564Y6891753D01*
X68818853Y6909378D01*
X68670320Y7233967D01*
X68593688Y7482942D01*
X68573111Y7725515D01*
X68584093Y7934854D01*
X68691635Y8385903D01*
X68928613Y8728957D01*
X69291866Y8959990D01*
X69425672Y9007057D01*
X69741588Y9101708D01*
X69480124Y9280334D01*
X69164816Y9594444D01*
X68967815Y10010221D01*
X68905120Y10458985D01*
X68925595Y10745171D01*
X69007551Y10946648D01*
X69152607Y11116473D01*
X69345564Y11273954D01*
X69519128Y11359280D01*
X69554774Y11364277D01*
X69609157Y11393086D01*
X69512107Y11481688D01*
X69414617Y11544327D01*
X69145414Y11728161D01*
X68992668Y11905962D01*
X68929794Y12132198D01*
X68930206Y12461337D01*
X68934432Y12528127D01*
X68970287Y13057293D01*
X68620204Y13059055D01*
X68438741Y13067823D01*
X68305895Y13111794D01*
X68183309Y13220772D01*
X68032627Y13424558D01*
X67907436Y13612861D01*
X67702280Y13952355D01*
X67610329Y14177862D01*
X67629072Y14299020D01*
X67721186Y14327293D01*
X67804663Y14262731D01*
X67949388Y14093734D01*
X68118356Y13864839D01*
X68302653Y13613135D01*
X68442871Y13473291D01*
X68583388Y13412776D01*
X68753615Y13399173D01*
X68922174Y13403190D01*
X69048166Y13437401D01*
X69166783Y13528859D01*
X69313221Y13704615D01*
X69520447Y13988627D01*
X69794120Y14369626D01*
X69820651Y14094460D01*
X69852010Y13915694D01*
X69934960Y13837927D01*
X70123143Y13819517D01*
X70175120Y13819294D01*
X70389312Y13831143D01*
X70488098Y13894454D01*
X70525119Y14050866D01*
X70529589Y14094460D01*
X70556120Y14369626D01*
X70829793Y13988627D01*
X71038534Y13702618D01*
X71184572Y13527724D01*
X71303101Y13436889D01*
X71429314Y13403063D01*
X71596625Y13399173D01*
X71777360Y13415050D01*
X71916446Y13479945D01*
X72058262Y13626390D01*
X72231884Y13864839D01*
X72405640Y14099792D01*
X72549030Y14266269D01*
X72629054Y14327293D01*
X72733939Y14282160D01*
X72733939Y14282160D01*
G36*
X68955851Y9403040D02*
X68926907Y9303903D01*
X68795552Y9136379D01*
X68595070Y8933368D01*
X68358747Y8727775D01*
X68119868Y8552501D01*
X68053935Y8511490D01*
X67958908Y8450075D01*
X67881364Y8376111D01*
X67811500Y8265333D01*
X67739511Y8093474D01*
X67655594Y7836271D01*
X67549945Y7469458D01*
X67412761Y6968770D01*
X67376305Y6834293D01*
X67281012Y6506815D01*
X67190504Y6237222D01*
X67120811Y6072179D01*
X67107266Y6051127D01*
X66950801Y5952759D01*
X66797096Y5989134D01*
X66730807Y6081666D01*
X66734263Y6208407D01*
X66779169Y6464676D01*
X66858547Y6817741D01*
X66965419Y7234868D01*
X67015102Y7415166D01*
X67351728Y8612293D01*
X67873523Y8977779D01*
X68265250Y9228887D01*
X68588215Y9389133D01*
X68823667Y9451148D01*
X68952858Y9407567D01*
X68955851Y9403040D01*
X68955851Y9403040D01*
X68955851Y9403040D01*
G37*
X68955851Y9403040D02*
X68926907Y9303903D01*
X68795552Y9136379D01*
X68595070Y8933368D01*
X68358747Y8727775D01*
X68119868Y8552501D01*
X68053935Y8511490D01*
X67958908Y8450075D01*
X67881364Y8376111D01*
X67811500Y8265333D01*
X67739511Y8093474D01*
X67655594Y7836271D01*
X67549945Y7469458D01*
X67412761Y6968770D01*
X67376305Y6834293D01*
X67281012Y6506815D01*
X67190504Y6237222D01*
X67120811Y6072179D01*
X67107266Y6051127D01*
X66950801Y5952759D01*
X66797096Y5989134D01*
X66730807Y6081666D01*
X66734263Y6208407D01*
X66779169Y6464676D01*
X66858547Y6817741D01*
X66965419Y7234868D01*
X67015102Y7415166D01*
X67351728Y8612293D01*
X67873523Y8977779D01*
X68265250Y9228887D01*
X68588215Y9389133D01*
X68823667Y9451148D01*
X68952858Y9407567D01*
X68955851Y9403040D01*
X68955851Y9403040D01*
G36*
X73607738Y6283998D02*
X73602474Y6111173D01*
X73550343Y6012822D01*
X73452632Y5967277D01*
X73418758Y5961245D01*
X73315288Y5966819D01*
X73235006Y6040004D01*
X73156802Y6213356D01*
X73061897Y6511578D01*
X72943461Y6922043D01*
X72817358Y7377562D01*
X72739258Y7671062D01*
X72639622Y8007214D01*
X72533954Y8229225D01*
X72392303Y8390590D01*
X72291787Y8470262D01*
X71876272Y8800835D01*
X71599109Y9074843D01*
X71455511Y9281227D01*
X71440688Y9408925D01*
X71549853Y9446876D01*
X71778216Y9384020D01*
X72120989Y9209295D01*
X72504137Y8960769D01*
X73010479Y8605715D01*
X73329477Y7466004D01*
X73472525Y6939745D01*
X73564850Y6552966D01*
X73607738Y6283998D01*
X73607738Y6283998D01*
X73607738Y6283998D01*
G37*
X73607738Y6283998D02*
X73602474Y6111173D01*
X73550343Y6012822D01*
X73452632Y5967277D01*
X73418758Y5961245D01*
X73315288Y5966819D01*
X73235006Y6040004D01*
X73156802Y6213356D01*
X73061897Y6511578D01*
X72943461Y6922043D01*
X72817358Y7377562D01*
X72739258Y7671062D01*
X72639622Y8007214D01*
X72533954Y8229225D01*
X72392303Y8390590D01*
X72291787Y8470262D01*
X71876272Y8800835D01*
X71599109Y9074843D01*
X71455511Y9281227D01*
X71440688Y9408925D01*
X71549853Y9446876D01*
X71778216Y9384020D01*
X72120989Y9209295D01*
X72504137Y8960769D01*
X73010479Y8605715D01*
X73329477Y7466004D01*
X73472525Y6939745D01*
X73564850Y6552966D01*
X73607738Y6283998D01*
X73607738Y6283998D01*
G36*
X68597135Y9954277D02*
X68565791Y9875221D01*
X68462586Y9849501D01*
X68259218Y9872615D01*
X67927383Y9940056D01*
X67804453Y9966960D01*
X67502562Y10029508D01*
X67256130Y10073644D01*
X67127120Y10089160D01*
X67016376Y10025132D01*
X66849483Y9856392D01*
X66667816Y9626468D01*
X66491397Y9392464D01*
X66348971Y9225762D01*
X66271697Y9162627D01*
X66167314Y9216073D01*
X66074056Y9296453D01*
X65990778Y9440851D01*
X65998086Y9529286D01*
X66132493Y9744675D01*
X66305727Y10003193D01*
X66488226Y10263150D01*
X66650431Y10482851D01*
X66762783Y10620605D01*
X66788746Y10644474D01*
X66899841Y10649744D01*
X67132281Y10626171D01*
X67441948Y10580905D01*
X67784720Y10521093D01*
X68116481Y10453885D01*
X68393110Y10386428D01*
X68409086Y10381933D01*
X68519689Y10277496D01*
X68584922Y10091175D01*
X68597135Y9954277D01*
X68597135Y9954277D01*
X68597135Y9954277D01*
G37*
X68597135Y9954277D02*
X68565791Y9875221D01*
X68462586Y9849501D01*
X68259218Y9872615D01*
X67927383Y9940056D01*
X67804453Y9966960D01*
X67502562Y10029508D01*
X67256130Y10073644D01*
X67127120Y10089160D01*
X67016376Y10025132D01*
X66849483Y9856392D01*
X66667816Y9626468D01*
X66491397Y9392464D01*
X66348971Y9225762D01*
X66271697Y9162627D01*
X66167314Y9216073D01*
X66074056Y9296453D01*
X65990778Y9440851D01*
X65998086Y9529286D01*
X66132493Y9744675D01*
X66305727Y10003193D01*
X66488226Y10263150D01*
X66650431Y10482851D01*
X66762783Y10620605D01*
X66788746Y10644474D01*
X66899841Y10649744D01*
X67132281Y10626171D01*
X67441948Y10580905D01*
X67784720Y10521093D01*
X68116481Y10453885D01*
X68393110Y10386428D01*
X68409086Y10381933D01*
X68519689Y10277496D01*
X68584922Y10091175D01*
X68597135Y9954277D01*
X68597135Y9954277D01*
G36*
X74280851Y9384244D02*
X74265206Y9342685D01*
X74113612Y9197442D01*
X73949764Y9219959D01*
X73938427Y9227503D01*
X73843398Y9326926D01*
X73691091Y9518688D01*
X73564241Y9691793D01*
X73403718Y9906355D01*
X73265945Y10029945D01*
X73104943Y10074565D01*
X72874730Y10052215D01*
X72529327Y9974895D01*
X72503453Y9968654D01*
X72127014Y9882625D01*
X71887902Y9845949D01*
X71760439Y9862119D01*
X71718948Y9934628D01*
X71737749Y10066968D01*
X71739157Y10072620D01*
X71790486Y10250674D01*
X71825665Y10333394D01*
X71916405Y10363466D01*
X72128251Y10416726D01*
X72416228Y10483328D01*
X72735362Y10553427D01*
X73040677Y10617178D01*
X73287201Y10664735D01*
X73429957Y10686253D01*
X73439242Y10686627D01*
X73527429Y10620456D01*
X73678611Y10443898D01*
X73865599Y10189886D01*
X73941333Y10078480D01*
X74149173Y9748146D01*
X74258915Y9524529D01*
X74280851Y9384244D01*
X74280851Y9384244D01*
X74280851Y9384244D01*
G37*
X74280851Y9384244D02*
X74265206Y9342685D01*
X74113612Y9197442D01*
X73949764Y9219959D01*
X73938427Y9227503D01*
X73843398Y9326926D01*
X73691091Y9518688D01*
X73564241Y9691793D01*
X73403718Y9906355D01*
X73265945Y10029945D01*
X73104943Y10074565D01*
X72874730Y10052215D01*
X72529327Y9974895D01*
X72503453Y9968654D01*
X72127014Y9882625D01*
X71887902Y9845949D01*
X71760439Y9862119D01*
X71718948Y9934628D01*
X71737749Y10066968D01*
X71739157Y10072620D01*
X71790486Y10250674D01*
X71825665Y10333394D01*
X71916405Y10363466D01*
X72128251Y10416726D01*
X72416228Y10483328D01*
X72735362Y10553427D01*
X73040677Y10617178D01*
X73287201Y10664735D01*
X73429957Y10686253D01*
X73439242Y10686627D01*
X73527429Y10620456D01*
X73678611Y10443898D01*
X73865599Y10189886D01*
X73941333Y10078480D01*
X74149173Y9748146D01*
X74258915Y9524529D01*
X74280851Y9384244D01*
X74280851Y9384244D01*
G36*
X68981911Y11533293D02*
X68837682Y11279829D01*
X68672478Y11085498D01*
X68524120Y11041491D01*
X68342289Y11056173D01*
X68070382Y11076494D01*
X67917180Y11087474D01*
X67652473Y11123565D01*
X67457841Y11181807D01*
X67401234Y11219979D01*
X67323588Y11361447D01*
X67210874Y11615148D01*
X67079750Y11937397D01*
X66946876Y12284512D01*
X66828910Y12612810D01*
X66742511Y12878607D01*
X66704338Y13038222D01*
X66703786Y13048819D01*
X66766715Y13210863D01*
X66911626Y13264528D01*
X67066399Y13190586D01*
X67146568Y13063666D01*
X67264354Y12820914D01*
X67399409Y12505598D01*
X67457943Y12357916D01*
X67735974Y11638758D01*
X68120697Y11586026D01*
X68415883Y11552874D01*
X68682539Y11534561D01*
X68743666Y11533293D01*
X68981911Y11533293D01*
X68981911Y11533293D01*
X68981911Y11533293D01*
G37*
X68981911Y11533293D02*
X68837682Y11279829D01*
X68672478Y11085498D01*
X68524120Y11041491D01*
X68342289Y11056173D01*
X68070382Y11076494D01*
X67917180Y11087474D01*
X67652473Y11123565D01*
X67457841Y11181807D01*
X67401234Y11219979D01*
X67323588Y11361447D01*
X67210874Y11615148D01*
X67079750Y11937397D01*
X66946876Y12284512D01*
X66828910Y12612810D01*
X66742511Y12878607D01*
X66704338Y13038222D01*
X66703786Y13048819D01*
X66766715Y13210863D01*
X66911626Y13264528D01*
X67066399Y13190586D01*
X67146568Y13063666D01*
X67264354Y12820914D01*
X67399409Y12505598D01*
X67457943Y12357916D01*
X67735974Y11638758D01*
X68120697Y11586026D01*
X68415883Y11552874D01*
X68682539Y11534561D01*
X68743666Y11533293D01*
X68981911Y11533293D01*
X68981911Y11533293D01*
G36*
X73703078Y13092915D02*
X73693100Y12966438D01*
X73630384Y12726036D01*
X73529947Y12412972D01*
X73406808Y12068507D01*
X73275983Y11733903D01*
X73152491Y11450421D01*
X73051348Y11259325D01*
X73020796Y11218304D01*
X72893229Y11159293D01*
X72648724Y11102703D01*
X72339410Y11060500D01*
X72329128Y11059530D01*
X72015519Y11034005D01*
X71824449Y11036711D01*
X71710093Y11077791D01*
X71626627Y11167386D01*
X71588807Y11223374D01*
X71474583Y11414028D01*
X71471394Y11504498D01*
X71590995Y11531777D01*
X71687303Y11533293D01*
X71926485Y11545129D01*
X72225594Y11574632D01*
X72312009Y11585724D01*
X72694532Y11638155D01*
X73008884Y12432391D01*
X73166488Y12812250D01*
X73287689Y13054986D01*
X73387149Y13184927D01*
X73479529Y13226401D01*
X73487502Y13226627D01*
X73648273Y13165889D01*
X73703078Y13092915D01*
X73703078Y13092915D01*
X73703078Y13092915D01*
G37*
X73703078Y13092915D02*
X73693100Y12966438D01*
X73630384Y12726036D01*
X73529947Y12412972D01*
X73406808Y12068507D01*
X73275983Y11733903D01*
X73152491Y11450421D01*
X73051348Y11259325D01*
X73020796Y11218304D01*
X72893229Y11159293D01*
X72648724Y11102703D01*
X72339410Y11060500D01*
X72329128Y11059530D01*
X72015519Y11034005D01*
X71824449Y11036711D01*
X71710093Y11077791D01*
X71626627Y11167386D01*
X71588807Y11223374D01*
X71474583Y11414028D01*
X71471394Y11504498D01*
X71590995Y11531777D01*
X71687303Y11533293D01*
X71926485Y11545129D01*
X72225594Y11574632D01*
X72312009Y11585724D01*
X72694532Y11638155D01*
X73008884Y12432391D01*
X73166488Y12812250D01*
X73287689Y13054986D01*
X73387149Y13184927D01*
X73479529Y13226401D01*
X73487502Y13226627D01*
X73648273Y13165889D01*
X73703078Y13092915D01*
X73703078Y13092915D01*
D10*
X49410120Y25667960D02*
G75*
G03X49410120Y25667960I-825000J0D01*
G01*
X69515120Y50479960D02*
X69515120Y51495960D01*
X68041120Y50479960D02*
X68041120Y51495960D01*
X69515120Y51495960D02*
G75*
G03X68041120Y51495960I-737000J0D01*
G01*
X68041120Y50479960D02*
G75*
G03X69515120Y50479960I737000J0D01*
G01*
X72055120Y50479960D02*
X72055120Y51495960D01*
X70581120Y50479960D02*
X70581120Y51495960D01*
X72055120Y51495960D02*
G75*
G03X70581120Y51495960I-737000J0D01*
G01*
X70581120Y50479960D02*
G75*
G03X72055120Y50479960I737000J0D01*
G01*
X74595120Y50479960D02*
X74595120Y51495960D01*
X73121120Y50479960D02*
X73121120Y51495960D01*
X74595120Y51495960D02*
G75*
G03X73121120Y51495960I-737000J0D01*
G01*
X73121120Y50479960D02*
G75*
G03X74595120Y50479960I737000J0D01*
G01*
X77135120Y50479960D02*
X77135120Y51495960D01*
X75661120Y50479960D02*
X75661120Y51495960D01*
X77135120Y51495960D02*
G75*
G03X75661120Y51495960I-737000J0D01*
G01*
X75661120Y50479960D02*
G75*
G03X77135120Y50479960I737000J0D01*
G01*
X79675120Y50479960D02*
X79675120Y51495960D01*
X78201120Y50479960D02*
X78201120Y51495960D01*
X79675120Y51495960D02*
G75*
G03X78201120Y51495960I-737000J0D01*
G01*
X78201120Y50479960D02*
G75*
G03X79675120Y50479960I737000J0D01*
G01*
X82215120Y50479960D02*
X82215120Y51495960D01*
X80741120Y50479960D02*
X80741120Y51495960D01*
X82215120Y51495960D02*
G75*
G03X80741120Y51495960I-737000J0D01*
G01*
X80741120Y50479960D02*
G75*
G03X82215120Y50479960I737000J0D01*
G01*
X84755120Y50479960D02*
X84755120Y51495960D01*
X83281120Y50479960D02*
X83281120Y51495960D01*
X84755120Y51495960D02*
G75*
G03X83281120Y51495960I-737000J0D01*
G01*
X83281120Y50479960D02*
G75*
G03X84755120Y50479960I737000J0D01*
G01*
X87295120Y50479960D02*
X87295120Y51495960D01*
X85821120Y50479960D02*
X85821120Y51495960D01*
X87295120Y51495960D02*
G75*
G03X85821120Y51495960I-737000J0D01*
G01*
X85821120Y50479960D02*
G75*
G03X87295120Y50479960I737000J0D01*
G01*
X92375120Y2219960D02*
X92375120Y3235960D01*
X90901120Y2219960D02*
X90901120Y3235960D01*
X92375120Y3235960D02*
G75*
G03X90901120Y3235960I-737000J0D01*
G01*
X90901120Y2219960D02*
G75*
G03X92375120Y2219960I737000J0D01*
G01*
X89835120Y2219960D02*
X89835120Y3235960D01*
X88361120Y2219960D02*
X88361120Y3235960D01*
X89835120Y3235960D02*
G75*
G03X88361120Y3235960I-737000J0D01*
G01*
X88361120Y2219960D02*
G75*
G03X89835120Y2219960I737000J0D01*
G01*
X87295120Y2219960D02*
X87295120Y3235960D01*
X85821120Y2219960D02*
X85821120Y3235960D01*
X87295120Y3235960D02*
G75*
G03X85821120Y3235960I-737000J0D01*
G01*
X85821120Y2219960D02*
G75*
G03X87295120Y2219960I737000J0D01*
G01*
X84755120Y2219960D02*
X84755120Y3235960D01*
X83281120Y2219960D02*
X83281120Y3235960D01*
X84755120Y3235960D02*
G75*
G03X83281120Y3235960I-737000J0D01*
G01*
X83281120Y2219960D02*
G75*
G03X84755120Y2219960I737000J0D01*
G01*
X74595120Y2219960D02*
X74595120Y3235960D01*
X73121120Y2219960D02*
X73121120Y3235960D01*
X74595120Y3235960D02*
G75*
G03X73121120Y3235960I-737000J0D01*
G01*
X73121120Y2219960D02*
G75*
G03X74595120Y2219960I737000J0D01*
G01*
X69515120Y2219960D02*
X69515120Y3235960D01*
X68041120Y2219960D02*
X68041120Y3235960D01*
X69515120Y3235960D02*
G75*
G03X68041120Y3235960I-737000J0D01*
G01*
X68041120Y2219960D02*
G75*
G03X69515120Y2219960I737000J0D01*
G01*
X66975120Y2219960D02*
X66975120Y3235960D01*
X65501120Y2219960D02*
X65501120Y3235960D01*
X66975120Y3235960D02*
G75*
G03X65501120Y3235960I-737000J0D01*
G01*
X65501120Y2219960D02*
G75*
G03X66975120Y2219960I737000J0D01*
G01*
X77135120Y2219960D02*
X77135120Y3235960D01*
X75661120Y2219960D02*
X75661120Y3235960D01*
X77135120Y3235960D02*
G75*
G03X75661120Y3235960I-737000J0D01*
G01*
X75661120Y2219960D02*
G75*
G03X77135120Y2219960I737000J0D01*
G01*
X79675120Y2219960D02*
X79675120Y3235960D01*
X78201120Y2219960D02*
X78201120Y3235960D01*
X79675120Y3235960D02*
G75*
G03X78201120Y3235960I-737000J0D01*
G01*
X78201120Y2219960D02*
G75*
G03X79675120Y2219960I737000J0D01*
G01*
X82215120Y2219960D02*
X82215120Y3235960D01*
X80741120Y2219960D02*
X80741120Y3235960D01*
X82215120Y3235960D02*
G75*
G03X80741120Y3235960I-737000J0D01*
G01*
X80741120Y2219960D02*
G75*
G03X82215120Y2219960I737000J0D01*
G01*
X64435120Y2219960D02*
X64435120Y3235960D01*
X62961120Y2219960D02*
X62961120Y3235960D01*
X64435120Y3235960D02*
G75*
G03X62961120Y3235960I-737000J0D01*
G01*
X62961120Y2219960D02*
G75*
G03X64435120Y2219960I737000J0D01*
G01*
X61895120Y2219960D02*
X61895120Y3235960D01*
X60421120Y2219960D02*
X60421120Y3235960D01*
X61895120Y3235960D02*
G75*
G03X60421120Y3235960I-737000J0D01*
G01*
X60421120Y2219960D02*
G75*
G03X61895120Y2219960I737000J0D01*
G01*
X59355120Y2219960D02*
X59355120Y3235960D01*
X57881120Y2219960D02*
X57881120Y3235960D01*
X59355120Y3235960D02*
G75*
G03X57881120Y3235960I-737000J0D01*
G01*
X57881120Y2219960D02*
G75*
G03X59355120Y2219960I737000J0D01*
G01*
X51735120Y2219960D02*
X51735120Y3235960D01*
X50261120Y2219960D02*
X50261120Y3235960D01*
X51735120Y3235960D02*
G75*
G03X50261120Y3235960I-737000J0D01*
G01*
X50261120Y2219960D02*
G75*
G03X51735120Y2219960I737000J0D01*
G01*
X54275120Y2219960D02*
X54275120Y3235960D01*
X52801120Y2219960D02*
X52801120Y3235960D01*
X54275120Y3235960D02*
G75*
G03X52801120Y3235960I-737000J0D01*
G01*
X52801120Y2219960D02*
G75*
G03X54275120Y2219960I737000J0D01*
G01*
X56815120Y2219960D02*
X56815120Y3235960D01*
X55341120Y2219960D02*
X55341120Y3235960D01*
X56815120Y3235960D02*
G75*
G03X55341120Y3235960I-737000J0D01*
G01*
X55341120Y2219960D02*
G75*
G03X56815120Y2219960I737000J0D01*
G01*
X46655120Y2219960D02*
X46655120Y3235960D01*
X45181120Y2219960D02*
X45181120Y3235960D01*
X46655120Y3235960D02*
G75*
G03X45181120Y3235960I-737000J0D01*
G01*
X45181120Y2219960D02*
G75*
G03X46655120Y2219960I737000J0D01*
G01*
X44115120Y2219960D02*
X44115120Y3235960D01*
X42641120Y2219960D02*
X42641120Y3235960D01*
X44115120Y3235960D02*
G75*
G03X42641120Y3235960I-737000J0D01*
G01*
X42641120Y2219960D02*
G75*
G03X44115120Y2219960I737000J0D01*
G01*
X41575120Y2219960D02*
X41575120Y3235960D01*
X40101120Y2219960D02*
X40101120Y3235960D01*
X41575120Y3235960D02*
G75*
G03X40101120Y3235960I-737000J0D01*
G01*
X40101120Y2219960D02*
G75*
G03X41575120Y2219960I737000J0D01*
G01*
X36495120Y2219960D02*
X36495120Y3235960D01*
X35021120Y2219960D02*
X35021120Y3235960D01*
X36495120Y3235960D02*
G75*
G03X35021120Y3235960I-737000J0D01*
G01*
X35021120Y2219960D02*
G75*
G03X36495120Y2219960I737000J0D01*
G01*
X33955120Y2219960D02*
X33955120Y3235960D01*
X32481120Y2219960D02*
X32481120Y3235960D01*
X33955120Y3235960D02*
G75*
G03X32481120Y3235960I-737000J0D01*
G01*
X32481120Y2219960D02*
G75*
G03X33955120Y2219960I737000J0D01*
G01*
X64435120Y50479960D02*
X64435120Y51495960D01*
X62961120Y50479960D02*
X62961120Y51495960D01*
X64435120Y51495960D02*
G75*
G03X62961120Y51495960I-737000J0D01*
G01*
X62961120Y50479960D02*
G75*
G03X64435120Y50479960I737000J0D01*
G01*
X61895120Y50479960D02*
X61895120Y51495960D01*
X60421120Y50479960D02*
X60421120Y51495960D01*
X61895120Y51495960D02*
G75*
G03X60421120Y51495960I-737000J0D01*
G01*
X60421120Y50479960D02*
G75*
G03X61895120Y50479960I737000J0D01*
G01*
X59355120Y50479960D02*
X59355120Y51495960D01*
X57881120Y50479960D02*
X57881120Y51495960D01*
X59355120Y51495960D02*
G75*
G03X57881120Y51495960I-737000J0D01*
G01*
X57881120Y50479960D02*
G75*
G03X59355120Y50479960I737000J0D01*
G01*
X56815120Y50479960D02*
X56815120Y51495960D01*
X55341120Y50479960D02*
X55341120Y51495960D01*
X56815120Y51495960D02*
G75*
G03X55341120Y51495960I-737000J0D01*
G01*
X55341120Y50479960D02*
G75*
G03X56815120Y50479960I737000J0D01*
G01*
X54275120Y50479960D02*
X54275120Y51495960D01*
X52801120Y50479960D02*
X52801120Y51495960D01*
X54275120Y51495960D02*
G75*
G03X52801120Y51495960I-737000J0D01*
G01*
X52801120Y50479960D02*
G75*
G03X54275120Y50479960I737000J0D01*
G01*
X51735120Y50479960D02*
X51735120Y51495960D01*
X50261120Y50479960D02*
X50261120Y51495960D01*
X51735120Y51495960D02*
G75*
G03X50261120Y51495960I-737000J0D01*
G01*
X50261120Y50479960D02*
G75*
G03X51735120Y50479960I737000J0D01*
G01*
X49195120Y50479960D02*
X49195120Y51495960D01*
X47721120Y50479960D02*
X47721120Y51495960D01*
X49195120Y51495960D02*
G75*
G03X47721120Y51495960I-737000J0D01*
G01*
X47721120Y50479960D02*
G75*
G03X49195120Y50479960I737000J0D01*
G01*
X46655120Y50479960D02*
X46655120Y51495960D01*
X45181120Y50479960D02*
X45181120Y51495960D01*
X46655120Y51495960D02*
G75*
G03X45181120Y51495960I-737000J0D01*
G01*
X45181120Y50479960D02*
G75*
G03X46655120Y50479960I737000J0D01*
G01*
X42591120Y50479960D02*
X42591120Y51495960D01*
X41117120Y50479960D02*
X41117120Y51495960D01*
X42591120Y51495960D02*
G75*
G03X41117120Y51495960I-737000J0D01*
G01*
X41117120Y50479960D02*
G75*
G03X42591120Y50479960I737000J0D01*
G01*
X40051120Y50479960D02*
X40051120Y51495960D01*
X38577120Y50479960D02*
X38577120Y51495960D01*
X40051120Y51495960D02*
G75*
G03X38577120Y51495960I-737000J0D01*
G01*
X38577120Y50479960D02*
G75*
G03X40051120Y50479960I737000J0D01*
G01*
X37511120Y50479960D02*
X37511120Y51495960D01*
X36037120Y50479960D02*
X36037120Y51495960D01*
X37511120Y51495960D02*
G75*
G03X36037120Y51495960I-737000J0D01*
G01*
X36037120Y50479960D02*
G75*
G03X37511120Y50479960I737000J0D01*
G01*
X34971120Y50479960D02*
X34971120Y51495960D01*
X33497120Y50479960D02*
X33497120Y51495960D01*
X34971120Y51495960D02*
G75*
G03X33497120Y51495960I-737000J0D01*
G01*
X33497120Y50479960D02*
G75*
G03X34971120Y50479960I737000J0D01*
G01*
X32431120Y50479960D02*
X32431120Y51495960D01*
X30957120Y50479960D02*
X30957120Y51495960D01*
X32431120Y51495960D02*
G75*
G03X30957120Y51495960I-737000J0D01*
G01*
X30957120Y50479960D02*
G75*
G03X32431120Y50479960I737000J0D01*
G01*
X29891120Y50479960D02*
X29891120Y51495960D01*
X28417120Y50479960D02*
X28417120Y51495960D01*
X29891120Y51495960D02*
G75*
G03X28417120Y51495960I-737000J0D01*
G01*
X28417120Y50479960D02*
G75*
G03X29891120Y50479960I737000J0D01*
G01*
X27351120Y50479960D02*
X27351120Y51495960D01*
X25877120Y50479960D02*
X25877120Y51495960D01*
X27351120Y51495960D02*
G75*
G03X25877120Y51495960I-737000J0D01*
G01*
X25877120Y50479960D02*
G75*
G03X27351120Y50479960I737000J0D01*
G01*
X24811120Y50479960D02*
X24811120Y51495960D01*
X23337120Y50479960D02*
X23337120Y51495960D01*
X24811120Y51495960D02*
G75*
G03X23337120Y51495960I-737000J0D01*
G01*
X23337120Y50479960D02*
G75*
G03X24811120Y50479960I737000J0D01*
G01*
X39035120Y2219960D02*
X39035120Y3235960D01*
X37561120Y2219960D02*
X37561120Y3235960D01*
X39035120Y3235960D02*
G75*
G03X37561120Y3235960I-737000J0D01*
G01*
X37561120Y2219960D02*
G75*
G03X39035120Y2219960I737000J0D01*
G01*
X94915120Y48447960D02*
G75*
G03X94915120Y48447960I-737000J0D01*
G01*
X97455120Y48447960D02*
G75*
G03X97455120Y48447960I-737000J0D01*
G01*
X94915120Y45907960D02*
G75*
G03X94915120Y45907960I-737000J0D01*
G01*
X97455120Y45907960D02*
G75*
G03X97455120Y45907960I-737000J0D01*
G01*
X94915120Y43367960D02*
G75*
G03X94915120Y43367960I-737000J0D01*
G01*
X97455120Y43367960D02*
G75*
G03X97455120Y43367960I-737000J0D01*
G01*
X94915120Y40827960D02*
G75*
G03X94915120Y40827960I-737000J0D01*
G01*
X97455120Y40827960D02*
G75*
G03X97455120Y40827960I-737000J0D01*
G01*
X94915120Y50987960D02*
G75*
G03X94915120Y50987960I-737000J0D01*
G01*
X97455120Y50987960D02*
G75*
G03X97455120Y50987960I-737000J0D01*
G01*
X97455120Y38287960D02*
G75*
G03X97455120Y38287960I-737000J0D01*
G01*
X94915120Y38287960D02*
G75*
G03X94915120Y38287960I-737000J0D01*
G01*
X94915120Y35747960D02*
G75*
G03X94915120Y35747960I-737000J0D01*
G01*
X97455120Y35747960D02*
G75*
G03X97455120Y35747960I-737000J0D01*
G01*
X94915120Y33207960D02*
G75*
G03X94915120Y33207960I-737000J0D01*
G01*
X97455120Y33207960D02*
G75*
G03X97455120Y33207960I-737000J0D01*
G01*
X94915120Y30667960D02*
G75*
G03X94915120Y30667960I-737000J0D01*
G01*
X97455120Y30667960D02*
G75*
G03X97455120Y30667960I-737000J0D01*
G01*
X94915120Y28127960D02*
G75*
G03X94915120Y28127960I-737000J0D01*
G01*
X97455120Y28127960D02*
G75*
G03X97455120Y28127960I-737000J0D01*
G01*
X94915120Y25587960D02*
G75*
G03X94915120Y25587960I-737000J0D01*
G01*
X97455120Y25587960D02*
G75*
G03X97455120Y25587960I-737000J0D01*
G01*
X94915120Y23047960D02*
G75*
G03X94915120Y23047960I-737000J0D01*
G01*
X97455120Y23047960D02*
G75*
G03X97455120Y23047960I-737000J0D01*
G01*
X94915120Y20507960D02*
G75*
G03X94915120Y20507960I-737000J0D01*
G01*
X97455120Y20507960D02*
G75*
G03X97455120Y20507960I-737000J0D01*
G01*
X94915120Y17967960D02*
G75*
G03X94915120Y17967960I-737000J0D01*
G01*
X97455120Y17967960D02*
G75*
G03X97455120Y17967960I-737000J0D01*
G01*
X94915120Y15427960D02*
G75*
G03X94915120Y15427960I-737000J0D01*
G01*
X97455120Y15427960D02*
G75*
G03X97455120Y15427960I-737000J0D01*
G01*
X94915120Y12887960D02*
G75*
G03X94915120Y12887960I-737000J0D01*
G01*
X97455120Y12887960D02*
G75*
G03X97455120Y12887960I-737000J0D01*
G01*
X94915120Y10347960D02*
G75*
G03X94915120Y10347960I-737000J0D01*
G01*
X97455120Y10347960D02*
G75*
G03X97455120Y10347960I-737000J0D01*
G01*
X94915120Y7807960D02*
G75*
G03X94915120Y7807960I-737000J0D01*
G01*
X97455120Y7807960D02*
G75*
G03X97455120Y7807960I-737000J0D01*
G01*
X15094120Y29778960D02*
G75*
G03X15094120Y29778960I-625000J0D01*
G01*
X10522120Y9839960D02*
G75*
G03X10522120Y9839960I-625000J0D01*
G01*
X9760120Y39811960D02*
G75*
G03X9760120Y39811960I-625000J0D01*
G01*
X16364120Y18983960D02*
G75*
G03X16364120Y18983960I-625000J0D01*
G01*
X15224120Y41509960D02*
G75*
G03X15224120Y41509960I-675000J0D01*
G01*
X16240120Y6871960D02*
G75*
G03X16240120Y6871960I-675000J0D01*
G01*
X49791120Y10935960D02*
G75*
G03X49791120Y10935960I-825000J0D01*
G01*
X58531920Y45025560D02*
G75*
G03X58531920Y45025560I-625000J0D01*
G01*
X20046550Y28982670D02*
X20046550Y27984450D01*
X21497690Y28982670D02*
X21497690Y27984450D01*
X20046550Y27984450D02*
G75*
G03X21497690Y27984450I725570J0D01*
G01*
X21497690Y28982670D02*
G75*
G03X20046550Y28982670I-725570J0D01*
G01*
X21316550Y10910570D02*
X21316550Y9912350D01*
X22767690Y10910570D02*
X22767690Y9912350D01*
X21316550Y9912350D02*
G75*
G03X22767690Y9912350I725570J0D01*
G01*
X22767690Y10910570D02*
G75*
G03X21316550Y10910570I-725570J0D01*
G01*
X57754520Y31506560D02*
X57449720Y31506560D01*
X57754520Y29829360D02*
X57449720Y29829360D01*
X57449720Y31506560D02*
G75*
G03X57449720Y29829360I0J-838600D01*
G01*
X57754520Y29829360D02*
G75*
G03X57754520Y31506560I0J838600D01*
G01*
X57754520Y34046560D02*
X57449720Y34046560D01*
X57754520Y32369360D02*
X57449720Y32369360D01*
X57449720Y34046560D02*
G75*
G03X57449720Y32369360I0J-838600D01*
G01*
X57754520Y32369360D02*
G75*
G03X57754520Y34046560I0J838600D01*
G01*
X61310520Y31506560D02*
X61005720Y31506560D01*
X61310520Y29829360D02*
X61005720Y29829360D01*
X61005720Y31506560D02*
G75*
G03X61005720Y29829360I0J-838600D01*
G01*
X61310520Y29829360D02*
G75*
G03X61310520Y31506560I0J838600D01*
G01*
X61310520Y34046560D02*
X61005720Y34046560D01*
X61310520Y32369360D02*
X61005720Y32369360D01*
X61005720Y34046560D02*
G75*
G03X61005720Y32369360I0J-838600D01*
G01*
X61310520Y32369360D02*
G75*
G03X61310520Y34046560I0J838600D01*
G01*
X64866520Y31506560D02*
X64561720Y31506560D01*
X64866520Y29829360D02*
X64561720Y29829360D01*
X64561720Y31506560D02*
G75*
G03X64561720Y29829360I0J-838600D01*
G01*
X64866520Y29829360D02*
G75*
G03X64866520Y31506560I0J838600D01*
G01*
X64866520Y34046560D02*
X64561720Y34046560D01*
X64866520Y32369360D02*
X64561720Y32369360D01*
X64561720Y34046560D02*
G75*
G03X64561720Y32369360I0J-838600D01*
G01*
X64866520Y32369360D02*
G75*
G03X64866520Y34046560I0J838600D01*
G01*
X68422520Y31506560D02*
X68117720Y31506560D01*
X68422520Y29829360D02*
X68117720Y29829360D01*
X68117720Y31506560D02*
G75*
G03X68117720Y29829360I0J-838600D01*
G01*
X68422520Y29829360D02*
G75*
G03X68422520Y31506560I0J838600D01*
G01*
X68422520Y34046560D02*
X68117720Y34046560D01*
X68422520Y32369360D02*
X68117720Y32369360D01*
X68117720Y34046560D02*
G75*
G03X68117720Y32369360I0J-838600D01*
G01*
X68422520Y32369360D02*
G75*
G03X68422520Y34046560I0J838600D01*
G01*
X71978520Y31506560D02*
X71673720Y31506560D01*
X71978520Y29829360D02*
X71673720Y29829360D01*
X71673720Y31506560D02*
G75*
G03X71673720Y29829360I0J-838600D01*
G01*
X71978520Y29829360D02*
G75*
G03X71978520Y31506560I0J838600D01*
G01*
X71978520Y34046560D02*
X71673720Y34046560D01*
X71978520Y32369360D02*
X71673720Y32369360D01*
X71673720Y34046560D02*
G75*
G03X71673720Y32369360I0J-838600D01*
G01*
X71978520Y32369360D02*
G75*
G03X71978520Y34046560I0J838600D01*
G01*
X75534520Y31506560D02*
X75229720Y31506560D01*
X75534520Y29829360D02*
X75229720Y29829360D01*
X75229720Y31506560D02*
G75*
G03X75229720Y29829360I0J-838600D01*
G01*
X75534520Y29829360D02*
G75*
G03X75534520Y31506560I0J838600D01*
G01*
X75534520Y34046560D02*
X75229720Y34046560D01*
X75534520Y32369360D02*
X75229720Y32369360D01*
X75229720Y34046560D02*
G75*
G03X75229720Y32369360I0J-838600D01*
G01*
X75534520Y32369360D02*
G75*
G03X75534520Y34046560I0J838600D01*
G01*
X79090520Y31506560D02*
X78785720Y31506560D01*
X79090520Y29829360D02*
X78785720Y29829360D01*
X78785720Y31506560D02*
G75*
G03X78785720Y29829360I0J-838600D01*
G01*
X79090520Y29829360D02*
G75*
G03X79090520Y31506560I0J838600D01*
G01*
X79090520Y34046560D02*
X78785720Y34046560D01*
X79090520Y32369360D02*
X78785720Y32369360D01*
X78785720Y34046560D02*
G75*
G03X78785720Y32369360I0J-838600D01*
G01*
X79090520Y32369360D02*
G75*
G03X79090520Y34046560I0J838600D01*
G01*
X82646520Y31506560D02*
X82341720Y31506560D01*
X82646520Y29829360D02*
X82341720Y29829360D01*
X82341720Y31506560D02*
G75*
G03X82341720Y29829360I0J-838600D01*
G01*
X82646520Y29829360D02*
G75*
G03X82646520Y31506560I0J838600D01*
G01*
X82646520Y34046560D02*
X82341720Y34046560D01*
X82646520Y32369360D02*
X82341720Y32369360D01*
X82341720Y34046560D02*
G75*
G03X82341720Y32369360I0J-838600D01*
G01*
X82646520Y32369360D02*
G75*
G03X82646520Y34046560I0J838600D01*
G01*
X86202520Y31506560D02*
X85897720Y31506560D01*
X86202520Y29829360D02*
X85897720Y29829360D01*
X85897720Y31506560D02*
G75*
G03X85897720Y29829360I0J-838600D01*
G01*
X86202520Y29829360D02*
G75*
G03X86202520Y31506560I0J838600D01*
G01*
X86202520Y34046560D02*
X85897720Y34046560D01*
X86202520Y32369360D02*
X85897720Y32369360D01*
X85897720Y34046560D02*
G75*
G03X85897720Y32369360I0J-838600D01*
G01*
X86202520Y32369360D02*
G75*
G03X86202520Y34046560I0J838600D01*
G01*
X57449720Y21193360D02*
X57754520Y21193360D01*
X57449720Y22870560D02*
X57754520Y22870560D01*
X57754520Y21193360D02*
G75*
G03X57754520Y22870560I0J838600D01*
G01*
X57449720Y22870560D02*
G75*
G03X57449720Y21193360I0J-838600D01*
G01*
X57449720Y18653360D02*
X57754520Y18653360D01*
X57449720Y20330560D02*
X57754520Y20330560D01*
X57754520Y18653360D02*
G75*
G03X57754520Y20330560I0J838600D01*
G01*
X57449720Y20330560D02*
G75*
G03X57449720Y18653360I0J-838600D01*
G01*
X61005720Y21193360D02*
X61310520Y21193360D01*
X61005720Y22870560D02*
X61310520Y22870560D01*
X61310520Y21193360D02*
G75*
G03X61310520Y22870560I0J838600D01*
G01*
X61005720Y22870560D02*
G75*
G03X61005720Y21193360I0J-838600D01*
G01*
X61005720Y18653360D02*
X61310520Y18653360D01*
X61005720Y20330560D02*
X61310520Y20330560D01*
X61310520Y18653360D02*
G75*
G03X61310520Y20330560I0J838600D01*
G01*
X61005720Y20330560D02*
G75*
G03X61005720Y18653360I0J-838600D01*
G01*
X64561720Y21193360D02*
X64866520Y21193360D01*
X64561720Y22870560D02*
X64866520Y22870560D01*
X64866520Y21193360D02*
G75*
G03X64866520Y22870560I0J838600D01*
G01*
X64561720Y22870560D02*
G75*
G03X64561720Y21193360I0J-838600D01*
G01*
X64561720Y18653360D02*
X64866520Y18653360D01*
X64561720Y20330560D02*
X64866520Y20330560D01*
X64866520Y18653360D02*
G75*
G03X64866520Y20330560I0J838600D01*
G01*
X64561720Y20330560D02*
G75*
G03X64561720Y18653360I0J-838600D01*
G01*
X68117720Y21193360D02*
X68422520Y21193360D01*
X68117720Y22870560D02*
X68422520Y22870560D01*
X68422520Y21193360D02*
G75*
G03X68422520Y22870560I0J838600D01*
G01*
X68117720Y22870560D02*
G75*
G03X68117720Y21193360I0J-838600D01*
G01*
X68117720Y18653360D02*
X68422520Y18653360D01*
X68117720Y20330560D02*
X68422520Y20330560D01*
X68422520Y18653360D02*
G75*
G03X68422520Y20330560I0J838600D01*
G01*
X68117720Y20330560D02*
G75*
G03X68117720Y18653360I0J-838600D01*
G01*
X71673720Y21193360D02*
X71978520Y21193360D01*
X71673720Y22870560D02*
X71978520Y22870560D01*
X71978520Y21193360D02*
G75*
G03X71978520Y22870560I0J838600D01*
G01*
X71673720Y22870560D02*
G75*
G03X71673720Y21193360I0J-838600D01*
G01*
X71673720Y18653360D02*
X71978520Y18653360D01*
X71673720Y20330560D02*
X71978520Y20330560D01*
X71978520Y18653360D02*
G75*
G03X71978520Y20330560I0J838600D01*
G01*
X71673720Y20330560D02*
G75*
G03X71673720Y18653360I0J-838600D01*
G01*
X75229720Y21193360D02*
X75534520Y21193360D01*
X75229720Y22870560D02*
X75534520Y22870560D01*
X75534520Y21193360D02*
G75*
G03X75534520Y22870560I0J838600D01*
G01*
X75229720Y22870560D02*
G75*
G03X75229720Y21193360I0J-838600D01*
G01*
X75229720Y18653360D02*
X75534520Y18653360D01*
X75229720Y20330560D02*
X75534520Y20330560D01*
X75534520Y18653360D02*
G75*
G03X75534520Y20330560I0J838600D01*
G01*
X75229720Y20330560D02*
G75*
G03X75229720Y18653360I0J-838600D01*
G01*
X78785720Y21193360D02*
X79090520Y21193360D01*
X78785720Y22870560D02*
X79090520Y22870560D01*
X79090520Y21193360D02*
G75*
G03X79090520Y22870560I0J838600D01*
G01*
X78785720Y22870560D02*
G75*
G03X78785720Y21193360I0J-838600D01*
G01*
X78785720Y18653360D02*
X79090520Y18653360D01*
X78785720Y20330560D02*
X79090520Y20330560D01*
X79090520Y18653360D02*
G75*
G03X79090520Y20330560I0J838600D01*
G01*
X78785720Y20330560D02*
G75*
G03X78785720Y18653360I0J-838600D01*
G01*
X82341720Y21193360D02*
X82646520Y21193360D01*
X82341720Y22870560D02*
X82646520Y22870560D01*
X82646520Y21193360D02*
G75*
G03X82646520Y22870560I0J838600D01*
G01*
X82341720Y22870560D02*
G75*
G03X82341720Y21193360I0J-838600D01*
G01*
X82341720Y18653360D02*
X82646520Y18653360D01*
X82341720Y20330560D02*
X82646520Y20330560D01*
X82646520Y18653360D02*
G75*
G03X82646520Y20330560I0J838600D01*
G01*
X82341720Y20330560D02*
G75*
G03X82341720Y18653360I0J-838600D01*
G01*
X85897720Y21193360D02*
X86202520Y21193360D01*
X85897720Y22870560D02*
X86202520Y22870560D01*
X86202520Y21193360D02*
G75*
G03X86202520Y22870560I0J838600D01*
G01*
X85897720Y22870560D02*
G75*
G03X85897720Y21193360I0J-838600D01*
G01*
X85897720Y18653360D02*
X86202520Y18653360D01*
X85897720Y20330560D02*
X86202520Y20330560D01*
X86202520Y18653360D02*
G75*
G03X86202520Y20330560I0J838600D01*
G01*
X85897720Y20330560D02*
G75*
G03X85897720Y18653360I0J-838600D01*
G01*
X79115520Y46517560D02*
X79115520Y46212760D01*
X80792720Y46517560D02*
X80792720Y46212760D01*
X79115520Y46212760D02*
G75*
G03X80792720Y46212760I838600J0D01*
G01*
X80792720Y46517560D02*
G75*
G03X79115520Y46517560I-838600J0D01*
G01*
X76575520Y46517560D02*
X76575520Y46212760D01*
X78252720Y46517560D02*
X78252720Y46212760D01*
X76575520Y46212760D02*
G75*
G03X78252720Y46212760I838600J0D01*
G01*
X78252720Y46517560D02*
G75*
G03X76575520Y46517560I-838600J0D01*
G01*
X74035520Y46517560D02*
X74035520Y46212760D01*
X75712720Y46517560D02*
X75712720Y46212760D01*
X74035520Y46212760D02*
G75*
G03X75712720Y46212760I838600J0D01*
G01*
X75712720Y46517560D02*
G75*
G03X74035520Y46517560I-838600J0D01*
G01*
X71495520Y46517560D02*
X71495520Y46212760D01*
X73172720Y46517560D02*
X73172720Y46212760D01*
X71495520Y46212760D02*
G75*
G03X73172720Y46212760I838600J0D01*
G01*
X73172720Y46517560D02*
G75*
G03X71495520Y46517560I-838600J0D01*
G01*
X79115520Y42631360D02*
X79115520Y42326560D01*
X80792720Y42631360D02*
X80792720Y42326560D01*
X79115520Y42326560D02*
G75*
G03X80792720Y42326560I838600J0D01*
G01*
X80792720Y42631360D02*
G75*
G03X79115520Y42631360I-838600J0D01*
G01*
X76575520Y42631360D02*
X76575520Y42326560D01*
X78252720Y42631360D02*
X78252720Y42326560D01*
X76575520Y42326560D02*
G75*
G03X78252720Y42326560I838600J0D01*
G01*
X78252720Y42631360D02*
G75*
G03X76575520Y42631360I-838600J0D01*
G01*
X74035520Y42631360D02*
X74035520Y42326560D01*
X75712720Y42631360D02*
X75712720Y42326560D01*
X74035520Y42326560D02*
G75*
G03X75712720Y42326560I838600J0D01*
G01*
X75712720Y42631360D02*
G75*
G03X74035520Y42631360I-838600J0D01*
G01*
X6015120Y20888960D02*
G75*
G03X6015120Y20888960I-2007000J0D01*
G01*
X5888120Y26222960D02*
G75*
G03X5888120Y26222960I-2007000J0D01*
G01*
X20581620Y36344460D02*
X20962620Y36344460D01*
X20581620Y38199460D02*
X20962620Y38199460D01*
X20962620Y36344460D02*
G75*
G03X20962620Y38199460I0J927500D01*
G01*
X20581620Y38199460D02*
G75*
G03X20581620Y36344460I0J-927500D01*
G01*
X20581620Y33804460D02*
X20962620Y33804460D01*
X20581620Y35659460D02*
X20962620Y35659460D01*
X20962620Y33804460D02*
G75*
G03X20962620Y35659460I0J927500D01*
G01*
X20581620Y35659460D02*
G75*
G03X20581620Y33804460I0J-927500D01*
G01*
X23121620Y35074460D02*
X23502620Y35074460D01*
X23121620Y36929460D02*
X23502620Y36929460D01*
X23502620Y35074460D02*
G75*
G03X23502620Y36929460I0J927500D01*
G01*
X23121620Y36929460D02*
G75*
G03X23121620Y35074460I0J-927500D01*
G01*
X23121620Y37614460D02*
X23502620Y37614460D01*
X23121620Y39469460D02*
X23502620Y39469460D01*
X23502620Y37614460D02*
G75*
G03X23502620Y39469460I0J927500D01*
G01*
X23121620Y39469460D02*
G75*
G03X23121620Y37614460I0J-927500D01*
G01*
X26931620Y40154460D02*
X27312620Y40154460D01*
X26931620Y42009460D02*
X27312620Y42009460D01*
X27312620Y40154460D02*
G75*
G03X27312620Y42009460I0J927500D01*
G01*
X26931620Y42009460D02*
G75*
G03X26931620Y40154460I0J-927500D01*
G01*
X26931620Y32534460D02*
X27312620Y32534460D01*
X26931620Y34389460D02*
X27312620Y34389460D01*
X27312620Y32534460D02*
G75*
G03X27312620Y34389460I0J927500D01*
G01*
X26931620Y34389460D02*
G75*
G03X26931620Y32534460I0J-927500D01*
G01*
X21470620Y17802460D02*
X21851620Y17802460D01*
X21470620Y19657460D02*
X21851620Y19657460D01*
X21851620Y17802460D02*
G75*
G03X21851620Y19657460I0J927500D01*
G01*
X21470620Y19657460D02*
G75*
G03X21470620Y17802460I0J-927500D01*
G01*
X21470620Y15262460D02*
X21851620Y15262460D01*
X21470620Y17117460D02*
X21851620Y17117460D01*
X21851620Y15262460D02*
G75*
G03X21851620Y17117460I0J927500D01*
G01*
X21470620Y17117460D02*
G75*
G03X21470620Y15262460I0J-927500D01*
G01*
X24010620Y16532460D02*
X24391620Y16532460D01*
X24010620Y18387460D02*
X24391620Y18387460D01*
X24391620Y16532460D02*
G75*
G03X24391620Y18387460I0J927500D01*
G01*
X24010620Y18387460D02*
G75*
G03X24010620Y16532460I0J-927500D01*
G01*
X24010620Y19072460D02*
X24391620Y19072460D01*
X24010620Y20927460D02*
X24391620Y20927460D01*
X24391620Y19072460D02*
G75*
G03X24391620Y20927460I0J927500D01*
G01*
X24010620Y20927460D02*
G75*
G03X24010620Y19072460I0J-927500D01*
G01*
X27820620Y21612460D02*
X28201620Y21612460D01*
X27820620Y23467460D02*
X28201620Y23467460D01*
X28201620Y21612460D02*
G75*
G03X28201620Y23467460I0J927500D01*
G01*
X27820620Y23467460D02*
G75*
G03X27820620Y21612460I0J-927500D01*
G01*
X27820620Y13992460D02*
X28201620Y13992460D01*
X27820620Y15847460D02*
X28201620Y15847460D01*
X28201620Y13992460D02*
G75*
G03X28201620Y15847460I0J927500D01*
G01*
X27820620Y15847460D02*
G75*
G03X27820620Y13992460I0J-927500D01*
G01*
X89758520Y31506560D02*
X89453720Y31506560D01*
X89758520Y29829360D02*
X89453720Y29829360D01*
X89453720Y31506560D02*
G75*
G03X89453720Y29829360I0J-838600D01*
G01*
X89758520Y29829360D02*
G75*
G03X89758520Y31506560I0J838600D01*
G01*
X89758520Y34046560D02*
X89453720Y34046560D01*
X89758520Y32369360D02*
X89453720Y32369360D01*
X89453720Y34046560D02*
G75*
G03X89453720Y32369360I0J-838600D01*
G01*
X89758520Y32369360D02*
G75*
G03X89758520Y34046560I0J838600D01*
G01*
D12*
X56542263Y27525103D02*
X56589882Y27477484D01*
X56637501Y27334627D01*
X56637501Y27239389D01*
X56589882Y27096531D01*
X56494644Y27001293D01*
X56399406Y26953674D01*
X56208930Y26906055D01*
X56066072Y26906055D01*
X55875596Y26953674D01*
X55780358Y27001293D01*
X55685120Y27096531D01*
X55637501Y27239389D01*
X55637501Y27334627D01*
X55685120Y27477484D01*
X55732739Y27525103D01*
X56637501Y28477484D02*
X56637501Y27906055D01*
X56637501Y28191769D02*
X55637501Y28191769D01*
X55780358Y28096531D01*
X55875596Y28001293D01*
X55923215Y27906055D01*
X56637501Y29429865D02*
X56637501Y28858436D01*
X56637501Y29144150D02*
X55637501Y29144150D01*
X55780358Y29048912D01*
X55875596Y28953674D01*
X55923215Y28858436D01*
X11802454Y35721817D02*
X11754835Y35674198D01*
X11611978Y35626579D01*
X11516740Y35626579D01*
X11373882Y35674198D01*
X11278644Y35769436D01*
X11231025Y35864674D01*
X11183406Y36055150D01*
X11183406Y36198008D01*
X11231025Y36388484D01*
X11278644Y36483722D01*
X11373882Y36578960D01*
X11516740Y36626579D01*
X11611978Y36626579D01*
X11754835Y36578960D01*
X11802454Y36531341D01*
X12754835Y35626579D02*
X12183406Y35626579D01*
X12469120Y35626579D02*
X12469120Y36626579D01*
X12373882Y36483722D01*
X12278644Y36388484D01*
X12183406Y36340865D01*
X7230454Y15782817D02*
X7182835Y15735198D01*
X7039978Y15687579D01*
X6944740Y15687579D01*
X6801882Y15735198D01*
X6706644Y15830436D01*
X6659025Y15925674D01*
X6611406Y16116150D01*
X6611406Y16259008D01*
X6659025Y16449484D01*
X6706644Y16544722D01*
X6801882Y16639960D01*
X6944740Y16687579D01*
X7039978Y16687579D01*
X7182835Y16639960D01*
X7230454Y16592341D01*
X7611406Y16592341D02*
X7659025Y16639960D01*
X7754263Y16687579D01*
X7992359Y16687579D01*
X8087597Y16639960D01*
X8135216Y16592341D01*
X8182835Y16497103D01*
X8182835Y16401865D01*
X8135216Y16259008D01*
X7563787Y15687579D01*
X8182835Y15687579D01*
X3349263Y50948294D02*
X3396882Y50900675D01*
X3444501Y50757818D01*
X3444501Y50662580D01*
X3396882Y50519722D01*
X3301644Y50424484D01*
X3206406Y50376865D01*
X3015930Y50329246D01*
X2873072Y50329246D01*
X2682596Y50376865D01*
X2587358Y50424484D01*
X2492120Y50519722D01*
X2444501Y50662580D01*
X2444501Y50757818D01*
X2492120Y50900675D01*
X2539739Y50948294D01*
X2444501Y51281627D02*
X2444501Y51900675D01*
X2825453Y51567341D01*
X2825453Y51710199D01*
X2873072Y51805437D01*
X2920691Y51853056D01*
X3015930Y51900675D01*
X3254025Y51900675D01*
X3349263Y51853056D01*
X3396882Y51805437D01*
X3444501Y51710199D01*
X3444501Y51424484D01*
X3396882Y51329246D01*
X3349263Y51281627D01*
X13072454Y24926817D02*
X13024835Y24879198D01*
X12881978Y24831579D01*
X12786740Y24831579D01*
X12643882Y24879198D01*
X12548644Y24974436D01*
X12501025Y25069674D01*
X12453406Y25260150D01*
X12453406Y25403008D01*
X12501025Y25593484D01*
X12548644Y25688722D01*
X12643882Y25783960D01*
X12786740Y25831579D01*
X12881978Y25831579D01*
X13024835Y25783960D01*
X13072454Y25736341D01*
X13929597Y25498246D02*
X13929597Y24831579D01*
X13691501Y25879198D02*
X13453406Y25164912D01*
X14072454Y25164912D01*
X11406263Y38843294D02*
X11453882Y38795675D01*
X11501501Y38652818D01*
X11501501Y38557580D01*
X11453882Y38414722D01*
X11358644Y38319484D01*
X11263406Y38271865D01*
X11072930Y38224246D01*
X10930072Y38224246D01*
X10739596Y38271865D01*
X10644358Y38319484D01*
X10549120Y38414722D01*
X10501501Y38557580D01*
X10501501Y38652818D01*
X10549120Y38795675D01*
X10596739Y38843294D01*
X10501501Y39748056D02*
X10501501Y39271865D01*
X10977691Y39224246D01*
X10930072Y39271865D01*
X10882453Y39367103D01*
X10882453Y39605199D01*
X10930072Y39700437D01*
X10977691Y39748056D01*
X11072930Y39795675D01*
X11311025Y39795675D01*
X11406263Y39748056D01*
X11453882Y39700437D01*
X11501501Y39605199D01*
X11501501Y39367103D01*
X11453882Y39271865D01*
X11406263Y39224246D01*
X15271454Y4656817D02*
X15223835Y4609198D01*
X15080978Y4561579D01*
X14985740Y4561579D01*
X14842882Y4609198D01*
X14747644Y4704436D01*
X14700025Y4799674D01*
X14652406Y4990150D01*
X14652406Y5133008D01*
X14700025Y5323484D01*
X14747644Y5418722D01*
X14842882Y5513960D01*
X14985740Y5561579D01*
X15080978Y5561579D01*
X15223835Y5513960D01*
X15271454Y5466341D01*
X16128597Y5561579D02*
X15938120Y5561579D01*
X15842882Y5513960D01*
X15795263Y5466341D01*
X15700025Y5323484D01*
X15652406Y5133008D01*
X15652406Y4752055D01*
X15700025Y4656817D01*
X15747644Y4609198D01*
X15842882Y4561579D01*
X16033359Y4561579D01*
X16128597Y4609198D01*
X16176216Y4656817D01*
X16223835Y4752055D01*
X16223835Y4990150D01*
X16176216Y5085389D01*
X16128597Y5133008D01*
X16033359Y5180627D01*
X15842882Y5180627D01*
X15747644Y5133008D01*
X15700025Y5085389D01*
X15652406Y4990150D01*
X2063454Y44153817D02*
X2015835Y44106198D01*
X1872978Y44058579D01*
X1777740Y44058579D01*
X1634882Y44106198D01*
X1539644Y44201436D01*
X1492025Y44296674D01*
X1444406Y44487150D01*
X1444406Y44630008D01*
X1492025Y44820484D01*
X1539644Y44915722D01*
X1634882Y45010960D01*
X1777740Y45058579D01*
X1872978Y45058579D01*
X2015835Y45010960D01*
X2063454Y44963341D01*
X2396787Y45058579D02*
X3063454Y45058579D01*
X2634882Y44058579D01*
X26320454Y37290817D02*
X26272835Y37243198D01*
X26129978Y37195579D01*
X26034740Y37195579D01*
X25891882Y37243198D01*
X25796644Y37338436D01*
X25749025Y37433674D01*
X25701406Y37624150D01*
X25701406Y37767008D01*
X25749025Y37957484D01*
X25796644Y38052722D01*
X25891882Y38147960D01*
X26034740Y38195579D01*
X26129978Y38195579D01*
X26272835Y38147960D01*
X26320454Y38100341D01*
X26891882Y37767008D02*
X26796644Y37814627D01*
X26749025Y37862246D01*
X26701406Y37957484D01*
X26701406Y38005103D01*
X26749025Y38100341D01*
X26796644Y38147960D01*
X26891882Y38195579D01*
X27082359Y38195579D01*
X27177597Y38147960D01*
X27225216Y38100341D01*
X27272835Y38005103D01*
X27272835Y37957484D01*
X27225216Y37862246D01*
X27177597Y37814627D01*
X27082359Y37767008D01*
X26891882Y37767008D01*
X26796644Y37719389D01*
X26749025Y37671770D01*
X26701406Y37576531D01*
X26701406Y37386055D01*
X26749025Y37290817D01*
X26796644Y37243198D01*
X26891882Y37195579D01*
X27082359Y37195579D01*
X27177597Y37243198D01*
X27225216Y37290817D01*
X27272835Y37386055D01*
X27272835Y37576531D01*
X27225216Y37671770D01*
X27177597Y37719389D01*
X27082359Y37767008D01*
X27209454Y20018817D02*
X27161835Y19971198D01*
X27018978Y19923579D01*
X26923740Y19923579D01*
X26780882Y19971198D01*
X26685644Y20066436D01*
X26638025Y20161674D01*
X26590406Y20352150D01*
X26590406Y20495008D01*
X26638025Y20685484D01*
X26685644Y20780722D01*
X26780882Y20875960D01*
X26923740Y20923579D01*
X27018978Y20923579D01*
X27161835Y20875960D01*
X27209454Y20828341D01*
X27685644Y19923579D02*
X27876120Y19923579D01*
X27971359Y19971198D01*
X28018978Y20018817D01*
X28114216Y20161674D01*
X28161835Y20352150D01*
X28161835Y20733103D01*
X28114216Y20828341D01*
X28066597Y20875960D01*
X27971359Y20923579D01*
X27780882Y20923579D01*
X27685644Y20875960D01*
X27638025Y20828341D01*
X27590406Y20733103D01*
X27590406Y20495008D01*
X27638025Y20399770D01*
X27685644Y20352150D01*
X27780882Y20304531D01*
X27971359Y20304531D01*
X28066597Y20352150D01*
X28114216Y20399770D01*
X28161835Y20495008D01*
X26336263Y45773103D02*
X26383882Y45725484D01*
X26431501Y45582627D01*
X26431501Y45487389D01*
X26383882Y45344531D01*
X26288644Y45249293D01*
X26193406Y45201674D01*
X26002930Y45154055D01*
X25860072Y45154055D01*
X25669596Y45201674D01*
X25574358Y45249293D01*
X25479120Y45344531D01*
X25431501Y45487389D01*
X25431501Y45582627D01*
X25479120Y45725484D01*
X25526739Y45773103D01*
X26431501Y46725484D02*
X26431501Y46154055D01*
X26431501Y46439769D02*
X25431501Y46439769D01*
X25574358Y46344531D01*
X25669596Y46249293D01*
X25717215Y46154055D01*
X25431501Y47344531D02*
X25431501Y47439770D01*
X25479120Y47535008D01*
X25526739Y47582627D01*
X25621977Y47630246D01*
X25812453Y47677865D01*
X26050549Y47677865D01*
X26241025Y47630246D01*
X26336263Y47582627D01*
X26383882Y47535008D01*
X26431501Y47439770D01*
X26431501Y47344531D01*
X26383882Y47249293D01*
X26336263Y47201674D01*
X26241025Y47154055D01*
X26050549Y47106436D01*
X25812453Y47106436D01*
X25621977Y47154055D01*
X25526739Y47201674D01*
X25479120Y47249293D01*
X25431501Y47344531D01*
X56923263Y12793103D02*
X56970882Y12745484D01*
X57018501Y12602627D01*
X57018501Y12507389D01*
X56970882Y12364531D01*
X56875644Y12269293D01*
X56780406Y12221674D01*
X56589930Y12174055D01*
X56447072Y12174055D01*
X56256596Y12221674D01*
X56161358Y12269293D01*
X56066120Y12364531D01*
X56018501Y12507389D01*
X56018501Y12602627D01*
X56066120Y12745484D01*
X56113739Y12793103D01*
X57018501Y13745484D02*
X57018501Y13174055D01*
X57018501Y13459769D02*
X56018501Y13459769D01*
X56161358Y13364531D01*
X56256596Y13269293D01*
X56304215Y13174055D01*
X56113739Y14126436D02*
X56066120Y14174055D01*
X56018501Y14269293D01*
X56018501Y14507389D01*
X56066120Y14602627D01*
X56113739Y14650246D01*
X56208977Y14697865D01*
X56304215Y14697865D01*
X56447072Y14650246D01*
X57018501Y14078817D01*
X57018501Y14697865D01*
X56451263Y41994817D02*
X56403644Y41947198D01*
X56260787Y41899579D01*
X56165549Y41899579D01*
X56022691Y41947198D01*
X55927453Y42042436D01*
X55879834Y42137674D01*
X55832215Y42328150D01*
X55832215Y42471008D01*
X55879834Y42661484D01*
X55927453Y42756722D01*
X56022691Y42851960D01*
X56165549Y42899579D01*
X56260787Y42899579D01*
X56403644Y42851960D01*
X56451263Y42804341D01*
X57403644Y41899579D02*
X56832215Y41899579D01*
X57117929Y41899579D02*
X57117929Y42899579D01*
X57022691Y42756722D01*
X56927453Y42661484D01*
X56832215Y42613865D01*
X57736977Y42899579D02*
X58356025Y42899579D01*
X58022691Y42518627D01*
X58165549Y42518627D01*
X58260787Y42471008D01*
X58308406Y42423389D01*
X58356025Y42328150D01*
X58356025Y42090055D01*
X58308406Y41994817D01*
X58260787Y41947198D01*
X58165549Y41899579D01*
X57879834Y41899579D01*
X57784596Y41947198D01*
X57736977Y41994817D01*
X22566405Y24101799D02*
X22566405Y25101799D01*
X22804500Y25101799D01*
X22947358Y25054180D01*
X23042596Y24958942D01*
X23090215Y24863704D01*
X23137834Y24673228D01*
X23137834Y24530370D01*
X23090215Y24339894D01*
X23042596Y24244656D01*
X22947358Y24149418D01*
X22804500Y24101799D01*
X22566405Y24101799D01*
X24090215Y24101799D02*
X23518786Y24101799D01*
X23804500Y24101799D02*
X23804500Y25101799D01*
X23709262Y24958942D01*
X23614024Y24863704D01*
X23518786Y24816085D01*
X18756025Y28443893D02*
X19232216Y28443893D01*
X18660787Y28158179D02*
X18994120Y29158179D01*
X19327454Y28158179D01*
X23836405Y6029699D02*
X23836405Y7029699D01*
X24074500Y7029699D01*
X24217358Y6982080D01*
X24312596Y6886842D01*
X24360215Y6791604D01*
X24407834Y6601128D01*
X24407834Y6458270D01*
X24360215Y6267794D01*
X24312596Y6172556D01*
X24217358Y6077318D01*
X24074500Y6029699D01*
X23836405Y6029699D01*
X24788786Y6934461D02*
X24836405Y6982080D01*
X24931643Y7029699D01*
X25169739Y7029699D01*
X25264977Y6982080D01*
X25312596Y6934461D01*
X25360215Y6839223D01*
X25360215Y6743985D01*
X25312596Y6601128D01*
X24741167Y6029699D01*
X25360215Y6029699D01*
X20026025Y10371793D02*
X20502216Y10371793D01*
X19930787Y10086079D02*
X20264120Y11086079D01*
X20597454Y10086079D01*
X35528025Y40756579D02*
X35528025Y41756579D01*
X35766120Y41756579D01*
X35908978Y41708960D01*
X36004216Y41613722D01*
X36051835Y41518484D01*
X36099454Y41328008D01*
X36099454Y41185150D01*
X36051835Y40994674D01*
X36004216Y40899436D01*
X35908978Y40804198D01*
X35766120Y40756579D01*
X35528025Y40756579D01*
X36432787Y41756579D02*
X37051835Y41756579D01*
X36718501Y41375627D01*
X36861359Y41375627D01*
X36956597Y41328008D01*
X37004216Y41280389D01*
X37051835Y41185150D01*
X37051835Y40947055D01*
X37004216Y40851817D01*
X36956597Y40804198D01*
X36861359Y40756579D01*
X36575644Y40756579D01*
X36480406Y40804198D01*
X36432787Y40851817D01*
X56768787Y36295579D02*
X56768787Y35581293D01*
X56721167Y35438436D01*
X56625929Y35343198D01*
X56483072Y35295579D01*
X56387834Y35295579D01*
X57244977Y35295579D02*
X57244977Y36295579D01*
X57625930Y36295579D01*
X57721168Y36247960D01*
X57768787Y36200341D01*
X57816406Y36105103D01*
X57816406Y35962246D01*
X57768787Y35867008D01*
X57721168Y35819389D01*
X57625930Y35771770D01*
X57244977Y35771770D01*
X58768787Y35295579D02*
X58197358Y35295579D01*
X58483072Y35295579D02*
X58483072Y36295579D01*
X58387834Y36152722D01*
X58292596Y36057484D01*
X58197358Y36009865D01*
X60197787Y36295579D02*
X60197787Y35581293D01*
X60150167Y35438436D01*
X60054929Y35343198D01*
X59912072Y35295579D01*
X59816834Y35295579D01*
X60673977Y35295579D02*
X60673977Y36295579D01*
X61054930Y36295579D01*
X61150168Y36247960D01*
X61197787Y36200341D01*
X61245406Y36105103D01*
X61245406Y35962246D01*
X61197787Y35867008D01*
X61150168Y35819389D01*
X61054930Y35771770D01*
X60673977Y35771770D01*
X61626358Y36200341D02*
X61673977Y36247960D01*
X61769215Y36295579D01*
X62007311Y36295579D01*
X62102549Y36247960D01*
X62150168Y36200341D01*
X62197787Y36105103D01*
X62197787Y36009865D01*
X62150168Y35867008D01*
X61578739Y35295579D01*
X62197787Y35295579D01*
X63880787Y36295579D02*
X63880787Y35581293D01*
X63833167Y35438436D01*
X63737929Y35343198D01*
X63595072Y35295579D01*
X63499834Y35295579D01*
X64356977Y35295579D02*
X64356977Y36295579D01*
X64737930Y36295579D01*
X64833168Y36247960D01*
X64880787Y36200341D01*
X64928406Y36105103D01*
X64928406Y35962246D01*
X64880787Y35867008D01*
X64833168Y35819389D01*
X64737930Y35771770D01*
X64356977Y35771770D01*
X65261739Y36295579D02*
X65880787Y36295579D01*
X65547453Y35914627D01*
X65690311Y35914627D01*
X65785549Y35867008D01*
X65833168Y35819389D01*
X65880787Y35724150D01*
X65880787Y35486055D01*
X65833168Y35390817D01*
X65785549Y35343198D01*
X65690311Y35295579D01*
X65404596Y35295579D01*
X65309358Y35343198D01*
X65261739Y35390817D01*
X67436787Y36295579D02*
X67436787Y35581293D01*
X67389167Y35438436D01*
X67293929Y35343198D01*
X67151072Y35295579D01*
X67055834Y35295579D01*
X67912977Y35295579D02*
X67912977Y36295579D01*
X68293930Y36295579D01*
X68389168Y36247960D01*
X68436787Y36200341D01*
X68484406Y36105103D01*
X68484406Y35962246D01*
X68436787Y35867008D01*
X68389168Y35819389D01*
X68293930Y35771770D01*
X67912977Y35771770D01*
X69341549Y35962246D02*
X69341549Y35295579D01*
X69103453Y36343198D02*
X68865358Y35628912D01*
X69484406Y35628912D01*
X70992787Y36295579D02*
X70992787Y35581293D01*
X70945167Y35438436D01*
X70849929Y35343198D01*
X70707072Y35295579D01*
X70611834Y35295579D01*
X71468977Y35295579D02*
X71468977Y36295579D01*
X71849930Y36295579D01*
X71945168Y36247960D01*
X71992787Y36200341D01*
X72040406Y36105103D01*
X72040406Y35962246D01*
X71992787Y35867008D01*
X71945168Y35819389D01*
X71849930Y35771770D01*
X71468977Y35771770D01*
X72945168Y36295579D02*
X72468977Y36295579D01*
X72421358Y35819389D01*
X72468977Y35867008D01*
X72564215Y35914627D01*
X72802311Y35914627D01*
X72897549Y35867008D01*
X72945168Y35819389D01*
X72992787Y35724150D01*
X72992787Y35486055D01*
X72945168Y35390817D01*
X72897549Y35343198D01*
X72802311Y35295579D01*
X72564215Y35295579D01*
X72468977Y35343198D01*
X72421358Y35390817D01*
X74548787Y36295579D02*
X74548787Y35581293D01*
X74501167Y35438436D01*
X74405929Y35343198D01*
X74263072Y35295579D01*
X74167834Y35295579D01*
X75024977Y35295579D02*
X75024977Y36295579D01*
X75405930Y36295579D01*
X75501168Y36247960D01*
X75548787Y36200341D01*
X75596406Y36105103D01*
X75596406Y35962246D01*
X75548787Y35867008D01*
X75501168Y35819389D01*
X75405930Y35771770D01*
X75024977Y35771770D01*
X76453549Y36295579D02*
X76263072Y36295579D01*
X76167834Y36247960D01*
X76120215Y36200341D01*
X76024977Y36057484D01*
X75977358Y35867008D01*
X75977358Y35486055D01*
X76024977Y35390817D01*
X76072596Y35343198D01*
X76167834Y35295579D01*
X76358311Y35295579D01*
X76453549Y35343198D01*
X76501168Y35390817D01*
X76548787Y35486055D01*
X76548787Y35724150D01*
X76501168Y35819389D01*
X76453549Y35867008D01*
X76358311Y35914627D01*
X76167834Y35914627D01*
X76072596Y35867008D01*
X76024977Y35819389D01*
X75977358Y35724150D01*
X78104787Y36295579D02*
X78104787Y35581293D01*
X78057167Y35438436D01*
X77961929Y35343198D01*
X77819072Y35295579D01*
X77723834Y35295579D01*
X78580977Y35295579D02*
X78580977Y36295579D01*
X78961930Y36295579D01*
X79057168Y36247960D01*
X79104787Y36200341D01*
X79152406Y36105103D01*
X79152406Y35962246D01*
X79104787Y35867008D01*
X79057168Y35819389D01*
X78961930Y35771770D01*
X78580977Y35771770D01*
X79485739Y36295579D02*
X80152406Y36295579D01*
X79723834Y35295579D01*
X81660787Y36295579D02*
X81660787Y35581293D01*
X81613167Y35438436D01*
X81517929Y35343198D01*
X81375072Y35295579D01*
X81279834Y35295579D01*
X82136977Y35295579D02*
X82136977Y36295579D01*
X82517930Y36295579D01*
X82613168Y36247960D01*
X82660787Y36200341D01*
X82708406Y36105103D01*
X82708406Y35962246D01*
X82660787Y35867008D01*
X82613168Y35819389D01*
X82517930Y35771770D01*
X82136977Y35771770D01*
X83279834Y35867008D02*
X83184596Y35914627D01*
X83136977Y35962246D01*
X83089358Y36057484D01*
X83089358Y36105103D01*
X83136977Y36200341D01*
X83184596Y36247960D01*
X83279834Y36295579D01*
X83470311Y36295579D01*
X83565549Y36247960D01*
X83613168Y36200341D01*
X83660787Y36105103D01*
X83660787Y36057484D01*
X83613168Y35962246D01*
X83565549Y35914627D01*
X83470311Y35867008D01*
X83279834Y35867008D01*
X83184596Y35819389D01*
X83136977Y35771770D01*
X83089358Y35676531D01*
X83089358Y35486055D01*
X83136977Y35390817D01*
X83184596Y35343198D01*
X83279834Y35295579D01*
X83470311Y35295579D01*
X83565549Y35343198D01*
X83613168Y35390817D01*
X83660787Y35486055D01*
X83660787Y35676531D01*
X83613168Y35771770D01*
X83565549Y35819389D01*
X83470311Y35867008D01*
X85216787Y36295579D02*
X85216787Y35581293D01*
X85169167Y35438436D01*
X85073929Y35343198D01*
X84931072Y35295579D01*
X84835834Y35295579D01*
X85692977Y35295579D02*
X85692977Y36295579D01*
X86073930Y36295579D01*
X86169168Y36247960D01*
X86216787Y36200341D01*
X86264406Y36105103D01*
X86264406Y35962246D01*
X86216787Y35867008D01*
X86169168Y35819389D01*
X86073930Y35771770D01*
X85692977Y35771770D01*
X86740596Y35295579D02*
X86931072Y35295579D01*
X87026311Y35343198D01*
X87073930Y35390817D01*
X87169168Y35533674D01*
X87216787Y35724150D01*
X87216787Y36105103D01*
X87169168Y36200341D01*
X87121549Y36247960D01*
X87026311Y36295579D01*
X86835834Y36295579D01*
X86740596Y36247960D01*
X86692977Y36200341D01*
X86645358Y36105103D01*
X86645358Y35867008D01*
X86692977Y35771770D01*
X86740596Y35724150D01*
X86835834Y35676531D01*
X87026311Y35676531D01*
X87121549Y35724150D01*
X87169168Y35771770D01*
X87216787Y35867008D01*
X56292597Y17499579D02*
X56292597Y16785293D01*
X56244977Y16642436D01*
X56149739Y16547198D01*
X56006882Y16499579D01*
X55911644Y16499579D01*
X56768787Y16499579D02*
X56768787Y17499579D01*
X57149740Y17499579D01*
X57244978Y17451960D01*
X57292597Y17404341D01*
X57340216Y17309103D01*
X57340216Y17166246D01*
X57292597Y17071008D01*
X57244978Y17023389D01*
X57149740Y16975770D01*
X56768787Y16975770D01*
X58292597Y16499579D02*
X57721168Y16499579D01*
X58006882Y16499579D02*
X58006882Y17499579D01*
X57911644Y17356722D01*
X57816406Y17261484D01*
X57721168Y17213865D01*
X58911644Y17499579D02*
X59006883Y17499579D01*
X59102121Y17451960D01*
X59149740Y17404341D01*
X59197359Y17309103D01*
X59244978Y17118627D01*
X59244978Y16880531D01*
X59197359Y16690055D01*
X59149740Y16594817D01*
X59102121Y16547198D01*
X59006883Y16499579D01*
X58911644Y16499579D01*
X58816406Y16547198D01*
X58768787Y16594817D01*
X58721168Y16690055D01*
X58673549Y16880531D01*
X58673549Y17118627D01*
X58721168Y17309103D01*
X58768787Y17404341D01*
X58816406Y17451960D01*
X58911644Y17499579D01*
X59848597Y16229579D02*
X59848597Y15515293D01*
X59800977Y15372436D01*
X59705739Y15277198D01*
X59562882Y15229579D01*
X59467644Y15229579D01*
X60324787Y15229579D02*
X60324787Y16229579D01*
X60705740Y16229579D01*
X60800978Y16181960D01*
X60848597Y16134341D01*
X60896216Y16039103D01*
X60896216Y15896246D01*
X60848597Y15801008D01*
X60800978Y15753389D01*
X60705740Y15705770D01*
X60324787Y15705770D01*
X61848597Y15229579D02*
X61277168Y15229579D01*
X61562882Y15229579D02*
X61562882Y16229579D01*
X61467644Y16086722D01*
X61372406Y15991484D01*
X61277168Y15943865D01*
X62800978Y15229579D02*
X62229549Y15229579D01*
X62515263Y15229579D02*
X62515263Y16229579D01*
X62420025Y16086722D01*
X62324787Y15991484D01*
X62229549Y15943865D01*
X63404597Y17499579D02*
X63404597Y16785293D01*
X63356977Y16642436D01*
X63261739Y16547198D01*
X63118882Y16499579D01*
X63023644Y16499579D01*
X63880787Y16499579D02*
X63880787Y17499579D01*
X64261740Y17499579D01*
X64356978Y17451960D01*
X64404597Y17404341D01*
X64452216Y17309103D01*
X64452216Y17166246D01*
X64404597Y17071008D01*
X64356978Y17023389D01*
X64261740Y16975770D01*
X63880787Y16975770D01*
X65404597Y16499579D02*
X64833168Y16499579D01*
X65118882Y16499579D02*
X65118882Y17499579D01*
X65023644Y17356722D01*
X64928406Y17261484D01*
X64833168Y17213865D01*
X65785549Y17404341D02*
X65833168Y17451960D01*
X65928406Y17499579D01*
X66166502Y17499579D01*
X66261740Y17451960D01*
X66309359Y17404341D01*
X66356978Y17309103D01*
X66356978Y17213865D01*
X66309359Y17071008D01*
X65737930Y16499579D01*
X66356978Y16499579D01*
X66960597Y16229579D02*
X66960597Y15515293D01*
X66912977Y15372436D01*
X66817739Y15277198D01*
X66674882Y15229579D01*
X66579644Y15229579D01*
X67436787Y15229579D02*
X67436787Y16229579D01*
X67817740Y16229579D01*
X67912978Y16181960D01*
X67960597Y16134341D01*
X68008216Y16039103D01*
X68008216Y15896246D01*
X67960597Y15801008D01*
X67912978Y15753389D01*
X67817740Y15705770D01*
X67436787Y15705770D01*
X68960597Y15229579D02*
X68389168Y15229579D01*
X68674882Y15229579D02*
X68674882Y16229579D01*
X68579644Y16086722D01*
X68484406Y15991484D01*
X68389168Y15943865D01*
X69293930Y16229579D02*
X69912978Y16229579D01*
X69579644Y15848627D01*
X69722502Y15848627D01*
X69817740Y15801008D01*
X69865359Y15753389D01*
X69912978Y15658150D01*
X69912978Y15420055D01*
X69865359Y15324817D01*
X69817740Y15277198D01*
X69722502Y15229579D01*
X69436787Y15229579D01*
X69341549Y15277198D01*
X69293930Y15324817D01*
X70516597Y17499579D02*
X70516597Y16785293D01*
X70468977Y16642436D01*
X70373739Y16547198D01*
X70230882Y16499579D01*
X70135644Y16499579D01*
X70992787Y16499579D02*
X70992787Y17499579D01*
X71373740Y17499579D01*
X71468978Y17451960D01*
X71516597Y17404341D01*
X71564216Y17309103D01*
X71564216Y17166246D01*
X71516597Y17071008D01*
X71468978Y17023389D01*
X71373740Y16975770D01*
X70992787Y16975770D01*
X72516597Y16499579D02*
X71945168Y16499579D01*
X72230882Y16499579D02*
X72230882Y17499579D01*
X72135644Y17356722D01*
X72040406Y17261484D01*
X71945168Y17213865D01*
X73373740Y17166246D02*
X73373740Y16499579D01*
X73135644Y17547198D02*
X72897549Y16832912D01*
X73516597Y16832912D01*
X74072597Y16229579D02*
X74072597Y15515293D01*
X74024977Y15372436D01*
X73929739Y15277198D01*
X73786882Y15229579D01*
X73691644Y15229579D01*
X74548787Y15229579D02*
X74548787Y16229579D01*
X74929740Y16229579D01*
X75024978Y16181960D01*
X75072597Y16134341D01*
X75120216Y16039103D01*
X75120216Y15896246D01*
X75072597Y15801008D01*
X75024978Y15753389D01*
X74929740Y15705770D01*
X74548787Y15705770D01*
X76072597Y15229579D02*
X75501168Y15229579D01*
X75786882Y15229579D02*
X75786882Y16229579D01*
X75691644Y16086722D01*
X75596406Y15991484D01*
X75501168Y15943865D01*
X76977359Y16229579D02*
X76501168Y16229579D01*
X76453549Y15753389D01*
X76501168Y15801008D01*
X76596406Y15848627D01*
X76834502Y15848627D01*
X76929740Y15801008D01*
X76977359Y15753389D01*
X77024978Y15658150D01*
X77024978Y15420055D01*
X76977359Y15324817D01*
X76929740Y15277198D01*
X76834502Y15229579D01*
X76596406Y15229579D01*
X76501168Y15277198D01*
X76453549Y15324817D01*
X77628597Y17499579D02*
X77628597Y16785293D01*
X77580977Y16642436D01*
X77485739Y16547198D01*
X77342882Y16499579D01*
X77247644Y16499579D01*
X78104787Y16499579D02*
X78104787Y17499579D01*
X78485740Y17499579D01*
X78580978Y17451960D01*
X78628597Y17404341D01*
X78676216Y17309103D01*
X78676216Y17166246D01*
X78628597Y17071008D01*
X78580978Y17023389D01*
X78485740Y16975770D01*
X78104787Y16975770D01*
X79628597Y16499579D02*
X79057168Y16499579D01*
X79342882Y16499579D02*
X79342882Y17499579D01*
X79247644Y17356722D01*
X79152406Y17261484D01*
X79057168Y17213865D01*
X80485740Y17499579D02*
X80295263Y17499579D01*
X80200025Y17451960D01*
X80152406Y17404341D01*
X80057168Y17261484D01*
X80009549Y17071008D01*
X80009549Y16690055D01*
X80057168Y16594817D01*
X80104787Y16547198D01*
X80200025Y16499579D01*
X80390502Y16499579D01*
X80485740Y16547198D01*
X80533359Y16594817D01*
X80580978Y16690055D01*
X80580978Y16928150D01*
X80533359Y17023389D01*
X80485740Y17071008D01*
X80390502Y17118627D01*
X80200025Y17118627D01*
X80104787Y17071008D01*
X80057168Y17023389D01*
X80009549Y16928150D01*
X81184597Y16229579D02*
X81184597Y15515293D01*
X81136977Y15372436D01*
X81041739Y15277198D01*
X80898882Y15229579D01*
X80803644Y15229579D01*
X81660787Y15229579D02*
X81660787Y16229579D01*
X82041740Y16229579D01*
X82136978Y16181960D01*
X82184597Y16134341D01*
X82232216Y16039103D01*
X82232216Y15896246D01*
X82184597Y15801008D01*
X82136978Y15753389D01*
X82041740Y15705770D01*
X81660787Y15705770D01*
X83184597Y15229579D02*
X82613168Y15229579D01*
X82898882Y15229579D02*
X82898882Y16229579D01*
X82803644Y16086722D01*
X82708406Y15991484D01*
X82613168Y15943865D01*
X83517930Y16229579D02*
X84184597Y16229579D01*
X83756025Y15229579D01*
X84740597Y17499579D02*
X84740597Y16785293D01*
X84692977Y16642436D01*
X84597739Y16547198D01*
X84454882Y16499579D01*
X84359644Y16499579D01*
X85216787Y16499579D02*
X85216787Y17499579D01*
X85597740Y17499579D01*
X85692978Y17451960D01*
X85740597Y17404341D01*
X85788216Y17309103D01*
X85788216Y17166246D01*
X85740597Y17071008D01*
X85692978Y17023389D01*
X85597740Y16975770D01*
X85216787Y16975770D01*
X86740597Y16499579D02*
X86169168Y16499579D01*
X86454882Y16499579D02*
X86454882Y17499579D01*
X86359644Y17356722D01*
X86264406Y17261484D01*
X86169168Y17213865D01*
X87312025Y17071008D02*
X87216787Y17118627D01*
X87169168Y17166246D01*
X87121549Y17261484D01*
X87121549Y17309103D01*
X87169168Y17404341D01*
X87216787Y17451960D01*
X87312025Y17499579D01*
X87502502Y17499579D01*
X87597740Y17451960D01*
X87645359Y17404341D01*
X87692978Y17309103D01*
X87692978Y17261484D01*
X87645359Y17166246D01*
X87597740Y17118627D01*
X87502502Y17071008D01*
X87312025Y17071008D01*
X87216787Y17023389D01*
X87169168Y16975770D01*
X87121549Y16880531D01*
X87121549Y16690055D01*
X87169168Y16594817D01*
X87216787Y16547198D01*
X87312025Y16499579D01*
X87502502Y16499579D01*
X87597740Y16547198D01*
X87645359Y16594817D01*
X87692978Y16690055D01*
X87692978Y16880531D01*
X87645359Y16975770D01*
X87597740Y17023389D01*
X87502502Y17071008D01*
X87046501Y45055637D02*
X87760787Y45055637D01*
X87903644Y45008017D01*
X87998882Y44912779D01*
X88046501Y44769922D01*
X88046501Y44674684D01*
X88046501Y45531827D02*
X87046501Y45531827D01*
X87046501Y45912780D01*
X87094120Y46008018D01*
X87141739Y46055637D01*
X87236977Y46103256D01*
X87379834Y46103256D01*
X87475072Y46055637D01*
X87522691Y46008018D01*
X87570310Y45912780D01*
X87570310Y45531827D01*
X88046501Y47055637D02*
X88046501Y46484208D01*
X88046501Y46769922D02*
X87046501Y46769922D01*
X87189358Y46674684D01*
X87284596Y46579446D01*
X87332215Y46484208D01*
X88046501Y47531827D02*
X88046501Y47722303D01*
X87998882Y47817542D01*
X87951263Y47865161D01*
X87808406Y47960399D01*
X87617930Y48008018D01*
X87236977Y48008018D01*
X87141739Y47960399D01*
X87094120Y47912780D01*
X87046501Y47817542D01*
X87046501Y47627065D01*
X87094120Y47531827D01*
X87141739Y47484208D01*
X87236977Y47436589D01*
X87475072Y47436589D01*
X87570310Y47484208D01*
X87617930Y47531827D01*
X87665549Y47627065D01*
X87665549Y47817542D01*
X87617930Y47912780D01*
X87570310Y47960399D01*
X87475072Y48008018D01*
X87046501Y41169437D02*
X87760787Y41169437D01*
X87903644Y41121817D01*
X87998882Y41026579D01*
X88046501Y40883722D01*
X88046501Y40788484D01*
X88046501Y41645627D02*
X87046501Y41645627D01*
X87046501Y42026580D01*
X87094120Y42121818D01*
X87141739Y42169437D01*
X87236977Y42217056D01*
X87379834Y42217056D01*
X87475072Y42169437D01*
X87522691Y42121818D01*
X87570310Y42026580D01*
X87570310Y41645627D01*
X87141739Y42598008D02*
X87094120Y42645627D01*
X87046501Y42740865D01*
X87046501Y42978961D01*
X87094120Y43074199D01*
X87141739Y43121818D01*
X87236977Y43169437D01*
X87332215Y43169437D01*
X87475072Y43121818D01*
X88046501Y42550389D01*
X88046501Y43169437D01*
X87046501Y43788484D02*
X87046501Y43883723D01*
X87094120Y43978961D01*
X87141739Y44026580D01*
X87236977Y44074199D01*
X87427453Y44121818D01*
X87665549Y44121818D01*
X87856025Y44074199D01*
X87951263Y44026580D01*
X87998882Y43978961D01*
X88046501Y43883723D01*
X88046501Y43788484D01*
X87998882Y43693246D01*
X87951263Y43645627D01*
X87856025Y43598008D01*
X87665549Y43550389D01*
X87427453Y43550389D01*
X87236977Y43598008D01*
X87141739Y43645627D01*
X87094120Y43693246D01*
X87046501Y43788484D01*
X35492394Y32422839D02*
X35016203Y32422839D01*
X35016203Y33422839D01*
X36349537Y32422839D02*
X35778108Y32422839D01*
X36063822Y32422839D02*
X36063822Y33422839D01*
X35968584Y33279982D01*
X35873346Y33184744D01*
X35778108Y33137125D01*
X36000394Y13626839D02*
X35524203Y13626839D01*
X35524203Y14626839D01*
X36286108Y14531601D02*
X36333727Y14579220D01*
X36428965Y14626839D01*
X36667061Y14626839D01*
X36762299Y14579220D01*
X36809918Y14531601D01*
X36857537Y14436363D01*
X36857537Y14341125D01*
X36809918Y14198268D01*
X36238489Y13626839D01*
X36857537Y13626839D01*
X1666501Y21674865D02*
X666501Y21674865D01*
X666501Y22055818D01*
X714120Y22151056D01*
X761739Y22198675D01*
X856977Y22246294D01*
X999834Y22246294D01*
X1095072Y22198675D01*
X1142691Y22151056D01*
X1190310Y22055818D01*
X1190310Y21674865D01*
X1666501Y23198675D02*
X1666501Y22627246D01*
X1666501Y22912960D02*
X666501Y22912960D01*
X809358Y22817722D01*
X904596Y22722484D01*
X952215Y22627246D01*
X1539501Y27135865D02*
X539501Y27135865D01*
X539501Y27516818D01*
X587120Y27612056D01*
X634739Y27659675D01*
X729977Y27707294D01*
X872834Y27707294D01*
X968072Y27659675D01*
X1015691Y27612056D01*
X1063310Y27516818D01*
X1063310Y27135865D01*
X634739Y28088246D02*
X587120Y28135865D01*
X539501Y28231103D01*
X539501Y28469199D01*
X587120Y28564437D01*
X634739Y28612056D01*
X729977Y28659675D01*
X825215Y28659675D01*
X968072Y28612056D01*
X1539501Y28040627D01*
X1539501Y28659675D01*
X63907682Y42885941D02*
X63812444Y42933560D01*
X63717206Y43028798D01*
X63574349Y43171655D01*
X63479110Y43219274D01*
X63383872Y43219274D01*
X63431491Y42981179D02*
X63336253Y43028798D01*
X63241015Y43124036D01*
X63193396Y43314512D01*
X63193396Y43647846D01*
X63241015Y43838322D01*
X63336253Y43933560D01*
X63431491Y43981179D01*
X63621968Y43981179D01*
X63717206Y43933560D01*
X63812444Y43838322D01*
X63860063Y43647846D01*
X63860063Y43314512D01*
X63812444Y43124036D01*
X63717206Y43028798D01*
X63621968Y42981179D01*
X63431491Y42981179D01*
X64812444Y42981179D02*
X64241015Y42981179D01*
X64526729Y42981179D02*
X64526729Y43981179D01*
X64431491Y43838322D01*
X64336253Y43743084D01*
X64241015Y43695465D01*
X66803282Y48118341D02*
X66708044Y48165960D01*
X66612806Y48261198D01*
X66469949Y48404055D01*
X66374710Y48451674D01*
X66279472Y48451674D01*
X66327091Y48213579D02*
X66231853Y48261198D01*
X66136615Y48356436D01*
X66088996Y48546912D01*
X66088996Y48880246D01*
X66136615Y49070722D01*
X66231853Y49165960D01*
X66327091Y49213579D01*
X66517568Y49213579D01*
X66612806Y49165960D01*
X66708044Y49070722D01*
X66755663Y48880246D01*
X66755663Y48546912D01*
X66708044Y48356436D01*
X66612806Y48261198D01*
X66517568Y48213579D01*
X66327091Y48213579D01*
X67136615Y49118341D02*
X67184234Y49165960D01*
X67279472Y49213579D01*
X67517568Y49213579D01*
X67612806Y49165960D01*
X67660425Y49118341D01*
X67708044Y49023103D01*
X67708044Y48927865D01*
X67660425Y48785008D01*
X67088996Y48213579D01*
X67708044Y48213579D01*
X48479414Y3515099D02*
X48146080Y3991290D01*
X47907985Y3515099D02*
X47907985Y4515099D01*
X48288938Y4515099D01*
X48384176Y4467480D01*
X48431795Y4419861D01*
X48479414Y4324623D01*
X48479414Y4181766D01*
X48431795Y4086528D01*
X48384176Y4038909D01*
X48288938Y3991290D01*
X47907985Y3991290D01*
X49431795Y3515099D02*
X48860366Y3515099D01*
X49146080Y3515099D02*
X49146080Y4515099D01*
X49050842Y4372242D01*
X48955604Y4277004D01*
X48860366Y4229385D01*
X53269854Y7071179D02*
X52936520Y7547370D01*
X52698425Y7071179D02*
X52698425Y8071179D01*
X53079378Y8071179D01*
X53174616Y8023560D01*
X53222235Y7975941D01*
X53269854Y7880703D01*
X53269854Y7737846D01*
X53222235Y7642608D01*
X53174616Y7594989D01*
X53079378Y7547370D01*
X52698425Y7547370D01*
X53650806Y7975941D02*
X53698425Y8023560D01*
X53793663Y8071179D01*
X54031759Y8071179D01*
X54126997Y8023560D01*
X54174616Y7975941D01*
X54222235Y7880703D01*
X54222235Y7785465D01*
X54174616Y7642608D01*
X53603187Y7071179D01*
X54222235Y7071179D01*
X60467501Y42058294D02*
X59991310Y41724960D01*
X60467501Y41486865D02*
X59467501Y41486865D01*
X59467501Y41867818D01*
X59515120Y41963056D01*
X59562739Y42010675D01*
X59657977Y42058294D01*
X59800834Y42058294D01*
X59896072Y42010675D01*
X59943691Y41963056D01*
X59991310Y41867818D01*
X59991310Y41486865D01*
X59467501Y42391627D02*
X59467501Y43010675D01*
X59848453Y42677341D01*
X59848453Y42820199D01*
X59896072Y42915437D01*
X59943691Y42963056D01*
X60038930Y43010675D01*
X60277025Y43010675D01*
X60372263Y42963056D01*
X60419882Y42915437D01*
X60467501Y42820199D01*
X60467501Y42534484D01*
X60419882Y42439246D01*
X60372263Y42391627D01*
X62880501Y48154294D02*
X62404310Y47820960D01*
X62880501Y47582865D02*
X61880501Y47582865D01*
X61880501Y47963818D01*
X61928120Y48059056D01*
X61975739Y48106675D01*
X62070977Y48154294D01*
X62213834Y48154294D01*
X62309072Y48106675D01*
X62356691Y48059056D01*
X62404310Y47963818D01*
X62404310Y47582865D01*
X62213834Y49011437D02*
X62880501Y49011437D01*
X61832882Y48773341D02*
X62547168Y48535246D01*
X62547168Y49154294D01*
X67087454Y37581579D02*
X66754120Y38057770D01*
X66516025Y37581579D02*
X66516025Y38581579D01*
X66896978Y38581579D01*
X66992216Y38533960D01*
X67039835Y38486341D01*
X67087454Y38391103D01*
X67087454Y38248246D01*
X67039835Y38153008D01*
X66992216Y38105389D01*
X66896978Y38057770D01*
X66516025Y38057770D01*
X67992216Y38581579D02*
X67516025Y38581579D01*
X67468406Y38105389D01*
X67516025Y38153008D01*
X67611263Y38200627D01*
X67849359Y38200627D01*
X67944597Y38153008D01*
X67992216Y38105389D01*
X68039835Y38010150D01*
X68039835Y37772055D01*
X67992216Y37676817D01*
X67944597Y37629198D01*
X67849359Y37581579D01*
X67611263Y37581579D01*
X67516025Y37629198D01*
X67468406Y37676817D01*
X68001854Y43596379D02*
X67668520Y44072570D01*
X67430425Y43596379D02*
X67430425Y44596379D01*
X67811378Y44596379D01*
X67906616Y44548760D01*
X67954235Y44501141D01*
X68001854Y44405903D01*
X68001854Y44263046D01*
X67954235Y44167808D01*
X67906616Y44120189D01*
X67811378Y44072570D01*
X67430425Y44072570D01*
X68858997Y44596379D02*
X68668520Y44596379D01*
X68573282Y44548760D01*
X68525663Y44501141D01*
X68430425Y44358284D01*
X68382806Y44167808D01*
X68382806Y43786855D01*
X68430425Y43691617D01*
X68478044Y43643998D01*
X68573282Y43596379D01*
X68763759Y43596379D01*
X68858997Y43643998D01*
X68906616Y43691617D01*
X68954235Y43786855D01*
X68954235Y44024950D01*
X68906616Y44120189D01*
X68858997Y44167808D01*
X68763759Y44215427D01*
X68573282Y44215427D01*
X68478044Y44167808D01*
X68430425Y44120189D01*
X68382806Y44024950D01*
X92106454Y25897579D02*
X91773120Y26373770D01*
X91535025Y25897579D02*
X91535025Y26897579D01*
X91915978Y26897579D01*
X92011216Y26849960D01*
X92058835Y26802341D01*
X92106454Y26707103D01*
X92106454Y26564246D01*
X92058835Y26469008D01*
X92011216Y26421389D01*
X91915978Y26373770D01*
X91535025Y26373770D01*
X92439787Y26897579D02*
X93106454Y26897579D01*
X92677882Y25897579D01*
X91201501Y19452294D02*
X90725310Y19118960D01*
X91201501Y18880865D02*
X90201501Y18880865D01*
X90201501Y19261818D01*
X90249120Y19357056D01*
X90296739Y19404675D01*
X90391977Y19452294D01*
X90534834Y19452294D01*
X90630072Y19404675D01*
X90677691Y19357056D01*
X90725310Y19261818D01*
X90725310Y18880865D01*
X90630072Y20023722D02*
X90582453Y19928484D01*
X90534834Y19880865D01*
X90439596Y19833246D01*
X90391977Y19833246D01*
X90296739Y19880865D01*
X90249120Y19928484D01*
X90201501Y20023722D01*
X90201501Y20214199D01*
X90249120Y20309437D01*
X90296739Y20357056D01*
X90391977Y20404675D01*
X90439596Y20404675D01*
X90534834Y20357056D01*
X90582453Y20309437D01*
X90630072Y20214199D01*
X90630072Y20023722D01*
X90677691Y19928484D01*
X90725310Y19880865D01*
X90820549Y19833246D01*
X91011025Y19833246D01*
X91106263Y19880865D01*
X91153882Y19928484D01*
X91201501Y20023722D01*
X91201501Y20214199D01*
X91153882Y20309437D01*
X91106263Y20357056D01*
X91011025Y20404675D01*
X90820549Y20404675D01*
X90725310Y20357056D01*
X90677691Y20309437D01*
X90630072Y20214199D01*
X17176501Y36510055D02*
X17986025Y36510055D01*
X18081263Y36557674D01*
X18128882Y36605293D01*
X18176501Y36700531D01*
X18176501Y36891008D01*
X18128882Y36986246D01*
X18081263Y37033865D01*
X17986025Y37081484D01*
X17176501Y37081484D01*
X18176501Y38081484D02*
X18176501Y37510055D01*
X18176501Y37795769D02*
X17176501Y37795769D01*
X17319358Y37700531D01*
X17414596Y37605293D01*
X17462215Y37510055D01*
X18065501Y17968055D02*
X18875025Y17968055D01*
X18970263Y18015674D01*
X19017882Y18063293D01*
X19065501Y18158531D01*
X19065501Y18349008D01*
X19017882Y18444246D01*
X18970263Y18491865D01*
X18875025Y18539484D01*
X18065501Y18539484D01*
X18160739Y18968055D02*
X18113120Y19015674D01*
X18065501Y19110912D01*
X18065501Y19349008D01*
X18113120Y19444246D01*
X18160739Y19491865D01*
X18255977Y19539484D01*
X18351215Y19539484D01*
X18494072Y19491865D01*
X19065501Y18920436D01*
X19065501Y19539484D01*
D18*
X16390015Y46177684D02*
X17047996Y46177684D01*
X17125406Y46216389D01*
X17164110Y46255093D01*
X17202815Y46332503D01*
X17202815Y46487322D01*
X17164110Y46564731D01*
X17125406Y46603436D01*
X17047996Y46642141D01*
X16390015Y46642141D01*
X16390015Y46951779D02*
X16390015Y47454941D01*
X16699653Y47184008D01*
X16699653Y47300122D01*
X16738358Y47377532D01*
X16777063Y47416236D01*
X16854472Y47454941D01*
X17047996Y47454941D01*
X17125406Y47416236D01*
X17164110Y47377532D01*
X17202815Y47300122D01*
X17202815Y47067894D01*
X17164110Y46990484D01*
X17125406Y46951779D01*
D12*
X48700394Y43598839D02*
X48224203Y43598839D01*
X48224203Y44598839D01*
X48938489Y44598839D02*
X49557537Y44598839D01*
X49224203Y44217887D01*
X49367061Y44217887D01*
X49462299Y44170268D01*
X49509918Y44122649D01*
X49557537Y44027410D01*
X49557537Y43789315D01*
X49509918Y43694077D01*
X49462299Y43646458D01*
X49367061Y43598839D01*
X49081346Y43598839D01*
X48986108Y43646458D01*
X48938489Y43694077D01*
X92471501Y32215865D02*
X91471501Y32215865D01*
X91471501Y32453960D01*
X91519120Y32596818D01*
X91614358Y32692056D01*
X91709596Y32739675D01*
X91900072Y32787294D01*
X92042930Y32787294D01*
X92233406Y32739675D01*
X92328644Y32692056D01*
X92423882Y32596818D01*
X92471501Y32453960D01*
X92471501Y32215865D01*
X91804834Y33644437D02*
X92471501Y33644437D01*
X91423882Y33406341D02*
X92138168Y33168246D01*
X92138168Y33787294D01*
X91201501Y21420865D02*
X90201501Y21420865D01*
X90201501Y21658960D01*
X90249120Y21801818D01*
X90344358Y21897056D01*
X90439596Y21944675D01*
X90630072Y21992294D01*
X90772930Y21992294D01*
X90963406Y21944675D01*
X91058644Y21897056D01*
X91153882Y21801818D01*
X91201501Y21658960D01*
X91201501Y21420865D01*
X90201501Y22897056D02*
X90201501Y22420865D01*
X90677691Y22373246D01*
X90630072Y22420865D01*
X90582453Y22516103D01*
X90582453Y22754199D01*
X90630072Y22849437D01*
X90677691Y22897056D01*
X90772930Y22944675D01*
X91011025Y22944675D01*
X91106263Y22897056D01*
X91153882Y22849437D01*
X91201501Y22754199D01*
X91201501Y22516103D01*
X91153882Y22420865D01*
X91106263Y22373246D01*
X88296597Y36295579D02*
X88296597Y35581293D01*
X88248977Y35438436D01*
X88153739Y35343198D01*
X88010882Y35295579D01*
X87915644Y35295579D01*
X88772787Y35295579D02*
X88772787Y36295579D01*
X89153740Y36295579D01*
X89248978Y36247960D01*
X89296597Y36200341D01*
X89344216Y36105103D01*
X89344216Y35962246D01*
X89296597Y35867008D01*
X89248978Y35819389D01*
X89153740Y35771770D01*
X88772787Y35771770D01*
X89725168Y36200341D02*
X89772787Y36247960D01*
X89868025Y36295579D01*
X90106121Y36295579D01*
X90201359Y36247960D01*
X90248978Y36200341D01*
X90296597Y36105103D01*
X90296597Y36009865D01*
X90248978Y35867008D01*
X89677549Y35295579D01*
X90296597Y35295579D01*
X91248978Y35295579D02*
X90677549Y35295579D01*
X90963263Y35295579D02*
X90963263Y36295579D01*
X90868025Y36152722D01*
X90772787Y36057484D01*
X90677549Y36009865D01*
M02*
