G04 #@! TF.FileFunction,Legend,Top*
%FSLAX46Y46*%
G04 Gerber Fmt 4.6, Leading zero omitted, Abs format (unit mm)*
G04 Created by KiCad (PCBNEW (2015-07-04 BZR 5884)-product) date Mon 13 Jul 2015 19:38:23 CEST*
%MOMM*%
G01*
G04 APERTURE LIST*
%ADD10C,0.050000*%
%ADD11C,0.300000*%
%ADD12C,0.010000*%
%ADD13C,0.150000*%
%ADD14C,0.381000*%
%ADD15C,0.002540*%
%ADD16C,0.127000*%
%ADD17C,0.410000*%
%ADD18C,0.076200*%
G04 APERTURE END LIST*
D10*
D11*
X73127834Y12313960D02*
X73842120Y12313960D01*
X72984977Y11885389D02*
X73484977Y13385389D01*
X73984977Y11885389D01*
X74484977Y12885389D02*
X74484977Y11885389D01*
X74484977Y12742531D02*
X74556405Y12813960D01*
X74699263Y12885389D01*
X74913548Y12885389D01*
X75056405Y12813960D01*
X75127834Y12671103D01*
X75127834Y11885389D01*
X75627834Y12885389D02*
X76199263Y12885389D01*
X75842120Y13385389D02*
X75842120Y12099674D01*
X75913548Y11956817D01*
X76056406Y11885389D01*
X76199263Y11885389D01*
X77342120Y11885389D02*
X77342120Y13385389D01*
X77342120Y11956817D02*
X77199263Y11885389D01*
X76913549Y11885389D01*
X76770691Y11956817D01*
X76699263Y12028246D01*
X76627834Y12171103D01*
X76627834Y12599674D01*
X76699263Y12742531D01*
X76770691Y12813960D01*
X76913549Y12885389D01*
X77199263Y12885389D01*
X77342120Y12813960D01*
X78056406Y11885389D02*
X78056406Y12885389D01*
X78056406Y12599674D02*
X78127834Y12742531D01*
X78199263Y12813960D01*
X78342120Y12885389D01*
X78484977Y12885389D01*
X79199263Y11885389D02*
X79056405Y11956817D01*
X78984977Y12028246D01*
X78913548Y12171103D01*
X78913548Y12599674D01*
X78984977Y12742531D01*
X79056405Y12813960D01*
X79199263Y12885389D01*
X79413548Y12885389D01*
X79556405Y12813960D01*
X79627834Y12742531D01*
X79699263Y12599674D01*
X79699263Y12171103D01*
X79627834Y12028246D01*
X79556405Y11956817D01*
X79413548Y11885389D01*
X79199263Y11885389D01*
X80342120Y11885389D02*
X80342120Y12885389D01*
X80342120Y13385389D02*
X80270691Y13313960D01*
X80342120Y13242531D01*
X80413548Y13313960D01*
X80342120Y13385389D01*
X80342120Y13242531D01*
X81699263Y11885389D02*
X81699263Y13385389D01*
X81699263Y11956817D02*
X81556406Y11885389D01*
X81270692Y11885389D01*
X81127834Y11956817D01*
X81056406Y12028246D01*
X80984977Y12171103D01*
X80984977Y12599674D01*
X81056406Y12742531D01*
X81127834Y12813960D01*
X81270692Y12885389D01*
X81556406Y12885389D01*
X81699263Y12813960D01*
X83556406Y11885389D02*
X83556406Y13385389D01*
X83556406Y12813960D02*
X83699263Y12885389D01*
X83984977Y12885389D01*
X84127834Y12813960D01*
X84199263Y12742531D01*
X84270692Y12599674D01*
X84270692Y12171103D01*
X84199263Y12028246D01*
X84127834Y11956817D01*
X83984977Y11885389D01*
X83699263Y11885389D01*
X83556406Y11956817D01*
X85127835Y11885389D02*
X84984977Y11956817D01*
X84913549Y12028246D01*
X84842120Y12171103D01*
X84842120Y12599674D01*
X84913549Y12742531D01*
X84984977Y12813960D01*
X85127835Y12885389D01*
X85342120Y12885389D01*
X85484977Y12813960D01*
X85556406Y12742531D01*
X85627835Y12599674D01*
X85627835Y12171103D01*
X85556406Y12028246D01*
X85484977Y11956817D01*
X85342120Y11885389D01*
X85127835Y11885389D01*
X86913549Y11885389D02*
X86913549Y12671103D01*
X86842120Y12813960D01*
X86699263Y12885389D01*
X86413549Y12885389D01*
X86270692Y12813960D01*
X86913549Y11956817D02*
X86770692Y11885389D01*
X86413549Y11885389D01*
X86270692Y11956817D01*
X86199263Y12099674D01*
X86199263Y12242531D01*
X86270692Y12385389D01*
X86413549Y12456817D01*
X86770692Y12456817D01*
X86913549Y12528246D01*
X87627835Y11885389D02*
X87627835Y12885389D01*
X87627835Y12599674D02*
X87699263Y12742531D01*
X87770692Y12813960D01*
X87913549Y12885389D01*
X88056406Y12885389D01*
X89199263Y11885389D02*
X89199263Y13385389D01*
X89199263Y11956817D02*
X89056406Y11885389D01*
X88770692Y11885389D01*
X88627834Y11956817D01*
X88556406Y12028246D01*
X88484977Y12171103D01*
X88484977Y12599674D01*
X88556406Y12742531D01*
X88627834Y12813960D01*
X88770692Y12885389D01*
X89056406Y12885389D01*
X89199263Y12813960D01*
X73199263Y9485389D02*
X73199263Y10485389D01*
X73199263Y10199674D02*
X73270691Y10342531D01*
X73342120Y10413960D01*
X73484977Y10485389D01*
X73627834Y10485389D01*
X74913548Y9485389D02*
X74056405Y9485389D01*
X74484977Y9485389D02*
X74484977Y10985389D01*
X74342120Y10771103D01*
X74199262Y10628246D01*
X74056405Y10556817D01*
X75556405Y9628246D02*
X75627833Y9556817D01*
X75556405Y9485389D01*
X75484976Y9556817D01*
X75556405Y9628246D01*
X75556405Y9485389D01*
X76556405Y10985389D02*
X76699262Y10985389D01*
X76842119Y10913960D01*
X76913548Y10842531D01*
X76984977Y10699674D01*
X77056405Y10413960D01*
X77056405Y10056817D01*
X76984977Y9771103D01*
X76913548Y9628246D01*
X76842119Y9556817D01*
X76699262Y9485389D01*
X76556405Y9485389D01*
X76413548Y9556817D01*
X76342119Y9628246D01*
X76270691Y9771103D01*
X76199262Y10056817D01*
X76199262Y10413960D01*
X76270691Y10699674D01*
X76342119Y10842531D01*
X76413548Y10913960D01*
X76556405Y10985389D01*
X77699262Y9628246D02*
X77770690Y9556817D01*
X77699262Y9485389D01*
X77627833Y9556817D01*
X77699262Y9628246D01*
X77699262Y9485389D01*
X78699262Y10985389D02*
X78842119Y10985389D01*
X78984976Y10913960D01*
X79056405Y10842531D01*
X79127834Y10699674D01*
X79199262Y10413960D01*
X79199262Y10056817D01*
X79127834Y9771103D01*
X79056405Y9628246D01*
X78984976Y9556817D01*
X78842119Y9485389D01*
X78699262Y9485389D01*
X78556405Y9556817D01*
X78484976Y9628246D01*
X78413548Y9771103D01*
X78342119Y10056817D01*
X78342119Y10413960D01*
X78413548Y10699674D01*
X78484976Y10842531D01*
X78556405Y10913960D01*
X78699262Y10985389D01*
D12*
X5080Y5080D02*
X99451160Y5080D01*
X5080Y53721000D02*
X5080Y5080D01*
X98054160Y53721000D02*
X5080Y53721000D01*
X99451160Y52324000D02*
X98054160Y53721000D01*
X99451160Y5080D02*
X99451160Y52324000D01*
D13*
X90782140Y31437580D02*
X91681300Y31437580D01*
X91681300Y31437580D02*
X91681300Y31038800D01*
X90782140Y31038800D02*
X91681300Y31038800D01*
X90782140Y31437580D02*
X90782140Y31038800D01*
X90782140Y32735520D02*
X91681300Y32735520D01*
X91681300Y32735520D02*
X91681300Y32336740D01*
X90782140Y32336740D02*
X91681300Y32336740D01*
X90782140Y32735520D02*
X90782140Y32336740D01*
X90782140Y31887160D02*
X90932000Y31887160D01*
X90932000Y31887160D02*
X90932000Y31587440D01*
X90782140Y31587440D02*
X90932000Y31587440D01*
X90782140Y31887160D02*
X90782140Y31587440D01*
X91531440Y31887160D02*
X91681300Y31887160D01*
X91681300Y31887160D02*
X91681300Y31587440D01*
X91531440Y31587440D02*
X91681300Y31587440D01*
X91531440Y31887160D02*
X91531440Y31587440D01*
X91081860Y31887160D02*
X91381580Y31887160D01*
X91381580Y31887160D02*
X91381580Y31587440D01*
X91081860Y31587440D02*
X91381580Y31587440D01*
X91081860Y31887160D02*
X91081860Y31587440D01*
X90832940Y31437580D02*
X90832940Y32336740D01*
X91630500Y31437580D02*
X91630500Y32336740D01*
X91681300Y21211540D02*
X90782140Y21211540D01*
X90782140Y21211540D02*
X90782140Y21610320D01*
X91681300Y21610320D02*
X90782140Y21610320D01*
X91681300Y21211540D02*
X91681300Y21610320D01*
X91681300Y19913600D02*
X90782140Y19913600D01*
X90782140Y19913600D02*
X90782140Y20312380D01*
X91681300Y20312380D02*
X90782140Y20312380D01*
X91681300Y19913600D02*
X91681300Y20312380D01*
X91681300Y20761960D02*
X91531440Y20761960D01*
X91531440Y20761960D02*
X91531440Y21061680D01*
X91681300Y21061680D02*
X91531440Y21061680D01*
X91681300Y20761960D02*
X91681300Y21061680D01*
X90932000Y20761960D02*
X90782140Y20761960D01*
X90782140Y20761960D02*
X90782140Y21061680D01*
X90932000Y21061680D02*
X90782140Y21061680D01*
X90932000Y20761960D02*
X90932000Y21061680D01*
X91381580Y20761960D02*
X91081860Y20761960D01*
X91081860Y20761960D02*
X91081860Y21061680D01*
X91381580Y21061680D02*
X91081860Y21061680D01*
X91381580Y20761960D02*
X91381580Y21061680D01*
X91630500Y21211540D02*
X91630500Y20312380D01*
X90832940Y21211540D02*
X90832940Y20312380D01*
D14*
X99258120Y187960D02*
X198120Y187960D01*
X97988120Y53527960D02*
X198120Y53527960D01*
X99258120Y2727960D02*
X99258120Y52257960D01*
X99258120Y52257960D02*
X97988120Y53527960D01*
X198120Y187960D02*
X198120Y53527960D01*
X99258120Y2727960D02*
X99258120Y187960D01*
D15*
G36*
X62001400Y5285740D02*
X62052200Y5313680D01*
X62171580Y5387340D01*
X62336680Y5496560D01*
X62534800Y5628640D01*
X62732920Y5760720D01*
X62895480Y5869940D01*
X63009780Y5943600D01*
X63058040Y5971540D01*
X63083440Y5961380D01*
X63177420Y5915660D01*
X63314580Y5844540D01*
X63393320Y5803900D01*
X63517780Y5750560D01*
X63581280Y5737860D01*
X63591440Y5755640D01*
X63637160Y5852160D01*
X63708280Y6014720D01*
X63802260Y6233160D01*
X63911480Y6487160D01*
X64025780Y6758940D01*
X64142620Y7038340D01*
X64254380Y7305040D01*
X64350900Y7543800D01*
X64429640Y7739380D01*
X64480440Y7874000D01*
X64500760Y7932420D01*
X64495680Y7945120D01*
X64432180Y8006080D01*
X64322960Y8087360D01*
X64086740Y8280400D01*
X63853060Y8572500D01*
X63710820Y8902700D01*
X63662560Y9271000D01*
X63703200Y9611360D01*
X63837820Y9939020D01*
X64066420Y10233660D01*
X64343280Y10454640D01*
X64668400Y10591800D01*
X65031620Y10637520D01*
X65379600Y10596880D01*
X65714880Y10464800D01*
X66009520Y10241280D01*
X66133980Y10096500D01*
X66306700Y9799320D01*
X66403220Y9479280D01*
X66413380Y9398000D01*
X66400680Y9047480D01*
X66296540Y8709660D01*
X66111120Y8407400D01*
X65852040Y8161020D01*
X65821560Y8138160D01*
X65702180Y8049260D01*
X65620900Y7988300D01*
X65559940Y7937500D01*
X66006980Y6860540D01*
X66078100Y6690360D01*
X66200020Y6395720D01*
X66309240Y6141720D01*
X66393060Y5941060D01*
X66454020Y5806440D01*
X66479420Y5750560D01*
X66481960Y5748020D01*
X66522600Y5740400D01*
X66603880Y5770880D01*
X66753740Y5844540D01*
X66852800Y5895340D01*
X66967100Y5951220D01*
X67020440Y5971540D01*
X67063620Y5946140D01*
X67172840Y5875020D01*
X67332860Y5768340D01*
X67525900Y5638800D01*
X67708780Y5514340D01*
X67876420Y5402580D01*
X68000880Y5323840D01*
X68059300Y5290820D01*
X68069460Y5290820D01*
X68122800Y5321300D01*
X68219320Y5402580D01*
X68366640Y5539740D01*
X68572380Y5745480D01*
X68605400Y5775960D01*
X68775580Y5951220D01*
X68912740Y6096000D01*
X69006720Y6200140D01*
X69039740Y6245860D01*
X69039740Y6245860D01*
X69009260Y6304280D01*
X68933060Y6426200D01*
X68821300Y6598920D01*
X68684140Y6797040D01*
X68328540Y7315200D01*
X68524120Y7805420D01*
X68582540Y7955280D01*
X68658740Y8135620D01*
X68717160Y8265160D01*
X68745100Y8321040D01*
X68798440Y8341360D01*
X68933060Y8371840D01*
X69126100Y8412480D01*
X69357240Y8455660D01*
X69578220Y8496300D01*
X69776340Y8534400D01*
X69921120Y8562340D01*
X69984620Y8575040D01*
X69999860Y8585200D01*
X70015100Y8615680D01*
X70022720Y8684260D01*
X70027800Y8803640D01*
X70030340Y8994140D01*
X70030340Y9271000D01*
X70030340Y9301480D01*
X70027800Y9563100D01*
X70022720Y9773920D01*
X70015100Y9911080D01*
X70007480Y9964420D01*
X70004940Y9964420D01*
X69943980Y9979660D01*
X69804280Y10010140D01*
X69603620Y10048240D01*
X69367400Y10093960D01*
X69352160Y10096500D01*
X69115940Y10142220D01*
X68917820Y10182860D01*
X68778120Y10215880D01*
X68719700Y10233660D01*
X68707000Y10251440D01*
X68661280Y10342880D01*
X68592700Y10490200D01*
X68513960Y10668000D01*
X68437760Y10853420D01*
X68369180Y11021060D01*
X68326000Y11145520D01*
X68310760Y11201400D01*
X68313300Y11203940D01*
X68348860Y11259820D01*
X68430140Y11381740D01*
X68544440Y11551920D01*
X68681600Y11755120D01*
X68691760Y11770360D01*
X68828920Y11968480D01*
X68938140Y12138660D01*
X69011800Y12258040D01*
X69039740Y12313920D01*
X69039740Y12316460D01*
X68994020Y12377420D01*
X68892420Y12489180D01*
X68747640Y12641580D01*
X68572380Y12819380D01*
X68516500Y12872720D01*
X68320920Y13063220D01*
X68186300Y13187680D01*
X68102480Y13253720D01*
X68061840Y13268960D01*
X68061840Y13266420D01*
X68000880Y13230860D01*
X67873880Y13149580D01*
X67703700Y13032740D01*
X67500500Y12895580D01*
X67485260Y12885420D01*
X67287140Y12748260D01*
X67119500Y12636500D01*
X67002660Y12557760D01*
X66949320Y12527280D01*
X66941700Y12527280D01*
X66860420Y12550140D01*
X66718180Y12600940D01*
X66542920Y12669520D01*
X66357500Y12743180D01*
X66189860Y12814300D01*
X66062860Y12870180D01*
X66004440Y12905740D01*
X66001900Y12908280D01*
X65981580Y12979400D01*
X65946020Y13129260D01*
X65905380Y13335000D01*
X65857120Y13578840D01*
X65849500Y13619480D01*
X65806320Y13858240D01*
X65768220Y14053820D01*
X65740280Y14190980D01*
X65725040Y14246860D01*
X65692020Y14254480D01*
X65575180Y14262100D01*
X65397380Y14267180D01*
X65181480Y14269720D01*
X64955420Y14267180D01*
X64734440Y14262100D01*
X64546480Y14257020D01*
X64411860Y14246860D01*
X64355980Y14236700D01*
X64353440Y14231620D01*
X64333120Y14157960D01*
X64300100Y14008100D01*
X64256920Y13802360D01*
X64211200Y13555980D01*
X64201040Y13512800D01*
X64157860Y13276580D01*
X64117220Y13081000D01*
X64089280Y12946380D01*
X64074040Y12893040D01*
X64051180Y12882880D01*
X63954660Y12839700D01*
X63794640Y12773660D01*
X63596520Y12694920D01*
X63139320Y12509500D01*
X62577980Y12893040D01*
X62527180Y12928600D01*
X62323980Y13065760D01*
X62158880Y13174980D01*
X62044580Y13251180D01*
X61996320Y13276580D01*
X61991240Y13276580D01*
X61935360Y13225780D01*
X61826140Y13121640D01*
X61673740Y12974320D01*
X61495940Y12799060D01*
X61366400Y12666980D01*
X61211460Y12509500D01*
X61112400Y12405360D01*
X61059060Y12336780D01*
X61041280Y12296140D01*
X61046360Y12268200D01*
X61081920Y12209780D01*
X61163200Y12087860D01*
X61280040Y11917680D01*
X61417200Y11719560D01*
X61528960Y11551920D01*
X61650880Y11363960D01*
X61729620Y11229340D01*
X61757560Y11163300D01*
X61749940Y11137900D01*
X61711840Y11026140D01*
X61643260Y10861040D01*
X61559440Y10662920D01*
X61363860Y10218420D01*
X61074300Y10162540D01*
X60896500Y10129520D01*
X60650120Y10081260D01*
X60413900Y10035540D01*
X60045600Y9964420D01*
X60032900Y8610600D01*
X60088780Y8585200D01*
X60144660Y8569960D01*
X60281820Y8539480D01*
X60474860Y8501380D01*
X60706000Y8458200D01*
X60901580Y8422640D01*
X61099700Y8384540D01*
X61241940Y8356600D01*
X61302900Y8343900D01*
X61320680Y8321040D01*
X61368940Y8227060D01*
X61440060Y8074660D01*
X61518800Y7891780D01*
X61597540Y7701280D01*
X61666120Y7526020D01*
X61714380Y7393940D01*
X61734700Y7325360D01*
X61706760Y7272020D01*
X61633100Y7155180D01*
X61523880Y6990080D01*
X61389260Y6794500D01*
X61254640Y6598920D01*
X61140340Y6431280D01*
X61061600Y6309360D01*
X61028580Y6253480D01*
X61046360Y6217920D01*
X61125100Y6121400D01*
X61272420Y5969000D01*
X61493400Y5750560D01*
X61528960Y5715000D01*
X61704220Y5547360D01*
X61851540Y5410200D01*
X61955680Y5318760D01*
X62001400Y5285740D01*
X62001400Y5285740D01*
G37*
X62001400Y5285740D02*
X62052200Y5313680D01*
X62171580Y5387340D01*
X62336680Y5496560D01*
X62534800Y5628640D01*
X62732920Y5760720D01*
X62895480Y5869940D01*
X63009780Y5943600D01*
X63058040Y5971540D01*
X63083440Y5961380D01*
X63177420Y5915660D01*
X63314580Y5844540D01*
X63393320Y5803900D01*
X63517780Y5750560D01*
X63581280Y5737860D01*
X63591440Y5755640D01*
X63637160Y5852160D01*
X63708280Y6014720D01*
X63802260Y6233160D01*
X63911480Y6487160D01*
X64025780Y6758940D01*
X64142620Y7038340D01*
X64254380Y7305040D01*
X64350900Y7543800D01*
X64429640Y7739380D01*
X64480440Y7874000D01*
X64500760Y7932420D01*
X64495680Y7945120D01*
X64432180Y8006080D01*
X64322960Y8087360D01*
X64086740Y8280400D01*
X63853060Y8572500D01*
X63710820Y8902700D01*
X63662560Y9271000D01*
X63703200Y9611360D01*
X63837820Y9939020D01*
X64066420Y10233660D01*
X64343280Y10454640D01*
X64668400Y10591800D01*
X65031620Y10637520D01*
X65379600Y10596880D01*
X65714880Y10464800D01*
X66009520Y10241280D01*
X66133980Y10096500D01*
X66306700Y9799320D01*
X66403220Y9479280D01*
X66413380Y9398000D01*
X66400680Y9047480D01*
X66296540Y8709660D01*
X66111120Y8407400D01*
X65852040Y8161020D01*
X65821560Y8138160D01*
X65702180Y8049260D01*
X65620900Y7988300D01*
X65559940Y7937500D01*
X66006980Y6860540D01*
X66078100Y6690360D01*
X66200020Y6395720D01*
X66309240Y6141720D01*
X66393060Y5941060D01*
X66454020Y5806440D01*
X66479420Y5750560D01*
X66481960Y5748020D01*
X66522600Y5740400D01*
X66603880Y5770880D01*
X66753740Y5844540D01*
X66852800Y5895340D01*
X66967100Y5951220D01*
X67020440Y5971540D01*
X67063620Y5946140D01*
X67172840Y5875020D01*
X67332860Y5768340D01*
X67525900Y5638800D01*
X67708780Y5514340D01*
X67876420Y5402580D01*
X68000880Y5323840D01*
X68059300Y5290820D01*
X68069460Y5290820D01*
X68122800Y5321300D01*
X68219320Y5402580D01*
X68366640Y5539740D01*
X68572380Y5745480D01*
X68605400Y5775960D01*
X68775580Y5951220D01*
X68912740Y6096000D01*
X69006720Y6200140D01*
X69039740Y6245860D01*
X69039740Y6245860D01*
X69009260Y6304280D01*
X68933060Y6426200D01*
X68821300Y6598920D01*
X68684140Y6797040D01*
X68328540Y7315200D01*
X68524120Y7805420D01*
X68582540Y7955280D01*
X68658740Y8135620D01*
X68717160Y8265160D01*
X68745100Y8321040D01*
X68798440Y8341360D01*
X68933060Y8371840D01*
X69126100Y8412480D01*
X69357240Y8455660D01*
X69578220Y8496300D01*
X69776340Y8534400D01*
X69921120Y8562340D01*
X69984620Y8575040D01*
X69999860Y8585200D01*
X70015100Y8615680D01*
X70022720Y8684260D01*
X70027800Y8803640D01*
X70030340Y8994140D01*
X70030340Y9271000D01*
X70030340Y9301480D01*
X70027800Y9563100D01*
X70022720Y9773920D01*
X70015100Y9911080D01*
X70007480Y9964420D01*
X70004940Y9964420D01*
X69943980Y9979660D01*
X69804280Y10010140D01*
X69603620Y10048240D01*
X69367400Y10093960D01*
X69352160Y10096500D01*
X69115940Y10142220D01*
X68917820Y10182860D01*
X68778120Y10215880D01*
X68719700Y10233660D01*
X68707000Y10251440D01*
X68661280Y10342880D01*
X68592700Y10490200D01*
X68513960Y10668000D01*
X68437760Y10853420D01*
X68369180Y11021060D01*
X68326000Y11145520D01*
X68310760Y11201400D01*
X68313300Y11203940D01*
X68348860Y11259820D01*
X68430140Y11381740D01*
X68544440Y11551920D01*
X68681600Y11755120D01*
X68691760Y11770360D01*
X68828920Y11968480D01*
X68938140Y12138660D01*
X69011800Y12258040D01*
X69039740Y12313920D01*
X69039740Y12316460D01*
X68994020Y12377420D01*
X68892420Y12489180D01*
X68747640Y12641580D01*
X68572380Y12819380D01*
X68516500Y12872720D01*
X68320920Y13063220D01*
X68186300Y13187680D01*
X68102480Y13253720D01*
X68061840Y13268960D01*
X68061840Y13266420D01*
X68000880Y13230860D01*
X67873880Y13149580D01*
X67703700Y13032740D01*
X67500500Y12895580D01*
X67485260Y12885420D01*
X67287140Y12748260D01*
X67119500Y12636500D01*
X67002660Y12557760D01*
X66949320Y12527280D01*
X66941700Y12527280D01*
X66860420Y12550140D01*
X66718180Y12600940D01*
X66542920Y12669520D01*
X66357500Y12743180D01*
X66189860Y12814300D01*
X66062860Y12870180D01*
X66004440Y12905740D01*
X66001900Y12908280D01*
X65981580Y12979400D01*
X65946020Y13129260D01*
X65905380Y13335000D01*
X65857120Y13578840D01*
X65849500Y13619480D01*
X65806320Y13858240D01*
X65768220Y14053820D01*
X65740280Y14190980D01*
X65725040Y14246860D01*
X65692020Y14254480D01*
X65575180Y14262100D01*
X65397380Y14267180D01*
X65181480Y14269720D01*
X64955420Y14267180D01*
X64734440Y14262100D01*
X64546480Y14257020D01*
X64411860Y14246860D01*
X64355980Y14236700D01*
X64353440Y14231620D01*
X64333120Y14157960D01*
X64300100Y14008100D01*
X64256920Y13802360D01*
X64211200Y13555980D01*
X64201040Y13512800D01*
X64157860Y13276580D01*
X64117220Y13081000D01*
X64089280Y12946380D01*
X64074040Y12893040D01*
X64051180Y12882880D01*
X63954660Y12839700D01*
X63794640Y12773660D01*
X63596520Y12694920D01*
X63139320Y12509500D01*
X62577980Y12893040D01*
X62527180Y12928600D01*
X62323980Y13065760D01*
X62158880Y13174980D01*
X62044580Y13251180D01*
X61996320Y13276580D01*
X61991240Y13276580D01*
X61935360Y13225780D01*
X61826140Y13121640D01*
X61673740Y12974320D01*
X61495940Y12799060D01*
X61366400Y12666980D01*
X61211460Y12509500D01*
X61112400Y12405360D01*
X61059060Y12336780D01*
X61041280Y12296140D01*
X61046360Y12268200D01*
X61081920Y12209780D01*
X61163200Y12087860D01*
X61280040Y11917680D01*
X61417200Y11719560D01*
X61528960Y11551920D01*
X61650880Y11363960D01*
X61729620Y11229340D01*
X61757560Y11163300D01*
X61749940Y11137900D01*
X61711840Y11026140D01*
X61643260Y10861040D01*
X61559440Y10662920D01*
X61363860Y10218420D01*
X61074300Y10162540D01*
X60896500Y10129520D01*
X60650120Y10081260D01*
X60413900Y10035540D01*
X60045600Y9964420D01*
X60032900Y8610600D01*
X60088780Y8585200D01*
X60144660Y8569960D01*
X60281820Y8539480D01*
X60474860Y8501380D01*
X60706000Y8458200D01*
X60901580Y8422640D01*
X61099700Y8384540D01*
X61241940Y8356600D01*
X61302900Y8343900D01*
X61320680Y8321040D01*
X61368940Y8227060D01*
X61440060Y8074660D01*
X61518800Y7891780D01*
X61597540Y7701280D01*
X61666120Y7526020D01*
X61714380Y7393940D01*
X61734700Y7325360D01*
X61706760Y7272020D01*
X61633100Y7155180D01*
X61523880Y6990080D01*
X61389260Y6794500D01*
X61254640Y6598920D01*
X61140340Y6431280D01*
X61061600Y6309360D01*
X61028580Y6253480D01*
X61046360Y6217920D01*
X61125100Y6121400D01*
X61272420Y5969000D01*
X61493400Y5750560D01*
X61528960Y5715000D01*
X61704220Y5547360D01*
X61851540Y5410200D01*
X61955680Y5318760D01*
X62001400Y5285740D01*
D13*
X12044120Y34777960D02*
X12044120Y24779960D01*
X12184120Y34773960D02*
X12184120Y24783960D01*
X12324120Y34765960D02*
X12324120Y24791960D01*
X12464120Y34753960D02*
X12464120Y24803960D01*
X12604120Y34738960D02*
X12604120Y24818960D01*
X12744120Y34718960D02*
X12744120Y24838960D01*
X12884120Y34694960D02*
X12884120Y24862960D01*
X13024120Y34665960D02*
X13024120Y24891960D01*
X13164120Y34633960D02*
X13164120Y24923960D01*
X13304120Y34596960D02*
X13304120Y24960960D01*
X13444120Y34555960D02*
X13444120Y25001960D01*
X13584120Y34510960D02*
X13584120Y30244960D01*
X13584120Y29312960D02*
X13584120Y25046960D01*
X13724120Y34460960D02*
X13724120Y30445960D01*
X13724120Y29111960D02*
X13724120Y25096960D01*
X13864120Y34405960D02*
X13864120Y30574960D01*
X13864120Y28982960D02*
X13864120Y25151960D01*
X14004120Y34345960D02*
X14004120Y30663960D01*
X14004120Y28893960D02*
X14004120Y25211960D01*
X14144120Y34280960D02*
X14144120Y30724960D01*
X14144120Y28832960D02*
X14144120Y25276960D01*
X14284120Y34210960D02*
X14284120Y30761960D01*
X14284120Y28795960D02*
X14284120Y25346960D01*
X14424120Y34134960D02*
X14424120Y30777960D01*
X14424120Y28779960D02*
X14424120Y25422960D01*
X14564120Y34052960D02*
X14564120Y30773960D01*
X14564120Y28783960D02*
X14564120Y25504960D01*
X14704120Y33964960D02*
X14704120Y30750960D01*
X14704120Y28806960D02*
X14704120Y25592960D01*
X14844120Y33869960D02*
X14844120Y30705960D01*
X14844120Y28851960D02*
X14844120Y25687960D01*
X14984120Y33767960D02*
X14984120Y30635960D01*
X14984120Y28921960D02*
X14984120Y25789960D01*
X15124120Y33657960D02*
X15124120Y30534960D01*
X15124120Y29022960D02*
X15124120Y25899960D01*
X15264120Y33539960D02*
X15264120Y30385960D01*
X15264120Y29171960D02*
X15264120Y26017960D01*
X15404120Y33411960D02*
X15404120Y30133960D01*
X15404120Y29423960D02*
X15404120Y26145960D01*
X15544120Y33274960D02*
X15544120Y26282960D01*
X15684120Y33124960D02*
X15684120Y26432960D01*
X15824120Y32962960D02*
X15824120Y26594960D01*
X15964120Y32785960D02*
X15964120Y26771960D01*
X16104120Y32589960D02*
X16104120Y26967960D01*
X16244120Y32371960D02*
X16244120Y27185960D01*
X16384120Y32125960D02*
X16384120Y27431960D01*
X16524120Y31840960D02*
X16524120Y27716960D01*
X16664120Y31498960D02*
X16664120Y28058960D01*
X16804120Y31052960D02*
X16804120Y28504960D01*
X16944120Y30277960D02*
X16944120Y29279960D01*
X15469120Y29778960D02*
G75*
G03X15469120Y29778960I-1000000J0D01*
G01*
X17006620Y29778960D02*
G75*
G03X17006620Y29778960I-5037500J0D01*
G01*
X7472120Y14838960D02*
X7472120Y4840960D01*
X7612120Y14834960D02*
X7612120Y4844960D01*
X7752120Y14826960D02*
X7752120Y4852960D01*
X7892120Y14814960D02*
X7892120Y4864960D01*
X8032120Y14799960D02*
X8032120Y4879960D01*
X8172120Y14779960D02*
X8172120Y4899960D01*
X8312120Y14755960D02*
X8312120Y4923960D01*
X8452120Y14726960D02*
X8452120Y4952960D01*
X8592120Y14694960D02*
X8592120Y4984960D01*
X8732120Y14657960D02*
X8732120Y5021960D01*
X8872120Y14616960D02*
X8872120Y5062960D01*
X9012120Y14571960D02*
X9012120Y10305960D01*
X9012120Y9373960D02*
X9012120Y5107960D01*
X9152120Y14521960D02*
X9152120Y10506960D01*
X9152120Y9172960D02*
X9152120Y5157960D01*
X9292120Y14466960D02*
X9292120Y10635960D01*
X9292120Y9043960D02*
X9292120Y5212960D01*
X9432120Y14406960D02*
X9432120Y10724960D01*
X9432120Y8954960D02*
X9432120Y5272960D01*
X9572120Y14341960D02*
X9572120Y10785960D01*
X9572120Y8893960D02*
X9572120Y5337960D01*
X9712120Y14271960D02*
X9712120Y10822960D01*
X9712120Y8856960D02*
X9712120Y5407960D01*
X9852120Y14195960D02*
X9852120Y10838960D01*
X9852120Y8840960D02*
X9852120Y5483960D01*
X9992120Y14113960D02*
X9992120Y10834960D01*
X9992120Y8844960D02*
X9992120Y5565960D01*
X10132120Y14025960D02*
X10132120Y10811960D01*
X10132120Y8867960D02*
X10132120Y5653960D01*
X10272120Y13930960D02*
X10272120Y10766960D01*
X10272120Y8912960D02*
X10272120Y5748960D01*
X10412120Y13828960D02*
X10412120Y10696960D01*
X10412120Y8982960D02*
X10412120Y5850960D01*
X10552120Y13718960D02*
X10552120Y10595960D01*
X10552120Y9083960D02*
X10552120Y5960960D01*
X10692120Y13600960D02*
X10692120Y10446960D01*
X10692120Y9232960D02*
X10692120Y6078960D01*
X10832120Y13472960D02*
X10832120Y10194960D01*
X10832120Y9484960D02*
X10832120Y6206960D01*
X10972120Y13335960D02*
X10972120Y6343960D01*
X11112120Y13185960D02*
X11112120Y6493960D01*
X11252120Y13023960D02*
X11252120Y6655960D01*
X11392120Y12846960D02*
X11392120Y6832960D01*
X11532120Y12650960D02*
X11532120Y7028960D01*
X11672120Y12432960D02*
X11672120Y7246960D01*
X11812120Y12186960D02*
X11812120Y7492960D01*
X11952120Y11901960D02*
X11952120Y7777960D01*
X12092120Y11559960D02*
X12092120Y8119960D01*
X12232120Y11113960D02*
X12232120Y8565960D01*
X12372120Y10338960D02*
X12372120Y9340960D01*
X10897120Y9839960D02*
G75*
G03X10897120Y9839960I-1000000J0D01*
G01*
X12434620Y9839960D02*
G75*
G03X12434620Y9839960I-5037500J0D01*
G01*
X6710120Y44810960D02*
X6710120Y34812960D01*
X6850120Y44806960D02*
X6850120Y34816960D01*
X6990120Y44798960D02*
X6990120Y34824960D01*
X7130120Y44786960D02*
X7130120Y34836960D01*
X7270120Y44771960D02*
X7270120Y34851960D01*
X7410120Y44751960D02*
X7410120Y34871960D01*
X7550120Y44727960D02*
X7550120Y34895960D01*
X7690120Y44698960D02*
X7690120Y34924960D01*
X7830120Y44666960D02*
X7830120Y34956960D01*
X7970120Y44629960D02*
X7970120Y34993960D01*
X8110120Y44588960D02*
X8110120Y35034960D01*
X8250120Y44543960D02*
X8250120Y40277960D01*
X8250120Y39345960D02*
X8250120Y35079960D01*
X8390120Y44493960D02*
X8390120Y40478960D01*
X8390120Y39144960D02*
X8390120Y35129960D01*
X8530120Y44438960D02*
X8530120Y40607960D01*
X8530120Y39015960D02*
X8530120Y35184960D01*
X8670120Y44378960D02*
X8670120Y40696960D01*
X8670120Y38926960D02*
X8670120Y35244960D01*
X8810120Y44313960D02*
X8810120Y40757960D01*
X8810120Y38865960D02*
X8810120Y35309960D01*
X8950120Y44243960D02*
X8950120Y40794960D01*
X8950120Y38828960D02*
X8950120Y35379960D01*
X9090120Y44167960D02*
X9090120Y40810960D01*
X9090120Y38812960D02*
X9090120Y35455960D01*
X9230120Y44085960D02*
X9230120Y40806960D01*
X9230120Y38816960D02*
X9230120Y35537960D01*
X9370120Y43997960D02*
X9370120Y40783960D01*
X9370120Y38839960D02*
X9370120Y35625960D01*
X9510120Y43902960D02*
X9510120Y40738960D01*
X9510120Y38884960D02*
X9510120Y35720960D01*
X9650120Y43800960D02*
X9650120Y40668960D01*
X9650120Y38954960D02*
X9650120Y35822960D01*
X9790120Y43690960D02*
X9790120Y40567960D01*
X9790120Y39055960D02*
X9790120Y35932960D01*
X9930120Y43572960D02*
X9930120Y40418960D01*
X9930120Y39204960D02*
X9930120Y36050960D01*
X10070120Y43444960D02*
X10070120Y40166960D01*
X10070120Y39456960D02*
X10070120Y36178960D01*
X10210120Y43307960D02*
X10210120Y36315960D01*
X10350120Y43157960D02*
X10350120Y36465960D01*
X10490120Y42995960D02*
X10490120Y36627960D01*
X10630120Y42818960D02*
X10630120Y36804960D01*
X10770120Y42622960D02*
X10770120Y37000960D01*
X10910120Y42404960D02*
X10910120Y37218960D01*
X11050120Y42158960D02*
X11050120Y37464960D01*
X11190120Y41873960D02*
X11190120Y37749960D01*
X11330120Y41531960D02*
X11330120Y38091960D01*
X11470120Y41085960D02*
X11470120Y38537960D01*
X11610120Y40310960D02*
X11610120Y39312960D01*
X10135120Y39811960D02*
G75*
G03X10135120Y39811960I-1000000J0D01*
G01*
X11672620Y39811960D02*
G75*
G03X11672620Y39811960I-5037500J0D01*
G01*
X13314120Y23982960D02*
X13314120Y13984960D01*
X13454120Y23978960D02*
X13454120Y13988960D01*
X13594120Y23970960D02*
X13594120Y13996960D01*
X13734120Y23958960D02*
X13734120Y14008960D01*
X13874120Y23943960D02*
X13874120Y14023960D01*
X14014120Y23923960D02*
X14014120Y14043960D01*
X14154120Y23899960D02*
X14154120Y14067960D01*
X14294120Y23870960D02*
X14294120Y14096960D01*
X14434120Y23838960D02*
X14434120Y14128960D01*
X14574120Y23801960D02*
X14574120Y14165960D01*
X14714120Y23760960D02*
X14714120Y14206960D01*
X14854120Y23715960D02*
X14854120Y19449960D01*
X14854120Y18517960D02*
X14854120Y14251960D01*
X14994120Y23665960D02*
X14994120Y19650960D01*
X14994120Y18316960D02*
X14994120Y14301960D01*
X15134120Y23610960D02*
X15134120Y19779960D01*
X15134120Y18187960D02*
X15134120Y14356960D01*
X15274120Y23550960D02*
X15274120Y19868960D01*
X15274120Y18098960D02*
X15274120Y14416960D01*
X15414120Y23485960D02*
X15414120Y19929960D01*
X15414120Y18037960D02*
X15414120Y14481960D01*
X15554120Y23415960D02*
X15554120Y19966960D01*
X15554120Y18000960D02*
X15554120Y14551960D01*
X15694120Y23339960D02*
X15694120Y19982960D01*
X15694120Y17984960D02*
X15694120Y14627960D01*
X15834120Y23257960D02*
X15834120Y19978960D01*
X15834120Y17988960D02*
X15834120Y14709960D01*
X15974120Y23169960D02*
X15974120Y19955960D01*
X15974120Y18011960D02*
X15974120Y14797960D01*
X16114120Y23074960D02*
X16114120Y19910960D01*
X16114120Y18056960D02*
X16114120Y14892960D01*
X16254120Y22972960D02*
X16254120Y19840960D01*
X16254120Y18126960D02*
X16254120Y14994960D01*
X16394120Y22862960D02*
X16394120Y19739960D01*
X16394120Y18227960D02*
X16394120Y15104960D01*
X16534120Y22744960D02*
X16534120Y19590960D01*
X16534120Y18376960D02*
X16534120Y15222960D01*
X16674120Y22616960D02*
X16674120Y19338960D01*
X16674120Y18628960D02*
X16674120Y15350960D01*
X16814120Y22479960D02*
X16814120Y15487960D01*
X16954120Y22329960D02*
X16954120Y15637960D01*
X17094120Y22167960D02*
X17094120Y15799960D01*
X17234120Y21990960D02*
X17234120Y15976960D01*
X17374120Y21794960D02*
X17374120Y16172960D01*
X17514120Y21576960D02*
X17514120Y16390960D01*
X17654120Y21330960D02*
X17654120Y16636960D01*
X17794120Y21045960D02*
X17794120Y16921960D01*
X17934120Y20703960D02*
X17934120Y17263960D01*
X18074120Y20257960D02*
X18074120Y17709960D01*
X18214120Y19482960D02*
X18214120Y18484960D01*
X16739120Y18983960D02*
G75*
G03X16739120Y18983960I-1000000J0D01*
G01*
X18276620Y18983960D02*
G75*
G03X18276620Y18983960I-5037500J0D01*
G01*
X12299120Y36009960D02*
X12299120Y42009960D01*
X16799120Y42009960D02*
X16799120Y36009960D01*
X17815120Y12371960D02*
X17815120Y6371960D01*
X13315120Y6371960D02*
X13315120Y12371960D01*
X10231120Y48193960D02*
X10231120Y49717960D01*
X10104120Y50098960D02*
X10104120Y47812960D01*
X9977120Y47558960D02*
X9977120Y50352960D01*
X9850120Y50606960D02*
X9850120Y47304960D01*
X9723120Y47177960D02*
X9723120Y50733960D01*
X10358120Y48955960D02*
G75*
G03X10358120Y48955960I-3048000J0D01*
G01*
X10612120Y45653960D02*
X10612120Y52257960D01*
X10612120Y52257960D02*
X4770120Y52257960D01*
X4770120Y52257960D02*
X4008120Y51495960D01*
X4008120Y51495960D02*
X4008120Y46415960D01*
X4008120Y46415960D02*
X4770120Y45653960D01*
X4770120Y45653960D02*
X10612120Y45653960D01*
X5151120Y48955960D02*
X5913120Y48955960D01*
X5532120Y48574960D02*
X5532120Y49336960D01*
X26137120Y36347960D02*
X26837120Y36347960D01*
X26837120Y35147960D02*
X26137120Y35147960D01*
X27026120Y19075960D02*
X27726120Y19075960D01*
X27726120Y17875960D02*
X27026120Y17875960D01*
X23982120Y46192960D02*
X23982120Y46892960D01*
X25182120Y46892960D02*
X25182120Y46192960D01*
X54708120Y27584960D02*
X42208120Y27584960D01*
X54704120Y27444960D02*
X42212120Y27444960D01*
X54698120Y27304960D02*
X42218120Y27304960D01*
X54688120Y27164960D02*
X42228120Y27164960D01*
X54676120Y27024960D02*
X42240120Y27024960D01*
X54660120Y26884960D02*
X42256120Y26884960D01*
X54641120Y26744960D02*
X42275120Y26744960D01*
X54618120Y26604960D02*
X42298120Y26604960D01*
X54593120Y26464960D02*
X42323120Y26464960D01*
X54564120Y26324960D02*
X42352120Y26324960D01*
X54531120Y26184960D02*
X48979120Y26184960D01*
X47937120Y26184960D02*
X42385120Y26184960D01*
X54496120Y26044960D02*
X49192120Y26044960D01*
X47724120Y26044960D02*
X42420120Y26044960D01*
X54457120Y25904960D02*
X49334120Y25904960D01*
X47582120Y25904960D02*
X42459120Y25904960D01*
X54414120Y25764960D02*
X49436120Y25764960D01*
X47480120Y25764960D02*
X42502120Y25764960D01*
X54367120Y25624960D02*
X49510120Y25624960D01*
X47406120Y25624960D02*
X42549120Y25624960D01*
X54317120Y25484960D02*
X49561120Y25484960D01*
X47355120Y25484960D02*
X42599120Y25484960D01*
X54263120Y25344960D02*
X49593120Y25344960D01*
X47323120Y25344960D02*
X42653120Y25344960D01*
X54206120Y25204960D02*
X49607120Y25204960D01*
X47309120Y25204960D02*
X42710120Y25204960D01*
X54144120Y25064960D02*
X49604120Y25064960D01*
X47312120Y25064960D02*
X42772120Y25064960D01*
X54078120Y24924960D02*
X49584120Y24924960D01*
X47332120Y24924960D02*
X42838120Y24924960D01*
X54007120Y24784960D02*
X49545120Y24784960D01*
X47371120Y24784960D02*
X42909120Y24784960D01*
X53933120Y24644960D02*
X49486120Y24644960D01*
X47430120Y24644960D02*
X42983120Y24644960D01*
X53853120Y24504960D02*
X49403120Y24504960D01*
X47513120Y24504960D02*
X43063120Y24504960D01*
X53769120Y24364960D02*
X49289120Y24364960D01*
X47627120Y24364960D02*
X43147120Y24364960D01*
X53679120Y24224960D02*
X49128120Y24224960D01*
X47788120Y24224960D02*
X43237120Y24224960D01*
X53585120Y24084960D02*
X48867120Y24084960D01*
X48049120Y24084960D02*
X43331120Y24084960D01*
X53484120Y23944960D02*
X43432120Y23944960D01*
X53377120Y23804960D02*
X43539120Y23804960D01*
X53265120Y23664960D02*
X43651120Y23664960D01*
X53145120Y23524960D02*
X43771120Y23524960D01*
X53017120Y23384960D02*
X43899120Y23384960D01*
X52882120Y23244960D02*
X44034120Y23244960D01*
X52738120Y23104960D02*
X44178120Y23104960D01*
X52583120Y22964960D02*
X44333120Y22964960D01*
X52418120Y22824960D02*
X44498120Y22824960D01*
X52241120Y22684960D02*
X44675120Y22684960D01*
X52050120Y22544960D02*
X44866120Y22544960D01*
X51841120Y22404960D02*
X45075120Y22404960D01*
X51613120Y22264960D02*
X45303120Y22264960D01*
X51361120Y22124960D02*
X45555120Y22124960D01*
X51077120Y21984960D02*
X45839120Y21984960D01*
X50749120Y21844960D02*
X46167120Y21844960D01*
X50355120Y21704960D02*
X46561120Y21704960D01*
X49841120Y21564960D02*
X47075120Y21564960D01*
X48891120Y21424960D02*
X48025120Y21424960D01*
X49608120Y25159960D02*
G75*
G03X49608120Y25159960I-1150000J0D01*
G01*
X54745620Y27659960D02*
G75*
G03X54745620Y27659960I-6287500J0D01*
G01*
X55216120Y13360960D02*
X42716120Y13360960D01*
X55212120Y13220960D02*
X42720120Y13220960D01*
X55206120Y13080960D02*
X42726120Y13080960D01*
X55196120Y12940960D02*
X42736120Y12940960D01*
X55184120Y12800960D02*
X42748120Y12800960D01*
X55168120Y12660960D02*
X42764120Y12660960D01*
X55149120Y12520960D02*
X42783120Y12520960D01*
X55126120Y12380960D02*
X42806120Y12380960D01*
X55101120Y12240960D02*
X42831120Y12240960D01*
X55072120Y12100960D02*
X42860120Y12100960D01*
X55039120Y11960960D02*
X49487120Y11960960D01*
X48445120Y11960960D02*
X42893120Y11960960D01*
X55004120Y11820960D02*
X49700120Y11820960D01*
X48232120Y11820960D02*
X42928120Y11820960D01*
X54965120Y11680960D02*
X49842120Y11680960D01*
X48090120Y11680960D02*
X42967120Y11680960D01*
X54922120Y11540960D02*
X49944120Y11540960D01*
X47988120Y11540960D02*
X43010120Y11540960D01*
X54875120Y11400960D02*
X50018120Y11400960D01*
X47914120Y11400960D02*
X43057120Y11400960D01*
X54825120Y11260960D02*
X50069120Y11260960D01*
X47863120Y11260960D02*
X43107120Y11260960D01*
X54771120Y11120960D02*
X50101120Y11120960D01*
X47831120Y11120960D02*
X43161120Y11120960D01*
X54714120Y10980960D02*
X50115120Y10980960D01*
X47817120Y10980960D02*
X43218120Y10980960D01*
X54652120Y10840960D02*
X50112120Y10840960D01*
X47820120Y10840960D02*
X43280120Y10840960D01*
X54586120Y10700960D02*
X50092120Y10700960D01*
X47840120Y10700960D02*
X43346120Y10700960D01*
X54515120Y10560960D02*
X50053120Y10560960D01*
X47879120Y10560960D02*
X43417120Y10560960D01*
X54441120Y10420960D02*
X49994120Y10420960D01*
X47938120Y10420960D02*
X43491120Y10420960D01*
X54361120Y10280960D02*
X49911120Y10280960D01*
X48021120Y10280960D02*
X43571120Y10280960D01*
X54277120Y10140960D02*
X49797120Y10140960D01*
X48135120Y10140960D02*
X43655120Y10140960D01*
X54187120Y10000960D02*
X49636120Y10000960D01*
X48296120Y10000960D02*
X43745120Y10000960D01*
X54093120Y9860960D02*
X49375120Y9860960D01*
X48557120Y9860960D02*
X43839120Y9860960D01*
X53992120Y9720960D02*
X43940120Y9720960D01*
X53885120Y9580960D02*
X44047120Y9580960D01*
X53773120Y9440960D02*
X44159120Y9440960D01*
X53653120Y9300960D02*
X44279120Y9300960D01*
X53525120Y9160960D02*
X44407120Y9160960D01*
X53390120Y9020960D02*
X44542120Y9020960D01*
X53246120Y8880960D02*
X44686120Y8880960D01*
X53091120Y8740960D02*
X44841120Y8740960D01*
X52926120Y8600960D02*
X45006120Y8600960D01*
X52749120Y8460960D02*
X45183120Y8460960D01*
X52558120Y8320960D02*
X45374120Y8320960D01*
X52349120Y8180960D02*
X45583120Y8180960D01*
X52121120Y8040960D02*
X45811120Y8040960D01*
X51869120Y7900960D02*
X46063120Y7900960D01*
X51585120Y7760960D02*
X46347120Y7760960D01*
X51257120Y7620960D02*
X46675120Y7620960D01*
X50863120Y7480960D02*
X47069120Y7480960D01*
X50349120Y7340960D02*
X47583120Y7340960D01*
X49399120Y7200960D02*
X48533120Y7200960D01*
X50116120Y10935960D02*
G75*
G03X50116120Y10935960I-1150000J0D01*
G01*
X55253620Y13435960D02*
G75*
G03X55253620Y13435960I-6287500J0D01*
G01*
X60405920Y45950560D02*
X55407920Y45950560D01*
X60397920Y45810560D02*
X58060920Y45810560D01*
X57752920Y45810560D02*
X55415920Y45810560D01*
X60381920Y45670560D02*
X58379920Y45670560D01*
X57433920Y45670560D02*
X55431920Y45670560D01*
X60357920Y45530560D02*
X58526920Y45530560D01*
X57286920Y45530560D02*
X55455920Y45530560D01*
X60324920Y45390560D02*
X58618920Y45390560D01*
X57194920Y45390560D02*
X55488920Y45390560D01*
X60283920Y45250560D02*
X58674920Y45250560D01*
X57138920Y45250560D02*
X55529920Y45250560D01*
X60233920Y45110560D02*
X58701920Y45110560D01*
X57111920Y45110560D02*
X55579920Y45110560D01*
X60172920Y44970560D02*
X58704920Y44970560D01*
X57108920Y44970560D02*
X55640920Y44970560D01*
X60102920Y44830560D02*
X58682920Y44830560D01*
X57130920Y44830560D02*
X55710920Y44830560D01*
X60020920Y44690560D02*
X58632920Y44690560D01*
X57180920Y44690560D02*
X55792920Y44690560D01*
X59925920Y44550560D02*
X58550920Y44550560D01*
X57262920Y44550560D02*
X55887920Y44550560D01*
X59814920Y44410560D02*
X58418920Y44410560D01*
X57394920Y44410560D02*
X55998920Y44410560D01*
X59686920Y44270560D02*
X58171920Y44270560D01*
X57641920Y44270560D02*
X56126920Y44270560D01*
X59537920Y44130560D02*
X56275920Y44130560D01*
X59358920Y43990560D02*
X56454920Y43990560D01*
X59139920Y43850560D02*
X56673920Y43850560D01*
X58850920Y43710560D02*
X56962920Y43710560D01*
X58378920Y43570560D02*
X57434920Y43570560D01*
X58706920Y45025560D02*
G75*
G03X58706920Y45025560I-800000J0D01*
G01*
X60444420Y46025560D02*
G75*
G03X60444420Y46025560I-2537500J0D01*
G01*
X23693120Y28483560D02*
X24582120Y28483560D01*
X22804120Y28483560D02*
X22042120Y28483560D01*
X23693120Y28483560D02*
X22931120Y27467560D01*
X22931120Y27467560D02*
X22931120Y29372560D01*
X22931120Y29372560D02*
X23693120Y28483560D01*
X23693120Y27467560D02*
X23693120Y29372560D01*
X24836120Y25435560D02*
X24836120Y26578560D01*
X21788120Y25435560D02*
X21788120Y26578560D01*
X17978120Y26578560D02*
X17978120Y30261560D01*
X17978120Y30261560D02*
X28646120Y30261560D01*
X28646120Y30261560D02*
X28646120Y26578560D01*
X17978120Y25435560D02*
X17978120Y26578560D01*
X17978120Y26578560D02*
X28646120Y26578560D01*
X28646120Y26578560D02*
X28646120Y25435560D01*
X23312120Y25435560D02*
X28646120Y25435560D01*
X23312120Y25435560D02*
X17978120Y25435560D01*
X24963120Y10411460D02*
X25852120Y10411460D01*
X24074120Y10411460D02*
X23312120Y10411460D01*
X24963120Y10411460D02*
X24201120Y9395460D01*
X24201120Y9395460D02*
X24201120Y11300460D01*
X24201120Y11300460D02*
X24963120Y10411460D01*
X24963120Y9395460D02*
X24963120Y11300460D01*
X26106120Y7363460D02*
X26106120Y8506460D01*
X23058120Y7363460D02*
X23058120Y8506460D01*
X19248120Y8506460D02*
X19248120Y12189460D01*
X19248120Y12189460D02*
X29916120Y12189460D01*
X29916120Y12189460D02*
X29916120Y8506460D01*
X19248120Y7363460D02*
X19248120Y8506460D01*
X19248120Y8506460D02*
X29916120Y8506460D01*
X29916120Y8506460D02*
X29916120Y7363460D01*
X24582120Y7363460D02*
X29916120Y7363460D01*
X24582120Y7363460D02*
X19248120Y7363460D01*
X39715320Y42301560D02*
X30415320Y42301560D01*
X30415320Y48701560D02*
X39715320Y48701560D01*
X58872120Y29397960D02*
X58872120Y34477960D01*
X58872120Y34477960D02*
X56332120Y34477960D01*
X56332120Y34477960D02*
X56332120Y29397960D01*
X56052120Y26577960D02*
X56052120Y28127960D01*
X56332120Y29397960D02*
X58872120Y29397960D01*
X59152120Y28127960D02*
X59152120Y26577960D01*
X59152120Y26577960D02*
X56052120Y26577960D01*
X62428120Y29397960D02*
X62428120Y34477960D01*
X62428120Y34477960D02*
X59888120Y34477960D01*
X59888120Y34477960D02*
X59888120Y29397960D01*
X59608120Y26577960D02*
X59608120Y28127960D01*
X59888120Y29397960D02*
X62428120Y29397960D01*
X62708120Y28127960D02*
X62708120Y26577960D01*
X62708120Y26577960D02*
X59608120Y26577960D01*
X65984120Y29397960D02*
X65984120Y34477960D01*
X65984120Y34477960D02*
X63444120Y34477960D01*
X63444120Y34477960D02*
X63444120Y29397960D01*
X63164120Y26577960D02*
X63164120Y28127960D01*
X63444120Y29397960D02*
X65984120Y29397960D01*
X66264120Y28127960D02*
X66264120Y26577960D01*
X66264120Y26577960D02*
X63164120Y26577960D01*
X69540120Y29397960D02*
X69540120Y34477960D01*
X69540120Y34477960D02*
X67000120Y34477960D01*
X67000120Y34477960D02*
X67000120Y29397960D01*
X66720120Y26577960D02*
X66720120Y28127960D01*
X67000120Y29397960D02*
X69540120Y29397960D01*
X69820120Y28127960D02*
X69820120Y26577960D01*
X69820120Y26577960D02*
X66720120Y26577960D01*
X73096120Y29397960D02*
X73096120Y34477960D01*
X73096120Y34477960D02*
X70556120Y34477960D01*
X70556120Y34477960D02*
X70556120Y29397960D01*
X70276120Y26577960D02*
X70276120Y28127960D01*
X70556120Y29397960D02*
X73096120Y29397960D01*
X73376120Y28127960D02*
X73376120Y26577960D01*
X73376120Y26577960D02*
X70276120Y26577960D01*
X76652120Y29397960D02*
X76652120Y34477960D01*
X76652120Y34477960D02*
X74112120Y34477960D01*
X74112120Y34477960D02*
X74112120Y29397960D01*
X73832120Y26577960D02*
X73832120Y28127960D01*
X74112120Y29397960D02*
X76652120Y29397960D01*
X76932120Y28127960D02*
X76932120Y26577960D01*
X76932120Y26577960D02*
X73832120Y26577960D01*
X80208120Y29397960D02*
X80208120Y34477960D01*
X80208120Y34477960D02*
X77668120Y34477960D01*
X77668120Y34477960D02*
X77668120Y29397960D01*
X77388120Y26577960D02*
X77388120Y28127960D01*
X77668120Y29397960D02*
X80208120Y29397960D01*
X80488120Y28127960D02*
X80488120Y26577960D01*
X80488120Y26577960D02*
X77388120Y26577960D01*
X83764120Y29397960D02*
X83764120Y34477960D01*
X83764120Y34477960D02*
X81224120Y34477960D01*
X81224120Y34477960D02*
X81224120Y29397960D01*
X80944120Y26577960D02*
X80944120Y28127960D01*
X81224120Y29397960D02*
X83764120Y29397960D01*
X84044120Y28127960D02*
X84044120Y26577960D01*
X84044120Y26577960D02*
X80944120Y26577960D01*
X87320120Y29397960D02*
X87320120Y34477960D01*
X87320120Y34477960D02*
X84780120Y34477960D01*
X84780120Y34477960D02*
X84780120Y29397960D01*
X84500120Y26577960D02*
X84500120Y28127960D01*
X84780120Y29397960D02*
X87320120Y29397960D01*
X87600120Y28127960D02*
X87600120Y26577960D01*
X87600120Y26577960D02*
X84500120Y26577960D01*
X56332120Y23301960D02*
X56332120Y18221960D01*
X56332120Y18221960D02*
X58872120Y18221960D01*
X58872120Y18221960D02*
X58872120Y23301960D01*
X59152120Y26121960D02*
X59152120Y24571960D01*
X58872120Y23301960D02*
X56332120Y23301960D01*
X56052120Y24571960D02*
X56052120Y26121960D01*
X56052120Y26121960D02*
X59152120Y26121960D01*
X59888120Y23301960D02*
X59888120Y18221960D01*
X59888120Y18221960D02*
X62428120Y18221960D01*
X62428120Y18221960D02*
X62428120Y23301960D01*
X62708120Y26121960D02*
X62708120Y24571960D01*
X62428120Y23301960D02*
X59888120Y23301960D01*
X59608120Y24571960D02*
X59608120Y26121960D01*
X59608120Y26121960D02*
X62708120Y26121960D01*
X63444120Y23301960D02*
X63444120Y18221960D01*
X63444120Y18221960D02*
X65984120Y18221960D01*
X65984120Y18221960D02*
X65984120Y23301960D01*
X66264120Y26121960D02*
X66264120Y24571960D01*
X65984120Y23301960D02*
X63444120Y23301960D01*
X63164120Y24571960D02*
X63164120Y26121960D01*
X63164120Y26121960D02*
X66264120Y26121960D01*
X67000120Y23301960D02*
X67000120Y18221960D01*
X67000120Y18221960D02*
X69540120Y18221960D01*
X69540120Y18221960D02*
X69540120Y23301960D01*
X69820120Y26121960D02*
X69820120Y24571960D01*
X69540120Y23301960D02*
X67000120Y23301960D01*
X66720120Y24571960D02*
X66720120Y26121960D01*
X66720120Y26121960D02*
X69820120Y26121960D01*
X70556120Y23301960D02*
X70556120Y18221960D01*
X70556120Y18221960D02*
X73096120Y18221960D01*
X73096120Y18221960D02*
X73096120Y23301960D01*
X73376120Y26121960D02*
X73376120Y24571960D01*
X73096120Y23301960D02*
X70556120Y23301960D01*
X70276120Y24571960D02*
X70276120Y26121960D01*
X70276120Y26121960D02*
X73376120Y26121960D01*
X74112120Y23301960D02*
X74112120Y18221960D01*
X74112120Y18221960D02*
X76652120Y18221960D01*
X76652120Y18221960D02*
X76652120Y23301960D01*
X76932120Y26121960D02*
X76932120Y24571960D01*
X76652120Y23301960D02*
X74112120Y23301960D01*
X73832120Y24571960D02*
X73832120Y26121960D01*
X73832120Y26121960D02*
X76932120Y26121960D01*
X77668120Y23301960D02*
X77668120Y18221960D01*
X77668120Y18221960D02*
X80208120Y18221960D01*
X80208120Y18221960D02*
X80208120Y23301960D01*
X80488120Y26121960D02*
X80488120Y24571960D01*
X80208120Y23301960D02*
X77668120Y23301960D01*
X77388120Y24571960D02*
X77388120Y26121960D01*
X77388120Y26121960D02*
X80488120Y26121960D01*
X81224120Y23301960D02*
X81224120Y18221960D01*
X81224120Y18221960D02*
X83764120Y18221960D01*
X83764120Y18221960D02*
X83764120Y23301960D01*
X84044120Y26121960D02*
X84044120Y24571960D01*
X83764120Y23301960D02*
X81224120Y23301960D01*
X80944120Y24571960D02*
X80944120Y26121960D01*
X80944120Y26121960D02*
X84044120Y26121960D01*
X84780120Y23301960D02*
X84780120Y18221960D01*
X84780120Y18221960D02*
X87320120Y18221960D01*
X87320120Y18221960D02*
X87320120Y23301960D01*
X87600120Y26121960D02*
X87600120Y24571960D01*
X87320120Y23301960D02*
X84780120Y23301960D01*
X84500120Y24571960D02*
X84500120Y26121960D01*
X84500120Y26121960D02*
X87600120Y26121960D01*
X82494120Y47915160D02*
X84044120Y47915160D01*
X84044120Y47915160D02*
X84044120Y44815160D01*
X84044120Y44815160D02*
X82494120Y44815160D01*
X81224120Y45095160D02*
X71064120Y45095160D01*
X71064120Y45095160D02*
X71064120Y47635160D01*
X71064120Y47635160D02*
X81224120Y47635160D01*
X81224120Y45095160D02*
X81224120Y47635160D01*
X80716120Y43748960D02*
X73096120Y43748960D01*
X80716120Y41208960D02*
X73096120Y41208960D01*
X83536120Y40928960D02*
X81986120Y40928960D01*
X73096120Y43748960D02*
X73096120Y41208960D01*
X80716120Y41208960D02*
X80716120Y43748960D01*
X81986120Y44028960D02*
X83536120Y44028960D01*
X83536120Y44028960D02*
X83536120Y40928960D01*
X40759380Y31175960D02*
G75*
G03X40759380Y31175960I-5001260J0D01*
G01*
X35758120Y37175440D02*
X40759380Y37175440D01*
X40759380Y37175440D02*
X41757600Y36177220D01*
X41757600Y36177220D02*
X41757600Y26174700D01*
X41757600Y26174700D02*
X40759380Y25176480D01*
X40759380Y25176480D02*
X30756860Y25176480D01*
X30756860Y25176480D02*
X29758640Y26174700D01*
X29758640Y26174700D02*
X29758640Y36177220D01*
X29758640Y36177220D02*
X30756860Y37175440D01*
X30756860Y37175440D02*
X35758120Y37175440D01*
X41267380Y12379960D02*
G75*
G03X41267380Y12379960I-5001260J0D01*
G01*
X36266120Y18379440D02*
X41267380Y18379440D01*
X41267380Y18379440D02*
X42265600Y17381220D01*
X42265600Y17381220D02*
X42265600Y7378700D01*
X42265600Y7378700D02*
X41267380Y6380480D01*
X41267380Y6380480D02*
X31264860Y6380480D01*
X31264860Y6380480D02*
X30266640Y7378700D01*
X30266640Y7378700D02*
X30266640Y17381220D01*
X30266640Y17381220D02*
X31264860Y18379440D01*
X31264860Y18379440D02*
X36266120Y18379440D01*
X6294120Y20888960D02*
G75*
G03X6294120Y20888960I-2286000J0D01*
G01*
X6167120Y26222960D02*
G75*
G03X6167120Y26222960I-2286000J0D01*
G01*
X65302080Y41833800D02*
X65253820Y41833800D01*
X62503100Y41132760D02*
X62503100Y41833800D01*
X62503100Y41833800D02*
X62752020Y41833800D01*
X65302080Y41833800D02*
X65502740Y41833800D01*
X65502740Y41833800D02*
X65502740Y41132760D01*
X68197680Y47066200D02*
X68149420Y47066200D01*
X65398700Y46365160D02*
X65398700Y47066200D01*
X65398700Y47066200D02*
X65647620Y47066200D01*
X68197680Y47066200D02*
X68398340Y47066200D01*
X68398340Y47066200D02*
X68398340Y46365160D01*
X49161320Y4948560D02*
X48161320Y4948560D01*
X48161320Y6298560D02*
X49161320Y6298560D01*
X53936520Y4948560D02*
X52936520Y4948560D01*
X52936520Y6298560D02*
X53936520Y6298560D01*
X61802640Y42095040D02*
X61802640Y41095040D01*
X60452640Y41095040D02*
X60452640Y42095040D01*
X64576320Y47169960D02*
X64576320Y46169960D01*
X63226320Y46169960D02*
X63226320Y47169960D01*
X64553720Y37358960D02*
X63553720Y37358960D01*
X63553720Y38708960D02*
X64553720Y38708960D01*
X68668520Y41473760D02*
X67668520Y41473760D01*
X67668520Y42823760D02*
X68668520Y42823760D01*
X89671520Y32336360D02*
X89671520Y31336360D01*
X88321520Y31336360D02*
X88321520Y32336360D01*
X88473920Y20617560D02*
X88473920Y21617560D01*
X89823920Y21617560D02*
X89823920Y20617560D01*
X25852120Y41589960D02*
X23820120Y41589960D01*
X25852120Y40573960D02*
X23820120Y40573960D01*
X25852120Y33969960D02*
X23820120Y33969960D01*
X25852120Y32953960D02*
X23820120Y32953960D01*
X20264120Y31937960D02*
X20264120Y33461960D01*
X20264120Y42605960D02*
X20264120Y38541960D01*
X18994120Y31937960D02*
X23820120Y31937960D01*
X23820120Y31937960D02*
X23820120Y34731960D01*
X18994120Y42605960D02*
X23820120Y42605960D01*
X23820120Y42605960D02*
X23820120Y39811960D01*
X18994120Y42605960D02*
X18994120Y31937960D01*
X26741120Y23047960D02*
X24709120Y23047960D01*
X26741120Y22031960D02*
X24709120Y22031960D01*
X26741120Y15427960D02*
X24709120Y15427960D01*
X26741120Y14411960D02*
X24709120Y14411960D01*
X21153120Y13395960D02*
X21153120Y14919960D01*
X21153120Y24063960D02*
X21153120Y19999960D01*
X19883120Y13395960D02*
X24709120Y13395960D01*
X24709120Y13395960D02*
X24709120Y16189960D01*
X19883120Y24063960D02*
X24709120Y24063960D01*
X24709120Y24063960D02*
X24709120Y21269960D01*
X19883120Y24063960D02*
X19883120Y13395960D01*
D16*
X22341120Y47819960D02*
G75*
G03X22341120Y47819960I-300000J0D01*
G01*
D17*
X19756120Y43894960D02*
X19756120Y44569960D01*
X21026120Y43894960D02*
X21026120Y44569960D01*
X22296120Y43894960D02*
X22296120Y44569960D01*
X18486120Y43894960D02*
X18486120Y44569960D01*
X18486120Y48769960D02*
X18486120Y49444960D01*
X22296120Y48769960D02*
X22296120Y49444960D01*
X21026120Y48769960D02*
X21026120Y49444960D01*
X19756120Y48769960D02*
X19756120Y49444960D01*
D16*
X22841120Y44719960D02*
X17941120Y44719960D01*
X17941120Y44719960D02*
X17941120Y48619960D01*
X17941120Y48619960D02*
X22841120Y48619960D01*
X22841120Y48619960D02*
X22841120Y44719960D01*
D13*
X53967380Y42351960D02*
G75*
G03X53967380Y42351960I-5001260J0D01*
G01*
X48966120Y48351440D02*
X53967380Y48351440D01*
X53967380Y48351440D02*
X54965600Y47353220D01*
X54965600Y47353220D02*
X54965600Y37350700D01*
X54965600Y37350700D02*
X53967380Y36352480D01*
X53967380Y36352480D02*
X43964860Y36352480D01*
X43964860Y36352480D02*
X42966640Y37350700D01*
X42966640Y37350700D02*
X42966640Y47353220D01*
X42966640Y47353220D02*
X43964860Y48351440D01*
X43964860Y48351440D02*
X48966120Y48351440D01*
D10*
X69515120Y50479960D02*
X69515120Y51495960D01*
X68041120Y50479960D02*
X68041120Y51495960D01*
X69515120Y51495960D02*
G75*
G03X68041120Y51495960I-737000J0D01*
G01*
X68041120Y50479960D02*
G75*
G03X69515120Y50479960I737000J0D01*
G01*
X72055120Y50479960D02*
X72055120Y51495960D01*
X70581120Y50479960D02*
X70581120Y51495960D01*
X72055120Y51495960D02*
G75*
G03X70581120Y51495960I-737000J0D01*
G01*
X70581120Y50479960D02*
G75*
G03X72055120Y50479960I737000J0D01*
G01*
X74595120Y50479960D02*
X74595120Y51495960D01*
X73121120Y50479960D02*
X73121120Y51495960D01*
X74595120Y51495960D02*
G75*
G03X73121120Y51495960I-737000J0D01*
G01*
X73121120Y50479960D02*
G75*
G03X74595120Y50479960I737000J0D01*
G01*
X77135120Y50479960D02*
X77135120Y51495960D01*
X75661120Y50479960D02*
X75661120Y51495960D01*
X77135120Y51495960D02*
G75*
G03X75661120Y51495960I-737000J0D01*
G01*
X75661120Y50479960D02*
G75*
G03X77135120Y50479960I737000J0D01*
G01*
X79675120Y50479960D02*
X79675120Y51495960D01*
X78201120Y50479960D02*
X78201120Y51495960D01*
X79675120Y51495960D02*
G75*
G03X78201120Y51495960I-737000J0D01*
G01*
X78201120Y50479960D02*
G75*
G03X79675120Y50479960I737000J0D01*
G01*
X82215120Y50479960D02*
X82215120Y51495960D01*
X80741120Y50479960D02*
X80741120Y51495960D01*
X82215120Y51495960D02*
G75*
G03X80741120Y51495960I-737000J0D01*
G01*
X80741120Y50479960D02*
G75*
G03X82215120Y50479960I737000J0D01*
G01*
X84755120Y50479960D02*
X84755120Y51495960D01*
X83281120Y50479960D02*
X83281120Y51495960D01*
X84755120Y51495960D02*
G75*
G03X83281120Y51495960I-737000J0D01*
G01*
X83281120Y50479960D02*
G75*
G03X84755120Y50479960I737000J0D01*
G01*
X87295120Y50479960D02*
X87295120Y51495960D01*
X85821120Y50479960D02*
X85821120Y51495960D01*
X87295120Y51495960D02*
G75*
G03X85821120Y51495960I-737000J0D01*
G01*
X85821120Y50479960D02*
G75*
G03X87295120Y50479960I737000J0D01*
G01*
X92375120Y2219960D02*
X92375120Y3235960D01*
X90901120Y2219960D02*
X90901120Y3235960D01*
X92375120Y3235960D02*
G75*
G03X90901120Y3235960I-737000J0D01*
G01*
X90901120Y2219960D02*
G75*
G03X92375120Y2219960I737000J0D01*
G01*
X89835120Y2219960D02*
X89835120Y3235960D01*
X88361120Y2219960D02*
X88361120Y3235960D01*
X89835120Y3235960D02*
G75*
G03X88361120Y3235960I-737000J0D01*
G01*
X88361120Y2219960D02*
G75*
G03X89835120Y2219960I737000J0D01*
G01*
X87295120Y2219960D02*
X87295120Y3235960D01*
X85821120Y2219960D02*
X85821120Y3235960D01*
X87295120Y3235960D02*
G75*
G03X85821120Y3235960I-737000J0D01*
G01*
X85821120Y2219960D02*
G75*
G03X87295120Y2219960I737000J0D01*
G01*
X84755120Y2219960D02*
X84755120Y3235960D01*
X83281120Y2219960D02*
X83281120Y3235960D01*
X84755120Y3235960D02*
G75*
G03X83281120Y3235960I-737000J0D01*
G01*
X83281120Y2219960D02*
G75*
G03X84755120Y2219960I737000J0D01*
G01*
X74595120Y2219960D02*
X74595120Y3235960D01*
X73121120Y2219960D02*
X73121120Y3235960D01*
X74595120Y3235960D02*
G75*
G03X73121120Y3235960I-737000J0D01*
G01*
X73121120Y2219960D02*
G75*
G03X74595120Y2219960I737000J0D01*
G01*
X69515120Y2219960D02*
X69515120Y3235960D01*
X68041120Y2219960D02*
X68041120Y3235960D01*
X69515120Y3235960D02*
G75*
G03X68041120Y3235960I-737000J0D01*
G01*
X68041120Y2219960D02*
G75*
G03X69515120Y2219960I737000J0D01*
G01*
X66975120Y2219960D02*
X66975120Y3235960D01*
X65501120Y2219960D02*
X65501120Y3235960D01*
X66975120Y3235960D02*
G75*
G03X65501120Y3235960I-737000J0D01*
G01*
X65501120Y2219960D02*
G75*
G03X66975120Y2219960I737000J0D01*
G01*
X77135120Y2219960D02*
X77135120Y3235960D01*
X75661120Y2219960D02*
X75661120Y3235960D01*
X77135120Y3235960D02*
G75*
G03X75661120Y3235960I-737000J0D01*
G01*
X75661120Y2219960D02*
G75*
G03X77135120Y2219960I737000J0D01*
G01*
X79675120Y2219960D02*
X79675120Y3235960D01*
X78201120Y2219960D02*
X78201120Y3235960D01*
X79675120Y3235960D02*
G75*
G03X78201120Y3235960I-737000J0D01*
G01*
X78201120Y2219960D02*
G75*
G03X79675120Y2219960I737000J0D01*
G01*
X82215120Y2219960D02*
X82215120Y3235960D01*
X80741120Y2219960D02*
X80741120Y3235960D01*
X82215120Y3235960D02*
G75*
G03X80741120Y3235960I-737000J0D01*
G01*
X80741120Y2219960D02*
G75*
G03X82215120Y2219960I737000J0D01*
G01*
X64435120Y2219960D02*
X64435120Y3235960D01*
X62961120Y2219960D02*
X62961120Y3235960D01*
X64435120Y3235960D02*
G75*
G03X62961120Y3235960I-737000J0D01*
G01*
X62961120Y2219960D02*
G75*
G03X64435120Y2219960I737000J0D01*
G01*
X61895120Y2219960D02*
X61895120Y3235960D01*
X60421120Y2219960D02*
X60421120Y3235960D01*
X61895120Y3235960D02*
G75*
G03X60421120Y3235960I-737000J0D01*
G01*
X60421120Y2219960D02*
G75*
G03X61895120Y2219960I737000J0D01*
G01*
X59355120Y2219960D02*
X59355120Y3235960D01*
X57881120Y2219960D02*
X57881120Y3235960D01*
X59355120Y3235960D02*
G75*
G03X57881120Y3235960I-737000J0D01*
G01*
X57881120Y2219960D02*
G75*
G03X59355120Y2219960I737000J0D01*
G01*
X51735120Y2219960D02*
X51735120Y3235960D01*
X50261120Y2219960D02*
X50261120Y3235960D01*
X51735120Y3235960D02*
G75*
G03X50261120Y3235960I-737000J0D01*
G01*
X50261120Y2219960D02*
G75*
G03X51735120Y2219960I737000J0D01*
G01*
X54275120Y2219960D02*
X54275120Y3235960D01*
X52801120Y2219960D02*
X52801120Y3235960D01*
X54275120Y3235960D02*
G75*
G03X52801120Y3235960I-737000J0D01*
G01*
X52801120Y2219960D02*
G75*
G03X54275120Y2219960I737000J0D01*
G01*
X56815120Y2219960D02*
X56815120Y3235960D01*
X55341120Y2219960D02*
X55341120Y3235960D01*
X56815120Y3235960D02*
G75*
G03X55341120Y3235960I-737000J0D01*
G01*
X55341120Y2219960D02*
G75*
G03X56815120Y2219960I737000J0D01*
G01*
X46655120Y2219960D02*
X46655120Y3235960D01*
X45181120Y2219960D02*
X45181120Y3235960D01*
X46655120Y3235960D02*
G75*
G03X45181120Y3235960I-737000J0D01*
G01*
X45181120Y2219960D02*
G75*
G03X46655120Y2219960I737000J0D01*
G01*
X44115120Y2219960D02*
X44115120Y3235960D01*
X42641120Y2219960D02*
X42641120Y3235960D01*
X44115120Y3235960D02*
G75*
G03X42641120Y3235960I-737000J0D01*
G01*
X42641120Y2219960D02*
G75*
G03X44115120Y2219960I737000J0D01*
G01*
X41575120Y2219960D02*
X41575120Y3235960D01*
X40101120Y2219960D02*
X40101120Y3235960D01*
X41575120Y3235960D02*
G75*
G03X40101120Y3235960I-737000J0D01*
G01*
X40101120Y2219960D02*
G75*
G03X41575120Y2219960I737000J0D01*
G01*
X36495120Y2219960D02*
X36495120Y3235960D01*
X35021120Y2219960D02*
X35021120Y3235960D01*
X36495120Y3235960D02*
G75*
G03X35021120Y3235960I-737000J0D01*
G01*
X35021120Y2219960D02*
G75*
G03X36495120Y2219960I737000J0D01*
G01*
X33955120Y2219960D02*
X33955120Y3235960D01*
X32481120Y2219960D02*
X32481120Y3235960D01*
X33955120Y3235960D02*
G75*
G03X32481120Y3235960I-737000J0D01*
G01*
X32481120Y2219960D02*
G75*
G03X33955120Y2219960I737000J0D01*
G01*
X64435120Y50479960D02*
X64435120Y51495960D01*
X62961120Y50479960D02*
X62961120Y51495960D01*
X64435120Y51495960D02*
G75*
G03X62961120Y51495960I-737000J0D01*
G01*
X62961120Y50479960D02*
G75*
G03X64435120Y50479960I737000J0D01*
G01*
X61895120Y50479960D02*
X61895120Y51495960D01*
X60421120Y50479960D02*
X60421120Y51495960D01*
X61895120Y51495960D02*
G75*
G03X60421120Y51495960I-737000J0D01*
G01*
X60421120Y50479960D02*
G75*
G03X61895120Y50479960I737000J0D01*
G01*
X59355120Y50479960D02*
X59355120Y51495960D01*
X57881120Y50479960D02*
X57881120Y51495960D01*
X59355120Y51495960D02*
G75*
G03X57881120Y51495960I-737000J0D01*
G01*
X57881120Y50479960D02*
G75*
G03X59355120Y50479960I737000J0D01*
G01*
X56815120Y50479960D02*
X56815120Y51495960D01*
X55341120Y50479960D02*
X55341120Y51495960D01*
X56815120Y51495960D02*
G75*
G03X55341120Y51495960I-737000J0D01*
G01*
X55341120Y50479960D02*
G75*
G03X56815120Y50479960I737000J0D01*
G01*
X54275120Y50479960D02*
X54275120Y51495960D01*
X52801120Y50479960D02*
X52801120Y51495960D01*
X54275120Y51495960D02*
G75*
G03X52801120Y51495960I-737000J0D01*
G01*
X52801120Y50479960D02*
G75*
G03X54275120Y50479960I737000J0D01*
G01*
X51735120Y50479960D02*
X51735120Y51495960D01*
X50261120Y50479960D02*
X50261120Y51495960D01*
X51735120Y51495960D02*
G75*
G03X50261120Y51495960I-737000J0D01*
G01*
X50261120Y50479960D02*
G75*
G03X51735120Y50479960I737000J0D01*
G01*
X49195120Y50479960D02*
X49195120Y51495960D01*
X47721120Y50479960D02*
X47721120Y51495960D01*
X49195120Y51495960D02*
G75*
G03X47721120Y51495960I-737000J0D01*
G01*
X47721120Y50479960D02*
G75*
G03X49195120Y50479960I737000J0D01*
G01*
X46655120Y50479960D02*
X46655120Y51495960D01*
X45181120Y50479960D02*
X45181120Y51495960D01*
X46655120Y51495960D02*
G75*
G03X45181120Y51495960I-737000J0D01*
G01*
X45181120Y50479960D02*
G75*
G03X46655120Y50479960I737000J0D01*
G01*
X42591120Y50479960D02*
X42591120Y51495960D01*
X41117120Y50479960D02*
X41117120Y51495960D01*
X42591120Y51495960D02*
G75*
G03X41117120Y51495960I-737000J0D01*
G01*
X41117120Y50479960D02*
G75*
G03X42591120Y50479960I737000J0D01*
G01*
X40051120Y50479960D02*
X40051120Y51495960D01*
X38577120Y50479960D02*
X38577120Y51495960D01*
X40051120Y51495960D02*
G75*
G03X38577120Y51495960I-737000J0D01*
G01*
X38577120Y50479960D02*
G75*
G03X40051120Y50479960I737000J0D01*
G01*
X37511120Y50479960D02*
X37511120Y51495960D01*
X36037120Y50479960D02*
X36037120Y51495960D01*
X37511120Y51495960D02*
G75*
G03X36037120Y51495960I-737000J0D01*
G01*
X36037120Y50479960D02*
G75*
G03X37511120Y50479960I737000J0D01*
G01*
X34971120Y50479960D02*
X34971120Y51495960D01*
X33497120Y50479960D02*
X33497120Y51495960D01*
X34971120Y51495960D02*
G75*
G03X33497120Y51495960I-737000J0D01*
G01*
X33497120Y50479960D02*
G75*
G03X34971120Y50479960I737000J0D01*
G01*
X32431120Y50479960D02*
X32431120Y51495960D01*
X30957120Y50479960D02*
X30957120Y51495960D01*
X32431120Y51495960D02*
G75*
G03X30957120Y51495960I-737000J0D01*
G01*
X30957120Y50479960D02*
G75*
G03X32431120Y50479960I737000J0D01*
G01*
X29891120Y50479960D02*
X29891120Y51495960D01*
X28417120Y50479960D02*
X28417120Y51495960D01*
X29891120Y51495960D02*
G75*
G03X28417120Y51495960I-737000J0D01*
G01*
X28417120Y50479960D02*
G75*
G03X29891120Y50479960I737000J0D01*
G01*
X27351120Y50479960D02*
X27351120Y51495960D01*
X25877120Y50479960D02*
X25877120Y51495960D01*
X27351120Y51495960D02*
G75*
G03X25877120Y51495960I-737000J0D01*
G01*
X25877120Y50479960D02*
G75*
G03X27351120Y50479960I737000J0D01*
G01*
X24811120Y50479960D02*
X24811120Y51495960D01*
X23337120Y50479960D02*
X23337120Y51495960D01*
X24811120Y51495960D02*
G75*
G03X23337120Y51495960I-737000J0D01*
G01*
X23337120Y50479960D02*
G75*
G03X24811120Y50479960I737000J0D01*
G01*
X39035120Y2219960D02*
X39035120Y3235960D01*
X37561120Y2219960D02*
X37561120Y3235960D01*
X39035120Y3235960D02*
G75*
G03X37561120Y3235960I-737000J0D01*
G01*
X37561120Y2219960D02*
G75*
G03X39035120Y2219960I737000J0D01*
G01*
X94915120Y48447960D02*
G75*
G03X94915120Y48447960I-737000J0D01*
G01*
X97455120Y48447960D02*
G75*
G03X97455120Y48447960I-737000J0D01*
G01*
X94915120Y45907960D02*
G75*
G03X94915120Y45907960I-737000J0D01*
G01*
X97455120Y45907960D02*
G75*
G03X97455120Y45907960I-737000J0D01*
G01*
X94915120Y43367960D02*
G75*
G03X94915120Y43367960I-737000J0D01*
G01*
X97455120Y43367960D02*
G75*
G03X97455120Y43367960I-737000J0D01*
G01*
X94915120Y40827960D02*
G75*
G03X94915120Y40827960I-737000J0D01*
G01*
X97455120Y40827960D02*
G75*
G03X97455120Y40827960I-737000J0D01*
G01*
X94915120Y50987960D02*
G75*
G03X94915120Y50987960I-737000J0D01*
G01*
X97455120Y50987960D02*
G75*
G03X97455120Y50987960I-737000J0D01*
G01*
X97455120Y38287960D02*
G75*
G03X97455120Y38287960I-737000J0D01*
G01*
X94915120Y38287960D02*
G75*
G03X94915120Y38287960I-737000J0D01*
G01*
X94915120Y35747960D02*
G75*
G03X94915120Y35747960I-737000J0D01*
G01*
X97455120Y35747960D02*
G75*
G03X97455120Y35747960I-737000J0D01*
G01*
X94915120Y33207960D02*
G75*
G03X94915120Y33207960I-737000J0D01*
G01*
X97455120Y33207960D02*
G75*
G03X97455120Y33207960I-737000J0D01*
G01*
X94915120Y30667960D02*
G75*
G03X94915120Y30667960I-737000J0D01*
G01*
X97455120Y30667960D02*
G75*
G03X97455120Y30667960I-737000J0D01*
G01*
X94915120Y28127960D02*
G75*
G03X94915120Y28127960I-737000J0D01*
G01*
X97455120Y28127960D02*
G75*
G03X97455120Y28127960I-737000J0D01*
G01*
X94915120Y25587960D02*
G75*
G03X94915120Y25587960I-737000J0D01*
G01*
X97455120Y25587960D02*
G75*
G03X97455120Y25587960I-737000J0D01*
G01*
X94915120Y23047960D02*
G75*
G03X94915120Y23047960I-737000J0D01*
G01*
X97455120Y23047960D02*
G75*
G03X97455120Y23047960I-737000J0D01*
G01*
X94915120Y20507960D02*
G75*
G03X94915120Y20507960I-737000J0D01*
G01*
X97455120Y20507960D02*
G75*
G03X97455120Y20507960I-737000J0D01*
G01*
X94915120Y17967960D02*
G75*
G03X94915120Y17967960I-737000J0D01*
G01*
X97455120Y17967960D02*
G75*
G03X97455120Y17967960I-737000J0D01*
G01*
X94915120Y15427960D02*
G75*
G03X94915120Y15427960I-737000J0D01*
G01*
X97455120Y15427960D02*
G75*
G03X97455120Y15427960I-737000J0D01*
G01*
X94915120Y12887960D02*
G75*
G03X94915120Y12887960I-737000J0D01*
G01*
X97455120Y12887960D02*
G75*
G03X97455120Y12887960I-737000J0D01*
G01*
X94915120Y10347960D02*
G75*
G03X94915120Y10347960I-737000J0D01*
G01*
X97455120Y10347960D02*
G75*
G03X97455120Y10347960I-737000J0D01*
G01*
X94915120Y7807960D02*
G75*
G03X94915120Y7807960I-737000J0D01*
G01*
X97455120Y7807960D02*
G75*
G03X97455120Y7807960I-737000J0D01*
G01*
X15094120Y29778960D02*
G75*
G03X15094120Y29778960I-625000J0D01*
G01*
X10522120Y9839960D02*
G75*
G03X10522120Y9839960I-625000J0D01*
G01*
X9760120Y39811960D02*
G75*
G03X9760120Y39811960I-625000J0D01*
G01*
X16364120Y18983960D02*
G75*
G03X16364120Y18983960I-625000J0D01*
G01*
X15224120Y41509960D02*
G75*
G03X15224120Y41509960I-675000J0D01*
G01*
X16240120Y6871960D02*
G75*
G03X16240120Y6871960I-675000J0D01*
G01*
X49283120Y25159960D02*
G75*
G03X49283120Y25159960I-825000J0D01*
G01*
X49791120Y10935960D02*
G75*
G03X49791120Y10935960I-825000J0D01*
G01*
X58531920Y45025560D02*
G75*
G03X58531920Y45025560I-625000J0D01*
G01*
X20046550Y28982670D02*
X20046550Y27984450D01*
X21497690Y28982670D02*
X21497690Y27984450D01*
X20046550Y27984450D02*
G75*
G03X21497690Y27984450I725570J0D01*
G01*
X21497690Y28982670D02*
G75*
G03X20046550Y28982670I-725570J0D01*
G01*
X21316550Y10910570D02*
X21316550Y9912350D01*
X22767690Y10910570D02*
X22767690Y9912350D01*
X21316550Y9912350D02*
G75*
G03X22767690Y9912350I725570J0D01*
G01*
X22767690Y10910570D02*
G75*
G03X21316550Y10910570I-725570J0D01*
G01*
X57754520Y31506560D02*
X57449720Y31506560D01*
X57754520Y29829360D02*
X57449720Y29829360D01*
X57449720Y31506560D02*
G75*
G03X57449720Y29829360I0J-838600D01*
G01*
X57754520Y29829360D02*
G75*
G03X57754520Y31506560I0J838600D01*
G01*
X57754520Y34046560D02*
X57449720Y34046560D01*
X57754520Y32369360D02*
X57449720Y32369360D01*
X57449720Y34046560D02*
G75*
G03X57449720Y32369360I0J-838600D01*
G01*
X57754520Y32369360D02*
G75*
G03X57754520Y34046560I0J838600D01*
G01*
X61310520Y31506560D02*
X61005720Y31506560D01*
X61310520Y29829360D02*
X61005720Y29829360D01*
X61005720Y31506560D02*
G75*
G03X61005720Y29829360I0J-838600D01*
G01*
X61310520Y29829360D02*
G75*
G03X61310520Y31506560I0J838600D01*
G01*
X61310520Y34046560D02*
X61005720Y34046560D01*
X61310520Y32369360D02*
X61005720Y32369360D01*
X61005720Y34046560D02*
G75*
G03X61005720Y32369360I0J-838600D01*
G01*
X61310520Y32369360D02*
G75*
G03X61310520Y34046560I0J838600D01*
G01*
X64866520Y31506560D02*
X64561720Y31506560D01*
X64866520Y29829360D02*
X64561720Y29829360D01*
X64561720Y31506560D02*
G75*
G03X64561720Y29829360I0J-838600D01*
G01*
X64866520Y29829360D02*
G75*
G03X64866520Y31506560I0J838600D01*
G01*
X64866520Y34046560D02*
X64561720Y34046560D01*
X64866520Y32369360D02*
X64561720Y32369360D01*
X64561720Y34046560D02*
G75*
G03X64561720Y32369360I0J-838600D01*
G01*
X64866520Y32369360D02*
G75*
G03X64866520Y34046560I0J838600D01*
G01*
X68422520Y31506560D02*
X68117720Y31506560D01*
X68422520Y29829360D02*
X68117720Y29829360D01*
X68117720Y31506560D02*
G75*
G03X68117720Y29829360I0J-838600D01*
G01*
X68422520Y29829360D02*
G75*
G03X68422520Y31506560I0J838600D01*
G01*
X68422520Y34046560D02*
X68117720Y34046560D01*
X68422520Y32369360D02*
X68117720Y32369360D01*
X68117720Y34046560D02*
G75*
G03X68117720Y32369360I0J-838600D01*
G01*
X68422520Y32369360D02*
G75*
G03X68422520Y34046560I0J838600D01*
G01*
X71978520Y31506560D02*
X71673720Y31506560D01*
X71978520Y29829360D02*
X71673720Y29829360D01*
X71673720Y31506560D02*
G75*
G03X71673720Y29829360I0J-838600D01*
G01*
X71978520Y29829360D02*
G75*
G03X71978520Y31506560I0J838600D01*
G01*
X71978520Y34046560D02*
X71673720Y34046560D01*
X71978520Y32369360D02*
X71673720Y32369360D01*
X71673720Y34046560D02*
G75*
G03X71673720Y32369360I0J-838600D01*
G01*
X71978520Y32369360D02*
G75*
G03X71978520Y34046560I0J838600D01*
G01*
X75534520Y31506560D02*
X75229720Y31506560D01*
X75534520Y29829360D02*
X75229720Y29829360D01*
X75229720Y31506560D02*
G75*
G03X75229720Y29829360I0J-838600D01*
G01*
X75534520Y29829360D02*
G75*
G03X75534520Y31506560I0J838600D01*
G01*
X75534520Y34046560D02*
X75229720Y34046560D01*
X75534520Y32369360D02*
X75229720Y32369360D01*
X75229720Y34046560D02*
G75*
G03X75229720Y32369360I0J-838600D01*
G01*
X75534520Y32369360D02*
G75*
G03X75534520Y34046560I0J838600D01*
G01*
X79090520Y31506560D02*
X78785720Y31506560D01*
X79090520Y29829360D02*
X78785720Y29829360D01*
X78785720Y31506560D02*
G75*
G03X78785720Y29829360I0J-838600D01*
G01*
X79090520Y29829360D02*
G75*
G03X79090520Y31506560I0J838600D01*
G01*
X79090520Y34046560D02*
X78785720Y34046560D01*
X79090520Y32369360D02*
X78785720Y32369360D01*
X78785720Y34046560D02*
G75*
G03X78785720Y32369360I0J-838600D01*
G01*
X79090520Y32369360D02*
G75*
G03X79090520Y34046560I0J838600D01*
G01*
X82646520Y31506560D02*
X82341720Y31506560D01*
X82646520Y29829360D02*
X82341720Y29829360D01*
X82341720Y31506560D02*
G75*
G03X82341720Y29829360I0J-838600D01*
G01*
X82646520Y29829360D02*
G75*
G03X82646520Y31506560I0J838600D01*
G01*
X82646520Y34046560D02*
X82341720Y34046560D01*
X82646520Y32369360D02*
X82341720Y32369360D01*
X82341720Y34046560D02*
G75*
G03X82341720Y32369360I0J-838600D01*
G01*
X82646520Y32369360D02*
G75*
G03X82646520Y34046560I0J838600D01*
G01*
X86202520Y31506560D02*
X85897720Y31506560D01*
X86202520Y29829360D02*
X85897720Y29829360D01*
X85897720Y31506560D02*
G75*
G03X85897720Y29829360I0J-838600D01*
G01*
X86202520Y29829360D02*
G75*
G03X86202520Y31506560I0J838600D01*
G01*
X86202520Y34046560D02*
X85897720Y34046560D01*
X86202520Y32369360D02*
X85897720Y32369360D01*
X85897720Y34046560D02*
G75*
G03X85897720Y32369360I0J-838600D01*
G01*
X86202520Y32369360D02*
G75*
G03X86202520Y34046560I0J838600D01*
G01*
X57449720Y21193360D02*
X57754520Y21193360D01*
X57449720Y22870560D02*
X57754520Y22870560D01*
X57754520Y21193360D02*
G75*
G03X57754520Y22870560I0J838600D01*
G01*
X57449720Y22870560D02*
G75*
G03X57449720Y21193360I0J-838600D01*
G01*
X57449720Y18653360D02*
X57754520Y18653360D01*
X57449720Y20330560D02*
X57754520Y20330560D01*
X57754520Y18653360D02*
G75*
G03X57754520Y20330560I0J838600D01*
G01*
X57449720Y20330560D02*
G75*
G03X57449720Y18653360I0J-838600D01*
G01*
X61005720Y21193360D02*
X61310520Y21193360D01*
X61005720Y22870560D02*
X61310520Y22870560D01*
X61310520Y21193360D02*
G75*
G03X61310520Y22870560I0J838600D01*
G01*
X61005720Y22870560D02*
G75*
G03X61005720Y21193360I0J-838600D01*
G01*
X61005720Y18653360D02*
X61310520Y18653360D01*
X61005720Y20330560D02*
X61310520Y20330560D01*
X61310520Y18653360D02*
G75*
G03X61310520Y20330560I0J838600D01*
G01*
X61005720Y20330560D02*
G75*
G03X61005720Y18653360I0J-838600D01*
G01*
X64561720Y21193360D02*
X64866520Y21193360D01*
X64561720Y22870560D02*
X64866520Y22870560D01*
X64866520Y21193360D02*
G75*
G03X64866520Y22870560I0J838600D01*
G01*
X64561720Y22870560D02*
G75*
G03X64561720Y21193360I0J-838600D01*
G01*
X64561720Y18653360D02*
X64866520Y18653360D01*
X64561720Y20330560D02*
X64866520Y20330560D01*
X64866520Y18653360D02*
G75*
G03X64866520Y20330560I0J838600D01*
G01*
X64561720Y20330560D02*
G75*
G03X64561720Y18653360I0J-838600D01*
G01*
X68117720Y21193360D02*
X68422520Y21193360D01*
X68117720Y22870560D02*
X68422520Y22870560D01*
X68422520Y21193360D02*
G75*
G03X68422520Y22870560I0J838600D01*
G01*
X68117720Y22870560D02*
G75*
G03X68117720Y21193360I0J-838600D01*
G01*
X68117720Y18653360D02*
X68422520Y18653360D01*
X68117720Y20330560D02*
X68422520Y20330560D01*
X68422520Y18653360D02*
G75*
G03X68422520Y20330560I0J838600D01*
G01*
X68117720Y20330560D02*
G75*
G03X68117720Y18653360I0J-838600D01*
G01*
X71673720Y21193360D02*
X71978520Y21193360D01*
X71673720Y22870560D02*
X71978520Y22870560D01*
X71978520Y21193360D02*
G75*
G03X71978520Y22870560I0J838600D01*
G01*
X71673720Y22870560D02*
G75*
G03X71673720Y21193360I0J-838600D01*
G01*
X71673720Y18653360D02*
X71978520Y18653360D01*
X71673720Y20330560D02*
X71978520Y20330560D01*
X71978520Y18653360D02*
G75*
G03X71978520Y20330560I0J838600D01*
G01*
X71673720Y20330560D02*
G75*
G03X71673720Y18653360I0J-838600D01*
G01*
X75229720Y21193360D02*
X75534520Y21193360D01*
X75229720Y22870560D02*
X75534520Y22870560D01*
X75534520Y21193360D02*
G75*
G03X75534520Y22870560I0J838600D01*
G01*
X75229720Y22870560D02*
G75*
G03X75229720Y21193360I0J-838600D01*
G01*
X75229720Y18653360D02*
X75534520Y18653360D01*
X75229720Y20330560D02*
X75534520Y20330560D01*
X75534520Y18653360D02*
G75*
G03X75534520Y20330560I0J838600D01*
G01*
X75229720Y20330560D02*
G75*
G03X75229720Y18653360I0J-838600D01*
G01*
X78785720Y21193360D02*
X79090520Y21193360D01*
X78785720Y22870560D02*
X79090520Y22870560D01*
X79090520Y21193360D02*
G75*
G03X79090520Y22870560I0J838600D01*
G01*
X78785720Y22870560D02*
G75*
G03X78785720Y21193360I0J-838600D01*
G01*
X78785720Y18653360D02*
X79090520Y18653360D01*
X78785720Y20330560D02*
X79090520Y20330560D01*
X79090520Y18653360D02*
G75*
G03X79090520Y20330560I0J838600D01*
G01*
X78785720Y20330560D02*
G75*
G03X78785720Y18653360I0J-838600D01*
G01*
X82341720Y21193360D02*
X82646520Y21193360D01*
X82341720Y22870560D02*
X82646520Y22870560D01*
X82646520Y21193360D02*
G75*
G03X82646520Y22870560I0J838600D01*
G01*
X82341720Y22870560D02*
G75*
G03X82341720Y21193360I0J-838600D01*
G01*
X82341720Y18653360D02*
X82646520Y18653360D01*
X82341720Y20330560D02*
X82646520Y20330560D01*
X82646520Y18653360D02*
G75*
G03X82646520Y20330560I0J838600D01*
G01*
X82341720Y20330560D02*
G75*
G03X82341720Y18653360I0J-838600D01*
G01*
X85897720Y21193360D02*
X86202520Y21193360D01*
X85897720Y22870560D02*
X86202520Y22870560D01*
X86202520Y21193360D02*
G75*
G03X86202520Y22870560I0J838600D01*
G01*
X85897720Y22870560D02*
G75*
G03X85897720Y21193360I0J-838600D01*
G01*
X85897720Y18653360D02*
X86202520Y18653360D01*
X85897720Y20330560D02*
X86202520Y20330560D01*
X86202520Y18653360D02*
G75*
G03X86202520Y20330560I0J838600D01*
G01*
X85897720Y20330560D02*
G75*
G03X85897720Y18653360I0J-838600D01*
G01*
X79115520Y46517560D02*
X79115520Y46212760D01*
X80792720Y46517560D02*
X80792720Y46212760D01*
X79115520Y46212760D02*
G75*
G03X80792720Y46212760I838600J0D01*
G01*
X80792720Y46517560D02*
G75*
G03X79115520Y46517560I-838600J0D01*
G01*
X76575520Y46517560D02*
X76575520Y46212760D01*
X78252720Y46517560D02*
X78252720Y46212760D01*
X76575520Y46212760D02*
G75*
G03X78252720Y46212760I838600J0D01*
G01*
X78252720Y46517560D02*
G75*
G03X76575520Y46517560I-838600J0D01*
G01*
X74035520Y46517560D02*
X74035520Y46212760D01*
X75712720Y46517560D02*
X75712720Y46212760D01*
X74035520Y46212760D02*
G75*
G03X75712720Y46212760I838600J0D01*
G01*
X75712720Y46517560D02*
G75*
G03X74035520Y46517560I-838600J0D01*
G01*
X71495520Y46517560D02*
X71495520Y46212760D01*
X73172720Y46517560D02*
X73172720Y46212760D01*
X71495520Y46212760D02*
G75*
G03X73172720Y46212760I838600J0D01*
G01*
X73172720Y46517560D02*
G75*
G03X71495520Y46517560I-838600J0D01*
G01*
X78607520Y42631360D02*
X78607520Y42326560D01*
X80284720Y42631360D02*
X80284720Y42326560D01*
X78607520Y42326560D02*
G75*
G03X80284720Y42326560I838600J0D01*
G01*
X80284720Y42631360D02*
G75*
G03X78607520Y42631360I-838600J0D01*
G01*
X76067520Y42631360D02*
X76067520Y42326560D01*
X77744720Y42631360D02*
X77744720Y42326560D01*
X76067520Y42326560D02*
G75*
G03X77744720Y42326560I838600J0D01*
G01*
X77744720Y42631360D02*
G75*
G03X76067520Y42631360I-838600J0D01*
G01*
X73527520Y42631360D02*
X73527520Y42326560D01*
X75204720Y42631360D02*
X75204720Y42326560D01*
X73527520Y42326560D02*
G75*
G03X75204720Y42326560I838600J0D01*
G01*
X75204720Y42631360D02*
G75*
G03X73527520Y42631360I-838600J0D01*
G01*
X6015120Y20888960D02*
G75*
G03X6015120Y20888960I-2007000J0D01*
G01*
X5888120Y26222960D02*
G75*
G03X5888120Y26222960I-2007000J0D01*
G01*
X20581620Y36344460D02*
X20962620Y36344460D01*
X20581620Y38199460D02*
X20962620Y38199460D01*
X20962620Y36344460D02*
G75*
G03X20962620Y38199460I0J927500D01*
G01*
X20581620Y38199460D02*
G75*
G03X20581620Y36344460I0J-927500D01*
G01*
X20581620Y33804460D02*
X20962620Y33804460D01*
X20581620Y35659460D02*
X20962620Y35659460D01*
X20962620Y33804460D02*
G75*
G03X20962620Y35659460I0J927500D01*
G01*
X20581620Y35659460D02*
G75*
G03X20581620Y33804460I0J-927500D01*
G01*
X23121620Y35074460D02*
X23502620Y35074460D01*
X23121620Y36929460D02*
X23502620Y36929460D01*
X23502620Y35074460D02*
G75*
G03X23502620Y36929460I0J927500D01*
G01*
X23121620Y36929460D02*
G75*
G03X23121620Y35074460I0J-927500D01*
G01*
X23121620Y37614460D02*
X23502620Y37614460D01*
X23121620Y39469460D02*
X23502620Y39469460D01*
X23502620Y37614460D02*
G75*
G03X23502620Y39469460I0J927500D01*
G01*
X23121620Y39469460D02*
G75*
G03X23121620Y37614460I0J-927500D01*
G01*
X26931620Y40154460D02*
X27312620Y40154460D01*
X26931620Y42009460D02*
X27312620Y42009460D01*
X27312620Y40154460D02*
G75*
G03X27312620Y42009460I0J927500D01*
G01*
X26931620Y42009460D02*
G75*
G03X26931620Y40154460I0J-927500D01*
G01*
X26931620Y32534460D02*
X27312620Y32534460D01*
X26931620Y34389460D02*
X27312620Y34389460D01*
X27312620Y32534460D02*
G75*
G03X27312620Y34389460I0J927500D01*
G01*
X26931620Y34389460D02*
G75*
G03X26931620Y32534460I0J-927500D01*
G01*
X21470620Y17802460D02*
X21851620Y17802460D01*
X21470620Y19657460D02*
X21851620Y19657460D01*
X21851620Y17802460D02*
G75*
G03X21851620Y19657460I0J927500D01*
G01*
X21470620Y19657460D02*
G75*
G03X21470620Y17802460I0J-927500D01*
G01*
X21470620Y15262460D02*
X21851620Y15262460D01*
X21470620Y17117460D02*
X21851620Y17117460D01*
X21851620Y15262460D02*
G75*
G03X21851620Y17117460I0J927500D01*
G01*
X21470620Y17117460D02*
G75*
G03X21470620Y15262460I0J-927500D01*
G01*
X24010620Y16532460D02*
X24391620Y16532460D01*
X24010620Y18387460D02*
X24391620Y18387460D01*
X24391620Y16532460D02*
G75*
G03X24391620Y18387460I0J927500D01*
G01*
X24010620Y18387460D02*
G75*
G03X24010620Y16532460I0J-927500D01*
G01*
X24010620Y19072460D02*
X24391620Y19072460D01*
X24010620Y20927460D02*
X24391620Y20927460D01*
X24391620Y19072460D02*
G75*
G03X24391620Y20927460I0J927500D01*
G01*
X24010620Y20927460D02*
G75*
G03X24010620Y19072460I0J-927500D01*
G01*
X27820620Y21612460D02*
X28201620Y21612460D01*
X27820620Y23467460D02*
X28201620Y23467460D01*
X28201620Y21612460D02*
G75*
G03X28201620Y23467460I0J927500D01*
G01*
X27820620Y23467460D02*
G75*
G03X27820620Y21612460I0J-927500D01*
G01*
X27820620Y13992460D02*
X28201620Y13992460D01*
X27820620Y15847460D02*
X28201620Y15847460D01*
X28201620Y13992460D02*
G75*
G03X28201620Y15847460I0J927500D01*
G01*
X27820620Y15847460D02*
G75*
G03X27820620Y13992460I0J-927500D01*
G01*
D13*
X91684101Y34146265D02*
X90684101Y34146265D01*
X90684101Y34384360D01*
X90731720Y34527218D01*
X90826958Y34622456D01*
X90922196Y34670075D01*
X91112672Y34717694D01*
X91255530Y34717694D01*
X91446006Y34670075D01*
X91541244Y34622456D01*
X91636482Y34527218D01*
X91684101Y34384360D01*
X91684101Y34146265D01*
X91017434Y35574837D02*
X91684101Y35574837D01*
X90636482Y35336741D02*
X91350768Y35098646D01*
X91350768Y35717694D01*
X91734901Y23071865D02*
X90734901Y23071865D01*
X90734901Y23309960D01*
X90782520Y23452818D01*
X90877758Y23548056D01*
X90972996Y23595675D01*
X91163472Y23643294D01*
X91306330Y23643294D01*
X91496806Y23595675D01*
X91592044Y23548056D01*
X91687282Y23452818D01*
X91734901Y23309960D01*
X91734901Y23071865D01*
X90734901Y24548056D02*
X90734901Y24071865D01*
X91211091Y24024246D01*
X91163472Y24071865D01*
X91115853Y24167103D01*
X91115853Y24405199D01*
X91163472Y24500437D01*
X91211091Y24548056D01*
X91306330Y24595675D01*
X91544425Y24595675D01*
X91639663Y24548056D01*
X91687282Y24500437D01*
X91734901Y24405199D01*
X91734901Y24167103D01*
X91687282Y24071865D01*
X91639663Y24024246D01*
X11802454Y35721817D02*
X11754835Y35674198D01*
X11611978Y35626579D01*
X11516740Y35626579D01*
X11373882Y35674198D01*
X11278644Y35769436D01*
X11231025Y35864674D01*
X11183406Y36055150D01*
X11183406Y36198008D01*
X11231025Y36388484D01*
X11278644Y36483722D01*
X11373882Y36578960D01*
X11516740Y36626579D01*
X11611978Y36626579D01*
X11754835Y36578960D01*
X11802454Y36531341D01*
X12754835Y35626579D02*
X12183406Y35626579D01*
X12469120Y35626579D02*
X12469120Y36626579D01*
X12373882Y36483722D01*
X12278644Y36388484D01*
X12183406Y36340865D01*
X7230454Y15782817D02*
X7182835Y15735198D01*
X7039978Y15687579D01*
X6944740Y15687579D01*
X6801882Y15735198D01*
X6706644Y15830436D01*
X6659025Y15925674D01*
X6611406Y16116150D01*
X6611406Y16259008D01*
X6659025Y16449484D01*
X6706644Y16544722D01*
X6801882Y16639960D01*
X6944740Y16687579D01*
X7039978Y16687579D01*
X7182835Y16639960D01*
X7230454Y16592341D01*
X7611406Y16592341D02*
X7659025Y16639960D01*
X7754263Y16687579D01*
X7992359Y16687579D01*
X8087597Y16639960D01*
X8135216Y16592341D01*
X8182835Y16497103D01*
X8182835Y16401865D01*
X8135216Y16259008D01*
X7563787Y15687579D01*
X8182835Y15687579D01*
X6468454Y45754817D02*
X6420835Y45707198D01*
X6277978Y45659579D01*
X6182740Y45659579D01*
X6039882Y45707198D01*
X5944644Y45802436D01*
X5897025Y45897674D01*
X5849406Y46088150D01*
X5849406Y46231008D01*
X5897025Y46421484D01*
X5944644Y46516722D01*
X6039882Y46611960D01*
X6182740Y46659579D01*
X6277978Y46659579D01*
X6420835Y46611960D01*
X6468454Y46564341D01*
X6801787Y46659579D02*
X7420835Y46659579D01*
X7087501Y46278627D01*
X7230359Y46278627D01*
X7325597Y46231008D01*
X7373216Y46183389D01*
X7420835Y46088150D01*
X7420835Y45850055D01*
X7373216Y45754817D01*
X7325597Y45707198D01*
X7230359Y45659579D01*
X6944644Y45659579D01*
X6849406Y45707198D01*
X6801787Y45754817D01*
X13072454Y24926817D02*
X13024835Y24879198D01*
X12881978Y24831579D01*
X12786740Y24831579D01*
X12643882Y24879198D01*
X12548644Y24974436D01*
X12501025Y25069674D01*
X12453406Y25260150D01*
X12453406Y25403008D01*
X12501025Y25593484D01*
X12548644Y25688722D01*
X12643882Y25783960D01*
X12786740Y25831579D01*
X12881978Y25831579D01*
X13024835Y25783960D01*
X13072454Y25736341D01*
X13929597Y25498246D02*
X13929597Y24831579D01*
X13691501Y25879198D02*
X13453406Y25164912D01*
X14072454Y25164912D01*
X11406263Y38843294D02*
X11453882Y38795675D01*
X11501501Y38652818D01*
X11501501Y38557580D01*
X11453882Y38414722D01*
X11358644Y38319484D01*
X11263406Y38271865D01*
X11072930Y38224246D01*
X10930072Y38224246D01*
X10739596Y38271865D01*
X10644358Y38319484D01*
X10549120Y38414722D01*
X10501501Y38557580D01*
X10501501Y38652818D01*
X10549120Y38795675D01*
X10596739Y38843294D01*
X10501501Y39748056D02*
X10501501Y39271865D01*
X10977691Y39224246D01*
X10930072Y39271865D01*
X10882453Y39367103D01*
X10882453Y39605199D01*
X10930072Y39700437D01*
X10977691Y39748056D01*
X11072930Y39795675D01*
X11311025Y39795675D01*
X11406263Y39748056D01*
X11453882Y39700437D01*
X11501501Y39605199D01*
X11501501Y39367103D01*
X11453882Y39271865D01*
X11406263Y39224246D01*
X19422263Y9205294D02*
X19469882Y9157675D01*
X19517501Y9014818D01*
X19517501Y8919580D01*
X19469882Y8776722D01*
X19374644Y8681484D01*
X19279406Y8633865D01*
X19088930Y8586246D01*
X18946072Y8586246D01*
X18755596Y8633865D01*
X18660358Y8681484D01*
X18565120Y8776722D01*
X18517501Y8919580D01*
X18517501Y9014818D01*
X18565120Y9157675D01*
X18612739Y9205294D01*
X18517501Y10062437D02*
X18517501Y9871960D01*
X18565120Y9776722D01*
X18612739Y9729103D01*
X18755596Y9633865D01*
X18946072Y9586246D01*
X19327025Y9586246D01*
X19422263Y9633865D01*
X19469882Y9681484D01*
X19517501Y9776722D01*
X19517501Y9967199D01*
X19469882Y10062437D01*
X19422263Y10110056D01*
X19327025Y10157675D01*
X19088930Y10157675D01*
X18993691Y10110056D01*
X18946072Y10062437D01*
X18898453Y9967199D01*
X18898453Y9776722D01*
X18946072Y9681484D01*
X18993691Y9633865D01*
X19088930Y9586246D01*
X7143454Y44661817D02*
X7095835Y44614198D01*
X6952978Y44566579D01*
X6857740Y44566579D01*
X6714882Y44614198D01*
X6619644Y44709436D01*
X6572025Y44804674D01*
X6524406Y44995150D01*
X6524406Y45138008D01*
X6572025Y45328484D01*
X6619644Y45423722D01*
X6714882Y45518960D01*
X6857740Y45566579D01*
X6952978Y45566579D01*
X7095835Y45518960D01*
X7143454Y45471341D01*
X7476787Y45566579D02*
X8143454Y45566579D01*
X7714882Y44566579D01*
X26320454Y37290817D02*
X26272835Y37243198D01*
X26129978Y37195579D01*
X26034740Y37195579D01*
X25891882Y37243198D01*
X25796644Y37338436D01*
X25749025Y37433674D01*
X25701406Y37624150D01*
X25701406Y37767008D01*
X25749025Y37957484D01*
X25796644Y38052722D01*
X25891882Y38147960D01*
X26034740Y38195579D01*
X26129978Y38195579D01*
X26272835Y38147960D01*
X26320454Y38100341D01*
X26891882Y37767008D02*
X26796644Y37814627D01*
X26749025Y37862246D01*
X26701406Y37957484D01*
X26701406Y38005103D01*
X26749025Y38100341D01*
X26796644Y38147960D01*
X26891882Y38195579D01*
X27082359Y38195579D01*
X27177597Y38147960D01*
X27225216Y38100341D01*
X27272835Y38005103D01*
X27272835Y37957484D01*
X27225216Y37862246D01*
X27177597Y37814627D01*
X27082359Y37767008D01*
X26891882Y37767008D01*
X26796644Y37719389D01*
X26749025Y37671770D01*
X26701406Y37576531D01*
X26701406Y37386055D01*
X26749025Y37290817D01*
X26796644Y37243198D01*
X26891882Y37195579D01*
X27082359Y37195579D01*
X27177597Y37243198D01*
X27225216Y37290817D01*
X27272835Y37386055D01*
X27272835Y37576531D01*
X27225216Y37671770D01*
X27177597Y37719389D01*
X27082359Y37767008D01*
X27209454Y20018817D02*
X27161835Y19971198D01*
X27018978Y19923579D01*
X26923740Y19923579D01*
X26780882Y19971198D01*
X26685644Y20066436D01*
X26638025Y20161674D01*
X26590406Y20352150D01*
X26590406Y20495008D01*
X26638025Y20685484D01*
X26685644Y20780722D01*
X26780882Y20875960D01*
X26923740Y20923579D01*
X27018978Y20923579D01*
X27161835Y20875960D01*
X27209454Y20828341D01*
X27685644Y19923579D02*
X27876120Y19923579D01*
X27971359Y19971198D01*
X28018978Y20018817D01*
X28114216Y20161674D01*
X28161835Y20352150D01*
X28161835Y20733103D01*
X28114216Y20828341D01*
X28066597Y20875960D01*
X27971359Y20923579D01*
X27780882Y20923579D01*
X27685644Y20875960D01*
X27638025Y20828341D01*
X27590406Y20733103D01*
X27590406Y20495008D01*
X27638025Y20399770D01*
X27685644Y20352150D01*
X27780882Y20304531D01*
X27971359Y20304531D01*
X28066597Y20352150D01*
X28114216Y20399770D01*
X28161835Y20495008D01*
X23039263Y45900103D02*
X23086882Y45852484D01*
X23134501Y45709627D01*
X23134501Y45614389D01*
X23086882Y45471531D01*
X22991644Y45376293D01*
X22896406Y45328674D01*
X22705930Y45281055D01*
X22563072Y45281055D01*
X22372596Y45328674D01*
X22277358Y45376293D01*
X22182120Y45471531D01*
X22134501Y45614389D01*
X22134501Y45709627D01*
X22182120Y45852484D01*
X22229739Y45900103D01*
X23134501Y46852484D02*
X23134501Y46281055D01*
X23134501Y46566769D02*
X22134501Y46566769D01*
X22277358Y46471531D01*
X22372596Y46376293D01*
X22420215Y46281055D01*
X22134501Y47471531D02*
X22134501Y47566770D01*
X22182120Y47662008D01*
X22229739Y47709627D01*
X22324977Y47757246D01*
X22515453Y47804865D01*
X22753549Y47804865D01*
X22944025Y47757246D01*
X23039263Y47709627D01*
X23086882Y47662008D01*
X23134501Y47566770D01*
X23134501Y47471531D01*
X23086882Y47376293D01*
X23039263Y47328674D01*
X22944025Y47281055D01*
X22753549Y47233436D01*
X22515453Y47233436D01*
X22324977Y47281055D01*
X22229739Y47328674D01*
X22182120Y47376293D01*
X22134501Y47471531D01*
X56415263Y27017103D02*
X56462882Y26969484D01*
X56510501Y26826627D01*
X56510501Y26731389D01*
X56462882Y26588531D01*
X56367644Y26493293D01*
X56272406Y26445674D01*
X56081930Y26398055D01*
X55939072Y26398055D01*
X55748596Y26445674D01*
X55653358Y26493293D01*
X55558120Y26588531D01*
X55510501Y26731389D01*
X55510501Y26826627D01*
X55558120Y26969484D01*
X55605739Y27017103D01*
X56510501Y27969484D02*
X56510501Y27398055D01*
X56510501Y27683769D02*
X55510501Y27683769D01*
X55653358Y27588531D01*
X55748596Y27493293D01*
X55796215Y27398055D01*
X56510501Y28921865D02*
X56510501Y28350436D01*
X56510501Y28636150D02*
X55510501Y28636150D01*
X55653358Y28540912D01*
X55748596Y28445674D01*
X55796215Y28350436D01*
X56923263Y12793103D02*
X56970882Y12745484D01*
X57018501Y12602627D01*
X57018501Y12507389D01*
X56970882Y12364531D01*
X56875644Y12269293D01*
X56780406Y12221674D01*
X56589930Y12174055D01*
X56447072Y12174055D01*
X56256596Y12221674D01*
X56161358Y12269293D01*
X56066120Y12364531D01*
X56018501Y12507389D01*
X56018501Y12602627D01*
X56066120Y12745484D01*
X56113739Y12793103D01*
X57018501Y13745484D02*
X57018501Y13174055D01*
X57018501Y13459769D02*
X56018501Y13459769D01*
X56161358Y13364531D01*
X56256596Y13269293D01*
X56304215Y13174055D01*
X56113739Y14126436D02*
X56066120Y14174055D01*
X56018501Y14269293D01*
X56018501Y14507389D01*
X56066120Y14602627D01*
X56113739Y14650246D01*
X56208977Y14697865D01*
X56304215Y14697865D01*
X56447072Y14650246D01*
X57018501Y14078817D01*
X57018501Y14697865D01*
X62064063Y45382703D02*
X62111682Y45335084D01*
X62159301Y45192227D01*
X62159301Y45096989D01*
X62111682Y44954131D01*
X62016444Y44858893D01*
X61921206Y44811274D01*
X61730730Y44763655D01*
X61587872Y44763655D01*
X61397396Y44811274D01*
X61302158Y44858893D01*
X61206920Y44954131D01*
X61159301Y45096989D01*
X61159301Y45192227D01*
X61206920Y45335084D01*
X61254539Y45382703D01*
X62159301Y46335084D02*
X62159301Y45763655D01*
X62159301Y46049369D02*
X61159301Y46049369D01*
X61302158Y45954131D01*
X61397396Y45858893D01*
X61445015Y45763655D01*
X61159301Y46668417D02*
X61159301Y47287465D01*
X61540253Y46954131D01*
X61540253Y47096989D01*
X61587872Y47192227D01*
X61635491Y47239846D01*
X61730730Y47287465D01*
X61968825Y47287465D01*
X62064063Y47239846D01*
X62111682Y47192227D01*
X62159301Y47096989D01*
X62159301Y46811274D01*
X62111682Y46716036D01*
X62064063Y46668417D01*
X22566405Y24101799D02*
X22566405Y25101799D01*
X22804500Y25101799D01*
X22947358Y25054180D01*
X23042596Y24958942D01*
X23090215Y24863704D01*
X23137834Y24673228D01*
X23137834Y24530370D01*
X23090215Y24339894D01*
X23042596Y24244656D01*
X22947358Y24149418D01*
X22804500Y24101799D01*
X22566405Y24101799D01*
X24090215Y24101799D02*
X23518786Y24101799D01*
X23804500Y24101799D02*
X23804500Y25101799D01*
X23709262Y24958942D01*
X23614024Y24863704D01*
X23518786Y24816085D01*
X18756025Y28443893D02*
X19232216Y28443893D01*
X18660787Y28158179D02*
X18994120Y29158179D01*
X19327454Y28158179D01*
X23836405Y6029699D02*
X23836405Y7029699D01*
X24074500Y7029699D01*
X24217358Y6982080D01*
X24312596Y6886842D01*
X24360215Y6791604D01*
X24407834Y6601128D01*
X24407834Y6458270D01*
X24360215Y6267794D01*
X24312596Y6172556D01*
X24217358Y6077318D01*
X24074500Y6029699D01*
X23836405Y6029699D01*
X24788786Y6934461D02*
X24836405Y6982080D01*
X24931643Y7029699D01*
X25169739Y7029699D01*
X25264977Y6982080D01*
X25312596Y6934461D01*
X25360215Y6839223D01*
X25360215Y6743985D01*
X25312596Y6601128D01*
X24741167Y6029699D01*
X25360215Y6029699D01*
X20026025Y10371793D02*
X20502216Y10371793D01*
X19930787Y10086079D02*
X20264120Y11086079D01*
X20597454Y10086079D01*
X35477225Y49249179D02*
X35477225Y50249179D01*
X35715320Y50249179D01*
X35858178Y50201560D01*
X35953416Y50106322D01*
X36001035Y50011084D01*
X36048654Y49820608D01*
X36048654Y49677750D01*
X36001035Y49487274D01*
X35953416Y49392036D01*
X35858178Y49296798D01*
X35715320Y49249179D01*
X35477225Y49249179D01*
X36381987Y50249179D02*
X37001035Y50249179D01*
X36667701Y49868227D01*
X36810559Y49868227D01*
X36905797Y49820608D01*
X36953416Y49772989D01*
X37001035Y49677750D01*
X37001035Y49439655D01*
X36953416Y49344417D01*
X36905797Y49296798D01*
X36810559Y49249179D01*
X36524844Y49249179D01*
X36429606Y49296798D01*
X36381987Y49344417D01*
X56768787Y23575579D02*
X56768787Y22861293D01*
X56721167Y22718436D01*
X56625929Y22623198D01*
X56483072Y22575579D01*
X56387834Y22575579D01*
X57244977Y22575579D02*
X57244977Y23575579D01*
X57625930Y23575579D01*
X57721168Y23527960D01*
X57768787Y23480341D01*
X57816406Y23385103D01*
X57816406Y23242246D01*
X57768787Y23147008D01*
X57721168Y23099389D01*
X57625930Y23051770D01*
X57244977Y23051770D01*
X58768787Y22575579D02*
X58197358Y22575579D01*
X58483072Y22575579D02*
X58483072Y23575579D01*
X58387834Y23432722D01*
X58292596Y23337484D01*
X58197358Y23289865D01*
X60324787Y23575579D02*
X60324787Y22861293D01*
X60277167Y22718436D01*
X60181929Y22623198D01*
X60039072Y22575579D01*
X59943834Y22575579D01*
X60800977Y22575579D02*
X60800977Y23575579D01*
X61181930Y23575579D01*
X61277168Y23527960D01*
X61324787Y23480341D01*
X61372406Y23385103D01*
X61372406Y23242246D01*
X61324787Y23147008D01*
X61277168Y23099389D01*
X61181930Y23051770D01*
X60800977Y23051770D01*
X61753358Y23480341D02*
X61800977Y23527960D01*
X61896215Y23575579D01*
X62134311Y23575579D01*
X62229549Y23527960D01*
X62277168Y23480341D01*
X62324787Y23385103D01*
X62324787Y23289865D01*
X62277168Y23147008D01*
X61705739Y22575579D01*
X62324787Y22575579D01*
X63880787Y23575579D02*
X63880787Y22861293D01*
X63833167Y22718436D01*
X63737929Y22623198D01*
X63595072Y22575579D01*
X63499834Y22575579D01*
X64356977Y22575579D02*
X64356977Y23575579D01*
X64737930Y23575579D01*
X64833168Y23527960D01*
X64880787Y23480341D01*
X64928406Y23385103D01*
X64928406Y23242246D01*
X64880787Y23147008D01*
X64833168Y23099389D01*
X64737930Y23051770D01*
X64356977Y23051770D01*
X65261739Y23575579D02*
X65880787Y23575579D01*
X65547453Y23194627D01*
X65690311Y23194627D01*
X65785549Y23147008D01*
X65833168Y23099389D01*
X65880787Y23004150D01*
X65880787Y22766055D01*
X65833168Y22670817D01*
X65785549Y22623198D01*
X65690311Y22575579D01*
X65404596Y22575579D01*
X65309358Y22623198D01*
X65261739Y22670817D01*
X67436787Y23575579D02*
X67436787Y22861293D01*
X67389167Y22718436D01*
X67293929Y22623198D01*
X67151072Y22575579D01*
X67055834Y22575579D01*
X67912977Y22575579D02*
X67912977Y23575579D01*
X68293930Y23575579D01*
X68389168Y23527960D01*
X68436787Y23480341D01*
X68484406Y23385103D01*
X68484406Y23242246D01*
X68436787Y23147008D01*
X68389168Y23099389D01*
X68293930Y23051770D01*
X67912977Y23051770D01*
X69341549Y23242246D02*
X69341549Y22575579D01*
X69103453Y23623198D02*
X68865358Y22908912D01*
X69484406Y22908912D01*
X70992787Y23575579D02*
X70992787Y22861293D01*
X70945167Y22718436D01*
X70849929Y22623198D01*
X70707072Y22575579D01*
X70611834Y22575579D01*
X71468977Y22575579D02*
X71468977Y23575579D01*
X71849930Y23575579D01*
X71945168Y23527960D01*
X71992787Y23480341D01*
X72040406Y23385103D01*
X72040406Y23242246D01*
X71992787Y23147008D01*
X71945168Y23099389D01*
X71849930Y23051770D01*
X71468977Y23051770D01*
X72945168Y23575579D02*
X72468977Y23575579D01*
X72421358Y23099389D01*
X72468977Y23147008D01*
X72564215Y23194627D01*
X72802311Y23194627D01*
X72897549Y23147008D01*
X72945168Y23099389D01*
X72992787Y23004150D01*
X72992787Y22766055D01*
X72945168Y22670817D01*
X72897549Y22623198D01*
X72802311Y22575579D01*
X72564215Y22575579D01*
X72468977Y22623198D01*
X72421358Y22670817D01*
X74548787Y23575579D02*
X74548787Y22861293D01*
X74501167Y22718436D01*
X74405929Y22623198D01*
X74263072Y22575579D01*
X74167834Y22575579D01*
X75024977Y22575579D02*
X75024977Y23575579D01*
X75405930Y23575579D01*
X75501168Y23527960D01*
X75548787Y23480341D01*
X75596406Y23385103D01*
X75596406Y23242246D01*
X75548787Y23147008D01*
X75501168Y23099389D01*
X75405930Y23051770D01*
X75024977Y23051770D01*
X76453549Y23575579D02*
X76263072Y23575579D01*
X76167834Y23527960D01*
X76120215Y23480341D01*
X76024977Y23337484D01*
X75977358Y23147008D01*
X75977358Y22766055D01*
X76024977Y22670817D01*
X76072596Y22623198D01*
X76167834Y22575579D01*
X76358311Y22575579D01*
X76453549Y22623198D01*
X76501168Y22670817D01*
X76548787Y22766055D01*
X76548787Y23004150D01*
X76501168Y23099389D01*
X76453549Y23147008D01*
X76358311Y23194627D01*
X76167834Y23194627D01*
X76072596Y23147008D01*
X76024977Y23099389D01*
X75977358Y23004150D01*
X78104787Y23575579D02*
X78104787Y22861293D01*
X78057167Y22718436D01*
X77961929Y22623198D01*
X77819072Y22575579D01*
X77723834Y22575579D01*
X78580977Y22575579D02*
X78580977Y23575579D01*
X78961930Y23575579D01*
X79057168Y23527960D01*
X79104787Y23480341D01*
X79152406Y23385103D01*
X79152406Y23242246D01*
X79104787Y23147008D01*
X79057168Y23099389D01*
X78961930Y23051770D01*
X78580977Y23051770D01*
X79485739Y23575579D02*
X80152406Y23575579D01*
X79723834Y22575579D01*
X81660787Y23575579D02*
X81660787Y22861293D01*
X81613167Y22718436D01*
X81517929Y22623198D01*
X81375072Y22575579D01*
X81279834Y22575579D01*
X82136977Y22575579D02*
X82136977Y23575579D01*
X82517930Y23575579D01*
X82613168Y23527960D01*
X82660787Y23480341D01*
X82708406Y23385103D01*
X82708406Y23242246D01*
X82660787Y23147008D01*
X82613168Y23099389D01*
X82517930Y23051770D01*
X82136977Y23051770D01*
X83279834Y23147008D02*
X83184596Y23194627D01*
X83136977Y23242246D01*
X83089358Y23337484D01*
X83089358Y23385103D01*
X83136977Y23480341D01*
X83184596Y23527960D01*
X83279834Y23575579D01*
X83470311Y23575579D01*
X83565549Y23527960D01*
X83613168Y23480341D01*
X83660787Y23385103D01*
X83660787Y23337484D01*
X83613168Y23242246D01*
X83565549Y23194627D01*
X83470311Y23147008D01*
X83279834Y23147008D01*
X83184596Y23099389D01*
X83136977Y23051770D01*
X83089358Y22956531D01*
X83089358Y22766055D01*
X83136977Y22670817D01*
X83184596Y22623198D01*
X83279834Y22575579D01*
X83470311Y22575579D01*
X83565549Y22623198D01*
X83613168Y22670817D01*
X83660787Y22766055D01*
X83660787Y22956531D01*
X83613168Y23051770D01*
X83565549Y23099389D01*
X83470311Y23147008D01*
X85216787Y23575579D02*
X85216787Y22861293D01*
X85169167Y22718436D01*
X85073929Y22623198D01*
X84931072Y22575579D01*
X84835834Y22575579D01*
X85692977Y22575579D02*
X85692977Y23575579D01*
X86073930Y23575579D01*
X86169168Y23527960D01*
X86216787Y23480341D01*
X86264406Y23385103D01*
X86264406Y23242246D01*
X86216787Y23147008D01*
X86169168Y23099389D01*
X86073930Y23051770D01*
X85692977Y23051770D01*
X86740596Y22575579D02*
X86931072Y22575579D01*
X87026311Y22623198D01*
X87073930Y22670817D01*
X87169168Y22813674D01*
X87216787Y23004150D01*
X87216787Y23385103D01*
X87169168Y23480341D01*
X87121549Y23527960D01*
X87026311Y23575579D01*
X86835834Y23575579D01*
X86740596Y23527960D01*
X86692977Y23480341D01*
X86645358Y23385103D01*
X86645358Y23147008D01*
X86692977Y23051770D01*
X86740596Y23004150D01*
X86835834Y22956531D01*
X87026311Y22956531D01*
X87121549Y23004150D01*
X87169168Y23051770D01*
X87216787Y23147008D01*
X56292597Y30219579D02*
X56292597Y29505293D01*
X56244977Y29362436D01*
X56149739Y29267198D01*
X56006882Y29219579D01*
X55911644Y29219579D01*
X56768787Y29219579D02*
X56768787Y30219579D01*
X57149740Y30219579D01*
X57244978Y30171960D01*
X57292597Y30124341D01*
X57340216Y30029103D01*
X57340216Y29886246D01*
X57292597Y29791008D01*
X57244978Y29743389D01*
X57149740Y29695770D01*
X56768787Y29695770D01*
X58292597Y29219579D02*
X57721168Y29219579D01*
X58006882Y29219579D02*
X58006882Y30219579D01*
X57911644Y30076722D01*
X57816406Y29981484D01*
X57721168Y29933865D01*
X58911644Y30219579D02*
X59006883Y30219579D01*
X59102121Y30171960D01*
X59149740Y30124341D01*
X59197359Y30029103D01*
X59244978Y29838627D01*
X59244978Y29600531D01*
X59197359Y29410055D01*
X59149740Y29314817D01*
X59102121Y29267198D01*
X59006883Y29219579D01*
X58911644Y29219579D01*
X58816406Y29267198D01*
X58768787Y29314817D01*
X58721168Y29410055D01*
X58673549Y29600531D01*
X58673549Y29838627D01*
X58721168Y30029103D01*
X58768787Y30124341D01*
X58816406Y30171960D01*
X58911644Y30219579D01*
X59848597Y30219579D02*
X59848597Y29505293D01*
X59800977Y29362436D01*
X59705739Y29267198D01*
X59562882Y29219579D01*
X59467644Y29219579D01*
X60324787Y29219579D02*
X60324787Y30219579D01*
X60705740Y30219579D01*
X60800978Y30171960D01*
X60848597Y30124341D01*
X60896216Y30029103D01*
X60896216Y29886246D01*
X60848597Y29791008D01*
X60800978Y29743389D01*
X60705740Y29695770D01*
X60324787Y29695770D01*
X61848597Y29219579D02*
X61277168Y29219579D01*
X61562882Y29219579D02*
X61562882Y30219579D01*
X61467644Y30076722D01*
X61372406Y29981484D01*
X61277168Y29933865D01*
X62800978Y29219579D02*
X62229549Y29219579D01*
X62515263Y29219579D02*
X62515263Y30219579D01*
X62420025Y30076722D01*
X62324787Y29981484D01*
X62229549Y29933865D01*
X63404597Y30219579D02*
X63404597Y29505293D01*
X63356977Y29362436D01*
X63261739Y29267198D01*
X63118882Y29219579D01*
X63023644Y29219579D01*
X63880787Y29219579D02*
X63880787Y30219579D01*
X64261740Y30219579D01*
X64356978Y30171960D01*
X64404597Y30124341D01*
X64452216Y30029103D01*
X64452216Y29886246D01*
X64404597Y29791008D01*
X64356978Y29743389D01*
X64261740Y29695770D01*
X63880787Y29695770D01*
X65404597Y29219579D02*
X64833168Y29219579D01*
X65118882Y29219579D02*
X65118882Y30219579D01*
X65023644Y30076722D01*
X64928406Y29981484D01*
X64833168Y29933865D01*
X65785549Y30124341D02*
X65833168Y30171960D01*
X65928406Y30219579D01*
X66166502Y30219579D01*
X66261740Y30171960D01*
X66309359Y30124341D01*
X66356978Y30029103D01*
X66356978Y29933865D01*
X66309359Y29791008D01*
X65737930Y29219579D01*
X66356978Y29219579D01*
X66960597Y30219579D02*
X66960597Y29505293D01*
X66912977Y29362436D01*
X66817739Y29267198D01*
X66674882Y29219579D01*
X66579644Y29219579D01*
X67436787Y29219579D02*
X67436787Y30219579D01*
X67817740Y30219579D01*
X67912978Y30171960D01*
X67960597Y30124341D01*
X68008216Y30029103D01*
X68008216Y29886246D01*
X67960597Y29791008D01*
X67912978Y29743389D01*
X67817740Y29695770D01*
X67436787Y29695770D01*
X68960597Y29219579D02*
X68389168Y29219579D01*
X68674882Y29219579D02*
X68674882Y30219579D01*
X68579644Y30076722D01*
X68484406Y29981484D01*
X68389168Y29933865D01*
X69293930Y30219579D02*
X69912978Y30219579D01*
X69579644Y29838627D01*
X69722502Y29838627D01*
X69817740Y29791008D01*
X69865359Y29743389D01*
X69912978Y29648150D01*
X69912978Y29410055D01*
X69865359Y29314817D01*
X69817740Y29267198D01*
X69722502Y29219579D01*
X69436787Y29219579D01*
X69341549Y29267198D01*
X69293930Y29314817D01*
X70516597Y30219579D02*
X70516597Y29505293D01*
X70468977Y29362436D01*
X70373739Y29267198D01*
X70230882Y29219579D01*
X70135644Y29219579D01*
X70992787Y29219579D02*
X70992787Y30219579D01*
X71373740Y30219579D01*
X71468978Y30171960D01*
X71516597Y30124341D01*
X71564216Y30029103D01*
X71564216Y29886246D01*
X71516597Y29791008D01*
X71468978Y29743389D01*
X71373740Y29695770D01*
X70992787Y29695770D01*
X72516597Y29219579D02*
X71945168Y29219579D01*
X72230882Y29219579D02*
X72230882Y30219579D01*
X72135644Y30076722D01*
X72040406Y29981484D01*
X71945168Y29933865D01*
X73373740Y29886246D02*
X73373740Y29219579D01*
X73135644Y30267198D02*
X72897549Y29552912D01*
X73516597Y29552912D01*
X74072597Y30219579D02*
X74072597Y29505293D01*
X74024977Y29362436D01*
X73929739Y29267198D01*
X73786882Y29219579D01*
X73691644Y29219579D01*
X74548787Y29219579D02*
X74548787Y30219579D01*
X74929740Y30219579D01*
X75024978Y30171960D01*
X75072597Y30124341D01*
X75120216Y30029103D01*
X75120216Y29886246D01*
X75072597Y29791008D01*
X75024978Y29743389D01*
X74929740Y29695770D01*
X74548787Y29695770D01*
X76072597Y29219579D02*
X75501168Y29219579D01*
X75786882Y29219579D02*
X75786882Y30219579D01*
X75691644Y30076722D01*
X75596406Y29981484D01*
X75501168Y29933865D01*
X76977359Y30219579D02*
X76501168Y30219579D01*
X76453549Y29743389D01*
X76501168Y29791008D01*
X76596406Y29838627D01*
X76834502Y29838627D01*
X76929740Y29791008D01*
X76977359Y29743389D01*
X77024978Y29648150D01*
X77024978Y29410055D01*
X76977359Y29314817D01*
X76929740Y29267198D01*
X76834502Y29219579D01*
X76596406Y29219579D01*
X76501168Y29267198D01*
X76453549Y29314817D01*
X77628597Y30219579D02*
X77628597Y29505293D01*
X77580977Y29362436D01*
X77485739Y29267198D01*
X77342882Y29219579D01*
X77247644Y29219579D01*
X78104787Y29219579D02*
X78104787Y30219579D01*
X78485740Y30219579D01*
X78580978Y30171960D01*
X78628597Y30124341D01*
X78676216Y30029103D01*
X78676216Y29886246D01*
X78628597Y29791008D01*
X78580978Y29743389D01*
X78485740Y29695770D01*
X78104787Y29695770D01*
X79628597Y29219579D02*
X79057168Y29219579D01*
X79342882Y29219579D02*
X79342882Y30219579D01*
X79247644Y30076722D01*
X79152406Y29981484D01*
X79057168Y29933865D01*
X80485740Y30219579D02*
X80295263Y30219579D01*
X80200025Y30171960D01*
X80152406Y30124341D01*
X80057168Y29981484D01*
X80009549Y29791008D01*
X80009549Y29410055D01*
X80057168Y29314817D01*
X80104787Y29267198D01*
X80200025Y29219579D01*
X80390502Y29219579D01*
X80485740Y29267198D01*
X80533359Y29314817D01*
X80580978Y29410055D01*
X80580978Y29648150D01*
X80533359Y29743389D01*
X80485740Y29791008D01*
X80390502Y29838627D01*
X80200025Y29838627D01*
X80104787Y29791008D01*
X80057168Y29743389D01*
X80009549Y29648150D01*
X81184597Y30219579D02*
X81184597Y29505293D01*
X81136977Y29362436D01*
X81041739Y29267198D01*
X80898882Y29219579D01*
X80803644Y29219579D01*
X81660787Y29219579D02*
X81660787Y30219579D01*
X82041740Y30219579D01*
X82136978Y30171960D01*
X82184597Y30124341D01*
X82232216Y30029103D01*
X82232216Y29886246D01*
X82184597Y29791008D01*
X82136978Y29743389D01*
X82041740Y29695770D01*
X81660787Y29695770D01*
X83184597Y29219579D02*
X82613168Y29219579D01*
X82898882Y29219579D02*
X82898882Y30219579D01*
X82803644Y30076722D01*
X82708406Y29981484D01*
X82613168Y29933865D01*
X83517930Y30219579D02*
X84184597Y30219579D01*
X83756025Y29219579D01*
X84740597Y30219579D02*
X84740597Y29505293D01*
X84692977Y29362436D01*
X84597739Y29267198D01*
X84454882Y29219579D01*
X84359644Y29219579D01*
X85216787Y29219579D02*
X85216787Y30219579D01*
X85597740Y30219579D01*
X85692978Y30171960D01*
X85740597Y30124341D01*
X85788216Y30029103D01*
X85788216Y29886246D01*
X85740597Y29791008D01*
X85692978Y29743389D01*
X85597740Y29695770D01*
X85216787Y29695770D01*
X86740597Y29219579D02*
X86169168Y29219579D01*
X86454882Y29219579D02*
X86454882Y30219579D01*
X86359644Y30076722D01*
X86264406Y29981484D01*
X86169168Y29933865D01*
X87312025Y29791008D02*
X87216787Y29838627D01*
X87169168Y29886246D01*
X87121549Y29981484D01*
X87121549Y30029103D01*
X87169168Y30124341D01*
X87216787Y30171960D01*
X87312025Y30219579D01*
X87502502Y30219579D01*
X87597740Y30171960D01*
X87645359Y30124341D01*
X87692978Y30029103D01*
X87692978Y29981484D01*
X87645359Y29886246D01*
X87597740Y29838627D01*
X87502502Y29791008D01*
X87312025Y29791008D01*
X87216787Y29743389D01*
X87169168Y29695770D01*
X87121549Y29600531D01*
X87121549Y29410055D01*
X87169168Y29314817D01*
X87216787Y29267198D01*
X87312025Y29219579D01*
X87502502Y29219579D01*
X87597740Y29267198D01*
X87645359Y29314817D01*
X87692978Y29410055D01*
X87692978Y29600531D01*
X87645359Y29695770D01*
X87597740Y29743389D01*
X87502502Y29791008D01*
X87046501Y45055637D02*
X87760787Y45055637D01*
X87903644Y45008017D01*
X87998882Y44912779D01*
X88046501Y44769922D01*
X88046501Y44674684D01*
X88046501Y45531827D02*
X87046501Y45531827D01*
X87046501Y45912780D01*
X87094120Y46008018D01*
X87141739Y46055637D01*
X87236977Y46103256D01*
X87379834Y46103256D01*
X87475072Y46055637D01*
X87522691Y46008018D01*
X87570310Y45912780D01*
X87570310Y45531827D01*
X88046501Y47055637D02*
X88046501Y46484208D01*
X88046501Y46769922D02*
X87046501Y46769922D01*
X87189358Y46674684D01*
X87284596Y46579446D01*
X87332215Y46484208D01*
X88046501Y47531827D02*
X88046501Y47722303D01*
X87998882Y47817542D01*
X87951263Y47865161D01*
X87808406Y47960399D01*
X87617930Y48008018D01*
X87236977Y48008018D01*
X87141739Y47960399D01*
X87094120Y47912780D01*
X87046501Y47817542D01*
X87046501Y47627065D01*
X87094120Y47531827D01*
X87141739Y47484208D01*
X87236977Y47436589D01*
X87475072Y47436589D01*
X87570310Y47484208D01*
X87617930Y47531827D01*
X87665549Y47627065D01*
X87665549Y47817542D01*
X87617930Y47912780D01*
X87570310Y47960399D01*
X87475072Y48008018D01*
X86538501Y41169437D02*
X87252787Y41169437D01*
X87395644Y41121817D01*
X87490882Y41026579D01*
X87538501Y40883722D01*
X87538501Y40788484D01*
X87538501Y41645627D02*
X86538501Y41645627D01*
X86538501Y42026580D01*
X86586120Y42121818D01*
X86633739Y42169437D01*
X86728977Y42217056D01*
X86871834Y42217056D01*
X86967072Y42169437D01*
X87014691Y42121818D01*
X87062310Y42026580D01*
X87062310Y41645627D01*
X86633739Y42598008D02*
X86586120Y42645627D01*
X86538501Y42740865D01*
X86538501Y42978961D01*
X86586120Y43074199D01*
X86633739Y43121818D01*
X86728977Y43169437D01*
X86824215Y43169437D01*
X86967072Y43121818D01*
X87538501Y42550389D01*
X87538501Y43169437D01*
X86538501Y43788484D02*
X86538501Y43883723D01*
X86586120Y43978961D01*
X86633739Y44026580D01*
X86728977Y44074199D01*
X86919453Y44121818D01*
X87157549Y44121818D01*
X87348025Y44074199D01*
X87443263Y44026580D01*
X87490882Y43978961D01*
X87538501Y43883723D01*
X87538501Y43788484D01*
X87490882Y43693246D01*
X87443263Y43645627D01*
X87348025Y43598008D01*
X87157549Y43550389D01*
X86919453Y43550389D01*
X86728977Y43598008D01*
X86633739Y43645627D01*
X86586120Y43693246D01*
X86538501Y43788484D01*
X35492394Y32422839D02*
X35016203Y32422839D01*
X35016203Y33422839D01*
X36349537Y32422839D02*
X35778108Y32422839D01*
X36063822Y32422839D02*
X36063822Y33422839D01*
X35968584Y33279982D01*
X35873346Y33184744D01*
X35778108Y33137125D01*
X36000394Y13626839D02*
X35524203Y13626839D01*
X35524203Y14626839D01*
X36286108Y14531601D02*
X36333727Y14579220D01*
X36428965Y14626839D01*
X36667061Y14626839D01*
X36762299Y14579220D01*
X36809918Y14531601D01*
X36857537Y14436363D01*
X36857537Y14341125D01*
X36809918Y14198268D01*
X36238489Y13626839D01*
X36857537Y13626839D01*
X1412501Y20150865D02*
X412501Y20150865D01*
X412501Y20531818D01*
X460120Y20627056D01*
X507739Y20674675D01*
X602977Y20722294D01*
X745834Y20722294D01*
X841072Y20674675D01*
X888691Y20627056D01*
X936310Y20531818D01*
X936310Y20150865D01*
X1412501Y21674675D02*
X1412501Y21103246D01*
X1412501Y21388960D02*
X412501Y21388960D01*
X555358Y21293722D01*
X650596Y21198484D01*
X698215Y21103246D01*
X1285501Y25484865D02*
X285501Y25484865D01*
X285501Y25865818D01*
X333120Y25961056D01*
X380739Y26008675D01*
X475977Y26056294D01*
X618834Y26056294D01*
X714072Y26008675D01*
X761691Y25961056D01*
X809310Y25865818D01*
X809310Y25484865D01*
X380739Y26437246D02*
X333120Y26484865D01*
X285501Y26580103D01*
X285501Y26818199D01*
X333120Y26913437D01*
X380739Y26961056D01*
X475977Y27008675D01*
X571215Y27008675D01*
X714072Y26961056D01*
X1285501Y26389627D01*
X1285501Y27008675D01*
X63907682Y42885941D02*
X63812444Y42933560D01*
X63717206Y43028798D01*
X63574349Y43171655D01*
X63479110Y43219274D01*
X63383872Y43219274D01*
X63431491Y42981179D02*
X63336253Y43028798D01*
X63241015Y43124036D01*
X63193396Y43314512D01*
X63193396Y43647846D01*
X63241015Y43838322D01*
X63336253Y43933560D01*
X63431491Y43981179D01*
X63621968Y43981179D01*
X63717206Y43933560D01*
X63812444Y43838322D01*
X63860063Y43647846D01*
X63860063Y43314512D01*
X63812444Y43124036D01*
X63717206Y43028798D01*
X63621968Y42981179D01*
X63431491Y42981179D01*
X64812444Y42981179D02*
X64241015Y42981179D01*
X64526729Y42981179D02*
X64526729Y43981179D01*
X64431491Y43838322D01*
X64336253Y43743084D01*
X64241015Y43695465D01*
X66803282Y48118341D02*
X66708044Y48165960D01*
X66612806Y48261198D01*
X66469949Y48404055D01*
X66374710Y48451674D01*
X66279472Y48451674D01*
X66327091Y48213579D02*
X66231853Y48261198D01*
X66136615Y48356436D01*
X66088996Y48546912D01*
X66088996Y48880246D01*
X66136615Y49070722D01*
X66231853Y49165960D01*
X66327091Y49213579D01*
X66517568Y49213579D01*
X66612806Y49165960D01*
X66708044Y49070722D01*
X66755663Y48880246D01*
X66755663Y48546912D01*
X66708044Y48356436D01*
X66612806Y48261198D01*
X66517568Y48213579D01*
X66327091Y48213579D01*
X67136615Y49118341D02*
X67184234Y49165960D01*
X67279472Y49213579D01*
X67517568Y49213579D01*
X67612806Y49165960D01*
X67660425Y49118341D01*
X67708044Y49023103D01*
X67708044Y48927865D01*
X67660425Y48785008D01*
X67088996Y48213579D01*
X67708044Y48213579D01*
X48494654Y7071179D02*
X48161320Y7547370D01*
X47923225Y7071179D02*
X47923225Y8071179D01*
X48304178Y8071179D01*
X48399416Y8023560D01*
X48447035Y7975941D01*
X48494654Y7880703D01*
X48494654Y7737846D01*
X48447035Y7642608D01*
X48399416Y7594989D01*
X48304178Y7547370D01*
X47923225Y7547370D01*
X49447035Y7071179D02*
X48875606Y7071179D01*
X49161320Y7071179D02*
X49161320Y8071179D01*
X49066082Y7928322D01*
X48970844Y7833084D01*
X48875606Y7785465D01*
X53269854Y7071179D02*
X52936520Y7547370D01*
X52698425Y7071179D02*
X52698425Y8071179D01*
X53079378Y8071179D01*
X53174616Y8023560D01*
X53222235Y7975941D01*
X53269854Y7880703D01*
X53269854Y7737846D01*
X53222235Y7642608D01*
X53174616Y7594989D01*
X53079378Y7547370D01*
X52698425Y7547370D01*
X53650806Y7975941D02*
X53698425Y8023560D01*
X53793663Y8071179D01*
X54031759Y8071179D01*
X54126997Y8023560D01*
X54174616Y7975941D01*
X54222235Y7880703D01*
X54222235Y7785465D01*
X54174616Y7642608D01*
X53603187Y7071179D01*
X54222235Y7071179D01*
X59680021Y41428374D02*
X59203830Y41095040D01*
X59680021Y40856945D02*
X58680021Y40856945D01*
X58680021Y41237898D01*
X58727640Y41333136D01*
X58775259Y41380755D01*
X58870497Y41428374D01*
X59013354Y41428374D01*
X59108592Y41380755D01*
X59156211Y41333136D01*
X59203830Y41237898D01*
X59203830Y40856945D01*
X58680021Y41761707D02*
X58680021Y42380755D01*
X59060973Y42047421D01*
X59060973Y42190279D01*
X59108592Y42285517D01*
X59156211Y42333136D01*
X59251450Y42380755D01*
X59489545Y42380755D01*
X59584783Y42333136D01*
X59632402Y42285517D01*
X59680021Y42190279D01*
X59680021Y41904564D01*
X59632402Y41809326D01*
X59584783Y41761707D01*
X62453701Y46503294D02*
X61977510Y46169960D01*
X62453701Y45931865D02*
X61453701Y45931865D01*
X61453701Y46312818D01*
X61501320Y46408056D01*
X61548939Y46455675D01*
X61644177Y46503294D01*
X61787034Y46503294D01*
X61882272Y46455675D01*
X61929891Y46408056D01*
X61977510Y46312818D01*
X61977510Y45931865D01*
X61787034Y47360437D02*
X62453701Y47360437D01*
X61406082Y47122341D02*
X62120368Y46884246D01*
X62120368Y47503294D01*
X63887054Y39481579D02*
X63553720Y39957770D01*
X63315625Y39481579D02*
X63315625Y40481579D01*
X63696578Y40481579D01*
X63791816Y40433960D01*
X63839435Y40386341D01*
X63887054Y40291103D01*
X63887054Y40148246D01*
X63839435Y40053008D01*
X63791816Y40005389D01*
X63696578Y39957770D01*
X63315625Y39957770D01*
X64791816Y40481579D02*
X64315625Y40481579D01*
X64268006Y40005389D01*
X64315625Y40053008D01*
X64410863Y40100627D01*
X64648959Y40100627D01*
X64744197Y40053008D01*
X64791816Y40005389D01*
X64839435Y39910150D01*
X64839435Y39672055D01*
X64791816Y39576817D01*
X64744197Y39529198D01*
X64648959Y39481579D01*
X64410863Y39481579D01*
X64315625Y39529198D01*
X64268006Y39576817D01*
X68001854Y43596379D02*
X67668520Y44072570D01*
X67430425Y43596379D02*
X67430425Y44596379D01*
X67811378Y44596379D01*
X67906616Y44548760D01*
X67954235Y44501141D01*
X68001854Y44405903D01*
X68001854Y44263046D01*
X67954235Y44167808D01*
X67906616Y44120189D01*
X67811378Y44072570D01*
X67430425Y44072570D01*
X68858997Y44596379D02*
X68668520Y44596379D01*
X68573282Y44548760D01*
X68525663Y44501141D01*
X68430425Y44358284D01*
X68382806Y44167808D01*
X68382806Y43786855D01*
X68430425Y43691617D01*
X68478044Y43643998D01*
X68573282Y43596379D01*
X68763759Y43596379D01*
X68858997Y43643998D01*
X68906616Y43691617D01*
X68954235Y43786855D01*
X68954235Y44024950D01*
X68906616Y44120189D01*
X68858997Y44167808D01*
X68763759Y44215427D01*
X68573282Y44215427D01*
X68478044Y44167808D01*
X68430425Y44120189D01*
X68382806Y44024950D01*
X87548901Y31669694D02*
X87072710Y31336360D01*
X87548901Y31098265D02*
X86548901Y31098265D01*
X86548901Y31479218D01*
X86596520Y31574456D01*
X86644139Y31622075D01*
X86739377Y31669694D01*
X86882234Y31669694D01*
X86977472Y31622075D01*
X87025091Y31574456D01*
X87072710Y31479218D01*
X87072710Y31098265D01*
X86548901Y32003027D02*
X86548901Y32669694D01*
X87548901Y32241122D01*
X91501301Y20950894D02*
X91025110Y20617560D01*
X91501301Y20379465D02*
X90501301Y20379465D01*
X90501301Y20760418D01*
X90548920Y20855656D01*
X90596539Y20903275D01*
X90691777Y20950894D01*
X90834634Y20950894D01*
X90929872Y20903275D01*
X90977491Y20855656D01*
X91025110Y20760418D01*
X91025110Y20379465D01*
X90929872Y21522322D02*
X90882253Y21427084D01*
X90834634Y21379465D01*
X90739396Y21331846D01*
X90691777Y21331846D01*
X90596539Y21379465D01*
X90548920Y21427084D01*
X90501301Y21522322D01*
X90501301Y21712799D01*
X90548920Y21808037D01*
X90596539Y21855656D01*
X90691777Y21903275D01*
X90739396Y21903275D01*
X90834634Y21855656D01*
X90882253Y21808037D01*
X90929872Y21712799D01*
X90929872Y21522322D01*
X90977491Y21427084D01*
X91025110Y21379465D01*
X91120349Y21331846D01*
X91310825Y21331846D01*
X91406063Y21379465D01*
X91453682Y21427084D01*
X91501301Y21522322D01*
X91501301Y21712799D01*
X91453682Y21808037D01*
X91406063Y21855656D01*
X91310825Y21903275D01*
X91120349Y21903275D01*
X91025110Y21855656D01*
X90977491Y21808037D01*
X90929872Y21712799D01*
X17176501Y36510055D02*
X17986025Y36510055D01*
X18081263Y36557674D01*
X18128882Y36605293D01*
X18176501Y36700531D01*
X18176501Y36891008D01*
X18128882Y36986246D01*
X18081263Y37033865D01*
X17986025Y37081484D01*
X17176501Y37081484D01*
X18176501Y38081484D02*
X18176501Y37510055D01*
X18176501Y37795769D02*
X17176501Y37795769D01*
X17319358Y37700531D01*
X17414596Y37605293D01*
X17462215Y37510055D01*
X18065501Y17968055D02*
X18875025Y17968055D01*
X18970263Y18015674D01*
X19017882Y18063293D01*
X19065501Y18158531D01*
X19065501Y18349008D01*
X19017882Y18444246D01*
X18970263Y18491865D01*
X18875025Y18539484D01*
X18065501Y18539484D01*
X18160739Y18968055D02*
X18113120Y19015674D01*
X18065501Y19110912D01*
X18065501Y19349008D01*
X18113120Y19444246D01*
X18160739Y19491865D01*
X18255977Y19539484D01*
X18351215Y19539484D01*
X18494072Y19491865D01*
X19065501Y18920436D01*
X19065501Y19539484D01*
D18*
X19771844Y45845065D02*
X19771844Y45187084D01*
X19810549Y45109674D01*
X19849253Y45070970D01*
X19926663Y45032265D01*
X20081482Y45032265D01*
X20158891Y45070970D01*
X20197596Y45109674D01*
X20236301Y45187084D01*
X20236301Y45845065D01*
X20545939Y45845065D02*
X21049101Y45845065D01*
X20778168Y45535427D01*
X20894282Y45535427D01*
X20971692Y45496722D01*
X21010396Y45458017D01*
X21049101Y45380608D01*
X21049101Y45187084D01*
X21010396Y45109674D01*
X20971692Y45070970D01*
X20894282Y45032265D01*
X20662054Y45032265D01*
X20584644Y45070970D01*
X20545939Y45109674D01*
X16640387Y47572265D02*
X16253340Y47572265D01*
X16253340Y48385065D01*
X16911321Y47572265D02*
X16911321Y48385065D01*
X17182254Y47804493D01*
X17453187Y48385065D01*
X17453187Y47572265D01*
X17801530Y48307655D02*
X17840235Y48346360D01*
X17917644Y48385065D01*
X18111168Y48385065D01*
X18188578Y48346360D01*
X18227282Y48307655D01*
X18265987Y48230246D01*
X18265987Y48152836D01*
X18227282Y48036722D01*
X17762825Y47572265D01*
X18265987Y47572265D01*
X18962673Y48385065D02*
X18807854Y48385065D01*
X18730444Y48346360D01*
X18691739Y48307655D01*
X18614330Y48191541D01*
X18575625Y48036722D01*
X18575625Y47727084D01*
X18614330Y47649674D01*
X18653035Y47610970D01*
X18730444Y47572265D01*
X18885263Y47572265D01*
X18962673Y47610970D01*
X19001377Y47649674D01*
X19040082Y47727084D01*
X19040082Y47920608D01*
X19001377Y47998017D01*
X18962673Y48036722D01*
X18885263Y48075427D01*
X18730444Y48075427D01*
X18653035Y48036722D01*
X18614330Y47998017D01*
X18575625Y47920608D01*
X19311015Y48385065D02*
X19852882Y48385065D01*
X19504539Y47572265D01*
X20549567Y48385065D02*
X20162520Y48385065D01*
X20123815Y47998017D01*
X20162520Y48036722D01*
X20239929Y48075427D01*
X20433453Y48075427D01*
X20510863Y48036722D01*
X20549567Y47998017D01*
X20588272Y47920608D01*
X20588272Y47727084D01*
X20549567Y47649674D01*
X20510863Y47610970D01*
X20433453Y47572265D01*
X20239929Y47572265D01*
X20162520Y47610970D01*
X20123815Y47649674D01*
X20936615Y47572265D02*
X20936615Y48385065D01*
X21207548Y47804493D01*
X21478481Y48385065D01*
X21478481Y47572265D01*
X21865529Y47881903D02*
X22484805Y47881903D01*
X23258900Y48385065D02*
X22871853Y48385065D01*
X22833148Y47998017D01*
X22871853Y48036722D01*
X22949262Y48075427D01*
X23142786Y48075427D01*
X23220196Y48036722D01*
X23258900Y47998017D01*
X23297605Y47920608D01*
X23297605Y47727084D01*
X23258900Y47649674D01*
X23220196Y47610970D01*
X23142786Y47572265D01*
X22949262Y47572265D01*
X22871853Y47610970D01*
X22833148Y47649674D01*
D13*
X48700394Y43598839D02*
X48224203Y43598839D01*
X48224203Y44598839D01*
X48938489Y44598839D02*
X49557537Y44598839D01*
X49224203Y44217887D01*
X49367061Y44217887D01*
X49462299Y44170268D01*
X49509918Y44122649D01*
X49557537Y44027410D01*
X49557537Y43789315D01*
X49509918Y43694077D01*
X49462299Y43646458D01*
X49367061Y43598839D01*
X49081346Y43598839D01*
X48986108Y43646458D01*
X48938489Y43694077D01*
M02*
