M48
;DRILL file {KiCad (2015-07-04 BZR 5884)-product} date Sun 12 Jul 2015 23:10:31 CEST
;FORMAT={-:-/ absolute / inch / decimal}
FMAT,2
INCH,TZ
T1C0.031
T2C0.032
T3C0.035
T4C0.039
T5C0.040
T6C0.047
T7C0.120
%
G90
G05
M72
T1
X4.1Y-3.42
X4.13Y-4.6
X4.28Y-3.815
X4.2969Y-3.42
X4.3269Y-4.6
X4.36Y-4.235
X4.4769Y-3.815
X4.5569Y-4.235
X6.187Y-3.136
X6.187Y-3.2147
T2
X4.855Y-2.98
X4.955Y-2.98
X5.055Y-2.98
X5.155Y-2.98
X5.215Y-4.88
X5.255Y-2.98
X5.315Y-4.88
X5.355Y-2.98
X5.415Y-4.88
X5.455Y-2.98
X5.515Y-4.88
X5.555Y-2.98
X5.615Y-4.88
X5.715Y-2.98
X5.715Y-4.88
X5.815Y-2.98
X5.915Y-2.98
X5.915Y-4.88
X6.015Y-2.98
X6.015Y-4.88
X6.115Y-2.98
X6.115Y-4.88
X6.215Y-2.98
X6.215Y-4.88
X6.315Y-2.98
X6.315Y-4.88
X6.415Y-2.98
X6.415Y-4.88
X6.515Y-4.88
X6.615Y-2.98
X6.615Y-4.88
X6.715Y-2.98
X6.815Y-2.98
X6.815Y-4.88
X6.915Y-2.98
X6.915Y-4.88
X7.015Y-2.98
X7.015Y-4.88
X7.115Y-2.98
X7.115Y-4.88
X7.215Y-2.98
X7.215Y-4.88
X7.315Y-2.98
X7.315Y-4.88
X7.415Y-4.88
X7.515Y-4.88
X7.615Y-2.98
X7.615Y-3.08
X7.615Y-3.18
X7.615Y-3.28
X7.615Y-3.38
X7.615Y-3.48
X7.615Y-3.58
X7.615Y-3.68
X7.615Y-3.78
X7.615Y-3.88
X7.615Y-3.98
X7.615Y-4.08
X7.615Y-4.18
X7.615Y-4.28
X7.615Y-4.38
X7.615Y-4.48
X7.615Y-4.58
X7.615Y-4.68
X7.715Y-2.98
X7.715Y-3.08
X7.715Y-3.18
X7.715Y-3.28
X7.715Y-3.38
X7.715Y-3.48
X7.715Y-3.58
X7.715Y-3.68
X7.715Y-3.78
X7.715Y-3.88
X7.715Y-3.98
X7.715Y-4.08
X7.715Y-4.18
X7.715Y-4.28
X7.715Y-4.38
X7.715Y-4.48
X7.715Y-4.58
X7.715Y-4.68
T3
X4.55Y-3.3531
X4.55Y-3.55
X4.5518Y-4.4858
X4.5518Y-4.6827
T4
X4.725Y-3.866
X4.775Y-4.52
X4.925Y-3.866
X4.975Y-4.52
T5
X4.725Y-3.52
X4.725Y-3.62
X4.76Y-4.21
X4.76Y-4.31
X4.825Y-3.47
X4.825Y-3.57
X4.86Y-4.16
X4.86Y-4.26
X4.975Y-3.37
X4.975Y-3.67
X5.01Y-4.06
X5.01Y-4.36
X6.175Y-3.68
X6.175Y-3.78
X6.175Y-3.88
X6.175Y-4.02
X6.175Y-4.12
X6.175Y-4.22
X6.315Y-3.68
X6.315Y-3.78
X6.315Y-3.88
X6.315Y-4.02
X6.315Y-4.12
X6.315Y-4.22
X6.455Y-3.68
X6.455Y-3.78
X6.455Y-3.88
X6.455Y-4.02
X6.455Y-4.12
X6.455Y-4.22
X6.595Y-3.68
X6.595Y-3.78
X6.595Y-3.88
X6.595Y-4.02
X6.595Y-4.12
X6.595Y-4.22
X6.735Y-3.68
X6.735Y-3.78
X6.735Y-3.88
X6.735Y-4.02
X6.735Y-4.12
X6.735Y-4.22
X6.755Y-3.162
X6.835Y-3.315
X6.855Y-3.162
X6.875Y-3.68
X6.875Y-3.78
X6.875Y-3.88
X6.875Y-4.02
X6.875Y-4.12
X6.875Y-4.22
X6.935Y-3.315
X6.955Y-3.162
X7.015Y-3.68
X7.015Y-3.78
X7.015Y-3.88
X7.015Y-4.02
X7.015Y-4.12
X7.015Y-4.22
X7.035Y-3.315
X7.055Y-3.162
X7.135Y-3.315
X7.155Y-3.162
X7.155Y-3.68
X7.155Y-3.78
X7.155Y-3.88
X7.155Y-4.02
X7.155Y-4.12
X7.155Y-4.22
X7.295Y-3.68
X7.295Y-3.78
X7.295Y-3.88
X7.295Y-4.02
X7.295Y-4.12
X7.295Y-4.22
T6
X5.815Y-3.8
X5.815Y-3.9969
X5.835Y-4.36
X5.835Y-4.5569
T7
X4.06Y-3.955
X4.065Y-4.165
T0
M30
