G04 #@! TF.FileFunction,Soldermask,Top*
%FSLAX46Y46*%
G04 Gerber Fmt 4.6, Leading zero omitted, Abs format (unit mm)*
G04 Created by KiCad (PCBNEW (2015-07-04 BZR 5884)-product) date Wed 15 Jul 2015 18:55:40 CEST*
%MOMM*%
G01*
G04 APERTURE LIST*
%ADD10C,0.050000*%
%ADD11C,0.010000*%
%ADD12C,1.700000*%
%ADD13R,1.700000X1.700000*%
%ADD14O,1.524000X2.540000*%
%ADD15C,1.524000*%
%ADD16R,1.300000X1.300000*%
%ADD17C,1.300000*%
%ADD18R,1.400000X1.400000*%
%ADD19C,1.400000*%
%ADD20R,3.599180X1.600200*%
%ADD21R,1.200000X0.750000*%
%ADD22R,0.750000X1.200000*%
%ADD23R,1.501140X2.499360*%
%ADD24O,1.501140X2.499360*%
%ADD25R,3.600000X3.200000*%
%ADD26R,2.032000X1.727200*%
%ADD27O,2.032000X1.727200*%
%ADD28R,1.727200X2.032000*%
%ADD29O,1.727200X2.032000*%
%ADD30R,5.400040X2.900680*%
%ADD31C,4.064000*%
%ADD32R,0.800100X0.800100*%
%ADD33R,1.200000X0.900000*%
%ADD34R,0.900000X1.200000*%
%ADD35O,2.286000X1.905000*%
%ADD36R,0.600000X1.500000*%
%ADD37R,0.797560X0.797560*%
%ADD38C,0.600000*%
G04 APERTURE END LIST*
D10*
D11*
X5080Y5080D02*
X99451160Y5080D01*
X5080Y53721000D02*
X5080Y5080D01*
X98054160Y53721000D02*
X5080Y53721000D01*
X99451160Y52324000D02*
X98054160Y53721000D01*
X99451160Y5080D02*
X99451160Y52324000D01*
D12*
X48585120Y25667960D03*
D13*
X48585120Y30667960D03*
D14*
X68778120Y50987960D03*
X71318120Y50987960D03*
X73858120Y50987960D03*
X76398120Y50987960D03*
X78938120Y50987960D03*
X81478120Y50987960D03*
X84018120Y50987960D03*
X86558120Y50987960D03*
X91638120Y2727960D03*
X89098120Y2727960D03*
X86558120Y2727960D03*
X84018120Y2727960D03*
X73858120Y2727960D03*
X68778120Y2727960D03*
X66238120Y2727960D03*
X76398120Y2727960D03*
X78938120Y2727960D03*
X81478120Y2727960D03*
X63698120Y2727960D03*
X61158120Y2727960D03*
X58618120Y2727960D03*
X50998120Y2727960D03*
X53538120Y2727960D03*
X56078120Y2727960D03*
X45918120Y2727960D03*
X43378120Y2727960D03*
X40838120Y2727960D03*
X35758120Y2727960D03*
X33218120Y2727960D03*
X63698120Y50987960D03*
X61158120Y50987960D03*
X58618120Y50987960D03*
X56078120Y50987960D03*
X53538120Y50987960D03*
X50998120Y50987960D03*
X48458120Y50987960D03*
X45918120Y50987960D03*
X41854120Y50987960D03*
X39314120Y50987960D03*
X36774120Y50987960D03*
X34234120Y50987960D03*
X31694120Y50987960D03*
X29154120Y50987960D03*
X26614120Y50987960D03*
X24074120Y50987960D03*
X38298120Y2727960D03*
D15*
X94178120Y48447960D03*
X96718120Y48447960D03*
X94178120Y45907960D03*
X96718120Y45907960D03*
X94178120Y43367960D03*
X96718120Y43367960D03*
X94178120Y40827960D03*
X96718120Y40827960D03*
X94178120Y50987960D03*
X96718120Y50987960D03*
X96718120Y38287960D03*
X94178120Y38287960D03*
X94178120Y35747960D03*
X96718120Y35747960D03*
X94178120Y33207960D03*
X96718120Y33207960D03*
X94178120Y30667960D03*
X96718120Y30667960D03*
X94178120Y28127960D03*
X96718120Y28127960D03*
X94178120Y25587960D03*
X96718120Y25587960D03*
X94178120Y23047960D03*
X96718120Y23047960D03*
X94178120Y20507960D03*
X96718120Y20507960D03*
X94178120Y17967960D03*
X96718120Y17967960D03*
X94178120Y15427960D03*
X96718120Y15427960D03*
X94178120Y12887960D03*
X96718120Y12887960D03*
X94178120Y10347960D03*
X96718120Y10347960D03*
X94178120Y7807960D03*
X96718120Y7807960D03*
D16*
X9469120Y29778960D03*
D17*
X14469120Y29778960D03*
D16*
X4897120Y9839960D03*
D17*
X9897120Y9839960D03*
D16*
X4135120Y39811960D03*
D17*
X9135120Y39811960D03*
D16*
X10739120Y18983960D03*
D17*
X15739120Y18983960D03*
D18*
X14549120Y36509960D03*
D19*
X14549120Y41509960D03*
D18*
X15565120Y11871960D03*
D19*
X15565120Y6871960D03*
D20*
X4559300Y48955960D03*
X10060940Y48955960D03*
D21*
X25537120Y35747960D03*
X27437120Y35747960D03*
X26426120Y18475960D03*
X28326120Y18475960D03*
D22*
X24582120Y45592960D03*
X24582120Y47492960D03*
D12*
X48966120Y10935960D03*
D13*
X48966120Y15935960D03*
D16*
X57906920Y47025560D03*
D17*
X57906920Y45025560D03*
D23*
X25852120Y28483560D03*
D24*
X20772120Y28483560D03*
D23*
X27122120Y10411460D03*
D24*
X22042120Y10411460D03*
D25*
X40315320Y45501560D03*
X32115320Y45501560D03*
D26*
X57602120Y28127960D03*
D27*
X57602120Y30667960D03*
X57602120Y33207960D03*
D26*
X61158120Y28127960D03*
D27*
X61158120Y30667960D03*
X61158120Y33207960D03*
D26*
X64714120Y28127960D03*
D27*
X64714120Y30667960D03*
X64714120Y33207960D03*
D26*
X68270120Y28127960D03*
D27*
X68270120Y30667960D03*
X68270120Y33207960D03*
D26*
X71826120Y28127960D03*
D27*
X71826120Y30667960D03*
X71826120Y33207960D03*
D26*
X75382120Y28127960D03*
D27*
X75382120Y30667960D03*
X75382120Y33207960D03*
D26*
X78938120Y28127960D03*
D27*
X78938120Y30667960D03*
X78938120Y33207960D03*
D26*
X82494120Y28127960D03*
D27*
X82494120Y30667960D03*
X82494120Y33207960D03*
D26*
X86050120Y28127960D03*
D27*
X86050120Y30667960D03*
X86050120Y33207960D03*
D26*
X57602120Y24571960D03*
D27*
X57602120Y22031960D03*
X57602120Y19491960D03*
D26*
X61158120Y24571960D03*
D27*
X61158120Y22031960D03*
X61158120Y19491960D03*
D26*
X64714120Y24571960D03*
D27*
X64714120Y22031960D03*
X64714120Y19491960D03*
D26*
X68270120Y24571960D03*
D27*
X68270120Y22031960D03*
X68270120Y19491960D03*
D26*
X71826120Y24571960D03*
D27*
X71826120Y22031960D03*
X71826120Y19491960D03*
D26*
X75382120Y24571960D03*
D27*
X75382120Y22031960D03*
X75382120Y19491960D03*
D26*
X78938120Y24571960D03*
D27*
X78938120Y22031960D03*
X78938120Y19491960D03*
D26*
X82494120Y24571960D03*
D27*
X82494120Y22031960D03*
X82494120Y19491960D03*
D26*
X86050120Y24571960D03*
D27*
X86050120Y22031960D03*
X86050120Y19491960D03*
D28*
X82494120Y46365160D03*
D29*
X79954120Y46365160D03*
X77414120Y46365160D03*
X74874120Y46365160D03*
X72334120Y46365160D03*
D28*
X82494120Y42478960D03*
D29*
X79954120Y42478960D03*
X77414120Y42478960D03*
X74874120Y42478960D03*
D30*
X35758120Y36177220D03*
X35758120Y26174700D03*
X36266120Y17381220D03*
X36266120Y7378700D03*
D31*
X4008120Y20888960D03*
X3881120Y26222960D03*
D32*
X63052920Y40182800D03*
X64952920Y40182800D03*
X64002920Y42181780D03*
X65948520Y45415200D03*
X67848520Y45415200D03*
X66898520Y47414180D03*
D33*
X47561320Y5623560D03*
X49761320Y5623560D03*
X52336520Y5623560D03*
X54536520Y5623560D03*
D34*
X61793120Y45991960D03*
X61793120Y43791960D03*
X63901320Y45569960D03*
X63901320Y47769960D03*
D33*
X62953720Y38033960D03*
X65153720Y38033960D03*
X67068520Y42148760D03*
X69268520Y42148760D03*
X88760120Y24825960D03*
X90960120Y24825960D03*
D34*
X89148920Y22217560D03*
X89148920Y20017560D03*
D35*
X20772120Y37271960D03*
X20772120Y34731960D03*
X23312120Y36001960D03*
X23312120Y38541960D03*
X27122120Y41081960D03*
X27122120Y33461960D03*
X21661120Y18729960D03*
X21661120Y16189960D03*
X24201120Y17459960D03*
X24201120Y19999960D03*
X28011120Y22539960D03*
X28011120Y14919960D03*
D36*
X22296120Y49369960D03*
X21026120Y49369960D03*
X19756120Y49369960D03*
X18486120Y49369960D03*
X18486120Y43969960D03*
X19756120Y43969960D03*
X21026120Y43969960D03*
X22296120Y43969960D03*
D30*
X48966120Y47353220D03*
X48966120Y37350700D03*
D37*
X92019120Y29918660D03*
X92019120Y31417260D03*
X92019120Y21282660D03*
X92019120Y22781260D03*
D26*
X89606120Y28127960D03*
D27*
X89606120Y30667960D03*
X89606120Y33207960D03*
D38*
X64968120Y43621960D03*
X67508120Y39303960D03*
M02*
