G04 #@! TF.FileFunction,Legend,Bot*
%FSLAX46Y46*%
G04 Gerber Fmt 4.6, Leading zero omitted, Abs format (unit mm)*
G04 Created by KiCad (PCBNEW (2015-07-04 BZR 5884)-product) date Wed 15 Jul 2015 18:55:40 CEST*
%MOMM*%
G01*
G04 APERTURE LIST*
%ADD10C,0.050000*%
%ADD11C,0.300000*%
%ADD12C,0.010000*%
G04 APERTURE END LIST*
D10*
D11*
X90018930Y11450293D02*
X88828453Y11450293D01*
X90257025Y10736008D02*
X89423691Y13236008D01*
X88590358Y10736008D01*
X87757025Y12402674D02*
X87757025Y10736008D01*
X87757025Y12164579D02*
X87637977Y12283627D01*
X87399882Y12402674D01*
X87042739Y12402674D01*
X86804644Y12283627D01*
X86685596Y12045531D01*
X86685596Y10736008D01*
X85852263Y12402674D02*
X84899882Y12402674D01*
X85495120Y13236008D02*
X85495120Y11093150D01*
X85376072Y10855055D01*
X85137977Y10736008D01*
X84899882Y10736008D01*
X82995120Y10736008D02*
X82995120Y13236008D01*
X82995120Y10855055D02*
X83233216Y10736008D01*
X83709406Y10736008D01*
X83947501Y10855055D01*
X84066549Y10974103D01*
X84185597Y11212198D01*
X84185597Y11926484D01*
X84066549Y12164579D01*
X83947501Y12283627D01*
X83709406Y12402674D01*
X83233216Y12402674D01*
X82995120Y12283627D01*
X81804644Y10736008D02*
X81804644Y12402674D01*
X81804644Y11926484D02*
X81685596Y12164579D01*
X81566549Y12283627D01*
X81328453Y12402674D01*
X81090358Y12402674D01*
X79899882Y10736008D02*
X80137977Y10855055D01*
X80257025Y10974103D01*
X80376073Y11212198D01*
X80376073Y11926484D01*
X80257025Y12164579D01*
X80137977Y12283627D01*
X79899882Y12402674D01*
X79542739Y12402674D01*
X79304644Y12283627D01*
X79185596Y12164579D01*
X79066549Y11926484D01*
X79066549Y11212198D01*
X79185596Y10974103D01*
X79304644Y10855055D01*
X79542739Y10736008D01*
X79899882Y10736008D01*
X77995120Y10736008D02*
X77995120Y12402674D01*
X77995120Y13236008D02*
X78114168Y13116960D01*
X77995120Y12997912D01*
X77876072Y13116960D01*
X77995120Y13236008D01*
X77995120Y12997912D01*
X75733215Y10736008D02*
X75733215Y13236008D01*
X75733215Y10855055D02*
X75971311Y10736008D01*
X76447501Y10736008D01*
X76685596Y10855055D01*
X76804644Y10974103D01*
X76923692Y11212198D01*
X76923692Y11926484D01*
X76804644Y12164579D01*
X76685596Y12283627D01*
X76447501Y12402674D01*
X75971311Y12402674D01*
X75733215Y12283627D01*
X72637977Y10736008D02*
X72637977Y13236008D01*
X72637977Y12283627D02*
X72399882Y12402674D01*
X71923691Y12402674D01*
X71685596Y12283627D01*
X71566548Y12164579D01*
X71447501Y11926484D01*
X71447501Y11212198D01*
X71566548Y10974103D01*
X71685596Y10855055D01*
X71923691Y10736008D01*
X72399882Y10736008D01*
X72637977Y10855055D01*
X70018929Y10736008D02*
X70257024Y10855055D01*
X70376072Y10974103D01*
X70495120Y11212198D01*
X70495120Y11926484D01*
X70376072Y12164579D01*
X70257024Y12283627D01*
X70018929Y12402674D01*
X69661786Y12402674D01*
X69423691Y12283627D01*
X69304643Y12164579D01*
X69185596Y11926484D01*
X69185596Y11212198D01*
X69304643Y10974103D01*
X69423691Y10855055D01*
X69661786Y10736008D01*
X70018929Y10736008D01*
X67042738Y10736008D02*
X67042738Y12045531D01*
X67161786Y12283627D01*
X67399881Y12402674D01*
X67876072Y12402674D01*
X68114167Y12283627D01*
X67042738Y10855055D02*
X67280834Y10736008D01*
X67876072Y10736008D01*
X68114167Y10855055D01*
X68233215Y11093150D01*
X68233215Y11331246D01*
X68114167Y11569341D01*
X67876072Y11688389D01*
X67280834Y11688389D01*
X67042738Y11807436D01*
X65852262Y10736008D02*
X65852262Y12402674D01*
X65852262Y11926484D02*
X65733214Y12164579D01*
X65614167Y12283627D01*
X65376071Y12402674D01*
X65137976Y12402674D01*
X63233214Y10736008D02*
X63233214Y13236008D01*
X63233214Y10855055D02*
X63471310Y10736008D01*
X63947500Y10736008D01*
X64185595Y10855055D01*
X64304643Y10974103D01*
X64423691Y11212198D01*
X64423691Y11926484D01*
X64304643Y12164579D01*
X64185595Y12283627D01*
X63947500Y12402674D01*
X63471310Y12402674D01*
X63233214Y12283627D01*
X89899882Y6936008D02*
X89899882Y8602674D01*
X89899882Y8126484D02*
X89780834Y8364579D01*
X89661787Y8483627D01*
X89423691Y8602674D01*
X89185596Y8602674D01*
X87042739Y6936008D02*
X88471311Y6936008D01*
X87757025Y6936008D02*
X87757025Y9436008D01*
X87995120Y9078865D01*
X88233215Y8840770D01*
X88471311Y8721722D01*
D12*
X5080Y5080D02*
X99451160Y5080D01*
X5080Y53721000D02*
X5080Y5080D01*
X98054160Y53721000D02*
X5080Y53721000D01*
X99451160Y52324000D02*
X98054160Y53721000D01*
X99451160Y5080D02*
X99451160Y52324000D01*
M02*
