G04 #@! TF.FileFunction,Paste,Top*
%FSLAX46Y46*%
G04 Gerber Fmt 4.6, Leading zero omitted, Abs format (unit mm)*
G04 Created by KiCad (PCBNEW (2015-07-04 BZR 5884)-product) date Sun 12 Jul 2015 23:10:27 CEST*
%MOMM*%
G01*
G04 APERTURE LIST*
%ADD10C,0.100000*%
%ADD11R,3.599180X1.600200*%
%ADD12R,1.200000X0.750000*%
%ADD13R,0.750000X1.200000*%
%ADD14R,3.600000X3.200000*%
%ADD15R,0.797560X0.797560*%
%ADD16R,5.400040X2.900680*%
%ADD17R,0.800100X0.800100*%
%ADD18R,1.200000X0.900000*%
%ADD19R,0.900000X1.200000*%
%ADD20R,0.600000X1.500000*%
G04 APERTURE END LIST*
D10*
D11*
X103802180Y-77724000D03*
X109303820Y-77724000D03*
D12*
X124780000Y-90932000D03*
X126680000Y-90932000D03*
X125669000Y-108204000D03*
X127569000Y-108204000D03*
D13*
X123825000Y-81087000D03*
X123825000Y-79187000D03*
D14*
X139558200Y-81178400D03*
X131358200Y-81178400D03*
D15*
X190474600Y-94043500D03*
X190474600Y-95542100D03*
X190474600Y-106667300D03*
X190474600Y-105168700D03*
D16*
X135001000Y-90502740D03*
X135001000Y-100505260D03*
X135509000Y-109298740D03*
X135509000Y-119301260D03*
X148209000Y-79326740D03*
X148209000Y-89329260D03*
D17*
X162295800Y-86497160D03*
X164195800Y-86497160D03*
X163245800Y-84498180D03*
X165191400Y-81264760D03*
X167091400Y-81264760D03*
X166141400Y-79265780D03*
D18*
X146804200Y-121056400D03*
X149004200Y-121056400D03*
X151579400Y-121056400D03*
X153779400Y-121056400D03*
D19*
X160370520Y-86184920D03*
X160370520Y-83984920D03*
X163144200Y-81110000D03*
X163144200Y-78910000D03*
D18*
X162196600Y-88646000D03*
X164396600Y-88646000D03*
X166311400Y-84531200D03*
X168511400Y-84531200D03*
D19*
X188239400Y-95943600D03*
X188239400Y-93743600D03*
X188391800Y-104462400D03*
X188391800Y-106662400D03*
D20*
X121539000Y-77310000D03*
X120269000Y-77310000D03*
X118999000Y-77310000D03*
X117729000Y-77310000D03*
X117729000Y-82710000D03*
X118999000Y-82710000D03*
X120269000Y-82710000D03*
X121539000Y-82710000D03*
M02*
