M48
;DRILL file {KiCad (2015-07-04 BZR 5884)-product} date Tue 14 Jul 2015 20:09:14 CEST
;FORMAT={-:-/ absolute / metric / decimal}
FMAT,2
METRIC,TZ
T1C0.400
T2C0.800
T3C0.813
T4C0.900
T5C1.001
T6C1.016
T7C1.200
T8C3.048
%
G90
G05
M71
T1
X64.968Y43.622
X67.508Y39.304
T2
X4.135Y39.812
X4.897Y9.84
X9.135Y39.812
X9.469Y29.779
X9.897Y9.84
X10.739Y18.984
X14.469Y29.779
X15.739Y18.984
X57.907Y47.026
X57.907Y45.026
T3
X24.074Y50.988
X26.614Y50.988
X29.154Y50.988
X31.694Y50.988
X33.218Y2.728
X34.234Y50.988
X35.758Y2.728
X36.774Y50.988
X38.298Y2.728
X39.314Y50.988
X40.838Y2.728
X41.854Y50.988
X43.378Y2.728
X45.918Y50.988
X45.918Y2.728
X48.458Y50.988
X50.998Y50.988
X50.998Y2.728
X53.538Y50.988
X53.538Y2.728
X56.078Y50.988
X56.078Y2.728
X58.618Y50.988
X58.618Y2.728
X61.158Y50.988
X61.158Y2.728
X63.698Y50.988
X63.698Y2.728
X66.238Y2.728
X68.778Y50.988
X68.778Y2.728
X71.318Y50.988
X73.858Y50.988
X73.858Y2.728
X76.398Y50.988
X76.398Y2.728
X78.938Y50.988
X78.938Y2.728
X81.478Y50.988
X81.478Y2.728
X84.018Y50.988
X84.018Y2.728
X86.558Y50.988
X86.558Y2.728
X89.098Y2.728
X91.638Y2.728
X94.178Y50.988
X94.178Y48.448
X94.178Y45.908
X94.178Y43.368
X94.178Y40.828
X94.178Y38.288
X94.178Y35.748
X94.178Y33.208
X94.178Y30.668
X94.178Y28.128
X94.178Y25.588
X94.178Y23.048
X94.178Y20.508
X94.178Y17.968
X94.178Y15.428
X94.178Y12.888
X94.178Y10.348
X94.178Y7.808
X96.718Y50.988
X96.718Y48.448
X96.718Y45.908
X96.718Y43.368
X96.718Y40.828
X96.718Y38.288
X96.718Y35.748
X96.718Y33.208
X96.718Y30.668
X96.718Y28.128
X96.718Y25.588
X96.718Y23.048
X96.718Y20.508
X96.718Y17.968
X96.718Y15.428
X96.718Y12.888
X96.718Y10.348
X96.718Y7.808
T4
X14.549Y41.51
X14.549Y36.51
X15.565Y11.872
X15.565Y6.872
T5
X20.772Y28.484
X22.042Y10.411
X25.852Y28.484
X27.122Y10.411
T6
X20.772Y37.272
X20.772Y34.732
X21.661Y18.73
X21.661Y16.19
X23.312Y38.542
X23.312Y36.002
X24.201Y20.
X24.201Y17.46
X27.122Y41.082
X27.122Y33.462
X28.011Y22.54
X28.011Y14.92
X57.602Y33.208
X57.602Y30.668
X57.602Y28.128
X57.602Y24.572
X57.602Y22.032
X57.602Y19.492
X61.158Y33.208
X61.158Y30.668
X61.158Y28.128
X61.158Y24.572
X61.158Y22.032
X61.158Y19.492
X64.714Y33.208
X64.714Y30.668
X64.714Y28.128
X64.714Y24.572
X64.714Y22.032
X64.714Y19.492
X68.27Y33.208
X68.27Y30.668
X68.27Y28.128
X68.27Y24.572
X68.27Y22.032
X68.27Y19.492
X71.826Y33.208
X71.826Y30.668
X71.826Y28.128
X71.826Y24.572
X71.826Y22.032
X71.826Y19.492
X72.334Y46.365
X74.874Y46.365
X74.874Y42.479
X75.382Y33.208
X75.382Y30.668
X75.382Y28.128
X75.382Y24.572
X75.382Y22.032
X75.382Y19.492
X77.414Y46.365
X77.414Y42.479
X78.938Y33.208
X78.938Y30.668
X78.938Y28.128
X78.938Y24.572
X78.938Y22.032
X78.938Y19.492
X79.954Y46.365
X79.954Y42.479
X82.494Y46.365
X82.494Y42.479
X82.494Y33.208
X82.494Y30.668
X82.494Y28.128
X82.494Y24.572
X82.494Y22.032
X82.494Y19.492
X86.05Y33.208
X86.05Y30.668
X86.05Y28.128
X86.05Y24.572
X86.05Y22.032
X86.05Y19.492
X89.606Y33.208
X89.606Y30.668
X89.606Y28.128
T7
X48.585Y30.668
X48.585Y25.668
X48.966Y15.936
X48.966Y10.936
T8
X3.881Y26.223
X4.008Y20.889
T0
M30
